G04 #@! TF.GenerationSoftware,KiCad,Pcbnew,8.0.3*
G04 #@! TF.CreationDate,2024-07-03T11:21:14-05:00*
G04 #@! TF.ProjectId,JiggleBilly,4a696767-6c65-4426-996c-6c792e6b6963,rev?*
G04 #@! TF.SameCoordinates,Original*
G04 #@! TF.FileFunction,Copper,L1,Top*
G04 #@! TF.FilePolarity,Positive*
%FSLAX46Y46*%
G04 Gerber Fmt 4.6, Leading zero omitted, Abs format (unit mm)*
G04 Created by KiCad (PCBNEW 8.0.3) date 2024-07-03 11:21:14*
%MOMM*%
%LPD*%
G01*
G04 APERTURE LIST*
G04 #@! TA.AperFunction,EtchedComponent*
%ADD10C,0.010000*%
G04 #@! TD*
G04 #@! TA.AperFunction,ComponentPad*
%ADD11O,1.727200X1.727200*%
G04 #@! TD*
G04 #@! TA.AperFunction,ComponentPad*
%ADD12R,1.727200X1.727200*%
G04 #@! TD*
G04 #@! TA.AperFunction,ComponentPad*
%ADD13C,1.727200*%
G04 #@! TD*
G04 APERTURE END LIST*
D10*
X121555615Y-81164715D02*
X121636984Y-81262837D01*
X121688244Y-81402520D01*
X121707315Y-81564251D01*
X121692117Y-81728514D01*
X121640570Y-81875794D01*
X121550592Y-81986575D01*
X121538719Y-81995374D01*
X121425639Y-82052066D01*
X121331455Y-82036289D01*
X121257406Y-81976699D01*
X121172843Y-81846144D01*
X121134897Y-81686209D01*
X121139209Y-81516507D01*
X121181416Y-81356652D01*
X121257156Y-81226257D01*
X121362068Y-81144936D01*
X121446218Y-81127672D01*
X121555615Y-81164715D01*
G04 #@! TA.AperFunction,EtchedComponent*
G36*
X121555615Y-81164715D02*
G01*
X121636984Y-81262837D01*
X121688244Y-81402520D01*
X121707315Y-81564251D01*
X121692117Y-81728514D01*
X121640570Y-81875794D01*
X121550592Y-81986575D01*
X121538719Y-81995374D01*
X121425639Y-82052066D01*
X121331455Y-82036289D01*
X121257406Y-81976699D01*
X121172843Y-81846144D01*
X121134897Y-81686209D01*
X121139209Y-81516507D01*
X121181416Y-81356652D01*
X121257156Y-81226257D01*
X121362068Y-81144936D01*
X121446218Y-81127672D01*
X121555615Y-81164715D01*
G37*
G04 #@! TD.AperFunction*
X113808568Y-104765540D02*
X113966136Y-104812750D01*
X114097390Y-104864305D01*
X114247021Y-104920492D01*
X114382733Y-104955217D01*
X114534579Y-104973463D01*
X114732613Y-104980216D01*
X114799212Y-104980722D01*
X115222545Y-104982505D01*
X115222545Y-105431126D01*
X115219933Y-105664760D01*
X115205930Y-105826701D01*
X115171285Y-105929898D01*
X115106747Y-105987298D01*
X115003065Y-106011849D01*
X114850988Y-106016498D01*
X114804612Y-106016071D01*
X114613701Y-106006009D01*
X114421282Y-105983476D01*
X114291212Y-105958399D01*
X114056306Y-105890161D01*
X113877160Y-105816280D01*
X113725144Y-105724294D01*
X113684545Y-105694363D01*
X113515984Y-105529322D01*
X113413519Y-105349062D01*
X113380033Y-105166747D01*
X113418410Y-104995543D01*
X113504789Y-104873415D01*
X113597854Y-104795566D01*
X113692460Y-104759710D01*
X113808568Y-104765540D01*
G04 #@! TA.AperFunction,EtchedComponent*
G36*
X113808568Y-104765540D02*
G01*
X113966136Y-104812750D01*
X114097390Y-104864305D01*
X114247021Y-104920492D01*
X114382733Y-104955217D01*
X114534579Y-104973463D01*
X114732613Y-104980216D01*
X114799212Y-104980722D01*
X115222545Y-104982505D01*
X115222545Y-105431126D01*
X115219933Y-105664760D01*
X115205930Y-105826701D01*
X115171285Y-105929898D01*
X115106747Y-105987298D01*
X115003065Y-106011849D01*
X114850988Y-106016498D01*
X114804612Y-106016071D01*
X114613701Y-106006009D01*
X114421282Y-105983476D01*
X114291212Y-105958399D01*
X114056306Y-105890161D01*
X113877160Y-105816280D01*
X113725144Y-105724294D01*
X113684545Y-105694363D01*
X113515984Y-105529322D01*
X113413519Y-105349062D01*
X113380033Y-105166747D01*
X113418410Y-104995543D01*
X113504789Y-104873415D01*
X113597854Y-104795566D01*
X113692460Y-104759710D01*
X113808568Y-104765540D01*
G37*
G04 #@! TD.AperFunction*
X119909026Y-104065768D02*
X119993642Y-104163652D01*
X120098527Y-104309546D01*
X120215394Y-104489338D01*
X120335957Y-104688918D01*
X120451931Y-104894176D01*
X120555027Y-105091000D01*
X120636961Y-105265281D01*
X120689444Y-105402907D01*
X120704712Y-105480423D01*
X120675417Y-105585412D01*
X120582977Y-105680531D01*
X120420554Y-105770563D01*
X120181314Y-105860292D01*
X120145404Y-105871808D01*
X119831219Y-105958027D01*
X119500898Y-106025781D01*
X119171189Y-106073530D01*
X118858837Y-106099735D01*
X118580589Y-106102856D01*
X118353192Y-106081356D01*
X118226231Y-106048201D01*
X117955518Y-105907441D01*
X117736218Y-105718487D01*
X117658950Y-105620758D01*
X117586144Y-105496627D01*
X117513626Y-105343011D01*
X117449458Y-105181699D01*
X117401703Y-105034485D01*
X117378422Y-104923159D01*
X117382871Y-104874526D01*
X117435217Y-104853362D01*
X117546458Y-104838646D01*
X117669794Y-104833925D01*
X117910968Y-104805705D01*
X118158277Y-104730031D01*
X118377417Y-104619303D01*
X118482212Y-104540202D01*
X118544493Y-104505081D01*
X118669678Y-104449492D01*
X118840405Y-104379899D01*
X119039307Y-104302765D01*
X119249021Y-104224553D01*
X119452182Y-104151725D01*
X119631426Y-104090746D01*
X119769388Y-104048078D01*
X119848704Y-104030183D01*
X119852965Y-104030005D01*
X119909026Y-104065768D01*
G04 #@! TA.AperFunction,EtchedComponent*
G36*
X119909026Y-104065768D02*
G01*
X119993642Y-104163652D01*
X120098527Y-104309546D01*
X120215394Y-104489338D01*
X120335957Y-104688918D01*
X120451931Y-104894176D01*
X120555027Y-105091000D01*
X120636961Y-105265281D01*
X120689444Y-105402907D01*
X120704712Y-105480423D01*
X120675417Y-105585412D01*
X120582977Y-105680531D01*
X120420554Y-105770563D01*
X120181314Y-105860292D01*
X120145404Y-105871808D01*
X119831219Y-105958027D01*
X119500898Y-106025781D01*
X119171189Y-106073530D01*
X118858837Y-106099735D01*
X118580589Y-106102856D01*
X118353192Y-106081356D01*
X118226231Y-106048201D01*
X117955518Y-105907441D01*
X117736218Y-105718487D01*
X117658950Y-105620758D01*
X117586144Y-105496627D01*
X117513626Y-105343011D01*
X117449458Y-105181699D01*
X117401703Y-105034485D01*
X117378422Y-104923159D01*
X117382871Y-104874526D01*
X117435217Y-104853362D01*
X117546458Y-104838646D01*
X117669794Y-104833925D01*
X117910968Y-104805705D01*
X118158277Y-104730031D01*
X118377417Y-104619303D01*
X118482212Y-104540202D01*
X118544493Y-104505081D01*
X118669678Y-104449492D01*
X118840405Y-104379899D01*
X119039307Y-104302765D01*
X119249021Y-104224553D01*
X119452182Y-104151725D01*
X119631426Y-104090746D01*
X119769388Y-104048078D01*
X119848704Y-104030183D01*
X119852965Y-104030005D01*
X119909026Y-104065768D01*
G37*
G04 #@! TD.AperFunction*
X101911292Y-85148433D02*
X101983579Y-85170009D01*
X101993379Y-85186634D01*
X101954329Y-85204508D01*
X101847738Y-85233266D01*
X101689442Y-85269077D01*
X101495279Y-85308113D01*
X101475577Y-85311844D01*
X100999934Y-85427844D01*
X100479068Y-85603944D01*
X99923285Y-85836333D01*
X99479826Y-86050310D01*
X98994365Y-86330131D01*
X98541024Y-86655332D01*
X98130683Y-87015538D01*
X97774220Y-87400374D01*
X97482515Y-87799466D01*
X97299575Y-88129437D01*
X97116118Y-88613614D01*
X97002998Y-89132729D01*
X96960578Y-89674055D01*
X96989220Y-90224862D01*
X97089289Y-90772424D01*
X97212676Y-91176753D01*
X97414926Y-91626138D01*
X97680570Y-92043022D01*
X97999298Y-92416044D01*
X98360801Y-92733844D01*
X98754769Y-92985061D01*
X98929921Y-93069062D01*
X99425680Y-93273258D01*
X99871399Y-93432104D01*
X100285637Y-93549874D01*
X100686954Y-93630843D01*
X101093906Y-93679286D01*
X101525055Y-93699478D01*
X101671945Y-93700672D01*
X101958366Y-93703719D01*
X102172687Y-93712574D01*
X102312472Y-93726808D01*
X102375283Y-93745990D01*
X102358682Y-93769691D01*
X102260233Y-93797481D01*
X102242087Y-93801213D01*
X102126351Y-93813730D01*
X101947489Y-93820657D01*
X101726837Y-93822295D01*
X101485731Y-93818943D01*
X101245506Y-93810902D01*
X101027499Y-93798474D01*
X100853045Y-93781957D01*
X100850379Y-93781617D01*
X100446828Y-93715899D01*
X100023738Y-93622083D01*
X99597976Y-93505709D01*
X99186406Y-93372316D01*
X98805897Y-93227445D01*
X98473313Y-93076636D01*
X98205523Y-92925429D01*
X98168637Y-92900759D01*
X98004709Y-92774295D01*
X97804179Y-92598783D01*
X97583755Y-92390952D01*
X97360143Y-92167534D01*
X97150048Y-91945256D01*
X96970177Y-91740851D01*
X96837237Y-91571047D01*
X96828896Y-91559121D01*
X96633686Y-91244585D01*
X96463806Y-90908390D01*
X96330304Y-90575533D01*
X96244228Y-90271007D01*
X96232763Y-90210360D01*
X96208145Y-89971992D01*
X96201996Y-89683372D01*
X96212905Y-89374764D01*
X96239465Y-89076432D01*
X96280267Y-88818640D01*
X96301773Y-88728031D01*
X96448589Y-88310454D01*
X96657603Y-87893025D01*
X96788115Y-87683530D01*
X96865727Y-87581367D01*
X96984781Y-87441375D01*
X97135291Y-87273779D01*
X97307274Y-87088803D01*
X97490747Y-86896671D01*
X97675726Y-86707606D01*
X97852227Y-86531834D01*
X98010267Y-86379577D01*
X98139861Y-86261060D01*
X98231026Y-86186507D01*
X98270618Y-86165338D01*
X98336800Y-86141602D01*
X98433018Y-86082959D01*
X98454549Y-86067359D01*
X98569736Y-85991604D01*
X98741354Y-85891430D01*
X98948862Y-85777688D01*
X99171720Y-85661226D01*
X99389387Y-85552894D01*
X99581321Y-85463542D01*
X99666403Y-85427261D01*
X99923866Y-85343640D01*
X100252145Y-85271143D01*
X100637852Y-85212070D01*
X101067597Y-85168721D01*
X101240641Y-85156791D01*
X101543337Y-85141963D01*
X101765716Y-85139131D01*
X101911292Y-85148433D01*
G04 #@! TA.AperFunction,EtchedComponent*
G36*
X101911292Y-85148433D02*
G01*
X101983579Y-85170009D01*
X101993379Y-85186634D01*
X101954329Y-85204508D01*
X101847738Y-85233266D01*
X101689442Y-85269077D01*
X101495279Y-85308113D01*
X101475577Y-85311844D01*
X100999934Y-85427844D01*
X100479068Y-85603944D01*
X99923285Y-85836333D01*
X99479826Y-86050310D01*
X98994365Y-86330131D01*
X98541024Y-86655332D01*
X98130683Y-87015538D01*
X97774220Y-87400374D01*
X97482515Y-87799466D01*
X97299575Y-88129437D01*
X97116118Y-88613614D01*
X97002998Y-89132729D01*
X96960578Y-89674055D01*
X96989220Y-90224862D01*
X97089289Y-90772424D01*
X97212676Y-91176753D01*
X97414926Y-91626138D01*
X97680570Y-92043022D01*
X97999298Y-92416044D01*
X98360801Y-92733844D01*
X98754769Y-92985061D01*
X98929921Y-93069062D01*
X99425680Y-93273258D01*
X99871399Y-93432104D01*
X100285637Y-93549874D01*
X100686954Y-93630843D01*
X101093906Y-93679286D01*
X101525055Y-93699478D01*
X101671945Y-93700672D01*
X101958366Y-93703719D01*
X102172687Y-93712574D01*
X102312472Y-93726808D01*
X102375283Y-93745990D01*
X102358682Y-93769691D01*
X102260233Y-93797481D01*
X102242087Y-93801213D01*
X102126351Y-93813730D01*
X101947489Y-93820657D01*
X101726837Y-93822295D01*
X101485731Y-93818943D01*
X101245506Y-93810902D01*
X101027499Y-93798474D01*
X100853045Y-93781957D01*
X100850379Y-93781617D01*
X100446828Y-93715899D01*
X100023738Y-93622083D01*
X99597976Y-93505709D01*
X99186406Y-93372316D01*
X98805897Y-93227445D01*
X98473313Y-93076636D01*
X98205523Y-92925429D01*
X98168637Y-92900759D01*
X98004709Y-92774295D01*
X97804179Y-92598783D01*
X97583755Y-92390952D01*
X97360143Y-92167534D01*
X97150048Y-91945256D01*
X96970177Y-91740851D01*
X96837237Y-91571047D01*
X96828896Y-91559121D01*
X96633686Y-91244585D01*
X96463806Y-90908390D01*
X96330304Y-90575533D01*
X96244228Y-90271007D01*
X96232763Y-90210360D01*
X96208145Y-89971992D01*
X96201996Y-89683372D01*
X96212905Y-89374764D01*
X96239465Y-89076432D01*
X96280267Y-88818640D01*
X96301773Y-88728031D01*
X96448589Y-88310454D01*
X96657603Y-87893025D01*
X96788115Y-87683530D01*
X96865727Y-87581367D01*
X96984781Y-87441375D01*
X97135291Y-87273779D01*
X97307274Y-87088803D01*
X97490747Y-86896671D01*
X97675726Y-86707606D01*
X97852227Y-86531834D01*
X98010267Y-86379577D01*
X98139861Y-86261060D01*
X98231026Y-86186507D01*
X98270618Y-86165338D01*
X98336800Y-86141602D01*
X98433018Y-86082959D01*
X98454549Y-86067359D01*
X98569736Y-85991604D01*
X98741354Y-85891430D01*
X98948862Y-85777688D01*
X99171720Y-85661226D01*
X99389387Y-85552894D01*
X99581321Y-85463542D01*
X99666403Y-85427261D01*
X99923866Y-85343640D01*
X100252145Y-85271143D01*
X100637852Y-85212070D01*
X101067597Y-85168721D01*
X101240641Y-85156791D01*
X101543337Y-85141963D01*
X101765716Y-85139131D01*
X101911292Y-85148433D01*
G37*
G04 #@! TD.AperFunction*
X122185699Y-82586042D02*
X122865362Y-82727605D01*
X123543342Y-82946052D01*
X124203443Y-83234856D01*
X124829469Y-83587488D01*
X125075032Y-83750745D01*
X125320497Y-83938644D01*
X125597666Y-84178537D01*
X125889390Y-84453263D01*
X126178521Y-84745664D01*
X126447911Y-85038581D01*
X126680411Y-85314854D01*
X126811213Y-85488005D01*
X127178929Y-86068455D01*
X127469698Y-86664424D01*
X127681125Y-87269994D01*
X127810818Y-87879247D01*
X127826532Y-87999254D01*
X127844890Y-88267482D01*
X127846818Y-88593643D01*
X127833898Y-88952941D01*
X127807712Y-89320580D01*
X127769844Y-89671766D01*
X127721876Y-89981703D01*
X127690441Y-90131164D01*
X127522720Y-90682959D01*
X127285288Y-91239537D01*
X126988504Y-91778168D01*
X126827499Y-92024400D01*
X126620847Y-92303131D01*
X126378105Y-92596752D01*
X126109174Y-92895942D01*
X125823956Y-93191379D01*
X125532353Y-93473742D01*
X125244267Y-93733711D01*
X124969600Y-93961964D01*
X124718255Y-94149180D01*
X124500132Y-94286038D01*
X124352296Y-94354397D01*
X124240983Y-94382532D01*
X124068120Y-94409455D01*
X123830162Y-94435439D01*
X123523563Y-94460760D01*
X123144775Y-94485694D01*
X122690252Y-94510515D01*
X122156448Y-94535497D01*
X121847712Y-94548588D01*
X121327381Y-94571715D01*
X120861973Y-94595926D01*
X120457260Y-94620828D01*
X120119015Y-94646026D01*
X119853011Y-94671124D01*
X119665020Y-94695727D01*
X119643682Y-94699391D01*
X119498212Y-94725482D01*
X119716895Y-94519993D01*
X119855517Y-94395855D01*
X120030063Y-94248099D01*
X120208528Y-94103650D01*
X120254916Y-94067405D01*
X120444711Y-93910476D01*
X120669961Y-93708233D01*
X120915712Y-93475635D01*
X121167015Y-93227639D01*
X121408916Y-92979201D01*
X121626465Y-92745280D01*
X121804708Y-92540832D01*
X121896993Y-92424726D01*
X122117996Y-92115759D01*
X122299875Y-91826862D01*
X122451759Y-91538226D01*
X122582779Y-91230042D01*
X122702062Y-90882499D01*
X122818738Y-90475788D01*
X122850180Y-90356338D01*
X122980742Y-89696635D01*
X123030036Y-89043557D01*
X122999028Y-88402328D01*
X122888686Y-87778170D01*
X122699977Y-87176306D01*
X122433865Y-86601959D01*
X122091319Y-86060351D01*
X122042992Y-85994968D01*
X121576532Y-85444178D01*
X121046950Y-84946196D01*
X120460146Y-84504795D01*
X119822019Y-84123747D01*
X119138469Y-83806825D01*
X118415395Y-83557802D01*
X118101212Y-83474336D01*
X117873799Y-83424689D01*
X117662965Y-83393296D01*
X117436091Y-83376697D01*
X117160562Y-83371430D01*
X117131073Y-83371393D01*
X116929525Y-83369758D01*
X116764980Y-83365322D01*
X116652357Y-83358726D01*
X116606572Y-83350608D01*
X116606702Y-83348903D01*
X116652933Y-83338008D01*
X116772322Y-83318399D01*
X116953984Y-83291625D01*
X117187035Y-83259230D01*
X117460590Y-83222763D01*
X117763764Y-83183769D01*
X117809675Y-83177979D01*
X118170113Y-83129788D01*
X118589084Y-83069036D01*
X119042061Y-82999578D01*
X119504516Y-82925270D01*
X119951923Y-82849966D01*
X120359753Y-82777520D01*
X120371378Y-82775383D01*
X121752545Y-82521276D01*
X122185699Y-82586042D01*
G04 #@! TA.AperFunction,EtchedComponent*
G36*
X122185699Y-82586042D02*
G01*
X122865362Y-82727605D01*
X123543342Y-82946052D01*
X124203443Y-83234856D01*
X124829469Y-83587488D01*
X125075032Y-83750745D01*
X125320497Y-83938644D01*
X125597666Y-84178537D01*
X125889390Y-84453263D01*
X126178521Y-84745664D01*
X126447911Y-85038581D01*
X126680411Y-85314854D01*
X126811213Y-85488005D01*
X127178929Y-86068455D01*
X127469698Y-86664424D01*
X127681125Y-87269994D01*
X127810818Y-87879247D01*
X127826532Y-87999254D01*
X127844890Y-88267482D01*
X127846818Y-88593643D01*
X127833898Y-88952941D01*
X127807712Y-89320580D01*
X127769844Y-89671766D01*
X127721876Y-89981703D01*
X127690441Y-90131164D01*
X127522720Y-90682959D01*
X127285288Y-91239537D01*
X126988504Y-91778168D01*
X126827499Y-92024400D01*
X126620847Y-92303131D01*
X126378105Y-92596752D01*
X126109174Y-92895942D01*
X125823956Y-93191379D01*
X125532353Y-93473742D01*
X125244267Y-93733711D01*
X124969600Y-93961964D01*
X124718255Y-94149180D01*
X124500132Y-94286038D01*
X124352296Y-94354397D01*
X124240983Y-94382532D01*
X124068120Y-94409455D01*
X123830162Y-94435439D01*
X123523563Y-94460760D01*
X123144775Y-94485694D01*
X122690252Y-94510515D01*
X122156448Y-94535497D01*
X121847712Y-94548588D01*
X121327381Y-94571715D01*
X120861973Y-94595926D01*
X120457260Y-94620828D01*
X120119015Y-94646026D01*
X119853011Y-94671124D01*
X119665020Y-94695727D01*
X119643682Y-94699391D01*
X119498212Y-94725482D01*
X119716895Y-94519993D01*
X119855517Y-94395855D01*
X120030063Y-94248099D01*
X120208528Y-94103650D01*
X120254916Y-94067405D01*
X120444711Y-93910476D01*
X120669961Y-93708233D01*
X120915712Y-93475635D01*
X121167015Y-93227639D01*
X121408916Y-92979201D01*
X121626465Y-92745280D01*
X121804708Y-92540832D01*
X121896993Y-92424726D01*
X122117996Y-92115759D01*
X122299875Y-91826862D01*
X122451759Y-91538226D01*
X122582779Y-91230042D01*
X122702062Y-90882499D01*
X122818738Y-90475788D01*
X122850180Y-90356338D01*
X122980742Y-89696635D01*
X123030036Y-89043557D01*
X122999028Y-88402328D01*
X122888686Y-87778170D01*
X122699977Y-87176306D01*
X122433865Y-86601959D01*
X122091319Y-86060351D01*
X122042992Y-85994968D01*
X121576532Y-85444178D01*
X121046950Y-84946196D01*
X120460146Y-84504795D01*
X119822019Y-84123747D01*
X119138469Y-83806825D01*
X118415395Y-83557802D01*
X118101212Y-83474336D01*
X117873799Y-83424689D01*
X117662965Y-83393296D01*
X117436091Y-83376697D01*
X117160562Y-83371430D01*
X117131073Y-83371393D01*
X116929525Y-83369758D01*
X116764980Y-83365322D01*
X116652357Y-83358726D01*
X116606572Y-83350608D01*
X116606702Y-83348903D01*
X116652933Y-83338008D01*
X116772322Y-83318399D01*
X116953984Y-83291625D01*
X117187035Y-83259230D01*
X117460590Y-83222763D01*
X117763764Y-83183769D01*
X117809675Y-83177979D01*
X118170113Y-83129788D01*
X118589084Y-83069036D01*
X119042061Y-82999578D01*
X119504516Y-82925270D01*
X119951923Y-82849966D01*
X120359753Y-82777520D01*
X120371378Y-82775383D01*
X121752545Y-82521276D01*
X122185699Y-82586042D01*
G37*
G04 #@! TD.AperFunction*
X116835139Y-85032034D02*
X117094349Y-85041128D01*
X117324646Y-85056152D01*
X117508155Y-85076681D01*
X117627007Y-85102290D01*
X117635545Y-85105471D01*
X117767122Y-85148113D01*
X117914881Y-85182797D01*
X117925016Y-85184611D01*
X118030259Y-85212418D01*
X118089952Y-85246452D01*
X118094349Y-85255172D01*
X118055467Y-85270797D01*
X117937225Y-85285758D01*
X117744932Y-85299673D01*
X117483894Y-85312162D01*
X117159418Y-85322843D01*
X117148712Y-85323133D01*
X116821516Y-85332949D01*
X116562211Y-85343755D01*
X116354021Y-85357194D01*
X116180173Y-85374906D01*
X116023893Y-85398532D01*
X115868406Y-85429713D01*
X115730545Y-85461872D01*
X115171900Y-85638958D01*
X114633142Y-85890070D01*
X114122872Y-86207237D01*
X113649691Y-86582486D01*
X113222200Y-87007844D01*
X112849000Y-87475340D01*
X112538693Y-87977001D01*
X112299878Y-88504854D01*
X112231316Y-88705338D01*
X112190668Y-88846549D01*
X112163005Y-88977813D01*
X112146135Y-89120666D01*
X112137867Y-89296647D01*
X112136009Y-89527294D01*
X112136548Y-89636672D01*
X112149316Y-90026117D01*
X112185222Y-90357696D01*
X112249714Y-90656335D01*
X112348236Y-90946967D01*
X112486236Y-91254519D01*
X112492969Y-91268161D01*
X112696768Y-91620990D01*
X112950837Y-91967216D01*
X113241633Y-92293747D01*
X113555614Y-92587493D01*
X113879238Y-92835362D01*
X114198962Y-93024263D01*
X114397045Y-93108791D01*
X114492500Y-93143748D01*
X114646580Y-93201519D01*
X114838927Y-93274423D01*
X115049182Y-93354773D01*
X115074379Y-93364446D01*
X115640833Y-93550786D01*
X116178059Y-93662492D01*
X116693704Y-93701145D01*
X116704212Y-93701184D01*
X116878193Y-93705256D01*
X116971402Y-93716839D01*
X116987446Y-93736481D01*
X116979379Y-93743005D01*
X116892016Y-93767991D01*
X116729882Y-93777226D01*
X116490373Y-93770707D01*
X116170884Y-93748426D01*
X116085412Y-93741035D01*
X115517531Y-93663175D01*
X114948868Y-93533754D01*
X114397452Y-93358953D01*
X113881312Y-93144955D01*
X113418477Y-92897942D01*
X113190545Y-92748388D01*
X113073265Y-92655300D01*
X112914591Y-92515613D01*
X112730999Y-92344533D01*
X112538967Y-92157262D01*
X112426386Y-92043283D01*
X112232369Y-91841512D01*
X112086061Y-91681715D01*
X111974565Y-91546749D01*
X111884984Y-91419466D01*
X111804419Y-91282722D01*
X111719974Y-91119370D01*
X111698079Y-91075077D01*
X111561833Y-90785369D01*
X111463494Y-90538268D01*
X111397338Y-90308449D01*
X111357644Y-90070589D01*
X111338688Y-89799364D01*
X111334748Y-89469450D01*
X111334758Y-89467338D01*
X111342738Y-89117358D01*
X111366143Y-88829024D01*
X111409585Y-88580006D01*
X111477681Y-88347976D01*
X111575043Y-88110606D01*
X111645329Y-87964505D01*
X111850172Y-87609113D01*
X112112820Y-87236441D01*
X112415597Y-86867564D01*
X112740828Y-86523559D01*
X113070839Y-86225501D01*
X113169379Y-86147237D01*
X113713310Y-85783204D01*
X114306575Y-85486261D01*
X114944519Y-85258278D01*
X115622488Y-85101127D01*
X115866588Y-85063445D01*
X116062738Y-85044575D01*
X116301461Y-85033332D01*
X116564885Y-85029294D01*
X116835139Y-85032034D01*
G04 #@! TA.AperFunction,EtchedComponent*
G36*
X116835139Y-85032034D02*
G01*
X117094349Y-85041128D01*
X117324646Y-85056152D01*
X117508155Y-85076681D01*
X117627007Y-85102290D01*
X117635545Y-85105471D01*
X117767122Y-85148113D01*
X117914881Y-85182797D01*
X117925016Y-85184611D01*
X118030259Y-85212418D01*
X118089952Y-85246452D01*
X118094349Y-85255172D01*
X118055467Y-85270797D01*
X117937225Y-85285758D01*
X117744932Y-85299673D01*
X117483894Y-85312162D01*
X117159418Y-85322843D01*
X117148712Y-85323133D01*
X116821516Y-85332949D01*
X116562211Y-85343755D01*
X116354021Y-85357194D01*
X116180173Y-85374906D01*
X116023893Y-85398532D01*
X115868406Y-85429713D01*
X115730545Y-85461872D01*
X115171900Y-85638958D01*
X114633142Y-85890070D01*
X114122872Y-86207237D01*
X113649691Y-86582486D01*
X113222200Y-87007844D01*
X112849000Y-87475340D01*
X112538693Y-87977001D01*
X112299878Y-88504854D01*
X112231316Y-88705338D01*
X112190668Y-88846549D01*
X112163005Y-88977813D01*
X112146135Y-89120666D01*
X112137867Y-89296647D01*
X112136009Y-89527294D01*
X112136548Y-89636672D01*
X112149316Y-90026117D01*
X112185222Y-90357696D01*
X112249714Y-90656335D01*
X112348236Y-90946967D01*
X112486236Y-91254519D01*
X112492969Y-91268161D01*
X112696768Y-91620990D01*
X112950837Y-91967216D01*
X113241633Y-92293747D01*
X113555614Y-92587493D01*
X113879238Y-92835362D01*
X114198962Y-93024263D01*
X114397045Y-93108791D01*
X114492500Y-93143748D01*
X114646580Y-93201519D01*
X114838927Y-93274423D01*
X115049182Y-93354773D01*
X115074379Y-93364446D01*
X115640833Y-93550786D01*
X116178059Y-93662492D01*
X116693704Y-93701145D01*
X116704212Y-93701184D01*
X116878193Y-93705256D01*
X116971402Y-93716839D01*
X116987446Y-93736481D01*
X116979379Y-93743005D01*
X116892016Y-93767991D01*
X116729882Y-93777226D01*
X116490373Y-93770707D01*
X116170884Y-93748426D01*
X116085412Y-93741035D01*
X115517531Y-93663175D01*
X114948868Y-93533754D01*
X114397452Y-93358953D01*
X113881312Y-93144955D01*
X113418477Y-92897942D01*
X113190545Y-92748388D01*
X113073265Y-92655300D01*
X112914591Y-92515613D01*
X112730999Y-92344533D01*
X112538967Y-92157262D01*
X112426386Y-92043283D01*
X112232369Y-91841512D01*
X112086061Y-91681715D01*
X111974565Y-91546749D01*
X111884984Y-91419466D01*
X111804419Y-91282722D01*
X111719974Y-91119370D01*
X111698079Y-91075077D01*
X111561833Y-90785369D01*
X111463494Y-90538268D01*
X111397338Y-90308449D01*
X111357644Y-90070589D01*
X111338688Y-89799364D01*
X111334748Y-89469450D01*
X111334758Y-89467338D01*
X111342738Y-89117358D01*
X111366143Y-88829024D01*
X111409585Y-88580006D01*
X111477681Y-88347976D01*
X111575043Y-88110606D01*
X111645329Y-87964505D01*
X111850172Y-87609113D01*
X112112820Y-87236441D01*
X112415597Y-86867564D01*
X112740828Y-86523559D01*
X113070839Y-86225501D01*
X113169379Y-86147237D01*
X113713310Y-85783204D01*
X114306575Y-85486261D01*
X114944519Y-85258278D01*
X115622488Y-85101127D01*
X115866588Y-85063445D01*
X116062738Y-85044575D01*
X116301461Y-85033332D01*
X116564885Y-85029294D01*
X116835139Y-85032034D01*
G37*
G04 #@! TD.AperFunction*
X108357307Y-83127924D02*
X108541166Y-83139803D01*
X108697959Y-83160713D01*
X108835885Y-83191078D01*
X108963142Y-83231325D01*
X109087927Y-83281879D01*
X109218439Y-83343165D01*
X109295879Y-83381726D01*
X109481660Y-83481399D01*
X109668380Y-83595493D01*
X109865349Y-83731180D01*
X110081882Y-83895629D01*
X110327292Y-84096011D01*
X110610891Y-84339498D01*
X110941993Y-84633260D01*
X111064065Y-84743176D01*
X111519919Y-85154843D01*
X111197426Y-85522507D01*
X110830333Y-85978597D01*
X110498219Y-86466025D01*
X110208476Y-86970453D01*
X109968494Y-87477544D01*
X109785665Y-87972960D01*
X109667380Y-88442365D01*
X109654819Y-88514838D01*
X109625847Y-88776533D01*
X109611152Y-89095288D01*
X109610395Y-89444769D01*
X109623236Y-89798641D01*
X109649338Y-90130568D01*
X109678531Y-90356338D01*
X109790787Y-90914636D01*
X109946015Y-91428518D01*
X110153449Y-91921612D01*
X110422321Y-92417546D01*
X110586379Y-92679641D01*
X110689224Y-92843384D01*
X110770323Y-92983822D01*
X110820660Y-93084572D01*
X110832497Y-93126900D01*
X110788429Y-93193826D01*
X110685607Y-93300498D01*
X110534750Y-93438268D01*
X110346573Y-93598486D01*
X110131794Y-93772501D01*
X109901130Y-93951664D01*
X109665299Y-94127324D01*
X109435017Y-94290833D01*
X109221001Y-94433540D01*
X109186339Y-94455529D01*
X109049400Y-94540345D01*
X108929541Y-94608363D01*
X108815101Y-94661741D01*
X108694417Y-94702636D01*
X108555828Y-94733207D01*
X108387671Y-94755610D01*
X108178286Y-94772005D01*
X107916010Y-94784548D01*
X107589181Y-94795397D01*
X107306212Y-94803403D01*
X106942012Y-94812778D01*
X106560357Y-94821411D01*
X106182453Y-94828905D01*
X105829504Y-94834866D01*
X105522714Y-94838895D01*
X105321737Y-94840476D01*
X104564929Y-94843672D01*
X104732350Y-94663755D01*
X104904615Y-94480608D01*
X105044930Y-94337776D01*
X105177538Y-94212247D01*
X105326685Y-94081010D01*
X105502088Y-93933163D01*
X105824509Y-93640307D01*
X106144746Y-93305239D01*
X106450017Y-92944372D01*
X106727542Y-92574118D01*
X106964540Y-92210889D01*
X107148229Y-91871097D01*
X107201819Y-91750510D01*
X107301018Y-91486990D01*
X107405938Y-91168255D01*
X107508334Y-90822596D01*
X107599964Y-90478305D01*
X107672584Y-90163674D01*
X107690640Y-90072932D01*
X107729632Y-89759112D01*
X107742012Y-89390422D01*
X107728689Y-88992058D01*
X107690573Y-88589218D01*
X107628571Y-88207100D01*
X107622184Y-88176172D01*
X107447200Y-87547020D01*
X107195154Y-86946865D01*
X106870226Y-86380860D01*
X106476593Y-85854154D01*
X106018434Y-85371899D01*
X105499926Y-84939247D01*
X104925249Y-84561347D01*
X104512212Y-84342000D01*
X104247723Y-84224190D01*
X103932404Y-84099853D01*
X103593861Y-83978608D01*
X103259703Y-83870074D01*
X102957537Y-83783869D01*
X102805727Y-83747439D01*
X102564879Y-83695270D01*
X102882379Y-83618753D01*
X103279930Y-83535508D01*
X103757419Y-83458202D01*
X104315817Y-83386722D01*
X104956095Y-83320952D01*
X105679226Y-83260777D01*
X106226712Y-83222477D01*
X106745115Y-83189104D01*
X107187267Y-83162209D01*
X107561364Y-83142219D01*
X107875604Y-83129558D01*
X108138186Y-83124651D01*
X108357307Y-83127924D01*
G04 #@! TA.AperFunction,EtchedComponent*
G36*
X108357307Y-83127924D02*
G01*
X108541166Y-83139803D01*
X108697959Y-83160713D01*
X108835885Y-83191078D01*
X108963142Y-83231325D01*
X109087927Y-83281879D01*
X109218439Y-83343165D01*
X109295879Y-83381726D01*
X109481660Y-83481399D01*
X109668380Y-83595493D01*
X109865349Y-83731180D01*
X110081882Y-83895629D01*
X110327292Y-84096011D01*
X110610891Y-84339498D01*
X110941993Y-84633260D01*
X111064065Y-84743176D01*
X111519919Y-85154843D01*
X111197426Y-85522507D01*
X110830333Y-85978597D01*
X110498219Y-86466025D01*
X110208476Y-86970453D01*
X109968494Y-87477544D01*
X109785665Y-87972960D01*
X109667380Y-88442365D01*
X109654819Y-88514838D01*
X109625847Y-88776533D01*
X109611152Y-89095288D01*
X109610395Y-89444769D01*
X109623236Y-89798641D01*
X109649338Y-90130568D01*
X109678531Y-90356338D01*
X109790787Y-90914636D01*
X109946015Y-91428518D01*
X110153449Y-91921612D01*
X110422321Y-92417546D01*
X110586379Y-92679641D01*
X110689224Y-92843384D01*
X110770323Y-92983822D01*
X110820660Y-93084572D01*
X110832497Y-93126900D01*
X110788429Y-93193826D01*
X110685607Y-93300498D01*
X110534750Y-93438268D01*
X110346573Y-93598486D01*
X110131794Y-93772501D01*
X109901130Y-93951664D01*
X109665299Y-94127324D01*
X109435017Y-94290833D01*
X109221001Y-94433540D01*
X109186339Y-94455529D01*
X109049400Y-94540345D01*
X108929541Y-94608363D01*
X108815101Y-94661741D01*
X108694417Y-94702636D01*
X108555828Y-94733207D01*
X108387671Y-94755610D01*
X108178286Y-94772005D01*
X107916010Y-94784548D01*
X107589181Y-94795397D01*
X107306212Y-94803403D01*
X106942012Y-94812778D01*
X106560357Y-94821411D01*
X106182453Y-94828905D01*
X105829504Y-94834866D01*
X105522714Y-94838895D01*
X105321737Y-94840476D01*
X104564929Y-94843672D01*
X104732350Y-94663755D01*
X104904615Y-94480608D01*
X105044930Y-94337776D01*
X105177538Y-94212247D01*
X105326685Y-94081010D01*
X105502088Y-93933163D01*
X105824509Y-93640307D01*
X106144746Y-93305239D01*
X106450017Y-92944372D01*
X106727542Y-92574118D01*
X106964540Y-92210889D01*
X107148229Y-91871097D01*
X107201819Y-91750510D01*
X107301018Y-91486990D01*
X107405938Y-91168255D01*
X107508334Y-90822596D01*
X107599964Y-90478305D01*
X107672584Y-90163674D01*
X107690640Y-90072932D01*
X107729632Y-89759112D01*
X107742012Y-89390422D01*
X107728689Y-88992058D01*
X107690573Y-88589218D01*
X107628571Y-88207100D01*
X107622184Y-88176172D01*
X107447200Y-87547020D01*
X107195154Y-86946865D01*
X106870226Y-86380860D01*
X106476593Y-85854154D01*
X106018434Y-85371899D01*
X105499926Y-84939247D01*
X104925249Y-84561347D01*
X104512212Y-84342000D01*
X104247723Y-84224190D01*
X103932404Y-84099853D01*
X103593861Y-83978608D01*
X103259703Y-83870074D01*
X102957537Y-83783869D01*
X102805727Y-83747439D01*
X102564879Y-83695270D01*
X102882379Y-83618753D01*
X103279930Y-83535508D01*
X103757419Y-83458202D01*
X104315817Y-83386722D01*
X104956095Y-83320952D01*
X105679226Y-83260777D01*
X106226712Y-83222477D01*
X106745115Y-83189104D01*
X107187267Y-83162209D01*
X107561364Y-83142219D01*
X107875604Y-83129558D01*
X108138186Y-83124651D01*
X108357307Y-83127924D01*
G37*
G04 #@! TD.AperFunction*
X123453561Y-79142008D02*
X124041797Y-79144568D01*
X124623452Y-79149095D01*
X125189000Y-79155543D01*
X125728911Y-79163867D01*
X126233658Y-79174023D01*
X126693712Y-79185967D01*
X127099544Y-79199653D01*
X127441627Y-79215038D01*
X127710432Y-79232076D01*
X127753212Y-79235563D01*
X127936887Y-79251006D01*
X128126128Y-79266384D01*
X128328594Y-79282241D01*
X128551946Y-79299124D01*
X128803842Y-79317575D01*
X129091944Y-79338142D01*
X129423910Y-79361368D01*
X129807402Y-79387798D01*
X130250079Y-79417978D01*
X130759600Y-79452452D01*
X131343627Y-79491766D01*
X131536360Y-79504709D01*
X131699742Y-79519070D01*
X131817922Y-79536136D01*
X131875845Y-79553323D01*
X131875026Y-79562835D01*
X131802062Y-79587708D01*
X131662875Y-79622874D01*
X131474788Y-79664872D01*
X131255121Y-79710245D01*
X131021195Y-79755532D01*
X130790331Y-79797276D01*
X130579850Y-79832017D01*
X130407073Y-79856296D01*
X130403057Y-79856779D01*
X130219258Y-79882611D01*
X130051602Y-79912920D01*
X129930622Y-79942030D01*
X129912519Y-79947991D01*
X129850794Y-79961851D01*
X129752331Y-79969988D01*
X129608819Y-79972274D01*
X129411949Y-79968583D01*
X129153411Y-79958787D01*
X128824896Y-79942758D01*
X128532674Y-79926855D01*
X128270806Y-79912306D01*
X128012741Y-79898297D01*
X127751124Y-79884480D01*
X127478600Y-79870508D01*
X127187815Y-79856031D01*
X126871413Y-79840703D01*
X126522039Y-79824176D01*
X126132339Y-79806101D01*
X125694957Y-79786131D01*
X125202538Y-79763918D01*
X124647727Y-79739114D01*
X124023170Y-79711371D01*
X123321511Y-79680342D01*
X123308212Y-79679755D01*
X122999922Y-79668455D01*
X122616913Y-79658269D01*
X122169124Y-79649324D01*
X121666497Y-79641746D01*
X121118972Y-79635659D01*
X120536491Y-79631192D01*
X119928995Y-79628469D01*
X119306423Y-79627617D01*
X119201879Y-79627665D01*
X118289796Y-79630049D01*
X117452584Y-79636066D01*
X116680509Y-79646111D01*
X115963838Y-79660578D01*
X115292837Y-79679860D01*
X114657772Y-79704353D01*
X114048909Y-79734450D01*
X113456515Y-79770546D01*
X112870856Y-79813034D01*
X112282198Y-79862308D01*
X111680807Y-79918764D01*
X111454879Y-79941373D01*
X111024961Y-79984682D01*
X110565444Y-80030316D01*
X110096402Y-80076323D01*
X109637907Y-80120756D01*
X109210034Y-80161664D01*
X108832857Y-80197098D01*
X108618545Y-80216803D01*
X108045261Y-80269927D01*
X107539654Y-80319447D01*
X107084935Y-80367575D01*
X106664313Y-80416519D01*
X106260999Y-80468491D01*
X105858202Y-80525700D01*
X105439134Y-80590356D01*
X104987005Y-80664670D01*
X104485024Y-80750851D01*
X104254422Y-80791270D01*
X103889338Y-80855425D01*
X103598796Y-80905895D01*
X103373976Y-80943803D01*
X103206059Y-80970271D01*
X103086224Y-80986421D01*
X103005653Y-80993376D01*
X102955524Y-80992258D01*
X102927019Y-80984190D01*
X102911318Y-80970293D01*
X102906318Y-80962825D01*
X102924740Y-80924019D01*
X103007549Y-80877428D01*
X103135811Y-80830315D01*
X103290593Y-80789944D01*
X103413130Y-80768400D01*
X103517943Y-80753334D01*
X103690411Y-80727565D01*
X103914548Y-80693525D01*
X104174370Y-80653647D01*
X104453888Y-80610361D01*
X104533379Y-80597982D01*
X104829787Y-80551815D01*
X105186766Y-80496299D01*
X105581213Y-80435022D01*
X105990028Y-80371572D01*
X106390109Y-80309536D01*
X106692379Y-80262714D01*
X106981190Y-80219930D01*
X107340617Y-80169824D01*
X107757094Y-80114120D01*
X108217054Y-80054545D01*
X108706932Y-79992824D01*
X109213160Y-79930684D01*
X109722174Y-79869850D01*
X110220407Y-79812049D01*
X110354212Y-79796860D01*
X111042637Y-79720400D01*
X111665764Y-79654319D01*
X112239591Y-79597454D01*
X112780114Y-79548640D01*
X113303330Y-79506715D01*
X113825234Y-79470515D01*
X114361825Y-79438876D01*
X114929098Y-79410635D01*
X115543051Y-79384628D01*
X116219679Y-79359692D01*
X116492545Y-79350389D01*
X116877985Y-79337365D01*
X117206092Y-79325865D01*
X117492652Y-79315126D01*
X117753449Y-79304387D01*
X118004268Y-79292883D01*
X118260892Y-79279853D01*
X118539107Y-79264535D01*
X118854696Y-79246165D01*
X119223444Y-79223980D01*
X119654213Y-79197645D01*
X119952065Y-79182873D01*
X120319564Y-79170424D01*
X120747182Y-79160253D01*
X121225391Y-79152315D01*
X121744661Y-79146567D01*
X122295465Y-79142962D01*
X122868275Y-79141457D01*
X123453561Y-79142008D01*
G04 #@! TA.AperFunction,EtchedComponent*
G36*
X123453561Y-79142008D02*
G01*
X124041797Y-79144568D01*
X124623452Y-79149095D01*
X125189000Y-79155543D01*
X125728911Y-79163867D01*
X126233658Y-79174023D01*
X126693712Y-79185967D01*
X127099544Y-79199653D01*
X127441627Y-79215038D01*
X127710432Y-79232076D01*
X127753212Y-79235563D01*
X127936887Y-79251006D01*
X128126128Y-79266384D01*
X128328594Y-79282241D01*
X128551946Y-79299124D01*
X128803842Y-79317575D01*
X129091944Y-79338142D01*
X129423910Y-79361368D01*
X129807402Y-79387798D01*
X130250079Y-79417978D01*
X130759600Y-79452452D01*
X131343627Y-79491766D01*
X131536360Y-79504709D01*
X131699742Y-79519070D01*
X131817922Y-79536136D01*
X131875845Y-79553323D01*
X131875026Y-79562835D01*
X131802062Y-79587708D01*
X131662875Y-79622874D01*
X131474788Y-79664872D01*
X131255121Y-79710245D01*
X131021195Y-79755532D01*
X130790331Y-79797276D01*
X130579850Y-79832017D01*
X130407073Y-79856296D01*
X130403057Y-79856779D01*
X130219258Y-79882611D01*
X130051602Y-79912920D01*
X129930622Y-79942030D01*
X129912519Y-79947991D01*
X129850794Y-79961851D01*
X129752331Y-79969988D01*
X129608819Y-79972274D01*
X129411949Y-79968583D01*
X129153411Y-79958787D01*
X128824896Y-79942758D01*
X128532674Y-79926855D01*
X128270806Y-79912306D01*
X128012741Y-79898297D01*
X127751124Y-79884480D01*
X127478600Y-79870508D01*
X127187815Y-79856031D01*
X126871413Y-79840703D01*
X126522039Y-79824176D01*
X126132339Y-79806101D01*
X125694957Y-79786131D01*
X125202538Y-79763918D01*
X124647727Y-79739114D01*
X124023170Y-79711371D01*
X123321511Y-79680342D01*
X123308212Y-79679755D01*
X122999922Y-79668455D01*
X122616913Y-79658269D01*
X122169124Y-79649324D01*
X121666497Y-79641746D01*
X121118972Y-79635659D01*
X120536491Y-79631192D01*
X119928995Y-79628469D01*
X119306423Y-79627617D01*
X119201879Y-79627665D01*
X118289796Y-79630049D01*
X117452584Y-79636066D01*
X116680509Y-79646111D01*
X115963838Y-79660578D01*
X115292837Y-79679860D01*
X114657772Y-79704353D01*
X114048909Y-79734450D01*
X113456515Y-79770546D01*
X112870856Y-79813034D01*
X112282198Y-79862308D01*
X111680807Y-79918764D01*
X111454879Y-79941373D01*
X111024961Y-79984682D01*
X110565444Y-80030316D01*
X110096402Y-80076323D01*
X109637907Y-80120756D01*
X109210034Y-80161664D01*
X108832857Y-80197098D01*
X108618545Y-80216803D01*
X108045261Y-80269927D01*
X107539654Y-80319447D01*
X107084935Y-80367575D01*
X106664313Y-80416519D01*
X106260999Y-80468491D01*
X105858202Y-80525700D01*
X105439134Y-80590356D01*
X104987005Y-80664670D01*
X104485024Y-80750851D01*
X104254422Y-80791270D01*
X103889338Y-80855425D01*
X103598796Y-80905895D01*
X103373976Y-80943803D01*
X103206059Y-80970271D01*
X103086224Y-80986421D01*
X103005653Y-80993376D01*
X102955524Y-80992258D01*
X102927019Y-80984190D01*
X102911318Y-80970293D01*
X102906318Y-80962825D01*
X102924740Y-80924019D01*
X103007549Y-80877428D01*
X103135811Y-80830315D01*
X103290593Y-80789944D01*
X103413130Y-80768400D01*
X103517943Y-80753334D01*
X103690411Y-80727565D01*
X103914548Y-80693525D01*
X104174370Y-80653647D01*
X104453888Y-80610361D01*
X104533379Y-80597982D01*
X104829787Y-80551815D01*
X105186766Y-80496299D01*
X105581213Y-80435022D01*
X105990028Y-80371572D01*
X106390109Y-80309536D01*
X106692379Y-80262714D01*
X106981190Y-80219930D01*
X107340617Y-80169824D01*
X107757094Y-80114120D01*
X108217054Y-80054545D01*
X108706932Y-79992824D01*
X109213160Y-79930684D01*
X109722174Y-79869850D01*
X110220407Y-79812049D01*
X110354212Y-79796860D01*
X111042637Y-79720400D01*
X111665764Y-79654319D01*
X112239591Y-79597454D01*
X112780114Y-79548640D01*
X113303330Y-79506715D01*
X113825234Y-79470515D01*
X114361825Y-79438876D01*
X114929098Y-79410635D01*
X115543051Y-79384628D01*
X116219679Y-79359692D01*
X116492545Y-79350389D01*
X116877985Y-79337365D01*
X117206092Y-79325865D01*
X117492652Y-79315126D01*
X117753449Y-79304387D01*
X118004268Y-79292883D01*
X118260892Y-79279853D01*
X118539107Y-79264535D01*
X118854696Y-79246165D01*
X119223444Y-79223980D01*
X119654213Y-79197645D01*
X119952065Y-79182873D01*
X120319564Y-79170424D01*
X120747182Y-79160253D01*
X121225391Y-79152315D01*
X121744661Y-79146567D01*
X122295465Y-79142962D01*
X122868275Y-79141457D01*
X123453561Y-79142008D01*
G37*
G04 #@! TD.AperFunction*
X116817493Y-83594083D02*
X117095805Y-83604739D01*
X117312136Y-83618318D01*
X117489171Y-83637841D01*
X117649597Y-83666326D01*
X117816097Y-83706792D01*
X117953045Y-83745206D01*
X118588683Y-83956093D01*
X119193064Y-84209157D01*
X119754670Y-84498145D01*
X120261983Y-84816804D01*
X120703485Y-85158879D01*
X120910095Y-85350753D01*
X121263761Y-85719969D01*
X121555549Y-86065943D01*
X121797181Y-86407286D01*
X122000379Y-86762606D01*
X122176866Y-87150512D01*
X122338363Y-87589614D01*
X122358386Y-87649960D01*
X122471435Y-88010792D01*
X122553131Y-88316858D01*
X122607069Y-88590509D01*
X122636845Y-88854097D01*
X122646055Y-89129971D01*
X122640015Y-89400392D01*
X122601659Y-89864967D01*
X122521822Y-90291368D01*
X122392938Y-90709532D01*
X122207442Y-91149397D01*
X122187214Y-91192115D01*
X121917841Y-91693855D01*
X121611738Y-92139329D01*
X121250410Y-92554950D01*
X121189464Y-92617199D01*
X120815110Y-92968376D01*
X120395206Y-93317554D01*
X119945977Y-93653753D01*
X119483648Y-93965992D01*
X119024445Y-94243291D01*
X118584593Y-94474671D01*
X118195151Y-94643572D01*
X117847212Y-94775268D01*
X116513712Y-94786171D01*
X116082212Y-94788440D01*
X115725490Y-94787336D01*
X115433713Y-94782573D01*
X115197048Y-94773865D01*
X115005665Y-94760928D01*
X114849728Y-94743477D01*
X114803424Y-94736526D01*
X114120508Y-94591371D01*
X113486550Y-94381475D01*
X112891179Y-94102498D01*
X112324024Y-93750101D01*
X112158429Y-93629867D01*
X111721065Y-93263509D01*
X111317108Y-92849975D01*
X110954670Y-92401356D01*
X110641863Y-91929743D01*
X110386797Y-91447228D01*
X110197587Y-90965902D01*
X110091180Y-90548488D01*
X110059040Y-90304942D01*
X110038148Y-90001504D01*
X110031223Y-89759735D01*
X110864970Y-89759735D01*
X110894460Y-90154320D01*
X110954643Y-90503627D01*
X110963941Y-90541132D01*
X111152716Y-91116688D01*
X111409398Y-91648956D01*
X111729755Y-92132593D01*
X112109551Y-92562257D01*
X112544553Y-92932605D01*
X113030528Y-93238295D01*
X113149531Y-93299124D01*
X113441343Y-93431970D01*
X113776144Y-93567761D01*
X114127945Y-93697183D01*
X114470756Y-93810924D01*
X114778590Y-93899670D01*
X114920920Y-93933877D01*
X115084929Y-93957949D01*
X115315689Y-93975900D01*
X115595505Y-93987729D01*
X115906682Y-93993431D01*
X116231526Y-93993005D01*
X116552343Y-93986447D01*
X116851437Y-93973754D01*
X117111113Y-93954923D01*
X117286360Y-93934281D01*
X117874697Y-93806515D01*
X118427926Y-93604296D01*
X118955394Y-93323847D01*
X119202546Y-93160071D01*
X119569963Y-92864734D01*
X119935472Y-92504328D01*
X120284340Y-92097473D01*
X120601832Y-91662791D01*
X120873213Y-91218901D01*
X121083749Y-90784425D01*
X121085221Y-90780862D01*
X121209607Y-90462236D01*
X121297349Y-90188988D01*
X121354101Y-89933149D01*
X121385514Y-89666752D01*
X121397240Y-89361828D01*
X121397723Y-89234505D01*
X121395052Y-88979942D01*
X121386737Y-88785595D01*
X121369859Y-88627057D01*
X121341498Y-88479922D01*
X121298733Y-88319781D01*
X121281239Y-88260838D01*
X121063944Y-87667609D01*
X120785364Y-87131081D01*
X120441911Y-86645987D01*
X120029997Y-86207065D01*
X119677007Y-85907354D01*
X119313715Y-85645599D01*
X118958313Y-85433679D01*
X118589099Y-85261826D01*
X118184372Y-85120273D01*
X117722430Y-84999255D01*
X117597617Y-84971528D01*
X117325624Y-84926957D01*
X116996128Y-84895100D01*
X116631132Y-84876141D01*
X116252640Y-84870264D01*
X115882655Y-84877655D01*
X115543181Y-84898498D01*
X115256219Y-84932978D01*
X115159045Y-84951059D01*
X114454896Y-85139114D01*
X113801423Y-85392448D01*
X113200637Y-85710014D01*
X112654546Y-86090767D01*
X112216109Y-86481981D01*
X111790056Y-86959349D01*
X111440898Y-87461273D01*
X111170779Y-87984129D01*
X110981842Y-88524293D01*
X110961097Y-88604712D01*
X110898244Y-88954892D01*
X110866216Y-89349913D01*
X110864970Y-89759735D01*
X110031223Y-89759735D01*
X110028428Y-89662187D01*
X110029804Y-89311006D01*
X110042200Y-88971973D01*
X110065541Y-88669104D01*
X110097847Y-88436405D01*
X110242550Y-87882827D01*
X110466538Y-87330216D01*
X110764682Y-86786100D01*
X111131855Y-86258005D01*
X111562928Y-85753458D01*
X112052774Y-85279986D01*
X112492045Y-84922210D01*
X112756925Y-84731675D01*
X113013926Y-84568062D01*
X113284371Y-84419878D01*
X113589582Y-84275625D01*
X113950880Y-84123811D01*
X114036064Y-84089818D01*
X114554567Y-83899271D01*
X115032060Y-83758216D01*
X115492886Y-83662315D01*
X115961385Y-83607230D01*
X116461898Y-83588622D01*
X116817493Y-83594083D01*
G04 #@! TA.AperFunction,EtchedComponent*
G36*
X116817493Y-83594083D02*
G01*
X117095805Y-83604739D01*
X117312136Y-83618318D01*
X117489171Y-83637841D01*
X117649597Y-83666326D01*
X117816097Y-83706792D01*
X117953045Y-83745206D01*
X118588683Y-83956093D01*
X119193064Y-84209157D01*
X119754670Y-84498145D01*
X120261983Y-84816804D01*
X120703485Y-85158879D01*
X120910095Y-85350753D01*
X121263761Y-85719969D01*
X121555549Y-86065943D01*
X121797181Y-86407286D01*
X122000379Y-86762606D01*
X122176866Y-87150512D01*
X122338363Y-87589614D01*
X122358386Y-87649960D01*
X122471435Y-88010792D01*
X122553131Y-88316858D01*
X122607069Y-88590509D01*
X122636845Y-88854097D01*
X122646055Y-89129971D01*
X122640015Y-89400392D01*
X122601659Y-89864967D01*
X122521822Y-90291368D01*
X122392938Y-90709532D01*
X122207442Y-91149397D01*
X122187214Y-91192115D01*
X121917841Y-91693855D01*
X121611738Y-92139329D01*
X121250410Y-92554950D01*
X121189464Y-92617199D01*
X120815110Y-92968376D01*
X120395206Y-93317554D01*
X119945977Y-93653753D01*
X119483648Y-93965992D01*
X119024445Y-94243291D01*
X118584593Y-94474671D01*
X118195151Y-94643572D01*
X117847212Y-94775268D01*
X116513712Y-94786171D01*
X116082212Y-94788440D01*
X115725490Y-94787336D01*
X115433713Y-94782573D01*
X115197048Y-94773865D01*
X115005665Y-94760928D01*
X114849728Y-94743477D01*
X114803424Y-94736526D01*
X114120508Y-94591371D01*
X113486550Y-94381475D01*
X112891179Y-94102498D01*
X112324024Y-93750101D01*
X112158429Y-93629867D01*
X111721065Y-93263509D01*
X111317108Y-92849975D01*
X110954670Y-92401356D01*
X110641863Y-91929743D01*
X110386797Y-91447228D01*
X110197587Y-90965902D01*
X110091180Y-90548488D01*
X110059040Y-90304942D01*
X110038148Y-90001504D01*
X110031223Y-89759735D01*
X110864970Y-89759735D01*
X110894460Y-90154320D01*
X110954643Y-90503627D01*
X110963941Y-90541132D01*
X111152716Y-91116688D01*
X111409398Y-91648956D01*
X111729755Y-92132593D01*
X112109551Y-92562257D01*
X112544553Y-92932605D01*
X113030528Y-93238295D01*
X113149531Y-93299124D01*
X113441343Y-93431970D01*
X113776144Y-93567761D01*
X114127945Y-93697183D01*
X114470756Y-93810924D01*
X114778590Y-93899670D01*
X114920920Y-93933877D01*
X115084929Y-93957949D01*
X115315689Y-93975900D01*
X115595505Y-93987729D01*
X115906682Y-93993431D01*
X116231526Y-93993005D01*
X116552343Y-93986447D01*
X116851437Y-93973754D01*
X117111113Y-93954923D01*
X117286360Y-93934281D01*
X117874697Y-93806515D01*
X118427926Y-93604296D01*
X118955394Y-93323847D01*
X119202546Y-93160071D01*
X119569963Y-92864734D01*
X119935472Y-92504328D01*
X120284340Y-92097473D01*
X120601832Y-91662791D01*
X120873213Y-91218901D01*
X121083749Y-90784425D01*
X121085221Y-90780862D01*
X121209607Y-90462236D01*
X121297349Y-90188988D01*
X121354101Y-89933149D01*
X121385514Y-89666752D01*
X121397240Y-89361828D01*
X121397723Y-89234505D01*
X121395052Y-88979942D01*
X121386737Y-88785595D01*
X121369859Y-88627057D01*
X121341498Y-88479922D01*
X121298733Y-88319781D01*
X121281239Y-88260838D01*
X121063944Y-87667609D01*
X120785364Y-87131081D01*
X120441911Y-86645987D01*
X120029997Y-86207065D01*
X119677007Y-85907354D01*
X119313715Y-85645599D01*
X118958313Y-85433679D01*
X118589099Y-85261826D01*
X118184372Y-85120273D01*
X117722430Y-84999255D01*
X117597617Y-84971528D01*
X117325624Y-84926957D01*
X116996128Y-84895100D01*
X116631132Y-84876141D01*
X116252640Y-84870264D01*
X115882655Y-84877655D01*
X115543181Y-84898498D01*
X115256219Y-84932978D01*
X115159045Y-84951059D01*
X114454896Y-85139114D01*
X113801423Y-85392448D01*
X113200637Y-85710014D01*
X112654546Y-86090767D01*
X112216109Y-86481981D01*
X111790056Y-86959349D01*
X111440898Y-87461273D01*
X111170779Y-87984129D01*
X110981842Y-88524293D01*
X110961097Y-88604712D01*
X110898244Y-88954892D01*
X110866216Y-89349913D01*
X110864970Y-89759735D01*
X110031223Y-89759735D01*
X110028428Y-89662187D01*
X110029804Y-89311006D01*
X110042200Y-88971973D01*
X110065541Y-88669104D01*
X110097847Y-88436405D01*
X110242550Y-87882827D01*
X110466538Y-87330216D01*
X110764682Y-86786100D01*
X111131855Y-86258005D01*
X111562928Y-85753458D01*
X112052774Y-85279986D01*
X112492045Y-84922210D01*
X112756925Y-84731675D01*
X113013926Y-84568062D01*
X113284371Y-84419878D01*
X113589582Y-84275625D01*
X113950880Y-84123811D01*
X114036064Y-84089818D01*
X114554567Y-83899271D01*
X115032060Y-83758216D01*
X115492886Y-83662315D01*
X115961385Y-83607230D01*
X116461898Y-83588622D01*
X116817493Y-83594083D01*
G37*
G04 #@! TD.AperFunction*
X102005440Y-83936658D02*
X102242117Y-83958118D01*
X102635994Y-84035538D01*
X103072313Y-84163533D01*
X103532449Y-84334031D01*
X103997777Y-84538960D01*
X104449671Y-84770250D01*
X104869507Y-85019830D01*
X105168379Y-85226196D01*
X105698204Y-85666467D01*
X106153393Y-86144306D01*
X106537469Y-86664720D01*
X106853952Y-87232721D01*
X107106364Y-87853317D01*
X107182505Y-88091505D01*
X107224404Y-88240111D01*
X107255493Y-88376491D01*
X107277881Y-88519001D01*
X107293677Y-88685999D01*
X107304990Y-88895841D01*
X107313931Y-89166883D01*
X107316282Y-89255672D01*
X107320840Y-89682052D01*
X107309079Y-90044079D01*
X107278559Y-90360922D01*
X107226842Y-90651749D01*
X107151487Y-90935727D01*
X107072622Y-91170652D01*
X106850879Y-91671785D01*
X106548376Y-92175876D01*
X106168640Y-92677877D01*
X105715198Y-93172739D01*
X105584048Y-93301160D01*
X105165953Y-93668162D01*
X104684884Y-94032148D01*
X104161780Y-94378811D01*
X103617577Y-94693844D01*
X103326879Y-94843526D01*
X103169099Y-94920322D01*
X103043125Y-94976685D01*
X102929756Y-95017292D01*
X102809790Y-95046823D01*
X102664028Y-95069956D01*
X102473268Y-95091370D01*
X102218309Y-95115744D01*
X102204434Y-95117040D01*
X101985344Y-95134042D01*
X101725387Y-95148654D01*
X101438140Y-95160676D01*
X101137183Y-95169910D01*
X100836093Y-95176158D01*
X100548449Y-95179221D01*
X100287828Y-95178901D01*
X100067810Y-95175000D01*
X99901972Y-95167319D01*
X99803892Y-95155660D01*
X99792045Y-95152285D01*
X99733749Y-95131572D01*
X99608935Y-95087703D01*
X99431037Y-95025384D01*
X99213489Y-94949319D01*
X98969722Y-94864214D01*
X98945379Y-94855721D01*
X98442969Y-94672269D01*
X98011545Y-94495333D01*
X97638540Y-94317748D01*
X97311386Y-94132348D01*
X97017515Y-93931967D01*
X96744360Y-93709440D01*
X96479353Y-93457601D01*
X96461600Y-93439525D01*
X96212412Y-93176397D01*
X96012386Y-92942598D01*
X95844543Y-92714600D01*
X95691903Y-92468876D01*
X95537487Y-92181900D01*
X95499025Y-92105770D01*
X95269237Y-91598484D01*
X95102429Y-91111804D01*
X94992678Y-90620648D01*
X94934058Y-90099934D01*
X94923504Y-89765125D01*
X95817366Y-89765125D01*
X95833863Y-90105087D01*
X95866574Y-90415321D01*
X95914751Y-90673513D01*
X95938596Y-90758505D01*
X96165828Y-91335328D01*
X96463005Y-91869218D01*
X96825298Y-92354483D01*
X97247879Y-92785431D01*
X97725919Y-93156369D01*
X98214511Y-93441730D01*
X98432098Y-93540712D01*
X98698261Y-93645999D01*
X98992540Y-93750992D01*
X99294476Y-93849095D01*
X99583610Y-93933709D01*
X99839482Y-93998237D01*
X100041634Y-94036081D01*
X100067212Y-94039174D01*
X100300813Y-94055052D01*
X100594869Y-94060754D01*
X100925874Y-94057036D01*
X101270324Y-94044651D01*
X101604716Y-94024353D01*
X101905545Y-93996898D01*
X102078045Y-93974659D01*
X102598692Y-93874789D01*
X103064292Y-93737896D01*
X103458909Y-93576013D01*
X103938410Y-93313140D01*
X104397768Y-92987431D01*
X104828289Y-92609418D01*
X105221279Y-92189630D01*
X105568042Y-91738599D01*
X105859886Y-91266855D01*
X106088115Y-90784930D01*
X106244034Y-90303354D01*
X106274372Y-90165838D01*
X106305863Y-89940634D01*
X106324838Y-89666068D01*
X106331571Y-89365456D01*
X106326335Y-89062110D01*
X106309404Y-88779344D01*
X106281050Y-88540472D01*
X106253784Y-88409005D01*
X106146915Y-88095636D01*
X105990784Y-87746941D01*
X105798072Y-87385318D01*
X105581456Y-87033163D01*
X105353616Y-86712873D01*
X105167203Y-86489611D01*
X104858515Y-86195246D01*
X104474557Y-85903100D01*
X104024598Y-85620016D01*
X103877212Y-85537382D01*
X103527833Y-85359638D01*
X103194901Y-85220717D01*
X102861974Y-85117281D01*
X102512609Y-85045995D01*
X102130366Y-85003522D01*
X101698801Y-84986525D01*
X101201474Y-84991669D01*
X101189590Y-84992008D01*
X100521438Y-85030642D01*
X99919677Y-85108696D01*
X99373669Y-85230450D01*
X98872777Y-85400182D01*
X98406363Y-85622169D01*
X97963789Y-85900691D01*
X97534417Y-86240025D01*
X97125045Y-86626686D01*
X96700313Y-87100704D01*
X96360138Y-87573911D01*
X96104413Y-88046490D01*
X95933034Y-88518620D01*
X95872637Y-88790005D01*
X95836005Y-89085270D01*
X95817831Y-89417748D01*
X95817366Y-89765125D01*
X94923504Y-89765125D01*
X94920013Y-89654403D01*
X94946181Y-89028285D01*
X95029597Y-88456541D01*
X95173046Y-87928718D01*
X95379315Y-87434363D01*
X95627744Y-86998917D01*
X96041577Y-86432171D01*
X96528876Y-85894614D01*
X97081092Y-85394412D01*
X97689676Y-84939733D01*
X97979837Y-84752040D01*
X98183024Y-84644181D01*
X98452582Y-84527434D01*
X98771504Y-84407628D01*
X99122783Y-84290591D01*
X99489412Y-84182152D01*
X99854385Y-84088141D01*
X100036395Y-84047204D01*
X100298581Y-84003481D01*
X100619051Y-83968589D01*
X100973889Y-83943495D01*
X101339177Y-83929165D01*
X101691000Y-83926563D01*
X102005440Y-83936658D01*
G04 #@! TA.AperFunction,EtchedComponent*
G36*
X102005440Y-83936658D02*
G01*
X102242117Y-83958118D01*
X102635994Y-84035538D01*
X103072313Y-84163533D01*
X103532449Y-84334031D01*
X103997777Y-84538960D01*
X104449671Y-84770250D01*
X104869507Y-85019830D01*
X105168379Y-85226196D01*
X105698204Y-85666467D01*
X106153393Y-86144306D01*
X106537469Y-86664720D01*
X106853952Y-87232721D01*
X107106364Y-87853317D01*
X107182505Y-88091505D01*
X107224404Y-88240111D01*
X107255493Y-88376491D01*
X107277881Y-88519001D01*
X107293677Y-88685999D01*
X107304990Y-88895841D01*
X107313931Y-89166883D01*
X107316282Y-89255672D01*
X107320840Y-89682052D01*
X107309079Y-90044079D01*
X107278559Y-90360922D01*
X107226842Y-90651749D01*
X107151487Y-90935727D01*
X107072622Y-91170652D01*
X106850879Y-91671785D01*
X106548376Y-92175876D01*
X106168640Y-92677877D01*
X105715198Y-93172739D01*
X105584048Y-93301160D01*
X105165953Y-93668162D01*
X104684884Y-94032148D01*
X104161780Y-94378811D01*
X103617577Y-94693844D01*
X103326879Y-94843526D01*
X103169099Y-94920322D01*
X103043125Y-94976685D01*
X102929756Y-95017292D01*
X102809790Y-95046823D01*
X102664028Y-95069956D01*
X102473268Y-95091370D01*
X102218309Y-95115744D01*
X102204434Y-95117040D01*
X101985344Y-95134042D01*
X101725387Y-95148654D01*
X101438140Y-95160676D01*
X101137183Y-95169910D01*
X100836093Y-95176158D01*
X100548449Y-95179221D01*
X100287828Y-95178901D01*
X100067810Y-95175000D01*
X99901972Y-95167319D01*
X99803892Y-95155660D01*
X99792045Y-95152285D01*
X99733749Y-95131572D01*
X99608935Y-95087703D01*
X99431037Y-95025384D01*
X99213489Y-94949319D01*
X98969722Y-94864214D01*
X98945379Y-94855721D01*
X98442969Y-94672269D01*
X98011545Y-94495333D01*
X97638540Y-94317748D01*
X97311386Y-94132348D01*
X97017515Y-93931967D01*
X96744360Y-93709440D01*
X96479353Y-93457601D01*
X96461600Y-93439525D01*
X96212412Y-93176397D01*
X96012386Y-92942598D01*
X95844543Y-92714600D01*
X95691903Y-92468876D01*
X95537487Y-92181900D01*
X95499025Y-92105770D01*
X95269237Y-91598484D01*
X95102429Y-91111804D01*
X94992678Y-90620648D01*
X94934058Y-90099934D01*
X94923504Y-89765125D01*
X95817366Y-89765125D01*
X95833863Y-90105087D01*
X95866574Y-90415321D01*
X95914751Y-90673513D01*
X95938596Y-90758505D01*
X96165828Y-91335328D01*
X96463005Y-91869218D01*
X96825298Y-92354483D01*
X97247879Y-92785431D01*
X97725919Y-93156369D01*
X98214511Y-93441730D01*
X98432098Y-93540712D01*
X98698261Y-93645999D01*
X98992540Y-93750992D01*
X99294476Y-93849095D01*
X99583610Y-93933709D01*
X99839482Y-93998237D01*
X100041634Y-94036081D01*
X100067212Y-94039174D01*
X100300813Y-94055052D01*
X100594869Y-94060754D01*
X100925874Y-94057036D01*
X101270324Y-94044651D01*
X101604716Y-94024353D01*
X101905545Y-93996898D01*
X102078045Y-93974659D01*
X102598692Y-93874789D01*
X103064292Y-93737896D01*
X103458909Y-93576013D01*
X103938410Y-93313140D01*
X104397768Y-92987431D01*
X104828289Y-92609418D01*
X105221279Y-92189630D01*
X105568042Y-91738599D01*
X105859886Y-91266855D01*
X106088115Y-90784930D01*
X106244034Y-90303354D01*
X106274372Y-90165838D01*
X106305863Y-89940634D01*
X106324838Y-89666068D01*
X106331571Y-89365456D01*
X106326335Y-89062110D01*
X106309404Y-88779344D01*
X106281050Y-88540472D01*
X106253784Y-88409005D01*
X106146915Y-88095636D01*
X105990784Y-87746941D01*
X105798072Y-87385318D01*
X105581456Y-87033163D01*
X105353616Y-86712873D01*
X105167203Y-86489611D01*
X104858515Y-86195246D01*
X104474557Y-85903100D01*
X104024598Y-85620016D01*
X103877212Y-85537382D01*
X103527833Y-85359638D01*
X103194901Y-85220717D01*
X102861974Y-85117281D01*
X102512609Y-85045995D01*
X102130366Y-85003522D01*
X101698801Y-84986525D01*
X101201474Y-84991669D01*
X101189590Y-84992008D01*
X100521438Y-85030642D01*
X99919677Y-85108696D01*
X99373669Y-85230450D01*
X98872777Y-85400182D01*
X98406363Y-85622169D01*
X97963789Y-85900691D01*
X97534417Y-86240025D01*
X97125045Y-86626686D01*
X96700313Y-87100704D01*
X96360138Y-87573911D01*
X96104413Y-88046490D01*
X95933034Y-88518620D01*
X95872637Y-88790005D01*
X95836005Y-89085270D01*
X95817831Y-89417748D01*
X95817366Y-89765125D01*
X94923504Y-89765125D01*
X94920013Y-89654403D01*
X94946181Y-89028285D01*
X95029597Y-88456541D01*
X95173046Y-87928718D01*
X95379315Y-87434363D01*
X95627744Y-86998917D01*
X96041577Y-86432171D01*
X96528876Y-85894614D01*
X97081092Y-85394412D01*
X97689676Y-84939733D01*
X97979837Y-84752040D01*
X98183024Y-84644181D01*
X98452582Y-84527434D01*
X98771504Y-84407628D01*
X99122783Y-84290591D01*
X99489412Y-84182152D01*
X99854385Y-84088141D01*
X100036395Y-84047204D01*
X100298581Y-84003481D01*
X100619051Y-83968589D01*
X100973889Y-83943495D01*
X101339177Y-83929165D01*
X101691000Y-83926563D01*
X102005440Y-83936658D01*
G37*
G04 #@! TD.AperFunction*
X132132355Y-79773760D02*
X132138414Y-79778995D01*
X132162031Y-79847727D01*
X132185921Y-79962431D01*
X132191765Y-80000101D01*
X132213838Y-80156688D01*
X132246075Y-80387357D01*
X132287234Y-80683093D01*
X132336070Y-81034878D01*
X132391340Y-81433697D01*
X132451800Y-81870534D01*
X132516207Y-82336372D01*
X132583316Y-82822195D01*
X132651885Y-83318988D01*
X132720669Y-83817733D01*
X132788425Y-84309416D01*
X132853909Y-84785019D01*
X132915877Y-85235526D01*
X132973086Y-85651922D01*
X133024292Y-86025190D01*
X133068251Y-86346314D01*
X133103720Y-86606278D01*
X133129455Y-86796066D01*
X133138551Y-86863838D01*
X133170759Y-87112275D01*
X133196291Y-87330778D01*
X133215937Y-87534535D01*
X133230485Y-87738734D01*
X133240721Y-87958564D01*
X133247435Y-88209215D01*
X133251412Y-88505874D01*
X133253443Y-88863730D01*
X133254010Y-89089940D01*
X133256545Y-90469376D01*
X134103212Y-90846774D01*
X134393894Y-90977866D01*
X134614440Y-91081255D01*
X134773050Y-91161362D01*
X134877922Y-91222612D01*
X134937256Y-91269428D01*
X134959249Y-91306233D01*
X134959636Y-91308838D01*
X134939370Y-91375383D01*
X134860250Y-91464513D01*
X134714838Y-91584359D01*
X134691085Y-91602314D01*
X134491545Y-91761493D01*
X134273331Y-91951800D01*
X134045165Y-92163961D01*
X133815767Y-92388702D01*
X133593859Y-92616747D01*
X133388161Y-92838822D01*
X133207397Y-93045653D01*
X133060285Y-93227966D01*
X132955549Y-93376485D01*
X132901910Y-93481937D01*
X132896712Y-93510501D01*
X132910212Y-93600693D01*
X132944976Y-93735238D01*
X132977313Y-93837021D01*
X133092646Y-94285268D01*
X133142882Y-94773529D01*
X133128356Y-95307549D01*
X133085091Y-95676904D01*
X133039153Y-95950541D01*
X132982509Y-96213379D01*
X132910139Y-96482112D01*
X132817019Y-96773436D01*
X132698130Y-97104050D01*
X132548449Y-97490647D01*
X132512349Y-97581222D01*
X132265075Y-98206134D01*
X132050768Y-98763741D01*
X131866346Y-99263343D01*
X131708727Y-99714243D01*
X131574827Y-100125744D01*
X131461565Y-100507147D01*
X131365858Y-100867755D01*
X131284623Y-101216870D01*
X131245784Y-101403409D01*
X131181305Y-101732242D01*
X131129863Y-102015041D01*
X131090007Y-102268321D01*
X131060286Y-102508598D01*
X131039247Y-102752385D01*
X131025439Y-103016199D01*
X131017410Y-103316553D01*
X131013709Y-103669964D01*
X131012879Y-104053060D01*
X131013277Y-104418933D01*
X131014820Y-104709819D01*
X131018032Y-104935392D01*
X131023438Y-105105330D01*
X131031560Y-105229308D01*
X131042923Y-105317004D01*
X131058051Y-105378094D01*
X131077467Y-105422253D01*
X131087938Y-105439477D01*
X131169674Y-105525055D01*
X131282603Y-105553411D01*
X131310188Y-105554005D01*
X131372036Y-105552731D01*
X131415745Y-105541198D01*
X131442655Y-105507836D01*
X131454103Y-105441078D01*
X131451429Y-105329355D01*
X131435974Y-105161100D01*
X131409075Y-104924743D01*
X131395957Y-104813172D01*
X131360309Y-104482453D01*
X131332202Y-104165443D01*
X131312088Y-103873216D01*
X131300417Y-103616847D01*
X131297642Y-103407413D01*
X131304213Y-103255989D01*
X131320584Y-103173649D01*
X131328684Y-103163219D01*
X131387038Y-103172115D01*
X131476562Y-103232796D01*
X131579744Y-103327775D01*
X131679071Y-103439567D01*
X131757030Y-103550687D01*
X131791702Y-103625526D01*
X131807663Y-103714194D01*
X131824412Y-103868022D01*
X131840236Y-104067539D01*
X131853422Y-104293275D01*
X131856626Y-104363624D01*
X131870550Y-104587514D01*
X131895055Y-104873185D01*
X131927876Y-105198733D01*
X131966746Y-105542252D01*
X132009400Y-105881838D01*
X132027424Y-106014624D01*
X132122748Y-106710995D01*
X132204234Y-107332426D01*
X132272562Y-107887389D01*
X132328413Y-108384357D01*
X132372469Y-108831801D01*
X132405411Y-109238195D01*
X132427918Y-109612009D01*
X132440673Y-109961718D01*
X132444357Y-110295792D01*
X132439650Y-110622704D01*
X132427234Y-110950927D01*
X132426086Y-110974312D01*
X132397938Y-111391959D01*
X132354347Y-111767848D01*
X132290501Y-112114828D01*
X132201591Y-112445749D01*
X132082808Y-112773461D01*
X131929340Y-113110812D01*
X131736378Y-113470654D01*
X131499111Y-113865834D01*
X131212730Y-114309204D01*
X131132707Y-114429365D01*
X130870417Y-114829472D01*
X130651265Y-115183679D01*
X130464496Y-115511386D01*
X130299357Y-115831993D01*
X130145094Y-116164899D01*
X130056825Y-116370172D01*
X129983033Y-116533933D01*
X129914725Y-116664415D01*
X129861605Y-116744082D01*
X129841022Y-116760202D01*
X129789342Y-116732230D01*
X129714879Y-116650614D01*
X129658212Y-116570274D01*
X129523222Y-116403614D01*
X129384978Y-116321305D01*
X129243724Y-116323461D01*
X129182086Y-116350403D01*
X129132936Y-116387668D01*
X129089152Y-116448246D01*
X129044588Y-116546136D01*
X128993100Y-116695335D01*
X128928543Y-116909838D01*
X128913226Y-116962838D01*
X128775224Y-117422480D01*
X128635183Y-117843659D01*
X128485450Y-118244765D01*
X128318369Y-118644187D01*
X128126285Y-119060316D01*
X127901541Y-119511539D01*
X127662002Y-119968505D01*
X127358370Y-120524281D01*
X127049209Y-121065371D01*
X126744007Y-121575903D01*
X126452254Y-122040004D01*
X126183439Y-122441802D01*
X126182991Y-122442446D01*
X126094136Y-122564419D01*
X125957987Y-122743643D01*
X125781000Y-122971952D01*
X125569627Y-123241176D01*
X125330322Y-123543148D01*
X125069539Y-123869699D01*
X124793731Y-124212663D01*
X124509353Y-124563870D01*
X124421310Y-124672102D01*
X124141457Y-125016220D01*
X123872516Y-125347827D01*
X123620245Y-125659763D01*
X123390402Y-125944867D01*
X123188745Y-126195977D01*
X123021032Y-126405934D01*
X122893020Y-126567575D01*
X122810469Y-126673739D01*
X122791146Y-126699505D01*
X122672420Y-126871610D01*
X122518791Y-127110293D01*
X122335165Y-127407407D01*
X122126448Y-127754807D01*
X121897545Y-128144344D01*
X121653362Y-128567874D01*
X121447469Y-128930742D01*
X121268120Y-129246656D01*
X121124420Y-129488555D01*
X121011229Y-129656618D01*
X120923405Y-129751022D01*
X120855807Y-129771946D01*
X120803293Y-129719566D01*
X120760721Y-129594062D01*
X120722950Y-129395611D01*
X120684839Y-129124390D01*
X120663585Y-128957867D01*
X120630410Y-128704559D01*
X120598077Y-128475177D01*
X120568926Y-128285042D01*
X120545298Y-128149472D01*
X120530379Y-128085922D01*
X120465029Y-128012673D01*
X120365771Y-127989489D01*
X120270843Y-128022121D01*
X120248979Y-128043588D01*
X120219776Y-128102395D01*
X120171160Y-128224408D01*
X120109708Y-128392255D01*
X120041995Y-128588563D01*
X120036662Y-128604505D01*
X119676680Y-129553665D01*
X119245368Y-130457461D01*
X118742470Y-131316266D01*
X118167728Y-132130454D01*
X117520887Y-132900397D01*
X116801688Y-133626470D01*
X116238545Y-134122596D01*
X115973119Y-134340030D01*
X115763935Y-134500254D01*
X115605180Y-134603660D01*
X115491044Y-134650639D01*
X115415715Y-134641583D01*
X115373380Y-134576883D01*
X115358230Y-134456931D01*
X115364452Y-134282118D01*
X115373128Y-134180885D01*
X115385457Y-133970515D01*
X115385915Y-133746936D01*
X115375826Y-133531290D01*
X115356516Y-133344719D01*
X115329308Y-133208367D01*
X115309051Y-133158313D01*
X115247464Y-133119879D01*
X115200909Y-133113005D01*
X115162036Y-133130949D01*
X115111210Y-133190327D01*
X115043439Y-133299459D01*
X114953733Y-133466665D01*
X114837098Y-133700266D01*
X114788183Y-133800922D01*
X114563713Y-134253850D01*
X114341831Y-134676041D01*
X114115266Y-135078537D01*
X113876748Y-135472379D01*
X113619008Y-135868609D01*
X113334776Y-136278269D01*
X113016781Y-136712400D01*
X112657753Y-137182045D01*
X112250424Y-137698244D01*
X112092339Y-137895389D01*
X111847795Y-138197806D01*
X111649404Y-138439365D01*
X111491551Y-138626204D01*
X111368618Y-138764460D01*
X111274989Y-138860272D01*
X111205049Y-138919776D01*
X111153182Y-138949110D01*
X111122767Y-138955005D01*
X111089975Y-138948169D01*
X111068073Y-138920205D01*
X111056709Y-138859928D01*
X111055529Y-138756152D01*
X111064183Y-138597692D01*
X111082317Y-138373363D01*
X111098696Y-138190494D01*
X111114523Y-137942850D01*
X111120215Y-137674406D01*
X111116714Y-137399668D01*
X111104963Y-137133136D01*
X111085904Y-136889314D01*
X111060479Y-136682705D01*
X111029631Y-136527812D01*
X110994302Y-136439137D01*
X110984207Y-136428496D01*
X110929720Y-136394202D01*
X110887546Y-136388888D01*
X110855695Y-136421056D01*
X110832178Y-136499211D01*
X110815005Y-136631857D01*
X110802187Y-136827496D01*
X110791734Y-137094634D01*
X110786290Y-137274479D01*
X110744954Y-138040354D01*
X110663660Y-138755848D01*
X110537897Y-139447468D01*
X110363159Y-140141720D01*
X110217579Y-140618039D01*
X110122154Y-140891997D01*
X110037700Y-141084748D01*
X109959388Y-141198263D01*
X109882390Y-141234516D01*
X109801877Y-141195479D01*
X109713022Y-141083124D01*
X109610997Y-140899424D01*
X109597072Y-140871532D01*
X109476575Y-140635289D01*
X109343471Y-140386484D01*
X109206105Y-140139531D01*
X109072824Y-139908845D01*
X108951973Y-139708840D01*
X108851899Y-139553931D01*
X108780947Y-139458533D01*
X108775401Y-139452422D01*
X108698384Y-139379062D01*
X108633667Y-139343947D01*
X108576796Y-139353770D01*
X108523313Y-139415224D01*
X108468763Y-139535003D01*
X108408691Y-139719798D01*
X108338639Y-139976304D01*
X108284278Y-140190116D01*
X108170617Y-140671152D01*
X108087276Y-141092017D01*
X108032569Y-141470922D01*
X108004814Y-141826081D01*
X108002327Y-142175707D01*
X108023424Y-142538013D01*
X108046242Y-142765005D01*
X108093591Y-143223044D01*
X108136409Y-143716154D01*
X108173163Y-144220955D01*
X108202322Y-144714065D01*
X108222356Y-145172102D01*
X108231733Y-145571685D01*
X108231983Y-145601338D01*
X108233156Y-145884818D01*
X108231147Y-146099988D01*
X108224545Y-146263184D01*
X108211941Y-146390745D01*
X108191923Y-146499008D01*
X108163083Y-146604310D01*
X108138995Y-146678740D01*
X108069016Y-146874808D01*
X108002433Y-147038418D01*
X107945990Y-147154530D01*
X107906434Y-147208104D01*
X107900707Y-147210005D01*
X107870694Y-147177651D01*
X107804179Y-147090747D01*
X107712601Y-146964526D01*
X107654338Y-146881922D01*
X107559061Y-146744821D01*
X107427498Y-146554490D01*
X107271134Y-146327598D01*
X107101457Y-146080816D01*
X106929951Y-145830815D01*
X106903251Y-145791838D01*
X106645822Y-145419104D01*
X106419630Y-145099790D01*
X106210673Y-144815751D01*
X106004952Y-144548838D01*
X105788463Y-144280907D01*
X105547205Y-143993810D01*
X105267177Y-143669400D01*
X105253600Y-143653817D01*
X104990491Y-143351677D01*
X104775902Y-143104289D01*
X104602564Y-142902717D01*
X104463210Y-142738025D01*
X104350570Y-142601277D01*
X104257378Y-142483536D01*
X104176366Y-142375867D01*
X104100264Y-142269332D01*
X104021806Y-142154997D01*
X103960513Y-142063926D01*
X103578143Y-141420298D01*
X103255670Y-140721594D01*
X102996612Y-139975901D01*
X102902957Y-139632338D01*
X102779185Y-139038865D01*
X102693073Y-138394305D01*
X102644611Y-137694825D01*
X102633788Y-136936594D01*
X102660595Y-136115780D01*
X102725021Y-135228551D01*
X102827055Y-134271076D01*
X102834430Y-134213519D01*
X108851379Y-134213519D01*
X108886774Y-134308125D01*
X108972151Y-134368637D01*
X109076294Y-134383975D01*
X109167989Y-134343060D01*
X109179794Y-134330088D01*
X109233746Y-134249500D01*
X109313556Y-134113432D01*
X109411820Y-133936245D01*
X109521133Y-133732300D01*
X109634090Y-133515957D01*
X109743287Y-133301579D01*
X109841318Y-133103525D01*
X109920778Y-132936157D01*
X109974263Y-132813836D01*
X109994368Y-132750923D01*
X109994379Y-132750285D01*
X109958715Y-132654233D01*
X109871910Y-132597701D01*
X109764242Y-132596989D01*
X109733181Y-132609685D01*
X109692529Y-132656977D01*
X109621094Y-132765803D01*
X109526522Y-132922254D01*
X109416462Y-133112423D01*
X109298559Y-133322400D01*
X109180461Y-133538277D01*
X109069815Y-133746146D01*
X108974267Y-133932098D01*
X108901466Y-134082225D01*
X108859057Y-134182618D01*
X108851379Y-134213519D01*
X102834430Y-134213519D01*
X102887399Y-133800177D01*
X102912185Y-133583315D01*
X102915192Y-133440261D01*
X102892959Y-133362159D01*
X102842023Y-133340156D01*
X102758923Y-133365396D01*
X102724080Y-133382465D01*
X102581067Y-133485600D01*
X102404496Y-133663699D01*
X102196076Y-133914752D01*
X101957517Y-134236752D01*
X101785498Y-134485516D01*
X101652688Y-134679727D01*
X101533834Y-134849135D01*
X101437968Y-134981208D01*
X101374119Y-135063414D01*
X101354123Y-135084135D01*
X101289540Y-135082018D01*
X101223931Y-135001146D01*
X101159148Y-134847379D01*
X101097044Y-134626579D01*
X101039472Y-134344607D01*
X100988284Y-134007326D01*
X100971952Y-133875005D01*
X100948219Y-133604377D01*
X100931036Y-133268526D01*
X100920293Y-132885575D01*
X100915877Y-132473647D01*
X100917677Y-132050866D01*
X100925582Y-131635354D01*
X100939480Y-131245235D01*
X100959259Y-130898631D01*
X100984809Y-130613666D01*
X100992393Y-130551838D01*
X101114702Y-129773878D01*
X101267204Y-129065740D01*
X101449012Y-128431112D01*
X101605822Y-128001255D01*
X101695810Y-127779005D01*
X101576807Y-127779005D01*
X101479497Y-127793181D01*
X101394389Y-127841217D01*
X101317163Y-127931376D01*
X101243502Y-128071917D01*
X101169086Y-128271103D01*
X101089599Y-128537196D01*
X101000720Y-128878456D01*
X100999449Y-128883565D01*
X100927454Y-129168710D01*
X100870142Y-129382638D01*
X100823350Y-129536677D01*
X100782916Y-129642154D01*
X100744679Y-129710396D01*
X100704476Y-129752729D01*
X100672533Y-129773227D01*
X100602653Y-129794378D01*
X100540927Y-129769354D01*
X100479183Y-129688556D01*
X100409251Y-129542382D01*
X100350725Y-129395169D01*
X100259597Y-129138385D01*
X100185547Y-128885826D01*
X100123388Y-128615019D01*
X100067927Y-128303492D01*
X100016582Y-127948338D01*
X99987910Y-127670437D01*
X99965629Y-127324854D01*
X99949742Y-126928333D01*
X99940249Y-126497617D01*
X99937151Y-126049451D01*
X99940450Y-125600576D01*
X99944250Y-125430955D01*
X104117507Y-125430955D01*
X104121144Y-125535338D01*
X104142580Y-125826859D01*
X104179876Y-126036183D01*
X104235446Y-126164704D01*
X104311706Y-126213816D01*
X104411071Y-126184915D01*
X104535956Y-126079396D01*
X104688776Y-125898653D01*
X104707572Y-125874005D01*
X104854688Y-125687933D01*
X104997881Y-125521866D01*
X105126858Y-125386270D01*
X105231324Y-125291608D01*
X105300986Y-125248347D01*
X105320911Y-125250427D01*
X105316541Y-125298818D01*
X105276290Y-125394110D01*
X105234368Y-125471409D01*
X105141939Y-125674507D01*
X105056437Y-125950179D01*
X104979246Y-126286513D01*
X104911750Y-126671597D01*
X104855331Y-127093519D01*
X104811375Y-127540370D01*
X104781264Y-128000236D01*
X104766382Y-128461206D01*
X104768113Y-128911369D01*
X104786817Y-129324172D01*
X104806874Y-129608887D01*
X104824003Y-129819865D01*
X104840902Y-129967846D01*
X104860267Y-130063573D01*
X104884797Y-130117788D01*
X104917189Y-130141231D01*
X104960141Y-130144646D01*
X104992096Y-130141549D01*
X105104879Y-130128505D01*
X105131011Y-128752672D01*
X105139588Y-128343703D01*
X105148769Y-128006939D01*
X105159331Y-127729916D01*
X105172047Y-127500173D01*
X105187695Y-127305245D01*
X105207048Y-127132671D01*
X105222700Y-127025836D01*
X116600782Y-127025836D01*
X116613537Y-127139913D01*
X116666398Y-127205298D01*
X116726542Y-127225329D01*
X116774127Y-127206274D01*
X116838763Y-127165710D01*
X116895678Y-127096169D01*
X116972615Y-126959520D01*
X117063709Y-126769266D01*
X117163098Y-126538913D01*
X117264920Y-126281964D01*
X117363312Y-126011925D01*
X117441159Y-125778116D01*
X117643381Y-125031220D01*
X117797481Y-124220779D01*
X117888477Y-123498530D01*
X117900082Y-123337061D01*
X117893588Y-123235790D01*
X117866251Y-123171653D01*
X117846939Y-123149280D01*
X117747524Y-123086009D01*
X117647131Y-123104691D01*
X117605312Y-123132922D01*
X117566546Y-123195564D01*
X117532502Y-123323473D01*
X117501294Y-123524696D01*
X117488872Y-123630338D01*
X117350585Y-124519616D01*
X117131603Y-125399028D01*
X116830080Y-126275909D01*
X116808797Y-126329927D01*
X116697846Y-126626997D01*
X116628696Y-126856915D01*
X116600782Y-127025836D01*
X105222700Y-127025836D01*
X105230883Y-126969989D01*
X105248214Y-126868838D01*
X105420951Y-126066542D01*
X105650788Y-125281619D01*
X105829091Y-124780633D01*
X105907952Y-124565270D01*
X105972374Y-124375220D01*
X106017634Y-124225590D01*
X106039012Y-124131485D01*
X106038993Y-124109153D01*
X106011029Y-124075081D01*
X105953315Y-124085794D01*
X105891612Y-124115327D01*
X105761322Y-124202017D01*
X105595519Y-124341086D01*
X105409902Y-124517493D01*
X105220173Y-124716196D01*
X105042030Y-124922153D01*
X105016495Y-124953721D01*
X104815863Y-125199228D01*
X104661564Y-125376605D01*
X104552034Y-125487534D01*
X104485709Y-125533703D01*
X104476466Y-125535338D01*
X104454807Y-125496410D01*
X104450420Y-125388960D01*
X104461645Y-125226984D01*
X104486815Y-125024483D01*
X104524269Y-124795454D01*
X104572343Y-124553897D01*
X104614804Y-124371172D01*
X104800260Y-123708716D01*
X105034743Y-123011385D01*
X105197214Y-122582652D01*
X105259770Y-122414393D01*
X105303869Y-122275931D01*
X105324115Y-122185498D01*
X105321954Y-122161136D01*
X105262859Y-122156217D01*
X105170912Y-122207014D01*
X105062957Y-122300697D01*
X104955839Y-122424435D01*
X104930802Y-122459084D01*
X104866591Y-122575882D01*
X104786050Y-122759574D01*
X104694246Y-122995136D01*
X104596250Y-123267544D01*
X104497129Y-123561774D01*
X104401953Y-123862804D01*
X104315790Y-124155608D01*
X104243711Y-124425163D01*
X104192832Y-124646338D01*
X104143579Y-124924121D01*
X104119746Y-125169857D01*
X104117507Y-125430955D01*
X99944250Y-125430955D01*
X99950147Y-125167737D01*
X99966242Y-124767678D01*
X99988737Y-124417141D01*
X100016330Y-124142949D01*
X100046794Y-123880899D01*
X100060068Y-123692769D01*
X100054879Y-123569324D01*
X100029956Y-123501329D01*
X99984027Y-123479547D01*
X99926533Y-123490811D01*
X99808406Y-123562988D01*
X99672394Y-123695341D01*
X99534341Y-123870389D01*
X99424213Y-124045038D01*
X99355290Y-124162359D01*
X99296674Y-124246372D01*
X99247549Y-124292443D01*
X99207101Y-124295937D01*
X99174513Y-124252221D01*
X99148972Y-124156659D01*
X99129661Y-124004618D01*
X99115765Y-123791464D01*
X99106470Y-123512561D01*
X99100959Y-123163276D01*
X99098418Y-122738974D01*
X99098032Y-122235021D01*
X99098070Y-122191005D01*
X99100657Y-121576275D01*
X99108089Y-121031788D01*
X99121738Y-120543191D01*
X99142973Y-120096132D01*
X99173167Y-119676259D01*
X99213690Y-119269219D01*
X99247092Y-119007897D01*
X123857699Y-119007897D01*
X123909716Y-119041879D01*
X124002195Y-119038623D01*
X124102301Y-119003277D01*
X124161201Y-118960302D01*
X124186999Y-118912900D01*
X124243175Y-118795187D01*
X124326422Y-118614530D01*
X124433430Y-118378295D01*
X124560890Y-118093848D01*
X124705492Y-117768554D01*
X124863927Y-117409780D01*
X125032885Y-117024891D01*
X125110906Y-116846422D01*
X125283179Y-116454012D01*
X125446559Y-116086024D01*
X125597747Y-115749601D01*
X125733446Y-115451886D01*
X125850358Y-115200023D01*
X125945185Y-115001155D01*
X126014629Y-114862425D01*
X126055392Y-114790978D01*
X126063661Y-114782672D01*
X126123023Y-114808129D01*
X126220058Y-114873520D01*
X126292712Y-114930838D01*
X126458101Y-115042855D01*
X126599226Y-115077346D01*
X126725250Y-115034574D01*
X126820460Y-114945970D01*
X126950376Y-114753710D01*
X127081723Y-114489137D01*
X127210700Y-114164444D01*
X127333504Y-113791824D01*
X127446334Y-113383469D01*
X127545390Y-112951571D01*
X127626868Y-112508324D01*
X127667311Y-112229920D01*
X127695047Y-111958918D01*
X127714185Y-111651087D01*
X127725065Y-111319910D01*
X127728023Y-110978866D01*
X127723397Y-110641436D01*
X127711526Y-110321102D01*
X127692747Y-110031344D01*
X127667399Y-109785643D01*
X127665536Y-109774543D01*
X128776495Y-109774543D01*
X128779770Y-109804952D01*
X128848421Y-109827213D01*
X128956008Y-109824608D01*
X129061231Y-109799299D01*
X129083555Y-109789028D01*
X129170689Y-109700602D01*
X129247301Y-109544562D01*
X129311291Y-109337539D01*
X129360561Y-109096167D01*
X129393015Y-108837075D01*
X129406553Y-108576898D01*
X129399077Y-108332266D01*
X129368490Y-108119812D01*
X129314357Y-107959422D01*
X129238295Y-107863791D01*
X129142022Y-107809666D01*
X129054719Y-107812791D01*
X129048754Y-107816134D01*
X129034110Y-107866541D01*
X129027069Y-107983040D01*
X129028285Y-108147339D01*
X129032986Y-108256498D01*
X129030307Y-108654491D01*
X128974436Y-109049714D01*
X128861153Y-109469489D01*
X128832215Y-109555948D01*
X128794074Y-109682628D01*
X128776495Y-109774543D01*
X127665536Y-109774543D01*
X127635818Y-109597480D01*
X127598390Y-109480422D01*
X127521813Y-109420903D01*
X127423639Y-109406334D01*
X127287545Y-109406330D01*
X127287103Y-110623417D01*
X127286288Y-110994697D01*
X127283623Y-111295547D01*
X127278334Y-111540197D01*
X127269643Y-111742876D01*
X127256775Y-111917815D01*
X127238955Y-112079244D01*
X127215405Y-112241391D01*
X127190951Y-112386726D01*
X127126709Y-112730234D01*
X127056318Y-113066527D01*
X126982851Y-113383947D01*
X126909382Y-113670839D01*
X126838986Y-113915545D01*
X126774737Y-114106407D01*
X126719709Y-114231769D01*
X126694714Y-114268336D01*
X126652570Y-114292704D01*
X126595488Y-114273250D01*
X126504662Y-114201917D01*
X126472321Y-114173086D01*
X126302751Y-114054609D01*
X126147823Y-114019296D01*
X126006647Y-114067078D01*
X125930857Y-114132686D01*
X125861946Y-114216290D01*
X125827837Y-114275801D01*
X125827045Y-114281152D01*
X125809148Y-114327340D01*
X125758646Y-114439353D01*
X125680323Y-114607056D01*
X125578965Y-114820309D01*
X125459355Y-115068977D01*
X125326279Y-115342921D01*
X125315473Y-115365054D01*
X125168690Y-115668245D01*
X125023783Y-115972400D01*
X124888186Y-116261557D01*
X124769331Y-116519754D01*
X124674652Y-116731029D01*
X124620706Y-116857005D01*
X124516837Y-117114523D01*
X124408308Y-117393274D01*
X124299191Y-117681776D01*
X124193559Y-117968551D01*
X124095483Y-118242118D01*
X124009036Y-118490997D01*
X123938290Y-118703710D01*
X123887318Y-118868776D01*
X123860192Y-118974715D01*
X123857699Y-119007897D01*
X99247092Y-119007897D01*
X99265913Y-118860660D01*
X99331206Y-118436229D01*
X99410941Y-117981574D01*
X99506489Y-117482342D01*
X99585313Y-117089838D01*
X99733086Y-116396727D01*
X99880615Y-115775087D01*
X100032315Y-115211854D01*
X100120751Y-114926114D01*
X101788437Y-114926114D01*
X101812949Y-114953645D01*
X101868231Y-114923114D01*
X101955732Y-114840230D01*
X101980511Y-114814422D01*
X102046570Y-114739555D01*
X102107426Y-114655688D01*
X102169172Y-114550741D01*
X102237906Y-114412634D01*
X102319723Y-114229288D01*
X102420719Y-113988621D01*
X102519905Y-113745505D01*
X102678336Y-113371721D01*
X102827995Y-113059658D01*
X102980440Y-112788845D01*
X103147229Y-112538814D01*
X103339921Y-112289095D01*
X103347538Y-112279789D01*
X103475856Y-112114324D01*
X103595654Y-111944278D01*
X103686874Y-111798625D01*
X103708670Y-111758110D01*
X103769902Y-111608335D01*
X103805115Y-111465402D01*
X103812115Y-111349285D01*
X103788706Y-111279956D01*
X103762418Y-111269005D01*
X103710947Y-111298098D01*
X103620731Y-111375196D01*
X103509278Y-111485029D01*
X103483317Y-111512422D01*
X103036081Y-112048816D01*
X102639993Y-112643585D01*
X102302916Y-113282340D01*
X102032708Y-113950693D01*
X101885045Y-114438056D01*
X101825933Y-114674028D01*
X101793248Y-114834811D01*
X101788437Y-114926114D01*
X100120751Y-114926114D01*
X100192603Y-114693961D01*
X100365895Y-114208343D01*
X100556606Y-113741933D01*
X100769154Y-113281665D01*
X101007953Y-112814474D01*
X101068050Y-112702833D01*
X101216235Y-112425013D01*
X101323455Y-112208772D01*
X101392433Y-112043161D01*
X101425889Y-111917232D01*
X101426546Y-111820038D01*
X101397126Y-111740631D01*
X101340349Y-111668063D01*
X101328341Y-111655788D01*
X101203263Y-111561241D01*
X101053499Y-111486896D01*
X101023498Y-111476804D01*
X100939787Y-111454387D01*
X100862830Y-111444322D01*
X100773829Y-111448474D01*
X100653983Y-111468713D01*
X100484490Y-111506904D01*
X100321212Y-111546554D01*
X100263104Y-111558622D01*
X100216752Y-111557700D01*
X100180865Y-111535552D01*
X100154153Y-111483942D01*
X100135327Y-111394631D01*
X100125212Y-111282782D01*
X102477690Y-111282782D01*
X102482627Y-111344147D01*
X102500607Y-111373908D01*
X102561408Y-111427609D01*
X102590221Y-111438338D01*
X102629936Y-111406566D01*
X102705877Y-111321501D01*
X102804744Y-111198516D01*
X102855769Y-111131422D01*
X102973336Y-110967073D01*
X103114632Y-110758919D01*
X103260254Y-110536008D01*
X103368597Y-110363698D01*
X103488664Y-110164004D01*
X103565468Y-110023904D01*
X103603652Y-109933181D01*
X103607857Y-109881619D01*
X103595283Y-109864732D01*
X103495387Y-109803504D01*
X103392277Y-109748883D01*
X103313018Y-109714361D01*
X103285098Y-109710133D01*
X103245836Y-109767909D01*
X103176208Y-109885100D01*
X103084798Y-110045947D01*
X102980190Y-110234689D01*
X102870967Y-110435567D01*
X102765714Y-110632821D01*
X102673015Y-110810691D01*
X102601453Y-110953416D01*
X102564862Y-111032474D01*
X102503865Y-111185464D01*
X102477690Y-111282782D01*
X100125212Y-111282782D01*
X100123095Y-111259383D01*
X100116169Y-111069962D01*
X100113257Y-110818129D01*
X100113070Y-110495647D01*
X100113872Y-110222765D01*
X100116714Y-109871838D01*
X100122546Y-109519550D01*
X100124359Y-109446168D01*
X112904214Y-109446168D01*
X112949511Y-109536721D01*
X113031280Y-109621166D01*
X113286759Y-109798762D01*
X113552976Y-109893700D01*
X113826825Y-109905273D01*
X114051632Y-109853218D01*
X114224864Y-109792099D01*
X114487747Y-109985621D01*
X114774888Y-110179616D01*
X115020754Y-110305955D01*
X115232687Y-110366302D01*
X115418030Y-110362316D01*
X115584124Y-110295661D01*
X115650641Y-110248795D01*
X115921472Y-110066280D01*
X116184365Y-109959794D01*
X116333660Y-109931039D01*
X116438058Y-109913031D01*
X116523275Y-109878700D01*
X116610476Y-109814180D01*
X116720829Y-109705609D01*
X116789401Y-109632522D01*
X117043923Y-109358054D01*
X117593734Y-109404943D01*
X117850852Y-109431563D01*
X118124683Y-109467632D01*
X118379460Y-109508056D01*
X118550899Y-109541279D01*
X118958254Y-109630726D01*
X119448506Y-109394986D01*
X119735684Y-109249183D01*
X120022875Y-109089476D01*
X120294548Y-108925618D01*
X120535173Y-108767365D01*
X120729220Y-108624471D01*
X120858792Y-108509196D01*
X120977669Y-108357048D01*
X121028754Y-108226147D01*
X121008813Y-108125363D01*
X121001924Y-108116230D01*
X120970391Y-108099685D01*
X120915202Y-108110010D01*
X120825260Y-108152553D01*
X120689468Y-108232660D01*
X120496731Y-108355677D01*
X120473232Y-108370978D01*
X120216117Y-108535218D01*
X119952355Y-108697642D01*
X119693201Y-108851904D01*
X119449907Y-108991659D01*
X119233727Y-109110562D01*
X119055914Y-109202266D01*
X118927722Y-109260427D01*
X118863212Y-109278852D01*
X118774518Y-109266466D01*
X118643225Y-109235401D01*
X118566879Y-109213481D01*
X118360518Y-109172852D01*
X118093593Y-109156025D01*
X117974212Y-109156426D01*
X117638808Y-109145643D01*
X117368086Y-109097102D01*
X117349090Y-109091616D01*
X117185903Y-109053967D01*
X117043718Y-109040325D01*
X116984623Y-109045353D01*
X116839474Y-109116278D01*
X116699697Y-109256159D01*
X116580098Y-109449815D01*
X116570610Y-109469838D01*
X116492286Y-109639172D01*
X116148592Y-109660338D01*
X115975584Y-109673056D01*
X115859639Y-109692103D01*
X115773247Y-109727748D01*
X115688895Y-109790262D01*
X115609917Y-109861422D01*
X115457904Y-109980248D01*
X115313672Y-110040527D01*
X115165815Y-110040060D01*
X115002928Y-109976645D01*
X114813605Y-109848084D01*
X114602776Y-109667181D01*
X114445904Y-109535972D01*
X114322191Y-109467977D01*
X114213622Y-109458956D01*
X114102184Y-109504670D01*
X114052348Y-109537632D01*
X113921680Y-109604849D01*
X113774465Y-109647004D01*
X113765585Y-109648299D01*
X113660742Y-109652308D01*
X113560747Y-109626663D01*
X113436685Y-109561897D01*
X113364579Y-109517005D01*
X113226202Y-109437826D01*
X113101696Y-109382543D01*
X113024919Y-109364005D01*
X112929283Y-109385896D01*
X112904214Y-109446168D01*
X100124359Y-109446168D01*
X100130865Y-109182975D01*
X100141174Y-108879188D01*
X100152971Y-108625262D01*
X100165758Y-108438274D01*
X100166261Y-108432672D01*
X100211214Y-107963128D01*
X100215782Y-107920686D01*
X111518379Y-107920686D01*
X111546929Y-107983128D01*
X111623304Y-108087618D01*
X111733590Y-108219358D01*
X111863871Y-108363549D01*
X112000232Y-108505391D01*
X112128759Y-108630088D01*
X112235538Y-108722840D01*
X112306653Y-108768848D01*
X112318223Y-108771338D01*
X112411232Y-108743035D01*
X112441245Y-108720538D01*
X112479035Y-108665899D01*
X112481022Y-108602560D01*
X112441118Y-108520405D01*
X112353235Y-108409317D01*
X112211283Y-108259180D01*
X112092585Y-108141199D01*
X111927673Y-107981427D01*
X111810263Y-107874227D01*
X111728854Y-107811450D01*
X111671945Y-107784945D01*
X111628035Y-107786564D01*
X111605752Y-107796223D01*
X111536661Y-107863477D01*
X111518379Y-107920686D01*
X100215782Y-107920686D01*
X100254735Y-107558849D01*
X100296323Y-107223417D01*
X100335475Y-106960415D01*
X100371691Y-106773427D01*
X100404469Y-106666036D01*
X100416120Y-106646609D01*
X100461958Y-106605556D01*
X100530252Y-106567126D01*
X100628304Y-106529759D01*
X100763418Y-106491896D01*
X100942897Y-106451977D01*
X101174045Y-106408441D01*
X101464164Y-106359731D01*
X101820559Y-106304285D01*
X102250532Y-106240544D01*
X102459045Y-106210314D01*
X102891801Y-106147219D01*
X103364050Y-106077195D01*
X103853204Y-106003668D01*
X104336673Y-105930066D01*
X104791868Y-105859816D01*
X105196200Y-105796345D01*
X105358879Y-105770371D01*
X106018773Y-105666912D01*
X106611613Y-105580333D01*
X107153055Y-105509418D01*
X107658756Y-105452949D01*
X108144371Y-105409708D01*
X108625557Y-105378477D01*
X109117968Y-105358040D01*
X109637262Y-105347179D01*
X110199094Y-105344676D01*
X110779252Y-105348848D01*
X111156732Y-105353047D01*
X111459142Y-105357616D01*
X111696056Y-105364872D01*
X111877049Y-105377132D01*
X112011696Y-105396711D01*
X112109569Y-105425928D01*
X112180244Y-105467099D01*
X112233296Y-105522539D01*
X112278298Y-105594568D01*
X112324824Y-105685500D01*
X112346167Y-105728000D01*
X112446331Y-105882695D01*
X112600150Y-106068319D01*
X112791103Y-106268441D01*
X113002665Y-106466627D01*
X113218314Y-106646444D01*
X113404311Y-106780351D01*
X113832162Y-107021379D01*
X114298142Y-107216771D01*
X114637121Y-107319749D01*
X114788923Y-107350815D01*
X114967452Y-107372384D01*
X115189116Y-107385639D01*
X115470324Y-107391763D01*
X115645879Y-107392523D01*
X115937000Y-107390720D01*
X116167571Y-107383826D01*
X116361657Y-107369659D01*
X116543323Y-107346034D01*
X116736636Y-107310769D01*
X116879930Y-107280572D01*
X117136331Y-107219099D01*
X117417159Y-107142716D01*
X117682201Y-107062751D01*
X117832430Y-107012274D01*
X117997489Y-106955027D01*
X118226061Y-106878093D01*
X118500884Y-106787156D01*
X118804698Y-106687904D01*
X119120240Y-106586022D01*
X119328879Y-106519356D01*
X119681730Y-106406160D01*
X119969224Y-106310272D01*
X120207023Y-106224410D01*
X120410785Y-106141291D01*
X120596172Y-106053632D01*
X120778843Y-105954150D01*
X120974459Y-105835564D01*
X121198680Y-105690589D01*
X121403210Y-105554703D01*
X121637478Y-105401715D01*
X121890211Y-105242487D01*
X122133935Y-105093990D01*
X122341175Y-104973195D01*
X122376879Y-104953272D01*
X122921525Y-104641570D01*
X123404513Y-104340350D01*
X123845404Y-104036180D01*
X124263759Y-103715629D01*
X124641712Y-103398065D01*
X124885521Y-103179862D01*
X125074705Y-102996071D01*
X125222741Y-102830793D01*
X125343101Y-102668131D01*
X125449260Y-102492187D01*
X125514380Y-102368422D01*
X125589983Y-102223113D01*
X125645579Y-102137896D01*
X125698267Y-102096760D01*
X125765150Y-102083696D01*
X125819604Y-102082672D01*
X126013695Y-102102341D01*
X126260119Y-102157124D01*
X126537385Y-102240686D01*
X126823998Y-102346687D01*
X127049797Y-102445377D01*
X127215503Y-102523046D01*
X127350175Y-102585040D01*
X127437185Y-102623775D01*
X127461057Y-102633005D01*
X127489200Y-102600694D01*
X127521898Y-102545499D01*
X127536296Y-102436853D01*
X127478830Y-102322067D01*
X127359254Y-102217515D01*
X127309449Y-102188886D01*
X127196425Y-102140762D01*
X127026783Y-102081353D01*
X126816761Y-102015075D01*
X126582600Y-101946346D01*
X126340539Y-101879582D01*
X126106816Y-101819202D01*
X125897672Y-101769622D01*
X125729345Y-101735260D01*
X125618075Y-101720532D01*
X125591044Y-101721469D01*
X125477297Y-101764970D01*
X125358814Y-101860303D01*
X125225471Y-102017104D01*
X125111823Y-102177564D01*
X124974337Y-102337704D01*
X124833564Y-102413686D01*
X124693949Y-102407714D01*
X124608627Y-102378288D01*
X124486935Y-102333638D01*
X124451212Y-102320145D01*
X124257264Y-102273495D01*
X124023444Y-102256183D01*
X123789466Y-102268666D01*
X123597990Y-102310349D01*
X123481909Y-102362029D01*
X123326655Y-102445144D01*
X123162819Y-102543155D01*
X123137585Y-102559287D01*
X122884536Y-102709361D01*
X122659475Y-102807562D01*
X122431808Y-102863149D01*
X122170941Y-102885378D01*
X122054511Y-102887005D01*
X121829807Y-102893149D01*
X121646087Y-102916453D01*
X121460240Y-102964222D01*
X121317855Y-103011862D01*
X121098961Y-103081780D01*
X120854323Y-103148799D01*
X120634059Y-103199272D01*
X120618414Y-103202296D01*
X120332551Y-103267448D01*
X120101533Y-103348922D01*
X119895607Y-103459679D01*
X119695533Y-103604289D01*
X119532263Y-103717078D01*
X119343626Y-103810363D01*
X119102223Y-103897355D01*
X119060533Y-103910441D01*
X118841445Y-103987487D01*
X118588204Y-104090738D01*
X118339812Y-104203772D01*
X118215288Y-104266316D01*
X118032521Y-104357856D01*
X117867954Y-104432035D01*
X117740957Y-104480621D01*
X117675557Y-104495672D01*
X117588282Y-104502735D01*
X117443290Y-104521611D01*
X117266141Y-104548823D01*
X117187990Y-104561955D01*
X116962452Y-104595358D01*
X116782312Y-104606504D01*
X116611595Y-104596520D01*
X116513112Y-104583122D01*
X116225576Y-104551131D01*
X115924732Y-104539348D01*
X115636261Y-104547300D01*
X115385844Y-104574512D01*
X115240812Y-104606569D01*
X114967234Y-104652983D01*
X114650505Y-104647516D01*
X114313041Y-104591852D01*
X114058379Y-104517674D01*
X113856399Y-104454842D01*
X113698142Y-104431737D01*
X113556029Y-104452044D01*
X113402485Y-104519450D01*
X113222564Y-104629392D01*
X113080638Y-104718386D01*
X112986349Y-104764981D01*
X112918641Y-104776274D01*
X112856458Y-104759362D01*
X112848032Y-104755622D01*
X112761992Y-104684731D01*
X112686876Y-104571977D01*
X112676312Y-104548493D01*
X112544518Y-104260681D01*
X112406801Y-104035531D01*
X112246600Y-103851710D01*
X112047357Y-103687885D01*
X111963399Y-103630037D01*
X111821198Y-103522696D01*
X111742761Y-103433852D01*
X111730045Y-103394545D01*
X111737386Y-103362400D01*
X111763485Y-103320966D01*
X111814454Y-103265111D01*
X111896404Y-103189704D01*
X112015449Y-103089612D01*
X112177699Y-102959703D01*
X112389269Y-102794845D01*
X112656269Y-102589906D01*
X112984812Y-102339753D01*
X113000045Y-102328184D01*
X113330153Y-102079330D01*
X113663666Y-101831317D01*
X113992264Y-101590068D01*
X114307625Y-101361504D01*
X114601428Y-101151549D01*
X114865351Y-100966126D01*
X115091074Y-100811157D01*
X115270276Y-100692566D01*
X115394634Y-100616276D01*
X115434212Y-100595586D01*
X115565322Y-100544790D01*
X115686206Y-100524723D01*
X115817263Y-100537768D01*
X115978892Y-100586314D01*
X116191493Y-100672745D01*
X116227280Y-100688353D01*
X116557684Y-100831530D01*
X116830633Y-100945117D01*
X117065094Y-101035970D01*
X117280035Y-101110942D01*
X117494422Y-101176889D01*
X117727221Y-101240665D01*
X117826045Y-101266161D01*
X118119611Y-101336081D01*
X118353205Y-101377038D01*
X118546728Y-101388161D01*
X118720078Y-101368576D01*
X118893156Y-101317413D01*
X119085860Y-101233800D01*
X119137440Y-101208709D01*
X119413825Y-101040821D01*
X119687554Y-100818309D01*
X119936865Y-100562558D01*
X120139994Y-100294955D01*
X120233661Y-100131525D01*
X120347232Y-99836782D01*
X120398688Y-99548873D01*
X120385166Y-99286735D01*
X120370604Y-99224956D01*
X120344884Y-99111620D01*
X120353766Y-99044481D01*
X120402118Y-98990464D01*
X120405534Y-98987618D01*
X120432441Y-98960333D01*
X120433800Y-98935189D01*
X120399483Y-98907092D01*
X120319361Y-98870948D01*
X120183305Y-98821664D01*
X119981189Y-98754145D01*
X119867158Y-98716837D01*
X119386341Y-98545237D01*
X118932965Y-98350681D01*
X118487852Y-98123173D01*
X118031825Y-97852719D01*
X117545704Y-97529325D01*
X117422804Y-97442990D01*
X116906292Y-97080250D01*
X116452576Y-96768925D01*
X116058711Y-96507077D01*
X115721753Y-96292765D01*
X115438757Y-96124053D01*
X115316508Y-96056154D01*
X114838263Y-95823522D01*
X114335361Y-95624930D01*
X113821200Y-95463177D01*
X113309178Y-95341066D01*
X112812692Y-95261396D01*
X112345139Y-95226969D01*
X111919916Y-95240586D01*
X111630203Y-95285477D01*
X111385638Y-95357783D01*
X111094048Y-95472956D01*
X110774989Y-95621560D01*
X110448018Y-95794161D01*
X110132692Y-95981326D01*
X109978090Y-96082448D01*
X109756353Y-96248665D01*
X109496742Y-96469150D01*
X109212488Y-96730672D01*
X108916828Y-97019997D01*
X108622993Y-97323893D01*
X108344217Y-97629128D01*
X108093734Y-97922469D01*
X107928452Y-98131932D01*
X107673755Y-98460972D01*
X107451472Y-98726755D01*
X107250549Y-98938680D01*
X107059930Y-99106145D01*
X106868561Y-99238550D01*
X106665388Y-99345292D01*
X106439355Y-99435770D01*
X106364774Y-99461368D01*
X106242633Y-99503839D01*
X106153841Y-99545394D01*
X106081412Y-99601479D01*
X106008364Y-99687541D01*
X105917710Y-99819026D01*
X105839259Y-99939313D01*
X105619644Y-100304615D01*
X105396757Y-100724218D01*
X105184821Y-101169583D01*
X104998057Y-101612170D01*
X104971582Y-101680505D01*
X104898816Y-101876704D01*
X104851837Y-102027902D01*
X104825008Y-102164938D01*
X104812695Y-102318651D01*
X104809264Y-102519879D01*
X104809146Y-102569505D01*
X104810508Y-102780184D01*
X104818314Y-102931596D01*
X104837179Y-103049122D01*
X104871719Y-103158143D01*
X104926547Y-103284038D01*
X104946980Y-103327493D01*
X105038302Y-103496327D01*
X105153887Y-103659741D01*
X105309700Y-103838480D01*
X105454980Y-103987530D01*
X105712601Y-104224244D01*
X105964563Y-104409579D01*
X106227781Y-104550601D01*
X106519170Y-104654371D01*
X106855646Y-104727953D01*
X107254124Y-104778411D01*
X107374275Y-104788965D01*
X107997210Y-104804195D01*
X108607676Y-104749755D01*
X109192011Y-104627894D01*
X109736555Y-104440863D01*
X109883060Y-104375704D01*
X110048853Y-104293674D01*
X110262710Y-104181797D01*
X110499832Y-104053346D01*
X110735421Y-103921593D01*
X110791993Y-103889223D01*
X110991477Y-103776591D01*
X111167977Y-103680902D01*
X111307291Y-103609553D01*
X111395215Y-103569940D01*
X111415877Y-103564338D01*
X111464719Y-103601193D01*
X111533654Y-103700121D01*
X111613724Y-103843671D01*
X111695970Y-104014390D01*
X111771432Y-104194828D01*
X111831153Y-104367530D01*
X111835167Y-104381125D01*
X111881459Y-104569584D01*
X111905978Y-104733105D01*
X111906672Y-104851907D01*
X111889107Y-104901055D01*
X111843318Y-104906196D01*
X111721377Y-104911750D01*
X111531796Y-104917535D01*
X111283087Y-104923368D01*
X110983761Y-104929068D01*
X110642332Y-104934452D01*
X110267310Y-104939339D01*
X109928669Y-104942965D01*
X109496151Y-104947129D01*
X109124644Y-104951241D01*
X108802730Y-104956258D01*
X108518995Y-104963139D01*
X108262024Y-104972844D01*
X108020400Y-104986331D01*
X107782709Y-105004558D01*
X107537534Y-105028486D01*
X107273461Y-105059072D01*
X106979073Y-105097275D01*
X106642956Y-105144055D01*
X106253693Y-105200369D01*
X105799870Y-105267178D01*
X105445838Y-105319494D01*
X105079072Y-105372771D01*
X104696067Y-105426816D01*
X104316949Y-105478902D01*
X103961848Y-105526298D01*
X103650893Y-105566277D01*
X103411545Y-105595266D01*
X103171955Y-105624019D01*
X102888758Y-105659840D01*
X102576165Y-105700754D01*
X102248389Y-105744786D01*
X101919642Y-105789964D01*
X101604136Y-105834311D01*
X101316084Y-105875854D01*
X101069696Y-105912618D01*
X100879187Y-105942629D01*
X100760539Y-105963556D01*
X100661498Y-105966591D01*
X100613573Y-105918748D01*
X100613344Y-105918155D01*
X100613261Y-105830727D01*
X100650580Y-105675327D01*
X100722677Y-105458591D01*
X100826930Y-105187155D01*
X100960714Y-104867656D01*
X101121406Y-104506729D01*
X101306383Y-104111010D01*
X101423766Y-103868161D01*
X101808554Y-103097393D01*
X102174462Y-102398473D01*
X102526758Y-101762095D01*
X102870705Y-101178957D01*
X103211570Y-100639753D01*
X103458432Y-100272941D01*
X103566377Y-100115497D01*
X103653869Y-99985495D01*
X103711215Y-99897502D01*
X103729045Y-99866350D01*
X103689445Y-99858668D01*
X103581426Y-99848648D01*
X103421160Y-99837553D01*
X103224817Y-99826642D01*
X103210462Y-99825933D01*
X102850905Y-99798854D01*
X102551088Y-99752734D01*
X102287141Y-99681888D01*
X102035199Y-99580630D01*
X101900648Y-99513880D01*
X101642435Y-99353266D01*
X101398689Y-99147142D01*
X101165879Y-98890040D01*
X100940472Y-98576489D01*
X100718933Y-98201020D01*
X100497731Y-97758165D01*
X100273332Y-97242454D01*
X100042203Y-96648418D01*
X100032295Y-96621672D01*
X99912849Y-96296736D01*
X99820956Y-96041352D01*
X99753763Y-95846056D01*
X99708417Y-95701379D01*
X99682065Y-95597856D01*
X99671854Y-95526020D01*
X99674932Y-95476406D01*
X99680976Y-95455884D01*
X99698427Y-95429095D01*
X99735079Y-95411086D01*
X99803574Y-95401081D01*
X99916552Y-95398308D01*
X100086653Y-95401993D01*
X100326518Y-95411363D01*
X100374641Y-95413444D01*
X100653176Y-95419380D01*
X100997700Y-95416880D01*
X101390049Y-95406798D01*
X101812058Y-95389987D01*
X102245561Y-95367299D01*
X102672393Y-95339589D01*
X103074388Y-95307708D01*
X103433381Y-95272511D01*
X103475045Y-95267839D01*
X103593405Y-95258236D01*
X103785707Y-95247437D01*
X104041243Y-95235840D01*
X104349303Y-95223846D01*
X104699177Y-95211855D01*
X105080158Y-95200266D01*
X105481535Y-95189479D01*
X105739879Y-95183279D01*
X106315635Y-95169821D01*
X106813810Y-95157219D01*
X107241474Y-95144832D01*
X107605699Y-95132019D01*
X107913556Y-95118140D01*
X108172117Y-95102553D01*
X108388453Y-95084619D01*
X108569634Y-95063695D01*
X108722734Y-95039140D01*
X108854823Y-95010315D01*
X108972972Y-94976578D01*
X109084254Y-94937288D01*
X109195738Y-94891804D01*
X109258694Y-94864363D01*
X109475116Y-94755957D01*
X109716354Y-94613894D01*
X109969833Y-94447805D01*
X110222977Y-94267323D01*
X110463208Y-94082080D01*
X110677952Y-93901708D01*
X110854631Y-93735839D01*
X110980670Y-93594105D01*
X111037805Y-93501720D01*
X111082416Y-93409606D01*
X111116833Y-93363299D01*
X111120705Y-93362005D01*
X111161190Y-93388552D01*
X111247557Y-93459234D01*
X111363614Y-93560610D01*
X111405887Y-93598706D01*
X111796725Y-93920678D01*
X112232461Y-94222409D01*
X112689204Y-94489522D01*
X113143061Y-94707638D01*
X113434409Y-94819469D01*
X113600273Y-94868761D01*
X113823090Y-94925160D01*
X114076211Y-94982384D01*
X114332988Y-95034146D01*
X114386909Y-95044102D01*
X114524424Y-95068751D01*
X114648093Y-95089577D01*
X114766416Y-95106949D01*
X114887892Y-95121238D01*
X115021021Y-95132814D01*
X115174305Y-95142046D01*
X115356243Y-95149304D01*
X115575335Y-95154959D01*
X115840082Y-95159380D01*
X116158983Y-95162938D01*
X116540538Y-95166003D01*
X116993248Y-95168944D01*
X117296879Y-95170769D01*
X117937740Y-95172539D01*
X118579352Y-95170411D01*
X119214816Y-95164622D01*
X119837234Y-95155413D01*
X120439708Y-95143023D01*
X121015339Y-95127689D01*
X121557230Y-95109652D01*
X122058481Y-95089151D01*
X122512195Y-95066423D01*
X122911473Y-95041710D01*
X123249416Y-95015248D01*
X123519128Y-94987278D01*
X123713709Y-94958038D01*
X123766714Y-94946595D01*
X123933028Y-94912575D01*
X124093709Y-94890592D01*
X124173159Y-94886005D01*
X124307442Y-94867499D01*
X124466492Y-94808731D01*
X124659494Y-94704827D01*
X124895633Y-94550912D01*
X125149712Y-94367773D01*
X125421208Y-94151918D01*
X125718874Y-93891283D01*
X126029861Y-93599138D01*
X126341321Y-93288748D01*
X126640403Y-92973382D01*
X126914260Y-92666307D01*
X127150040Y-92380790D01*
X127334896Y-92130100D01*
X127373361Y-92071747D01*
X127467249Y-91903993D01*
X127575448Y-91677753D01*
X127688774Y-91415884D01*
X127798043Y-91141241D01*
X127894071Y-90876682D01*
X127967674Y-90645062D01*
X128003092Y-90504505D01*
X128027642Y-90369297D01*
X128059861Y-90168758D01*
X128096952Y-89921571D01*
X128136115Y-89646422D01*
X128174555Y-89361997D01*
X128177393Y-89340338D01*
X128227793Y-88930074D01*
X128261000Y-88586530D01*
X128276116Y-88293341D01*
X128272241Y-88034144D01*
X128248476Y-87792573D01*
X128203924Y-87552264D01*
X128137685Y-87296854D01*
X128049521Y-87012005D01*
X127878194Y-86520610D01*
X127703557Y-86094784D01*
X127516164Y-85715650D01*
X127306566Y-85364332D01*
X127065316Y-85021956D01*
X127030765Y-84976637D01*
X126824524Y-84733764D01*
X126563175Y-84464890D01*
X126265064Y-84186124D01*
X125948535Y-83913574D01*
X125631935Y-83663349D01*
X125333608Y-83451558D01*
X125192045Y-83362116D01*
X125031062Y-83264240D01*
X124892966Y-83177666D01*
X124797171Y-83114695D01*
X124768712Y-83093891D01*
X124709394Y-83056568D01*
X124589699Y-82989907D01*
X124425077Y-82902230D01*
X124230980Y-82801861D01*
X124154879Y-82763220D01*
X123638109Y-82533101D01*
X123125389Y-82364852D01*
X122630030Y-82262074D01*
X122177790Y-82228338D01*
X121807243Y-82228338D01*
X121933311Y-82029550D01*
X122033752Y-81802372D01*
X122064801Y-81562164D01*
X122028730Y-81328067D01*
X121927812Y-81119224D01*
X121809889Y-80989796D01*
X121628785Y-80876982D01*
X121443409Y-80845621D01*
X121241694Y-80894413D01*
X121181290Y-80921938D01*
X120983391Y-81064062D01*
X120849432Y-81259022D01*
X120783606Y-81499664D01*
X120777283Y-81611201D01*
X120796383Y-81819050D01*
X120863449Y-81987831D01*
X120992971Y-82154255D01*
X121056523Y-82228367D01*
X121079994Y-82268387D01*
X121077358Y-82270672D01*
X120976386Y-82277952D01*
X120805266Y-82298393D01*
X120577133Y-82329892D01*
X120305120Y-82370346D01*
X120002359Y-82417653D01*
X119681984Y-82469711D01*
X119357128Y-82524416D01*
X119040924Y-82579667D01*
X118746504Y-82633361D01*
X118487003Y-82683396D01*
X118439879Y-82692895D01*
X117916562Y-82800813D01*
X117391764Y-82911872D01*
X116873325Y-83024232D01*
X116369084Y-83136049D01*
X115886882Y-83245482D01*
X115434560Y-83350688D01*
X115019957Y-83449824D01*
X114650915Y-83541048D01*
X114335272Y-83622518D01*
X114080869Y-83692392D01*
X113895548Y-83748827D01*
X113804379Y-83782169D01*
X113677691Y-83832988D01*
X113516631Y-83893562D01*
X113423379Y-83927051D01*
X113244146Y-84003395D01*
X113016881Y-84120476D01*
X112760535Y-84267247D01*
X112494063Y-84432663D01*
X112236416Y-84605678D01*
X112137262Y-84676590D01*
X111845978Y-84889297D01*
X111285729Y-84382854D01*
X110974007Y-84103912D01*
X110708918Y-83873905D01*
X110476900Y-83682226D01*
X110264396Y-83518266D01*
X110057844Y-83371419D01*
X109843685Y-83231075D01*
X109698045Y-83140790D01*
X109373891Y-82951792D01*
X109094246Y-82811731D01*
X108838542Y-82715386D01*
X108586210Y-82657535D01*
X108316678Y-82632957D01*
X108009379Y-82636431D01*
X107771879Y-82651872D01*
X107543639Y-82670585D01*
X107340367Y-82688935D01*
X107141688Y-82709162D01*
X106927226Y-82733502D01*
X106676608Y-82764195D01*
X106369458Y-82803478D01*
X106247879Y-82819273D01*
X105696706Y-82891015D01*
X105218194Y-82953166D01*
X104801055Y-83007172D01*
X104434005Y-83054477D01*
X104105758Y-83096526D01*
X103805030Y-83134765D01*
X103520536Y-83170639D01*
X103240989Y-83205593D01*
X102955106Y-83241073D01*
X102924712Y-83244831D01*
X102541998Y-83292766D01*
X102158041Y-83341996D01*
X101783087Y-83391110D01*
X101427384Y-83438703D01*
X101101176Y-83483364D01*
X100814711Y-83523686D01*
X100578234Y-83558259D01*
X100401991Y-83585676D01*
X100296229Y-83604527D01*
X100278879Y-83608539D01*
X100217337Y-83627409D01*
X100086820Y-83669159D01*
X99898734Y-83730080D01*
X99664487Y-83806463D01*
X99395487Y-83894600D01*
X99103141Y-83990782D01*
X99100633Y-83991609D01*
X98812379Y-84085612D01*
X98551002Y-84168890D01*
X98327071Y-84238234D01*
X98151154Y-84290435D01*
X98033821Y-84322283D01*
X97985641Y-84330569D01*
X97985227Y-84330298D01*
X97977010Y-84282017D01*
X97968859Y-84162423D01*
X97961004Y-83984868D01*
X97953673Y-83762705D01*
X97947099Y-83509287D01*
X97941509Y-83237967D01*
X97937135Y-82962098D01*
X97934206Y-82695032D01*
X97932951Y-82450123D01*
X97933602Y-82240724D01*
X97936388Y-82080187D01*
X97941539Y-81981865D01*
X97944453Y-81962371D01*
X97977772Y-81888587D01*
X98047048Y-81848488D01*
X98151790Y-81828387D01*
X98227877Y-81818187D01*
X98379258Y-81797890D01*
X98597310Y-81768654D01*
X98873411Y-81731633D01*
X99198939Y-81687985D01*
X99565272Y-81638864D01*
X99963788Y-81585428D01*
X100385865Y-81528833D01*
X100532879Y-81509120D01*
X101017033Y-81444666D01*
X101526439Y-81377696D01*
X102045027Y-81310267D01*
X102556727Y-81244438D01*
X103045469Y-81182267D01*
X103495184Y-81125814D01*
X103889801Y-81077135D01*
X104152490Y-81045475D01*
X104531220Y-81000405D01*
X104919492Y-80954052D01*
X105299829Y-80908511D01*
X105654753Y-80865880D01*
X105966788Y-80828256D01*
X106218457Y-80797736D01*
X106290324Y-80788964D01*
X106516679Y-80762818D01*
X106809835Y-80731334D01*
X107152223Y-80696267D01*
X107526273Y-80659368D01*
X107914417Y-80622392D01*
X108299087Y-80587093D01*
X108428045Y-80575601D01*
X108814538Y-80541028D01*
X109216932Y-80504284D01*
X109616264Y-80467153D01*
X109993570Y-80431418D01*
X110329883Y-80398865D01*
X110606240Y-80371276D01*
X110671712Y-80364537D01*
X111172472Y-80317127D01*
X111718383Y-80274424D01*
X112313569Y-80236283D01*
X112962152Y-80202562D01*
X113668256Y-80173118D01*
X114436003Y-80147808D01*
X115269516Y-80126487D01*
X116172918Y-80109014D01*
X117150333Y-80095244D01*
X118205883Y-80085035D01*
X118842045Y-80080766D01*
X119783016Y-80076381D01*
X120647170Y-80074677D01*
X121442325Y-80075937D01*
X122176295Y-80080443D01*
X122856897Y-80088478D01*
X123491948Y-80100324D01*
X124089264Y-80116263D01*
X124656661Y-80136578D01*
X125201955Y-80161551D01*
X125732962Y-80191465D01*
X126257499Y-80226601D01*
X126783382Y-80267243D01*
X127318427Y-80313673D01*
X127870450Y-80366172D01*
X128447268Y-80425024D01*
X128487212Y-80429224D01*
X128775125Y-80460966D01*
X128990434Y-80489370D01*
X129144932Y-80517890D01*
X129250407Y-80549983D01*
X129318651Y-80589104D01*
X129361454Y-80638710D01*
X129387139Y-80692996D01*
X129427803Y-80825568D01*
X129479500Y-81038804D01*
X129541618Y-81329504D01*
X129613544Y-81694471D01*
X129694664Y-82130504D01*
X129784367Y-82634405D01*
X129882039Y-83202977D01*
X129977267Y-83773505D01*
X130106934Y-84574600D01*
X130219280Y-85302431D01*
X130315207Y-85966414D01*
X130395618Y-86575968D01*
X130461413Y-87140510D01*
X130513494Y-87669458D01*
X130552763Y-88172230D01*
X130580123Y-88658244D01*
X130596474Y-89136916D01*
X130602718Y-89617665D01*
X130599757Y-90109909D01*
X130597412Y-90250505D01*
X130586377Y-90719538D01*
X130571254Y-91122684D01*
X130550330Y-91478692D01*
X130521894Y-91806307D01*
X130484235Y-92124278D01*
X130435641Y-92451350D01*
X130374402Y-92806272D01*
X130353955Y-92917505D01*
X130270481Y-93329718D01*
X130170705Y-93761449D01*
X130058925Y-94198006D01*
X129939441Y-94624695D01*
X129816553Y-95026823D01*
X129694559Y-95389696D01*
X129577759Y-95698621D01*
X129470452Y-95938906D01*
X129469129Y-95941531D01*
X129144037Y-96496575D01*
X128746983Y-97023090D01*
X128288938Y-97509599D01*
X127780874Y-97944624D01*
X127233760Y-98316688D01*
X127154243Y-98363346D01*
X126614550Y-98645220D01*
X126075688Y-98865542D01*
X125515386Y-99031557D01*
X124911374Y-99150511D01*
X124606477Y-99192172D01*
X124359074Y-99223567D01*
X124183490Y-99250730D01*
X124067175Y-99276547D01*
X123997580Y-99303907D01*
X123962158Y-99335696D01*
X123958936Y-99341174D01*
X123934902Y-99419261D01*
X123940133Y-99453022D01*
X123988678Y-99468840D01*
X124104358Y-99485365D01*
X124269687Y-99500605D01*
X124460674Y-99512265D01*
X124762329Y-99533996D01*
X125022910Y-99571975D01*
X125285508Y-99633263D01*
X125403712Y-99666752D01*
X125614807Y-99724883D01*
X125823590Y-99775549D01*
X126000210Y-99811817D01*
X126081045Y-99824097D01*
X126287691Y-99858896D01*
X126413314Y-99909710D01*
X126460749Y-99980872D01*
X126432830Y-100076714D01*
X126332391Y-100201570D01*
X126329754Y-100204298D01*
X126232715Y-100340320D01*
X126198353Y-100473092D01*
X126229244Y-100584372D01*
X126270158Y-100626392D01*
X126358187Y-100667678D01*
X126484467Y-100702869D01*
X126515076Y-100708645D01*
X126701762Y-100772006D01*
X126824136Y-100885017D01*
X126877040Y-101042123D01*
X126878483Y-101100102D01*
X126880659Y-101217208D01*
X126894214Y-101298305D01*
X126898506Y-101307665D01*
X126951429Y-101333266D01*
X127063900Y-101358324D01*
X127202610Y-101376432D01*
X127354871Y-101394685D01*
X127477479Y-101416660D01*
X127539010Y-101435598D01*
X127589565Y-101485221D01*
X127669727Y-101586186D01*
X127763705Y-101718362D01*
X127780929Y-101744005D01*
X127892868Y-101897726D01*
X128041053Y-102081580D01*
X128201410Y-102266290D01*
X128281977Y-102353340D01*
X128508849Y-102573739D01*
X128699469Y-102720116D01*
X128853190Y-102792163D01*
X128969363Y-102789572D01*
X129045131Y-102716266D01*
X129061066Y-102665534D01*
X129045202Y-102609546D01*
X128987954Y-102532070D01*
X128879738Y-102416869D01*
X128851441Y-102388183D01*
X128642184Y-102146402D01*
X128511258Y-101920706D01*
X128455315Y-101704895D01*
X128452642Y-101650228D01*
X128427875Y-101508898D01*
X128345364Y-101373162D01*
X128316903Y-101339412D01*
X128264410Y-101281074D01*
X128228805Y-101234068D01*
X128212604Y-101185060D01*
X128218325Y-101120714D01*
X128248483Y-101027699D01*
X128305595Y-100892679D01*
X128392179Y-100702320D01*
X128468588Y-100535745D01*
X128610557Y-100167850D01*
X128709336Y-99772976D01*
X128767943Y-99334719D01*
X128789395Y-98836679D01*
X128789603Y-98790645D01*
X128790379Y-98356119D01*
X128545352Y-98479808D01*
X128316884Y-98589297D01*
X128050879Y-98707203D01*
X127760344Y-98828688D01*
X127458286Y-98948914D01*
X127157711Y-99063042D01*
X126871627Y-99166234D01*
X126613040Y-99253651D01*
X126394957Y-99320456D01*
X126230385Y-99361809D01*
X126143301Y-99373338D01*
X126056374Y-99362377D01*
X126047883Y-99331628D01*
X126114777Y-99284292D01*
X126254007Y-99223570D01*
X126303295Y-99205407D01*
X126471482Y-99136960D01*
X126693266Y-99034775D01*
X126949657Y-98908704D01*
X127221669Y-98768596D01*
X127490312Y-98624302D01*
X127736600Y-98485674D01*
X127941542Y-98362562D01*
X127998344Y-98326046D01*
X128201227Y-98177558D01*
X128431391Y-97984834D01*
X128671046Y-97765117D01*
X128902402Y-97535649D01*
X129107668Y-97313674D01*
X129269053Y-97116434D01*
X129318573Y-97046467D01*
X129509548Y-96724317D01*
X130729510Y-96724317D01*
X130822967Y-96799994D01*
X130949872Y-96867727D01*
X131074364Y-96854021D01*
X131148742Y-96811791D01*
X131229269Y-96723076D01*
X131324379Y-96565586D01*
X131428013Y-96352658D01*
X131534114Y-96097627D01*
X131636623Y-95813830D01*
X131714560Y-95566249D01*
X131747763Y-95451671D01*
X131765285Y-95378352D01*
X131761710Y-95350795D01*
X131731625Y-95373502D01*
X131669612Y-95450973D01*
X131570258Y-95587712D01*
X131428147Y-95788219D01*
X131400497Y-95827344D01*
X131260863Y-96022809D01*
X131120155Y-96216185D01*
X130995033Y-96384778D01*
X130904385Y-96503084D01*
X130729510Y-96724317D01*
X129509548Y-96724317D01*
X129561662Y-96636409D01*
X129797577Y-96152269D01*
X130023266Y-95604530D01*
X130235677Y-95003678D01*
X130431757Y-94360195D01*
X130608455Y-93684566D01*
X130762716Y-92987275D01*
X130891490Y-92278806D01*
X130991724Y-91569643D01*
X131037392Y-91142860D01*
X131054988Y-90876156D01*
X131065537Y-90542103D01*
X131069374Y-90157699D01*
X131066831Y-89739941D01*
X131058243Y-89305825D01*
X131043944Y-88872347D01*
X131024265Y-88456505D01*
X130999542Y-88075295D01*
X130970862Y-87752838D01*
X130884899Y-86987056D01*
X130782213Y-86158393D01*
X130665596Y-85286358D01*
X130537839Y-84390457D01*
X130401733Y-83490198D01*
X130260069Y-82605089D01*
X130115638Y-81754635D01*
X130099385Y-81662246D01*
X130045041Y-81349554D01*
X129995981Y-81057837D01*
X129954133Y-80799314D01*
X129921422Y-80586205D01*
X129899777Y-80430730D01*
X129891122Y-80345108D01*
X129891045Y-80340819D01*
X129898851Y-80255110D01*
X129931406Y-80193886D01*
X130002417Y-80149929D01*
X130125594Y-80116026D01*
X130314642Y-80084960D01*
X130399045Y-80073403D01*
X130570633Y-80046865D01*
X130799483Y-80006277D01*
X131060306Y-79956385D01*
X131327808Y-79901931D01*
X131434420Y-79879198D01*
X131721775Y-79819707D01*
X131931386Y-79782659D01*
X132066997Y-79767521D01*
X132132355Y-79773760D01*
G04 #@! TA.AperFunction,EtchedComponent*
G36*
X132132355Y-79773760D02*
G01*
X132138414Y-79778995D01*
X132162031Y-79847727D01*
X132185921Y-79962431D01*
X132191765Y-80000101D01*
X132213838Y-80156688D01*
X132246075Y-80387357D01*
X132287234Y-80683093D01*
X132336070Y-81034878D01*
X132391340Y-81433697D01*
X132451800Y-81870534D01*
X132516207Y-82336372D01*
X132583316Y-82822195D01*
X132651885Y-83318988D01*
X132720669Y-83817733D01*
X132788425Y-84309416D01*
X132853909Y-84785019D01*
X132915877Y-85235526D01*
X132973086Y-85651922D01*
X133024292Y-86025190D01*
X133068251Y-86346314D01*
X133103720Y-86606278D01*
X133129455Y-86796066D01*
X133138551Y-86863838D01*
X133170759Y-87112275D01*
X133196291Y-87330778D01*
X133215937Y-87534535D01*
X133230485Y-87738734D01*
X133240721Y-87958564D01*
X133247435Y-88209215D01*
X133251412Y-88505874D01*
X133253443Y-88863730D01*
X133254010Y-89089940D01*
X133256545Y-90469376D01*
X134103212Y-90846774D01*
X134393894Y-90977866D01*
X134614440Y-91081255D01*
X134773050Y-91161362D01*
X134877922Y-91222612D01*
X134937256Y-91269428D01*
X134959249Y-91306233D01*
X134959636Y-91308838D01*
X134939370Y-91375383D01*
X134860250Y-91464513D01*
X134714838Y-91584359D01*
X134691085Y-91602314D01*
X134491545Y-91761493D01*
X134273331Y-91951800D01*
X134045165Y-92163961D01*
X133815767Y-92388702D01*
X133593859Y-92616747D01*
X133388161Y-92838822D01*
X133207397Y-93045653D01*
X133060285Y-93227966D01*
X132955549Y-93376485D01*
X132901910Y-93481937D01*
X132896712Y-93510501D01*
X132910212Y-93600693D01*
X132944976Y-93735238D01*
X132977313Y-93837021D01*
X133092646Y-94285268D01*
X133142882Y-94773529D01*
X133128356Y-95307549D01*
X133085091Y-95676904D01*
X133039153Y-95950541D01*
X132982509Y-96213379D01*
X132910139Y-96482112D01*
X132817019Y-96773436D01*
X132698130Y-97104050D01*
X132548449Y-97490647D01*
X132512349Y-97581222D01*
X132265075Y-98206134D01*
X132050768Y-98763741D01*
X131866346Y-99263343D01*
X131708727Y-99714243D01*
X131574827Y-100125744D01*
X131461565Y-100507147D01*
X131365858Y-100867755D01*
X131284623Y-101216870D01*
X131245784Y-101403409D01*
X131181305Y-101732242D01*
X131129863Y-102015041D01*
X131090007Y-102268321D01*
X131060286Y-102508598D01*
X131039247Y-102752385D01*
X131025439Y-103016199D01*
X131017410Y-103316553D01*
X131013709Y-103669964D01*
X131012879Y-104053060D01*
X131013277Y-104418933D01*
X131014820Y-104709819D01*
X131018032Y-104935392D01*
X131023438Y-105105330D01*
X131031560Y-105229308D01*
X131042923Y-105317004D01*
X131058051Y-105378094D01*
X131077467Y-105422253D01*
X131087938Y-105439477D01*
X131169674Y-105525055D01*
X131282603Y-105553411D01*
X131310188Y-105554005D01*
X131372036Y-105552731D01*
X131415745Y-105541198D01*
X131442655Y-105507836D01*
X131454103Y-105441078D01*
X131451429Y-105329355D01*
X131435974Y-105161100D01*
X131409075Y-104924743D01*
X131395957Y-104813172D01*
X131360309Y-104482453D01*
X131332202Y-104165443D01*
X131312088Y-103873216D01*
X131300417Y-103616847D01*
X131297642Y-103407413D01*
X131304213Y-103255989D01*
X131320584Y-103173649D01*
X131328684Y-103163219D01*
X131387038Y-103172115D01*
X131476562Y-103232796D01*
X131579744Y-103327775D01*
X131679071Y-103439567D01*
X131757030Y-103550687D01*
X131791702Y-103625526D01*
X131807663Y-103714194D01*
X131824412Y-103868022D01*
X131840236Y-104067539D01*
X131853422Y-104293275D01*
X131856626Y-104363624D01*
X131870550Y-104587514D01*
X131895055Y-104873185D01*
X131927876Y-105198733D01*
X131966746Y-105542252D01*
X132009400Y-105881838D01*
X132027424Y-106014624D01*
X132122748Y-106710995D01*
X132204234Y-107332426D01*
X132272562Y-107887389D01*
X132328413Y-108384357D01*
X132372469Y-108831801D01*
X132405411Y-109238195D01*
X132427918Y-109612009D01*
X132440673Y-109961718D01*
X132444357Y-110295792D01*
X132439650Y-110622704D01*
X132427234Y-110950927D01*
X132426086Y-110974312D01*
X132397938Y-111391959D01*
X132354347Y-111767848D01*
X132290501Y-112114828D01*
X132201591Y-112445749D01*
X132082808Y-112773461D01*
X131929340Y-113110812D01*
X131736378Y-113470654D01*
X131499111Y-113865834D01*
X131212730Y-114309204D01*
X131132707Y-114429365D01*
X130870417Y-114829472D01*
X130651265Y-115183679D01*
X130464496Y-115511386D01*
X130299357Y-115831993D01*
X130145094Y-116164899D01*
X130056825Y-116370172D01*
X129983033Y-116533933D01*
X129914725Y-116664415D01*
X129861605Y-116744082D01*
X129841022Y-116760202D01*
X129789342Y-116732230D01*
X129714879Y-116650614D01*
X129658212Y-116570274D01*
X129523222Y-116403614D01*
X129384978Y-116321305D01*
X129243724Y-116323461D01*
X129182086Y-116350403D01*
X129132936Y-116387668D01*
X129089152Y-116448246D01*
X129044588Y-116546136D01*
X128993100Y-116695335D01*
X128928543Y-116909838D01*
X128913226Y-116962838D01*
X128775224Y-117422480D01*
X128635183Y-117843659D01*
X128485450Y-118244765D01*
X128318369Y-118644187D01*
X128126285Y-119060316D01*
X127901541Y-119511539D01*
X127662002Y-119968505D01*
X127358370Y-120524281D01*
X127049209Y-121065371D01*
X126744007Y-121575903D01*
X126452254Y-122040004D01*
X126183439Y-122441802D01*
X126182991Y-122442446D01*
X126094136Y-122564419D01*
X125957987Y-122743643D01*
X125781000Y-122971952D01*
X125569627Y-123241176D01*
X125330322Y-123543148D01*
X125069539Y-123869699D01*
X124793731Y-124212663D01*
X124509353Y-124563870D01*
X124421310Y-124672102D01*
X124141457Y-125016220D01*
X123872516Y-125347827D01*
X123620245Y-125659763D01*
X123390402Y-125944867D01*
X123188745Y-126195977D01*
X123021032Y-126405934D01*
X122893020Y-126567575D01*
X122810469Y-126673739D01*
X122791146Y-126699505D01*
X122672420Y-126871610D01*
X122518791Y-127110293D01*
X122335165Y-127407407D01*
X122126448Y-127754807D01*
X121897545Y-128144344D01*
X121653362Y-128567874D01*
X121447469Y-128930742D01*
X121268120Y-129246656D01*
X121124420Y-129488555D01*
X121011229Y-129656618D01*
X120923405Y-129751022D01*
X120855807Y-129771946D01*
X120803293Y-129719566D01*
X120760721Y-129594062D01*
X120722950Y-129395611D01*
X120684839Y-129124390D01*
X120663585Y-128957867D01*
X120630410Y-128704559D01*
X120598077Y-128475177D01*
X120568926Y-128285042D01*
X120545298Y-128149472D01*
X120530379Y-128085922D01*
X120465029Y-128012673D01*
X120365771Y-127989489D01*
X120270843Y-128022121D01*
X120248979Y-128043588D01*
X120219776Y-128102395D01*
X120171160Y-128224408D01*
X120109708Y-128392255D01*
X120041995Y-128588563D01*
X120036662Y-128604505D01*
X119676680Y-129553665D01*
X119245368Y-130457461D01*
X118742470Y-131316266D01*
X118167728Y-132130454D01*
X117520887Y-132900397D01*
X116801688Y-133626470D01*
X116238545Y-134122596D01*
X115973119Y-134340030D01*
X115763935Y-134500254D01*
X115605180Y-134603660D01*
X115491044Y-134650639D01*
X115415715Y-134641583D01*
X115373380Y-134576883D01*
X115358230Y-134456931D01*
X115364452Y-134282118D01*
X115373128Y-134180885D01*
X115385457Y-133970515D01*
X115385915Y-133746936D01*
X115375826Y-133531290D01*
X115356516Y-133344719D01*
X115329308Y-133208367D01*
X115309051Y-133158313D01*
X115247464Y-133119879D01*
X115200909Y-133113005D01*
X115162036Y-133130949D01*
X115111210Y-133190327D01*
X115043439Y-133299459D01*
X114953733Y-133466665D01*
X114837098Y-133700266D01*
X114788183Y-133800922D01*
X114563713Y-134253850D01*
X114341831Y-134676041D01*
X114115266Y-135078537D01*
X113876748Y-135472379D01*
X113619008Y-135868609D01*
X113334776Y-136278269D01*
X113016781Y-136712400D01*
X112657753Y-137182045D01*
X112250424Y-137698244D01*
X112092339Y-137895389D01*
X111847795Y-138197806D01*
X111649404Y-138439365D01*
X111491551Y-138626204D01*
X111368618Y-138764460D01*
X111274989Y-138860272D01*
X111205049Y-138919776D01*
X111153182Y-138949110D01*
X111122767Y-138955005D01*
X111089975Y-138948169D01*
X111068073Y-138920205D01*
X111056709Y-138859928D01*
X111055529Y-138756152D01*
X111064183Y-138597692D01*
X111082317Y-138373363D01*
X111098696Y-138190494D01*
X111114523Y-137942850D01*
X111120215Y-137674406D01*
X111116714Y-137399668D01*
X111104963Y-137133136D01*
X111085904Y-136889314D01*
X111060479Y-136682705D01*
X111029631Y-136527812D01*
X110994302Y-136439137D01*
X110984207Y-136428496D01*
X110929720Y-136394202D01*
X110887546Y-136388888D01*
X110855695Y-136421056D01*
X110832178Y-136499211D01*
X110815005Y-136631857D01*
X110802187Y-136827496D01*
X110791734Y-137094634D01*
X110786290Y-137274479D01*
X110744954Y-138040354D01*
X110663660Y-138755848D01*
X110537897Y-139447468D01*
X110363159Y-140141720D01*
X110217579Y-140618039D01*
X110122154Y-140891997D01*
X110037700Y-141084748D01*
X109959388Y-141198263D01*
X109882390Y-141234516D01*
X109801877Y-141195479D01*
X109713022Y-141083124D01*
X109610997Y-140899424D01*
X109597072Y-140871532D01*
X109476575Y-140635289D01*
X109343471Y-140386484D01*
X109206105Y-140139531D01*
X109072824Y-139908845D01*
X108951973Y-139708840D01*
X108851899Y-139553931D01*
X108780947Y-139458533D01*
X108775401Y-139452422D01*
X108698384Y-139379062D01*
X108633667Y-139343947D01*
X108576796Y-139353770D01*
X108523313Y-139415224D01*
X108468763Y-139535003D01*
X108408691Y-139719798D01*
X108338639Y-139976304D01*
X108284278Y-140190116D01*
X108170617Y-140671152D01*
X108087276Y-141092017D01*
X108032569Y-141470922D01*
X108004814Y-141826081D01*
X108002327Y-142175707D01*
X108023424Y-142538013D01*
X108046242Y-142765005D01*
X108093591Y-143223044D01*
X108136409Y-143716154D01*
X108173163Y-144220955D01*
X108202322Y-144714065D01*
X108222356Y-145172102D01*
X108231733Y-145571685D01*
X108231983Y-145601338D01*
X108233156Y-145884818D01*
X108231147Y-146099988D01*
X108224545Y-146263184D01*
X108211941Y-146390745D01*
X108191923Y-146499008D01*
X108163083Y-146604310D01*
X108138995Y-146678740D01*
X108069016Y-146874808D01*
X108002433Y-147038418D01*
X107945990Y-147154530D01*
X107906434Y-147208104D01*
X107900707Y-147210005D01*
X107870694Y-147177651D01*
X107804179Y-147090747D01*
X107712601Y-146964526D01*
X107654338Y-146881922D01*
X107559061Y-146744821D01*
X107427498Y-146554490D01*
X107271134Y-146327598D01*
X107101457Y-146080816D01*
X106929951Y-145830815D01*
X106903251Y-145791838D01*
X106645822Y-145419104D01*
X106419630Y-145099790D01*
X106210673Y-144815751D01*
X106004952Y-144548838D01*
X105788463Y-144280907D01*
X105547205Y-143993810D01*
X105267177Y-143669400D01*
X105253600Y-143653817D01*
X104990491Y-143351677D01*
X104775902Y-143104289D01*
X104602564Y-142902717D01*
X104463210Y-142738025D01*
X104350570Y-142601277D01*
X104257378Y-142483536D01*
X104176366Y-142375867D01*
X104100264Y-142269332D01*
X104021806Y-142154997D01*
X103960513Y-142063926D01*
X103578143Y-141420298D01*
X103255670Y-140721594D01*
X102996612Y-139975901D01*
X102902957Y-139632338D01*
X102779185Y-139038865D01*
X102693073Y-138394305D01*
X102644611Y-137694825D01*
X102633788Y-136936594D01*
X102660595Y-136115780D01*
X102725021Y-135228551D01*
X102827055Y-134271076D01*
X102834430Y-134213519D01*
X108851379Y-134213519D01*
X108886774Y-134308125D01*
X108972151Y-134368637D01*
X109076294Y-134383975D01*
X109167989Y-134343060D01*
X109179794Y-134330088D01*
X109233746Y-134249500D01*
X109313556Y-134113432D01*
X109411820Y-133936245D01*
X109521133Y-133732300D01*
X109634090Y-133515957D01*
X109743287Y-133301579D01*
X109841318Y-133103525D01*
X109920778Y-132936157D01*
X109974263Y-132813836D01*
X109994368Y-132750923D01*
X109994379Y-132750285D01*
X109958715Y-132654233D01*
X109871910Y-132597701D01*
X109764242Y-132596989D01*
X109733181Y-132609685D01*
X109692529Y-132656977D01*
X109621094Y-132765803D01*
X109526522Y-132922254D01*
X109416462Y-133112423D01*
X109298559Y-133322400D01*
X109180461Y-133538277D01*
X109069815Y-133746146D01*
X108974267Y-133932098D01*
X108901466Y-134082225D01*
X108859057Y-134182618D01*
X108851379Y-134213519D01*
X102834430Y-134213519D01*
X102887399Y-133800177D01*
X102912185Y-133583315D01*
X102915192Y-133440261D01*
X102892959Y-133362159D01*
X102842023Y-133340156D01*
X102758923Y-133365396D01*
X102724080Y-133382465D01*
X102581067Y-133485600D01*
X102404496Y-133663699D01*
X102196076Y-133914752D01*
X101957517Y-134236752D01*
X101785498Y-134485516D01*
X101652688Y-134679727D01*
X101533834Y-134849135D01*
X101437968Y-134981208D01*
X101374119Y-135063414D01*
X101354123Y-135084135D01*
X101289540Y-135082018D01*
X101223931Y-135001146D01*
X101159148Y-134847379D01*
X101097044Y-134626579D01*
X101039472Y-134344607D01*
X100988284Y-134007326D01*
X100971952Y-133875005D01*
X100948219Y-133604377D01*
X100931036Y-133268526D01*
X100920293Y-132885575D01*
X100915877Y-132473647D01*
X100917677Y-132050866D01*
X100925582Y-131635354D01*
X100939480Y-131245235D01*
X100959259Y-130898631D01*
X100984809Y-130613666D01*
X100992393Y-130551838D01*
X101114702Y-129773878D01*
X101267204Y-129065740D01*
X101449012Y-128431112D01*
X101605822Y-128001255D01*
X101695810Y-127779005D01*
X101576807Y-127779005D01*
X101479497Y-127793181D01*
X101394389Y-127841217D01*
X101317163Y-127931376D01*
X101243502Y-128071917D01*
X101169086Y-128271103D01*
X101089599Y-128537196D01*
X101000720Y-128878456D01*
X100999449Y-128883565D01*
X100927454Y-129168710D01*
X100870142Y-129382638D01*
X100823350Y-129536677D01*
X100782916Y-129642154D01*
X100744679Y-129710396D01*
X100704476Y-129752729D01*
X100672533Y-129773227D01*
X100602653Y-129794378D01*
X100540927Y-129769354D01*
X100479183Y-129688556D01*
X100409251Y-129542382D01*
X100350725Y-129395169D01*
X100259597Y-129138385D01*
X100185547Y-128885826D01*
X100123388Y-128615019D01*
X100067927Y-128303492D01*
X100016582Y-127948338D01*
X99987910Y-127670437D01*
X99965629Y-127324854D01*
X99949742Y-126928333D01*
X99940249Y-126497617D01*
X99937151Y-126049451D01*
X99940450Y-125600576D01*
X99944250Y-125430955D01*
X104117507Y-125430955D01*
X104121144Y-125535338D01*
X104142580Y-125826859D01*
X104179876Y-126036183D01*
X104235446Y-126164704D01*
X104311706Y-126213816D01*
X104411071Y-126184915D01*
X104535956Y-126079396D01*
X104688776Y-125898653D01*
X104707572Y-125874005D01*
X104854688Y-125687933D01*
X104997881Y-125521866D01*
X105126858Y-125386270D01*
X105231324Y-125291608D01*
X105300986Y-125248347D01*
X105320911Y-125250427D01*
X105316541Y-125298818D01*
X105276290Y-125394110D01*
X105234368Y-125471409D01*
X105141939Y-125674507D01*
X105056437Y-125950179D01*
X104979246Y-126286513D01*
X104911750Y-126671597D01*
X104855331Y-127093519D01*
X104811375Y-127540370D01*
X104781264Y-128000236D01*
X104766382Y-128461206D01*
X104768113Y-128911369D01*
X104786817Y-129324172D01*
X104806874Y-129608887D01*
X104824003Y-129819865D01*
X104840902Y-129967846D01*
X104860267Y-130063573D01*
X104884797Y-130117788D01*
X104917189Y-130141231D01*
X104960141Y-130144646D01*
X104992096Y-130141549D01*
X105104879Y-130128505D01*
X105131011Y-128752672D01*
X105139588Y-128343703D01*
X105148769Y-128006939D01*
X105159331Y-127729916D01*
X105172047Y-127500173D01*
X105187695Y-127305245D01*
X105207048Y-127132671D01*
X105222700Y-127025836D01*
X116600782Y-127025836D01*
X116613537Y-127139913D01*
X116666398Y-127205298D01*
X116726542Y-127225329D01*
X116774127Y-127206274D01*
X116838763Y-127165710D01*
X116895678Y-127096169D01*
X116972615Y-126959520D01*
X117063709Y-126769266D01*
X117163098Y-126538913D01*
X117264920Y-126281964D01*
X117363312Y-126011925D01*
X117441159Y-125778116D01*
X117643381Y-125031220D01*
X117797481Y-124220779D01*
X117888477Y-123498530D01*
X117900082Y-123337061D01*
X117893588Y-123235790D01*
X117866251Y-123171653D01*
X117846939Y-123149280D01*
X117747524Y-123086009D01*
X117647131Y-123104691D01*
X117605312Y-123132922D01*
X117566546Y-123195564D01*
X117532502Y-123323473D01*
X117501294Y-123524696D01*
X117488872Y-123630338D01*
X117350585Y-124519616D01*
X117131603Y-125399028D01*
X116830080Y-126275909D01*
X116808797Y-126329927D01*
X116697846Y-126626997D01*
X116628696Y-126856915D01*
X116600782Y-127025836D01*
X105222700Y-127025836D01*
X105230883Y-126969989D01*
X105248214Y-126868838D01*
X105420951Y-126066542D01*
X105650788Y-125281619D01*
X105829091Y-124780633D01*
X105907952Y-124565270D01*
X105972374Y-124375220D01*
X106017634Y-124225590D01*
X106039012Y-124131485D01*
X106038993Y-124109153D01*
X106011029Y-124075081D01*
X105953315Y-124085794D01*
X105891612Y-124115327D01*
X105761322Y-124202017D01*
X105595519Y-124341086D01*
X105409902Y-124517493D01*
X105220173Y-124716196D01*
X105042030Y-124922153D01*
X105016495Y-124953721D01*
X104815863Y-125199228D01*
X104661564Y-125376605D01*
X104552034Y-125487534D01*
X104485709Y-125533703D01*
X104476466Y-125535338D01*
X104454807Y-125496410D01*
X104450420Y-125388960D01*
X104461645Y-125226984D01*
X104486815Y-125024483D01*
X104524269Y-124795454D01*
X104572343Y-124553897D01*
X104614804Y-124371172D01*
X104800260Y-123708716D01*
X105034743Y-123011385D01*
X105197214Y-122582652D01*
X105259770Y-122414393D01*
X105303869Y-122275931D01*
X105324115Y-122185498D01*
X105321954Y-122161136D01*
X105262859Y-122156217D01*
X105170912Y-122207014D01*
X105062957Y-122300697D01*
X104955839Y-122424435D01*
X104930802Y-122459084D01*
X104866591Y-122575882D01*
X104786050Y-122759574D01*
X104694246Y-122995136D01*
X104596250Y-123267544D01*
X104497129Y-123561774D01*
X104401953Y-123862804D01*
X104315790Y-124155608D01*
X104243711Y-124425163D01*
X104192832Y-124646338D01*
X104143579Y-124924121D01*
X104119746Y-125169857D01*
X104117507Y-125430955D01*
X99944250Y-125430955D01*
X99950147Y-125167737D01*
X99966242Y-124767678D01*
X99988737Y-124417141D01*
X100016330Y-124142949D01*
X100046794Y-123880899D01*
X100060068Y-123692769D01*
X100054879Y-123569324D01*
X100029956Y-123501329D01*
X99984027Y-123479547D01*
X99926533Y-123490811D01*
X99808406Y-123562988D01*
X99672394Y-123695341D01*
X99534341Y-123870389D01*
X99424213Y-124045038D01*
X99355290Y-124162359D01*
X99296674Y-124246372D01*
X99247549Y-124292443D01*
X99207101Y-124295937D01*
X99174513Y-124252221D01*
X99148972Y-124156659D01*
X99129661Y-124004618D01*
X99115765Y-123791464D01*
X99106470Y-123512561D01*
X99100959Y-123163276D01*
X99098418Y-122738974D01*
X99098032Y-122235021D01*
X99098070Y-122191005D01*
X99100657Y-121576275D01*
X99108089Y-121031788D01*
X99121738Y-120543191D01*
X99142973Y-120096132D01*
X99173167Y-119676259D01*
X99213690Y-119269219D01*
X99247092Y-119007897D01*
X123857699Y-119007897D01*
X123909716Y-119041879D01*
X124002195Y-119038623D01*
X124102301Y-119003277D01*
X124161201Y-118960302D01*
X124186999Y-118912900D01*
X124243175Y-118795187D01*
X124326422Y-118614530D01*
X124433430Y-118378295D01*
X124560890Y-118093848D01*
X124705492Y-117768554D01*
X124863927Y-117409780D01*
X125032885Y-117024891D01*
X125110906Y-116846422D01*
X125283179Y-116454012D01*
X125446559Y-116086024D01*
X125597747Y-115749601D01*
X125733446Y-115451886D01*
X125850358Y-115200023D01*
X125945185Y-115001155D01*
X126014629Y-114862425D01*
X126055392Y-114790978D01*
X126063661Y-114782672D01*
X126123023Y-114808129D01*
X126220058Y-114873520D01*
X126292712Y-114930838D01*
X126458101Y-115042855D01*
X126599226Y-115077346D01*
X126725250Y-115034574D01*
X126820460Y-114945970D01*
X126950376Y-114753710D01*
X127081723Y-114489137D01*
X127210700Y-114164444D01*
X127333504Y-113791824D01*
X127446334Y-113383469D01*
X127545390Y-112951571D01*
X127626868Y-112508324D01*
X127667311Y-112229920D01*
X127695047Y-111958918D01*
X127714185Y-111651087D01*
X127725065Y-111319910D01*
X127728023Y-110978866D01*
X127723397Y-110641436D01*
X127711526Y-110321102D01*
X127692747Y-110031344D01*
X127667399Y-109785643D01*
X127665536Y-109774543D01*
X128776495Y-109774543D01*
X128779770Y-109804952D01*
X128848421Y-109827213D01*
X128956008Y-109824608D01*
X129061231Y-109799299D01*
X129083555Y-109789028D01*
X129170689Y-109700602D01*
X129247301Y-109544562D01*
X129311291Y-109337539D01*
X129360561Y-109096167D01*
X129393015Y-108837075D01*
X129406553Y-108576898D01*
X129399077Y-108332266D01*
X129368490Y-108119812D01*
X129314357Y-107959422D01*
X129238295Y-107863791D01*
X129142022Y-107809666D01*
X129054719Y-107812791D01*
X129048754Y-107816134D01*
X129034110Y-107866541D01*
X129027069Y-107983040D01*
X129028285Y-108147339D01*
X129032986Y-108256498D01*
X129030307Y-108654491D01*
X128974436Y-109049714D01*
X128861153Y-109469489D01*
X128832215Y-109555948D01*
X128794074Y-109682628D01*
X128776495Y-109774543D01*
X127665536Y-109774543D01*
X127635818Y-109597480D01*
X127598390Y-109480422D01*
X127521813Y-109420903D01*
X127423639Y-109406334D01*
X127287545Y-109406330D01*
X127287103Y-110623417D01*
X127286288Y-110994697D01*
X127283623Y-111295547D01*
X127278334Y-111540197D01*
X127269643Y-111742876D01*
X127256775Y-111917815D01*
X127238955Y-112079244D01*
X127215405Y-112241391D01*
X127190951Y-112386726D01*
X127126709Y-112730234D01*
X127056318Y-113066527D01*
X126982851Y-113383947D01*
X126909382Y-113670839D01*
X126838986Y-113915545D01*
X126774737Y-114106407D01*
X126719709Y-114231769D01*
X126694714Y-114268336D01*
X126652570Y-114292704D01*
X126595488Y-114273250D01*
X126504662Y-114201917D01*
X126472321Y-114173086D01*
X126302751Y-114054609D01*
X126147823Y-114019296D01*
X126006647Y-114067078D01*
X125930857Y-114132686D01*
X125861946Y-114216290D01*
X125827837Y-114275801D01*
X125827045Y-114281152D01*
X125809148Y-114327340D01*
X125758646Y-114439353D01*
X125680323Y-114607056D01*
X125578965Y-114820309D01*
X125459355Y-115068977D01*
X125326279Y-115342921D01*
X125315473Y-115365054D01*
X125168690Y-115668245D01*
X125023783Y-115972400D01*
X124888186Y-116261557D01*
X124769331Y-116519754D01*
X124674652Y-116731029D01*
X124620706Y-116857005D01*
X124516837Y-117114523D01*
X124408308Y-117393274D01*
X124299191Y-117681776D01*
X124193559Y-117968551D01*
X124095483Y-118242118D01*
X124009036Y-118490997D01*
X123938290Y-118703710D01*
X123887318Y-118868776D01*
X123860192Y-118974715D01*
X123857699Y-119007897D01*
X99247092Y-119007897D01*
X99265913Y-118860660D01*
X99331206Y-118436229D01*
X99410941Y-117981574D01*
X99506489Y-117482342D01*
X99585313Y-117089838D01*
X99733086Y-116396727D01*
X99880615Y-115775087D01*
X100032315Y-115211854D01*
X100120751Y-114926114D01*
X101788437Y-114926114D01*
X101812949Y-114953645D01*
X101868231Y-114923114D01*
X101955732Y-114840230D01*
X101980511Y-114814422D01*
X102046570Y-114739555D01*
X102107426Y-114655688D01*
X102169172Y-114550741D01*
X102237906Y-114412634D01*
X102319723Y-114229288D01*
X102420719Y-113988621D01*
X102519905Y-113745505D01*
X102678336Y-113371721D01*
X102827995Y-113059658D01*
X102980440Y-112788845D01*
X103147229Y-112538814D01*
X103339921Y-112289095D01*
X103347538Y-112279789D01*
X103475856Y-112114324D01*
X103595654Y-111944278D01*
X103686874Y-111798625D01*
X103708670Y-111758110D01*
X103769902Y-111608335D01*
X103805115Y-111465402D01*
X103812115Y-111349285D01*
X103788706Y-111279956D01*
X103762418Y-111269005D01*
X103710947Y-111298098D01*
X103620731Y-111375196D01*
X103509278Y-111485029D01*
X103483317Y-111512422D01*
X103036081Y-112048816D01*
X102639993Y-112643585D01*
X102302916Y-113282340D01*
X102032708Y-113950693D01*
X101885045Y-114438056D01*
X101825933Y-114674028D01*
X101793248Y-114834811D01*
X101788437Y-114926114D01*
X100120751Y-114926114D01*
X100192603Y-114693961D01*
X100365895Y-114208343D01*
X100556606Y-113741933D01*
X100769154Y-113281665D01*
X101007953Y-112814474D01*
X101068050Y-112702833D01*
X101216235Y-112425013D01*
X101323455Y-112208772D01*
X101392433Y-112043161D01*
X101425889Y-111917232D01*
X101426546Y-111820038D01*
X101397126Y-111740631D01*
X101340349Y-111668063D01*
X101328341Y-111655788D01*
X101203263Y-111561241D01*
X101053499Y-111486896D01*
X101023498Y-111476804D01*
X100939787Y-111454387D01*
X100862830Y-111444322D01*
X100773829Y-111448474D01*
X100653983Y-111468713D01*
X100484490Y-111506904D01*
X100321212Y-111546554D01*
X100263104Y-111558622D01*
X100216752Y-111557700D01*
X100180865Y-111535552D01*
X100154153Y-111483942D01*
X100135327Y-111394631D01*
X100125212Y-111282782D01*
X102477690Y-111282782D01*
X102482627Y-111344147D01*
X102500607Y-111373908D01*
X102561408Y-111427609D01*
X102590221Y-111438338D01*
X102629936Y-111406566D01*
X102705877Y-111321501D01*
X102804744Y-111198516D01*
X102855769Y-111131422D01*
X102973336Y-110967073D01*
X103114632Y-110758919D01*
X103260254Y-110536008D01*
X103368597Y-110363698D01*
X103488664Y-110164004D01*
X103565468Y-110023904D01*
X103603652Y-109933181D01*
X103607857Y-109881619D01*
X103595283Y-109864732D01*
X103495387Y-109803504D01*
X103392277Y-109748883D01*
X103313018Y-109714361D01*
X103285098Y-109710133D01*
X103245836Y-109767909D01*
X103176208Y-109885100D01*
X103084798Y-110045947D01*
X102980190Y-110234689D01*
X102870967Y-110435567D01*
X102765714Y-110632821D01*
X102673015Y-110810691D01*
X102601453Y-110953416D01*
X102564862Y-111032474D01*
X102503865Y-111185464D01*
X102477690Y-111282782D01*
X100125212Y-111282782D01*
X100123095Y-111259383D01*
X100116169Y-111069962D01*
X100113257Y-110818129D01*
X100113070Y-110495647D01*
X100113872Y-110222765D01*
X100116714Y-109871838D01*
X100122546Y-109519550D01*
X100124359Y-109446168D01*
X112904214Y-109446168D01*
X112949511Y-109536721D01*
X113031280Y-109621166D01*
X113286759Y-109798762D01*
X113552976Y-109893700D01*
X113826825Y-109905273D01*
X114051632Y-109853218D01*
X114224864Y-109792099D01*
X114487747Y-109985621D01*
X114774888Y-110179616D01*
X115020754Y-110305955D01*
X115232687Y-110366302D01*
X115418030Y-110362316D01*
X115584124Y-110295661D01*
X115650641Y-110248795D01*
X115921472Y-110066280D01*
X116184365Y-109959794D01*
X116333660Y-109931039D01*
X116438058Y-109913031D01*
X116523275Y-109878700D01*
X116610476Y-109814180D01*
X116720829Y-109705609D01*
X116789401Y-109632522D01*
X117043923Y-109358054D01*
X117593734Y-109404943D01*
X117850852Y-109431563D01*
X118124683Y-109467632D01*
X118379460Y-109508056D01*
X118550899Y-109541279D01*
X118958254Y-109630726D01*
X119448506Y-109394986D01*
X119735684Y-109249183D01*
X120022875Y-109089476D01*
X120294548Y-108925618D01*
X120535173Y-108767365D01*
X120729220Y-108624471D01*
X120858792Y-108509196D01*
X120977669Y-108357048D01*
X121028754Y-108226147D01*
X121008813Y-108125363D01*
X121001924Y-108116230D01*
X120970391Y-108099685D01*
X120915202Y-108110010D01*
X120825260Y-108152553D01*
X120689468Y-108232660D01*
X120496731Y-108355677D01*
X120473232Y-108370978D01*
X120216117Y-108535218D01*
X119952355Y-108697642D01*
X119693201Y-108851904D01*
X119449907Y-108991659D01*
X119233727Y-109110562D01*
X119055914Y-109202266D01*
X118927722Y-109260427D01*
X118863212Y-109278852D01*
X118774518Y-109266466D01*
X118643225Y-109235401D01*
X118566879Y-109213481D01*
X118360518Y-109172852D01*
X118093593Y-109156025D01*
X117974212Y-109156426D01*
X117638808Y-109145643D01*
X117368086Y-109097102D01*
X117349090Y-109091616D01*
X117185903Y-109053967D01*
X117043718Y-109040325D01*
X116984623Y-109045353D01*
X116839474Y-109116278D01*
X116699697Y-109256159D01*
X116580098Y-109449815D01*
X116570610Y-109469838D01*
X116492286Y-109639172D01*
X116148592Y-109660338D01*
X115975584Y-109673056D01*
X115859639Y-109692103D01*
X115773247Y-109727748D01*
X115688895Y-109790262D01*
X115609917Y-109861422D01*
X115457904Y-109980248D01*
X115313672Y-110040527D01*
X115165815Y-110040060D01*
X115002928Y-109976645D01*
X114813605Y-109848084D01*
X114602776Y-109667181D01*
X114445904Y-109535972D01*
X114322191Y-109467977D01*
X114213622Y-109458956D01*
X114102184Y-109504670D01*
X114052348Y-109537632D01*
X113921680Y-109604849D01*
X113774465Y-109647004D01*
X113765585Y-109648299D01*
X113660742Y-109652308D01*
X113560747Y-109626663D01*
X113436685Y-109561897D01*
X113364579Y-109517005D01*
X113226202Y-109437826D01*
X113101696Y-109382543D01*
X113024919Y-109364005D01*
X112929283Y-109385896D01*
X112904214Y-109446168D01*
X100124359Y-109446168D01*
X100130865Y-109182975D01*
X100141174Y-108879188D01*
X100152971Y-108625262D01*
X100165758Y-108438274D01*
X100166261Y-108432672D01*
X100211214Y-107963128D01*
X100215782Y-107920686D01*
X111518379Y-107920686D01*
X111546929Y-107983128D01*
X111623304Y-108087618D01*
X111733590Y-108219358D01*
X111863871Y-108363549D01*
X112000232Y-108505391D01*
X112128759Y-108630088D01*
X112235538Y-108722840D01*
X112306653Y-108768848D01*
X112318223Y-108771338D01*
X112411232Y-108743035D01*
X112441245Y-108720538D01*
X112479035Y-108665899D01*
X112481022Y-108602560D01*
X112441118Y-108520405D01*
X112353235Y-108409317D01*
X112211283Y-108259180D01*
X112092585Y-108141199D01*
X111927673Y-107981427D01*
X111810263Y-107874227D01*
X111728854Y-107811450D01*
X111671945Y-107784945D01*
X111628035Y-107786564D01*
X111605752Y-107796223D01*
X111536661Y-107863477D01*
X111518379Y-107920686D01*
X100215782Y-107920686D01*
X100254735Y-107558849D01*
X100296323Y-107223417D01*
X100335475Y-106960415D01*
X100371691Y-106773427D01*
X100404469Y-106666036D01*
X100416120Y-106646609D01*
X100461958Y-106605556D01*
X100530252Y-106567126D01*
X100628304Y-106529759D01*
X100763418Y-106491896D01*
X100942897Y-106451977D01*
X101174045Y-106408441D01*
X101464164Y-106359731D01*
X101820559Y-106304285D01*
X102250532Y-106240544D01*
X102459045Y-106210314D01*
X102891801Y-106147219D01*
X103364050Y-106077195D01*
X103853204Y-106003668D01*
X104336673Y-105930066D01*
X104791868Y-105859816D01*
X105196200Y-105796345D01*
X105358879Y-105770371D01*
X106018773Y-105666912D01*
X106611613Y-105580333D01*
X107153055Y-105509418D01*
X107658756Y-105452949D01*
X108144371Y-105409708D01*
X108625557Y-105378477D01*
X109117968Y-105358040D01*
X109637262Y-105347179D01*
X110199094Y-105344676D01*
X110779252Y-105348848D01*
X111156732Y-105353047D01*
X111459142Y-105357616D01*
X111696056Y-105364872D01*
X111877049Y-105377132D01*
X112011696Y-105396711D01*
X112109569Y-105425928D01*
X112180244Y-105467099D01*
X112233296Y-105522539D01*
X112278298Y-105594568D01*
X112324824Y-105685500D01*
X112346167Y-105728000D01*
X112446331Y-105882695D01*
X112600150Y-106068319D01*
X112791103Y-106268441D01*
X113002665Y-106466627D01*
X113218314Y-106646444D01*
X113404311Y-106780351D01*
X113832162Y-107021379D01*
X114298142Y-107216771D01*
X114637121Y-107319749D01*
X114788923Y-107350815D01*
X114967452Y-107372384D01*
X115189116Y-107385639D01*
X115470324Y-107391763D01*
X115645879Y-107392523D01*
X115937000Y-107390720D01*
X116167571Y-107383826D01*
X116361657Y-107369659D01*
X116543323Y-107346034D01*
X116736636Y-107310769D01*
X116879930Y-107280572D01*
X117136331Y-107219099D01*
X117417159Y-107142716D01*
X117682201Y-107062751D01*
X117832430Y-107012274D01*
X117997489Y-106955027D01*
X118226061Y-106878093D01*
X118500884Y-106787156D01*
X118804698Y-106687904D01*
X119120240Y-106586022D01*
X119328879Y-106519356D01*
X119681730Y-106406160D01*
X119969224Y-106310272D01*
X120207023Y-106224410D01*
X120410785Y-106141291D01*
X120596172Y-106053632D01*
X120778843Y-105954150D01*
X120974459Y-105835564D01*
X121198680Y-105690589D01*
X121403210Y-105554703D01*
X121637478Y-105401715D01*
X121890211Y-105242487D01*
X122133935Y-105093990D01*
X122341175Y-104973195D01*
X122376879Y-104953272D01*
X122921525Y-104641570D01*
X123404513Y-104340350D01*
X123845404Y-104036180D01*
X124263759Y-103715629D01*
X124641712Y-103398065D01*
X124885521Y-103179862D01*
X125074705Y-102996071D01*
X125222741Y-102830793D01*
X125343101Y-102668131D01*
X125449260Y-102492187D01*
X125514380Y-102368422D01*
X125589983Y-102223113D01*
X125645579Y-102137896D01*
X125698267Y-102096760D01*
X125765150Y-102083696D01*
X125819604Y-102082672D01*
X126013695Y-102102341D01*
X126260119Y-102157124D01*
X126537385Y-102240686D01*
X126823998Y-102346687D01*
X127049797Y-102445377D01*
X127215503Y-102523046D01*
X127350175Y-102585040D01*
X127437185Y-102623775D01*
X127461057Y-102633005D01*
X127489200Y-102600694D01*
X127521898Y-102545499D01*
X127536296Y-102436853D01*
X127478830Y-102322067D01*
X127359254Y-102217515D01*
X127309449Y-102188886D01*
X127196425Y-102140762D01*
X127026783Y-102081353D01*
X126816761Y-102015075D01*
X126582600Y-101946346D01*
X126340539Y-101879582D01*
X126106816Y-101819202D01*
X125897672Y-101769622D01*
X125729345Y-101735260D01*
X125618075Y-101720532D01*
X125591044Y-101721469D01*
X125477297Y-101764970D01*
X125358814Y-101860303D01*
X125225471Y-102017104D01*
X125111823Y-102177564D01*
X124974337Y-102337704D01*
X124833564Y-102413686D01*
X124693949Y-102407714D01*
X124608627Y-102378288D01*
X124486935Y-102333638D01*
X124451212Y-102320145D01*
X124257264Y-102273495D01*
X124023444Y-102256183D01*
X123789466Y-102268666D01*
X123597990Y-102310349D01*
X123481909Y-102362029D01*
X123326655Y-102445144D01*
X123162819Y-102543155D01*
X123137585Y-102559287D01*
X122884536Y-102709361D01*
X122659475Y-102807562D01*
X122431808Y-102863149D01*
X122170941Y-102885378D01*
X122054511Y-102887005D01*
X121829807Y-102893149D01*
X121646087Y-102916453D01*
X121460240Y-102964222D01*
X121317855Y-103011862D01*
X121098961Y-103081780D01*
X120854323Y-103148799D01*
X120634059Y-103199272D01*
X120618414Y-103202296D01*
X120332551Y-103267448D01*
X120101533Y-103348922D01*
X119895607Y-103459679D01*
X119695533Y-103604289D01*
X119532263Y-103717078D01*
X119343626Y-103810363D01*
X119102223Y-103897355D01*
X119060533Y-103910441D01*
X118841445Y-103987487D01*
X118588204Y-104090738D01*
X118339812Y-104203772D01*
X118215288Y-104266316D01*
X118032521Y-104357856D01*
X117867954Y-104432035D01*
X117740957Y-104480621D01*
X117675557Y-104495672D01*
X117588282Y-104502735D01*
X117443290Y-104521611D01*
X117266141Y-104548823D01*
X117187990Y-104561955D01*
X116962452Y-104595358D01*
X116782312Y-104606504D01*
X116611595Y-104596520D01*
X116513112Y-104583122D01*
X116225576Y-104551131D01*
X115924732Y-104539348D01*
X115636261Y-104547300D01*
X115385844Y-104574512D01*
X115240812Y-104606569D01*
X114967234Y-104652983D01*
X114650505Y-104647516D01*
X114313041Y-104591852D01*
X114058379Y-104517674D01*
X113856399Y-104454842D01*
X113698142Y-104431737D01*
X113556029Y-104452044D01*
X113402485Y-104519450D01*
X113222564Y-104629392D01*
X113080638Y-104718386D01*
X112986349Y-104764981D01*
X112918641Y-104776274D01*
X112856458Y-104759362D01*
X112848032Y-104755622D01*
X112761992Y-104684731D01*
X112686876Y-104571977D01*
X112676312Y-104548493D01*
X112544518Y-104260681D01*
X112406801Y-104035531D01*
X112246600Y-103851710D01*
X112047357Y-103687885D01*
X111963399Y-103630037D01*
X111821198Y-103522696D01*
X111742761Y-103433852D01*
X111730045Y-103394545D01*
X111737386Y-103362400D01*
X111763485Y-103320966D01*
X111814454Y-103265111D01*
X111896404Y-103189704D01*
X112015449Y-103089612D01*
X112177699Y-102959703D01*
X112389269Y-102794845D01*
X112656269Y-102589906D01*
X112984812Y-102339753D01*
X113000045Y-102328184D01*
X113330153Y-102079330D01*
X113663666Y-101831317D01*
X113992264Y-101590068D01*
X114307625Y-101361504D01*
X114601428Y-101151549D01*
X114865351Y-100966126D01*
X115091074Y-100811157D01*
X115270276Y-100692566D01*
X115394634Y-100616276D01*
X115434212Y-100595586D01*
X115565322Y-100544790D01*
X115686206Y-100524723D01*
X115817263Y-100537768D01*
X115978892Y-100586314D01*
X116191493Y-100672745D01*
X116227280Y-100688353D01*
X116557684Y-100831530D01*
X116830633Y-100945117D01*
X117065094Y-101035970D01*
X117280035Y-101110942D01*
X117494422Y-101176889D01*
X117727221Y-101240665D01*
X117826045Y-101266161D01*
X118119611Y-101336081D01*
X118353205Y-101377038D01*
X118546728Y-101388161D01*
X118720078Y-101368576D01*
X118893156Y-101317413D01*
X119085860Y-101233800D01*
X119137440Y-101208709D01*
X119413825Y-101040821D01*
X119687554Y-100818309D01*
X119936865Y-100562558D01*
X120139994Y-100294955D01*
X120233661Y-100131525D01*
X120347232Y-99836782D01*
X120398688Y-99548873D01*
X120385166Y-99286735D01*
X120370604Y-99224956D01*
X120344884Y-99111620D01*
X120353766Y-99044481D01*
X120402118Y-98990464D01*
X120405534Y-98987618D01*
X120432441Y-98960333D01*
X120433800Y-98935189D01*
X120399483Y-98907092D01*
X120319361Y-98870948D01*
X120183305Y-98821664D01*
X119981189Y-98754145D01*
X119867158Y-98716837D01*
X119386341Y-98545237D01*
X118932965Y-98350681D01*
X118487852Y-98123173D01*
X118031825Y-97852719D01*
X117545704Y-97529325D01*
X117422804Y-97442990D01*
X116906292Y-97080250D01*
X116452576Y-96768925D01*
X116058711Y-96507077D01*
X115721753Y-96292765D01*
X115438757Y-96124053D01*
X115316508Y-96056154D01*
X114838263Y-95823522D01*
X114335361Y-95624930D01*
X113821200Y-95463177D01*
X113309178Y-95341066D01*
X112812692Y-95261396D01*
X112345139Y-95226969D01*
X111919916Y-95240586D01*
X111630203Y-95285477D01*
X111385638Y-95357783D01*
X111094048Y-95472956D01*
X110774989Y-95621560D01*
X110448018Y-95794161D01*
X110132692Y-95981326D01*
X109978090Y-96082448D01*
X109756353Y-96248665D01*
X109496742Y-96469150D01*
X109212488Y-96730672D01*
X108916828Y-97019997D01*
X108622993Y-97323893D01*
X108344217Y-97629128D01*
X108093734Y-97922469D01*
X107928452Y-98131932D01*
X107673755Y-98460972D01*
X107451472Y-98726755D01*
X107250549Y-98938680D01*
X107059930Y-99106145D01*
X106868561Y-99238550D01*
X106665388Y-99345292D01*
X106439355Y-99435770D01*
X106364774Y-99461368D01*
X106242633Y-99503839D01*
X106153841Y-99545394D01*
X106081412Y-99601479D01*
X106008364Y-99687541D01*
X105917710Y-99819026D01*
X105839259Y-99939313D01*
X105619644Y-100304615D01*
X105396757Y-100724218D01*
X105184821Y-101169583D01*
X104998057Y-101612170D01*
X104971582Y-101680505D01*
X104898816Y-101876704D01*
X104851837Y-102027902D01*
X104825008Y-102164938D01*
X104812695Y-102318651D01*
X104809264Y-102519879D01*
X104809146Y-102569505D01*
X104810508Y-102780184D01*
X104818314Y-102931596D01*
X104837179Y-103049122D01*
X104871719Y-103158143D01*
X104926547Y-103284038D01*
X104946980Y-103327493D01*
X105038302Y-103496327D01*
X105153887Y-103659741D01*
X105309700Y-103838480D01*
X105454980Y-103987530D01*
X105712601Y-104224244D01*
X105964563Y-104409579D01*
X106227781Y-104550601D01*
X106519170Y-104654371D01*
X106855646Y-104727953D01*
X107254124Y-104778411D01*
X107374275Y-104788965D01*
X107997210Y-104804195D01*
X108607676Y-104749755D01*
X109192011Y-104627894D01*
X109736555Y-104440863D01*
X109883060Y-104375704D01*
X110048853Y-104293674D01*
X110262710Y-104181797D01*
X110499832Y-104053346D01*
X110735421Y-103921593D01*
X110791993Y-103889223D01*
X110991477Y-103776591D01*
X111167977Y-103680902D01*
X111307291Y-103609553D01*
X111395215Y-103569940D01*
X111415877Y-103564338D01*
X111464719Y-103601193D01*
X111533654Y-103700121D01*
X111613724Y-103843671D01*
X111695970Y-104014390D01*
X111771432Y-104194828D01*
X111831153Y-104367530D01*
X111835167Y-104381125D01*
X111881459Y-104569584D01*
X111905978Y-104733105D01*
X111906672Y-104851907D01*
X111889107Y-104901055D01*
X111843318Y-104906196D01*
X111721377Y-104911750D01*
X111531796Y-104917535D01*
X111283087Y-104923368D01*
X110983761Y-104929068D01*
X110642332Y-104934452D01*
X110267310Y-104939339D01*
X109928669Y-104942965D01*
X109496151Y-104947129D01*
X109124644Y-104951241D01*
X108802730Y-104956258D01*
X108518995Y-104963139D01*
X108262024Y-104972844D01*
X108020400Y-104986331D01*
X107782709Y-105004558D01*
X107537534Y-105028486D01*
X107273461Y-105059072D01*
X106979073Y-105097275D01*
X106642956Y-105144055D01*
X106253693Y-105200369D01*
X105799870Y-105267178D01*
X105445838Y-105319494D01*
X105079072Y-105372771D01*
X104696067Y-105426816D01*
X104316949Y-105478902D01*
X103961848Y-105526298D01*
X103650893Y-105566277D01*
X103411545Y-105595266D01*
X103171955Y-105624019D01*
X102888758Y-105659840D01*
X102576165Y-105700754D01*
X102248389Y-105744786D01*
X101919642Y-105789964D01*
X101604136Y-105834311D01*
X101316084Y-105875854D01*
X101069696Y-105912618D01*
X100879187Y-105942629D01*
X100760539Y-105963556D01*
X100661498Y-105966591D01*
X100613573Y-105918748D01*
X100613344Y-105918155D01*
X100613261Y-105830727D01*
X100650580Y-105675327D01*
X100722677Y-105458591D01*
X100826930Y-105187155D01*
X100960714Y-104867656D01*
X101121406Y-104506729D01*
X101306383Y-104111010D01*
X101423766Y-103868161D01*
X101808554Y-103097393D01*
X102174462Y-102398473D01*
X102526758Y-101762095D01*
X102870705Y-101178957D01*
X103211570Y-100639753D01*
X103458432Y-100272941D01*
X103566377Y-100115497D01*
X103653869Y-99985495D01*
X103711215Y-99897502D01*
X103729045Y-99866350D01*
X103689445Y-99858668D01*
X103581426Y-99848648D01*
X103421160Y-99837553D01*
X103224817Y-99826642D01*
X103210462Y-99825933D01*
X102850905Y-99798854D01*
X102551088Y-99752734D01*
X102287141Y-99681888D01*
X102035199Y-99580630D01*
X101900648Y-99513880D01*
X101642435Y-99353266D01*
X101398689Y-99147142D01*
X101165879Y-98890040D01*
X100940472Y-98576489D01*
X100718933Y-98201020D01*
X100497731Y-97758165D01*
X100273332Y-97242454D01*
X100042203Y-96648418D01*
X100032295Y-96621672D01*
X99912849Y-96296736D01*
X99820956Y-96041352D01*
X99753763Y-95846056D01*
X99708417Y-95701379D01*
X99682065Y-95597856D01*
X99671854Y-95526020D01*
X99674932Y-95476406D01*
X99680976Y-95455884D01*
X99698427Y-95429095D01*
X99735079Y-95411086D01*
X99803574Y-95401081D01*
X99916552Y-95398308D01*
X100086653Y-95401993D01*
X100326518Y-95411363D01*
X100374641Y-95413444D01*
X100653176Y-95419380D01*
X100997700Y-95416880D01*
X101390049Y-95406798D01*
X101812058Y-95389987D01*
X102245561Y-95367299D01*
X102672393Y-95339589D01*
X103074388Y-95307708D01*
X103433381Y-95272511D01*
X103475045Y-95267839D01*
X103593405Y-95258236D01*
X103785707Y-95247437D01*
X104041243Y-95235840D01*
X104349303Y-95223846D01*
X104699177Y-95211855D01*
X105080158Y-95200266D01*
X105481535Y-95189479D01*
X105739879Y-95183279D01*
X106315635Y-95169821D01*
X106813810Y-95157219D01*
X107241474Y-95144832D01*
X107605699Y-95132019D01*
X107913556Y-95118140D01*
X108172117Y-95102553D01*
X108388453Y-95084619D01*
X108569634Y-95063695D01*
X108722734Y-95039140D01*
X108854823Y-95010315D01*
X108972972Y-94976578D01*
X109084254Y-94937288D01*
X109195738Y-94891804D01*
X109258694Y-94864363D01*
X109475116Y-94755957D01*
X109716354Y-94613894D01*
X109969833Y-94447805D01*
X110222977Y-94267323D01*
X110463208Y-94082080D01*
X110677952Y-93901708D01*
X110854631Y-93735839D01*
X110980670Y-93594105D01*
X111037805Y-93501720D01*
X111082416Y-93409606D01*
X111116833Y-93363299D01*
X111120705Y-93362005D01*
X111161190Y-93388552D01*
X111247557Y-93459234D01*
X111363614Y-93560610D01*
X111405887Y-93598706D01*
X111796725Y-93920678D01*
X112232461Y-94222409D01*
X112689204Y-94489522D01*
X113143061Y-94707638D01*
X113434409Y-94819469D01*
X113600273Y-94868761D01*
X113823090Y-94925160D01*
X114076211Y-94982384D01*
X114332988Y-95034146D01*
X114386909Y-95044102D01*
X114524424Y-95068751D01*
X114648093Y-95089577D01*
X114766416Y-95106949D01*
X114887892Y-95121238D01*
X115021021Y-95132814D01*
X115174305Y-95142046D01*
X115356243Y-95149304D01*
X115575335Y-95154959D01*
X115840082Y-95159380D01*
X116158983Y-95162938D01*
X116540538Y-95166003D01*
X116993248Y-95168944D01*
X117296879Y-95170769D01*
X117937740Y-95172539D01*
X118579352Y-95170411D01*
X119214816Y-95164622D01*
X119837234Y-95155413D01*
X120439708Y-95143023D01*
X121015339Y-95127689D01*
X121557230Y-95109652D01*
X122058481Y-95089151D01*
X122512195Y-95066423D01*
X122911473Y-95041710D01*
X123249416Y-95015248D01*
X123519128Y-94987278D01*
X123713709Y-94958038D01*
X123766714Y-94946595D01*
X123933028Y-94912575D01*
X124093709Y-94890592D01*
X124173159Y-94886005D01*
X124307442Y-94867499D01*
X124466492Y-94808731D01*
X124659494Y-94704827D01*
X124895633Y-94550912D01*
X125149712Y-94367773D01*
X125421208Y-94151918D01*
X125718874Y-93891283D01*
X126029861Y-93599138D01*
X126341321Y-93288748D01*
X126640403Y-92973382D01*
X126914260Y-92666307D01*
X127150040Y-92380790D01*
X127334896Y-92130100D01*
X127373361Y-92071747D01*
X127467249Y-91903993D01*
X127575448Y-91677753D01*
X127688774Y-91415884D01*
X127798043Y-91141241D01*
X127894071Y-90876682D01*
X127967674Y-90645062D01*
X128003092Y-90504505D01*
X128027642Y-90369297D01*
X128059861Y-90168758D01*
X128096952Y-89921571D01*
X128136115Y-89646422D01*
X128174555Y-89361997D01*
X128177393Y-89340338D01*
X128227793Y-88930074D01*
X128261000Y-88586530D01*
X128276116Y-88293341D01*
X128272241Y-88034144D01*
X128248476Y-87792573D01*
X128203924Y-87552264D01*
X128137685Y-87296854D01*
X128049521Y-87012005D01*
X127878194Y-86520610D01*
X127703557Y-86094784D01*
X127516164Y-85715650D01*
X127306566Y-85364332D01*
X127065316Y-85021956D01*
X127030765Y-84976637D01*
X126824524Y-84733764D01*
X126563175Y-84464890D01*
X126265064Y-84186124D01*
X125948535Y-83913574D01*
X125631935Y-83663349D01*
X125333608Y-83451558D01*
X125192045Y-83362116D01*
X125031062Y-83264240D01*
X124892966Y-83177666D01*
X124797171Y-83114695D01*
X124768712Y-83093891D01*
X124709394Y-83056568D01*
X124589699Y-82989907D01*
X124425077Y-82902230D01*
X124230980Y-82801861D01*
X124154879Y-82763220D01*
X123638109Y-82533101D01*
X123125389Y-82364852D01*
X122630030Y-82262074D01*
X122177790Y-82228338D01*
X121807243Y-82228338D01*
X121933311Y-82029550D01*
X122033752Y-81802372D01*
X122064801Y-81562164D01*
X122028730Y-81328067D01*
X121927812Y-81119224D01*
X121809889Y-80989796D01*
X121628785Y-80876982D01*
X121443409Y-80845621D01*
X121241694Y-80894413D01*
X121181290Y-80921938D01*
X120983391Y-81064062D01*
X120849432Y-81259022D01*
X120783606Y-81499664D01*
X120777283Y-81611201D01*
X120796383Y-81819050D01*
X120863449Y-81987831D01*
X120992971Y-82154255D01*
X121056523Y-82228367D01*
X121079994Y-82268387D01*
X121077358Y-82270672D01*
X120976386Y-82277952D01*
X120805266Y-82298393D01*
X120577133Y-82329892D01*
X120305120Y-82370346D01*
X120002359Y-82417653D01*
X119681984Y-82469711D01*
X119357128Y-82524416D01*
X119040924Y-82579667D01*
X118746504Y-82633361D01*
X118487003Y-82683396D01*
X118439879Y-82692895D01*
X117916562Y-82800813D01*
X117391764Y-82911872D01*
X116873325Y-83024232D01*
X116369084Y-83136049D01*
X115886882Y-83245482D01*
X115434560Y-83350688D01*
X115019957Y-83449824D01*
X114650915Y-83541048D01*
X114335272Y-83622518D01*
X114080869Y-83692392D01*
X113895548Y-83748827D01*
X113804379Y-83782169D01*
X113677691Y-83832988D01*
X113516631Y-83893562D01*
X113423379Y-83927051D01*
X113244146Y-84003395D01*
X113016881Y-84120476D01*
X112760535Y-84267247D01*
X112494063Y-84432663D01*
X112236416Y-84605678D01*
X112137262Y-84676590D01*
X111845978Y-84889297D01*
X111285729Y-84382854D01*
X110974007Y-84103912D01*
X110708918Y-83873905D01*
X110476900Y-83682226D01*
X110264396Y-83518266D01*
X110057844Y-83371419D01*
X109843685Y-83231075D01*
X109698045Y-83140790D01*
X109373891Y-82951792D01*
X109094246Y-82811731D01*
X108838542Y-82715386D01*
X108586210Y-82657535D01*
X108316678Y-82632957D01*
X108009379Y-82636431D01*
X107771879Y-82651872D01*
X107543639Y-82670585D01*
X107340367Y-82688935D01*
X107141688Y-82709162D01*
X106927226Y-82733502D01*
X106676608Y-82764195D01*
X106369458Y-82803478D01*
X106247879Y-82819273D01*
X105696706Y-82891015D01*
X105218194Y-82953166D01*
X104801055Y-83007172D01*
X104434005Y-83054477D01*
X104105758Y-83096526D01*
X103805030Y-83134765D01*
X103520536Y-83170639D01*
X103240989Y-83205593D01*
X102955106Y-83241073D01*
X102924712Y-83244831D01*
X102541998Y-83292766D01*
X102158041Y-83341996D01*
X101783087Y-83391110D01*
X101427384Y-83438703D01*
X101101176Y-83483364D01*
X100814711Y-83523686D01*
X100578234Y-83558259D01*
X100401991Y-83585676D01*
X100296229Y-83604527D01*
X100278879Y-83608539D01*
X100217337Y-83627409D01*
X100086820Y-83669159D01*
X99898734Y-83730080D01*
X99664487Y-83806463D01*
X99395487Y-83894600D01*
X99103141Y-83990782D01*
X99100633Y-83991609D01*
X98812379Y-84085612D01*
X98551002Y-84168890D01*
X98327071Y-84238234D01*
X98151154Y-84290435D01*
X98033821Y-84322283D01*
X97985641Y-84330569D01*
X97985227Y-84330298D01*
X97977010Y-84282017D01*
X97968859Y-84162423D01*
X97961004Y-83984868D01*
X97953673Y-83762705D01*
X97947099Y-83509287D01*
X97941509Y-83237967D01*
X97937135Y-82962098D01*
X97934206Y-82695032D01*
X97932951Y-82450123D01*
X97933602Y-82240724D01*
X97936388Y-82080187D01*
X97941539Y-81981865D01*
X97944453Y-81962371D01*
X97977772Y-81888587D01*
X98047048Y-81848488D01*
X98151790Y-81828387D01*
X98227877Y-81818187D01*
X98379258Y-81797890D01*
X98597310Y-81768654D01*
X98873411Y-81731633D01*
X99198939Y-81687985D01*
X99565272Y-81638864D01*
X99963788Y-81585428D01*
X100385865Y-81528833D01*
X100532879Y-81509120D01*
X101017033Y-81444666D01*
X101526439Y-81377696D01*
X102045027Y-81310267D01*
X102556727Y-81244438D01*
X103045469Y-81182267D01*
X103495184Y-81125814D01*
X103889801Y-81077135D01*
X104152490Y-81045475D01*
X104531220Y-81000405D01*
X104919492Y-80954052D01*
X105299829Y-80908511D01*
X105654753Y-80865880D01*
X105966788Y-80828256D01*
X106218457Y-80797736D01*
X106290324Y-80788964D01*
X106516679Y-80762818D01*
X106809835Y-80731334D01*
X107152223Y-80696267D01*
X107526273Y-80659368D01*
X107914417Y-80622392D01*
X108299087Y-80587093D01*
X108428045Y-80575601D01*
X108814538Y-80541028D01*
X109216932Y-80504284D01*
X109616264Y-80467153D01*
X109993570Y-80431418D01*
X110329883Y-80398865D01*
X110606240Y-80371276D01*
X110671712Y-80364537D01*
X111172472Y-80317127D01*
X111718383Y-80274424D01*
X112313569Y-80236283D01*
X112962152Y-80202562D01*
X113668256Y-80173118D01*
X114436003Y-80147808D01*
X115269516Y-80126487D01*
X116172918Y-80109014D01*
X117150333Y-80095244D01*
X118205883Y-80085035D01*
X118842045Y-80080766D01*
X119783016Y-80076381D01*
X120647170Y-80074677D01*
X121442325Y-80075937D01*
X122176295Y-80080443D01*
X122856897Y-80088478D01*
X123491948Y-80100324D01*
X124089264Y-80116263D01*
X124656661Y-80136578D01*
X125201955Y-80161551D01*
X125732962Y-80191465D01*
X126257499Y-80226601D01*
X126783382Y-80267243D01*
X127318427Y-80313673D01*
X127870450Y-80366172D01*
X128447268Y-80425024D01*
X128487212Y-80429224D01*
X128775125Y-80460966D01*
X128990434Y-80489370D01*
X129144932Y-80517890D01*
X129250407Y-80549983D01*
X129318651Y-80589104D01*
X129361454Y-80638710D01*
X129387139Y-80692996D01*
X129427803Y-80825568D01*
X129479500Y-81038804D01*
X129541618Y-81329504D01*
X129613544Y-81694471D01*
X129694664Y-82130504D01*
X129784367Y-82634405D01*
X129882039Y-83202977D01*
X129977267Y-83773505D01*
X130106934Y-84574600D01*
X130219280Y-85302431D01*
X130315207Y-85966414D01*
X130395618Y-86575968D01*
X130461413Y-87140510D01*
X130513494Y-87669458D01*
X130552763Y-88172230D01*
X130580123Y-88658244D01*
X130596474Y-89136916D01*
X130602718Y-89617665D01*
X130599757Y-90109909D01*
X130597412Y-90250505D01*
X130586377Y-90719538D01*
X130571254Y-91122684D01*
X130550330Y-91478692D01*
X130521894Y-91806307D01*
X130484235Y-92124278D01*
X130435641Y-92451350D01*
X130374402Y-92806272D01*
X130353955Y-92917505D01*
X130270481Y-93329718D01*
X130170705Y-93761449D01*
X130058925Y-94198006D01*
X129939441Y-94624695D01*
X129816553Y-95026823D01*
X129694559Y-95389696D01*
X129577759Y-95698621D01*
X129470452Y-95938906D01*
X129469129Y-95941531D01*
X129144037Y-96496575D01*
X128746983Y-97023090D01*
X128288938Y-97509599D01*
X127780874Y-97944624D01*
X127233760Y-98316688D01*
X127154243Y-98363346D01*
X126614550Y-98645220D01*
X126075688Y-98865542D01*
X125515386Y-99031557D01*
X124911374Y-99150511D01*
X124606477Y-99192172D01*
X124359074Y-99223567D01*
X124183490Y-99250730D01*
X124067175Y-99276547D01*
X123997580Y-99303907D01*
X123962158Y-99335696D01*
X123958936Y-99341174D01*
X123934902Y-99419261D01*
X123940133Y-99453022D01*
X123988678Y-99468840D01*
X124104358Y-99485365D01*
X124269687Y-99500605D01*
X124460674Y-99512265D01*
X124762329Y-99533996D01*
X125022910Y-99571975D01*
X125285508Y-99633263D01*
X125403712Y-99666752D01*
X125614807Y-99724883D01*
X125823590Y-99775549D01*
X126000210Y-99811817D01*
X126081045Y-99824097D01*
X126287691Y-99858896D01*
X126413314Y-99909710D01*
X126460749Y-99980872D01*
X126432830Y-100076714D01*
X126332391Y-100201570D01*
X126329754Y-100204298D01*
X126232715Y-100340320D01*
X126198353Y-100473092D01*
X126229244Y-100584372D01*
X126270158Y-100626392D01*
X126358187Y-100667678D01*
X126484467Y-100702869D01*
X126515076Y-100708645D01*
X126701762Y-100772006D01*
X126824136Y-100885017D01*
X126877040Y-101042123D01*
X126878483Y-101100102D01*
X126880659Y-101217208D01*
X126894214Y-101298305D01*
X126898506Y-101307665D01*
X126951429Y-101333266D01*
X127063900Y-101358324D01*
X127202610Y-101376432D01*
X127354871Y-101394685D01*
X127477479Y-101416660D01*
X127539010Y-101435598D01*
X127589565Y-101485221D01*
X127669727Y-101586186D01*
X127763705Y-101718362D01*
X127780929Y-101744005D01*
X127892868Y-101897726D01*
X128041053Y-102081580D01*
X128201410Y-102266290D01*
X128281977Y-102353340D01*
X128508849Y-102573739D01*
X128699469Y-102720116D01*
X128853190Y-102792163D01*
X128969363Y-102789572D01*
X129045131Y-102716266D01*
X129061066Y-102665534D01*
X129045202Y-102609546D01*
X128987954Y-102532070D01*
X128879738Y-102416869D01*
X128851441Y-102388183D01*
X128642184Y-102146402D01*
X128511258Y-101920706D01*
X128455315Y-101704895D01*
X128452642Y-101650228D01*
X128427875Y-101508898D01*
X128345364Y-101373162D01*
X128316903Y-101339412D01*
X128264410Y-101281074D01*
X128228805Y-101234068D01*
X128212604Y-101185060D01*
X128218325Y-101120714D01*
X128248483Y-101027699D01*
X128305595Y-100892679D01*
X128392179Y-100702320D01*
X128468588Y-100535745D01*
X128610557Y-100167850D01*
X128709336Y-99772976D01*
X128767943Y-99334719D01*
X128789395Y-98836679D01*
X128789603Y-98790645D01*
X128790379Y-98356119D01*
X128545352Y-98479808D01*
X128316884Y-98589297D01*
X128050879Y-98707203D01*
X127760344Y-98828688D01*
X127458286Y-98948914D01*
X127157711Y-99063042D01*
X126871627Y-99166234D01*
X126613040Y-99253651D01*
X126394957Y-99320456D01*
X126230385Y-99361809D01*
X126143301Y-99373338D01*
X126056374Y-99362377D01*
X126047883Y-99331628D01*
X126114777Y-99284292D01*
X126254007Y-99223570D01*
X126303295Y-99205407D01*
X126471482Y-99136960D01*
X126693266Y-99034775D01*
X126949657Y-98908704D01*
X127221669Y-98768596D01*
X127490312Y-98624302D01*
X127736600Y-98485674D01*
X127941542Y-98362562D01*
X127998344Y-98326046D01*
X128201227Y-98177558D01*
X128431391Y-97984834D01*
X128671046Y-97765117D01*
X128902402Y-97535649D01*
X129107668Y-97313674D01*
X129269053Y-97116434D01*
X129318573Y-97046467D01*
X129509548Y-96724317D01*
X130729510Y-96724317D01*
X130822967Y-96799994D01*
X130949872Y-96867727D01*
X131074364Y-96854021D01*
X131148742Y-96811791D01*
X131229269Y-96723076D01*
X131324379Y-96565586D01*
X131428013Y-96352658D01*
X131534114Y-96097627D01*
X131636623Y-95813830D01*
X131714560Y-95566249D01*
X131747763Y-95451671D01*
X131765285Y-95378352D01*
X131761710Y-95350795D01*
X131731625Y-95373502D01*
X131669612Y-95450973D01*
X131570258Y-95587712D01*
X131428147Y-95788219D01*
X131400497Y-95827344D01*
X131260863Y-96022809D01*
X131120155Y-96216185D01*
X130995033Y-96384778D01*
X130904385Y-96503084D01*
X130729510Y-96724317D01*
X129509548Y-96724317D01*
X129561662Y-96636409D01*
X129797577Y-96152269D01*
X130023266Y-95604530D01*
X130235677Y-95003678D01*
X130431757Y-94360195D01*
X130608455Y-93684566D01*
X130762716Y-92987275D01*
X130891490Y-92278806D01*
X130991724Y-91569643D01*
X131037392Y-91142860D01*
X131054988Y-90876156D01*
X131065537Y-90542103D01*
X131069374Y-90157699D01*
X131066831Y-89739941D01*
X131058243Y-89305825D01*
X131043944Y-88872347D01*
X131024265Y-88456505D01*
X130999542Y-88075295D01*
X130970862Y-87752838D01*
X130884899Y-86987056D01*
X130782213Y-86158393D01*
X130665596Y-85286358D01*
X130537839Y-84390457D01*
X130401733Y-83490198D01*
X130260069Y-82605089D01*
X130115638Y-81754635D01*
X130099385Y-81662246D01*
X130045041Y-81349554D01*
X129995981Y-81057837D01*
X129954133Y-80799314D01*
X129921422Y-80586205D01*
X129899777Y-80430730D01*
X129891122Y-80345108D01*
X129891045Y-80340819D01*
X129898851Y-80255110D01*
X129931406Y-80193886D01*
X130002417Y-80149929D01*
X130125594Y-80116026D01*
X130314642Y-80084960D01*
X130399045Y-80073403D01*
X130570633Y-80046865D01*
X130799483Y-80006277D01*
X131060306Y-79956385D01*
X131327808Y-79901931D01*
X131434420Y-79879198D01*
X131721775Y-79819707D01*
X131931386Y-79782659D01*
X132066997Y-79767521D01*
X132132355Y-79773760D01*
G37*
G04 #@! TD.AperFunction*
D11*
X116531700Y-136430700D03*
D12*
X116531700Y-138970700D03*
D11*
X119071700Y-136430700D03*
X119071700Y-138970700D03*
D13*
X121611700Y-136430700D03*
X121611700Y-138970700D03*
M02*
