G04 #@! TF.GenerationSoftware,KiCad,Pcbnew,8.0.3*
G04 #@! TF.CreationDate,2024-07-03T11:21:14-05:00*
G04 #@! TF.ProjectId,JiggleBilly,4a696767-6c65-4426-996c-6c792e6b6963,rev?*
G04 #@! TF.SameCoordinates,Original*
G04 #@! TF.FileFunction,Copper,L2,Bot*
G04 #@! TF.FilePolarity,Positive*
%FSLAX46Y46*%
G04 Gerber Fmt 4.6, Leading zero omitted, Abs format (unit mm)*
G04 Created by KiCad (PCBNEW 8.0.3) date 2024-07-03 11:21:14*
%MOMM*%
%LPD*%
G01*
G04 APERTURE LIST*
G04 Aperture macros list*
%AMRoundRect*
0 Rectangle with rounded corners*
0 $1 Rounding radius*
0 $2 $3 $4 $5 $6 $7 $8 $9 X,Y pos of 4 corners*
0 Add a 4 corners polygon primitive as box body*
4,1,4,$2,$3,$4,$5,$6,$7,$8,$9,$2,$3,0*
0 Add four circle primitives for the rounded corners*
1,1,$1+$1,$2,$3*
1,1,$1+$1,$4,$5*
1,1,$1+$1,$6,$7*
1,1,$1+$1,$8,$9*
0 Add four rect primitives between the rounded corners*
20,1,$1+$1,$2,$3,$4,$5,0*
20,1,$1+$1,$4,$5,$6,$7,0*
20,1,$1+$1,$6,$7,$8,$9,0*
20,1,$1+$1,$8,$9,$2,$3,0*%
G04 Aperture macros list end*
G04 #@! TA.AperFunction,ComponentPad*
%ADD10O,1.727200X1.727200*%
G04 #@! TD*
G04 #@! TA.AperFunction,ComponentPad*
%ADD11R,1.727200X1.727200*%
G04 #@! TD*
G04 #@! TA.AperFunction,ComponentPad*
%ADD12C,1.727200*%
G04 #@! TD*
G04 #@! TA.AperFunction,SMDPad,CuDef*
%ADD13R,2.000000X2.500000*%
G04 #@! TD*
G04 #@! TA.AperFunction,SMDPad,CuDef*
%ADD14RoundRect,0.250000X0.350000X0.450000X-0.350000X0.450000X-0.350000X-0.450000X0.350000X-0.450000X0*%
G04 #@! TD*
G04 #@! TA.AperFunction,SMDPad,CuDef*
%ADD15RoundRect,0.250000X-0.350000X-0.450000X0.350000X-0.450000X0.350000X0.450000X-0.350000X0.450000X0*%
G04 #@! TD*
G04 #@! TA.AperFunction,Conductor*
%ADD16C,0.500000*%
G04 #@! TD*
G04 APERTURE END LIST*
D10*
X116531700Y-136430700D03*
D11*
X116531700Y-138970700D03*
D10*
X119071700Y-136430700D03*
X119071700Y-138970700D03*
D12*
X121611700Y-136430700D03*
X121611700Y-138970700D03*
D13*
X119014000Y-89500000D03*
X114414000Y-89500000D03*
D14*
X103489000Y-83312000D03*
X101489000Y-83312000D03*
D13*
X103800000Y-89500000D03*
X99200000Y-89500000D03*
D15*
X112411000Y-83439000D03*
X114411000Y-83439000D03*
D16*
X99200000Y-89500000D02*
X96866000Y-89500000D01*
X97409000Y-83312000D02*
X101489000Y-83312000D01*
X96520000Y-84201000D02*
X97409000Y-83312000D01*
X96866000Y-89500000D02*
X96520000Y-89154000D01*
X96520000Y-89154000D02*
X96520000Y-84201000D01*
X116531700Y-138970700D02*
X103800000Y-126239000D01*
X103800000Y-126239000D02*
X103800000Y-100076000D01*
X103800000Y-100076000D02*
X103800000Y-89500000D01*
X119014000Y-95743000D02*
X114681000Y-100076000D01*
X114681000Y-100076000D02*
X103800000Y-100076000D01*
X119014000Y-89500000D02*
X119014000Y-95743000D01*
X114411000Y-85233000D02*
X114411000Y-83439000D01*
X112014000Y-87630000D02*
X114411000Y-85233000D01*
X112014000Y-88900000D02*
X112014000Y-87630000D01*
X114414000Y-89500000D02*
X112614000Y-89500000D01*
X112614000Y-89500000D02*
X112014000Y-88900000D01*
X112411000Y-83439000D02*
X112411000Y-79899000D01*
X116531700Y-102670300D02*
X121920000Y-97282000D01*
X119380000Y-79756000D02*
X112268000Y-79756000D01*
X121920000Y-97282000D02*
X121920000Y-82296000D01*
X112411000Y-79899000D02*
X112268000Y-79756000D01*
X121920000Y-82296000D02*
X119380000Y-79756000D01*
X107045000Y-79756000D02*
X103489000Y-83312000D01*
X112268000Y-79756000D02*
X107045000Y-79756000D01*
X116531700Y-136430700D02*
X116531700Y-102670300D01*
M02*
