G04 #@! TF.GenerationSoftware,KiCad,Pcbnew,8.0.3*
G04 #@! TF.CreationDate,2024-07-03T11:21:14-05:00*
G04 #@! TF.ProjectId,JiggleBilly,4a696767-6c65-4426-996c-6c792e6b6963,rev?*
G04 #@! TF.SameCoordinates,Original*
G04 #@! TF.FileFunction,Soldermask,Bot*
G04 #@! TF.FilePolarity,Negative*
%FSLAX46Y46*%
G04 Gerber Fmt 4.6, Leading zero omitted, Abs format (unit mm)*
G04 Created by KiCad (PCBNEW 8.0.3) date 2024-07-03 11:21:14*
%MOMM*%
%LPD*%
G01*
G04 APERTURE LIST*
G04 Aperture macros list*
%AMRoundRect*
0 Rectangle with rounded corners*
0 $1 Rounding radius*
0 $2 $3 $4 $5 $6 $7 $8 $9 X,Y pos of 4 corners*
0 Add a 4 corners polygon primitive as box body*
4,1,4,$2,$3,$4,$5,$6,$7,$8,$9,$2,$3,0*
0 Add four circle primitives for the rounded corners*
1,1,$1+$1,$2,$3*
1,1,$1+$1,$4,$5*
1,1,$1+$1,$6,$7*
1,1,$1+$1,$8,$9*
0 Add four rect primitives between the rounded corners*
20,1,$1+$1,$2,$3,$4,$5,0*
20,1,$1+$1,$4,$5,$6,$7,0*
20,1,$1+$1,$6,$7,$8,$9,0*
20,1,$1+$1,$8,$9,$2,$3,0*%
G04 Aperture macros list end*
%ADD10C,0.200000*%
%ADD11C,0.010000*%
%ADD12C,1.152495*%
%ADD13C,0.100000*%
%ADD14O,1.727200X1.727200*%
%ADD15R,1.727200X1.727200*%
%ADD16C,1.727200*%
%ADD17R,1.930400X2.438400*%
%ADD18R,1.955800X2.463800*%
%ADD19RoundRect,0.250000X0.350000X0.450000X-0.350000X0.450000X-0.350000X-0.450000X0.350000X-0.450000X0*%
%ADD20RoundRect,0.250000X-0.350000X-0.450000X0.350000X-0.450000X0.350000X0.450000X-0.350000X0.450000X0*%
G04 APERTURE END LIST*
D10*
X127381000Y-142494000D02*
X113411000Y-144526000D01*
X112141000Y-147066000D01*
X110744000Y-147066000D01*
X111379000Y-139827000D01*
X114935000Y-135636000D01*
X120269000Y-133223000D01*
X123571000Y-130429000D01*
X127381000Y-130429000D01*
X127381000Y-142494000D01*
G36*
X127381000Y-142494000D02*
G01*
X113411000Y-144526000D01*
X112141000Y-147066000D01*
X110744000Y-147066000D01*
X111379000Y-139827000D01*
X114935000Y-135636000D01*
X120269000Y-133223000D01*
X123571000Y-130429000D01*
X127381000Y-130429000D01*
X127381000Y-142494000D01*
G37*
D11*
X117378699Y-85749426D02*
X117764160Y-85770499D01*
X118114701Y-85803714D01*
X118414418Y-85847527D01*
X118647408Y-85900392D01*
X118667889Y-85906572D01*
X119015422Y-86055865D01*
X119356548Y-86281151D01*
X119683992Y-86573759D01*
X119990480Y-86925020D01*
X120268737Y-87326265D01*
X120511489Y-87768824D01*
X120711460Y-88244026D01*
X120767617Y-88409005D01*
X120853066Y-88755130D01*
X120902411Y-89131223D01*
X120914078Y-89508024D01*
X120886489Y-89856271D01*
X120854531Y-90022901D01*
X120679304Y-90568723D01*
X120425062Y-91099045D01*
X120097031Y-91606858D01*
X119700435Y-92085154D01*
X119240499Y-92526923D01*
X118722449Y-92925155D01*
X118659002Y-92968098D01*
X118255235Y-93188363D01*
X117824307Y-93328846D01*
X117368682Y-93389078D01*
X116890827Y-93368590D01*
X116704212Y-93339595D01*
X116168978Y-93224853D01*
X115646163Y-93083099D01*
X115153609Y-92920259D01*
X114709157Y-92742257D01*
X114330652Y-92555017D01*
X114315058Y-92546244D01*
X113942842Y-92294363D01*
X113589849Y-91976965D01*
X113274094Y-91613192D01*
X113013595Y-91222186D01*
X112940565Y-91085946D01*
X112853851Y-90875499D01*
X112771583Y-90608706D01*
X112700184Y-90313863D01*
X112646078Y-90019266D01*
X112615689Y-89753213D01*
X112611392Y-89635898D01*
X112647528Y-89292761D01*
X112750764Y-88920470D01*
X112913785Y-88530253D01*
X113129273Y-88133337D01*
X113389913Y-87740950D01*
X113688387Y-87364318D01*
X114017381Y-87014670D01*
X114369577Y-86703231D01*
X114661177Y-86490422D01*
X115096814Y-86223505D01*
X115504239Y-86021584D01*
X115901575Y-85878795D01*
X116306947Y-85789274D01*
X116738480Y-85747157D01*
X116974223Y-85742040D01*
X117378699Y-85749426D01*
G36*
X117378699Y-85749426D02*
G01*
X117764160Y-85770499D01*
X118114701Y-85803714D01*
X118414418Y-85847527D01*
X118647408Y-85900392D01*
X118667889Y-85906572D01*
X119015422Y-86055865D01*
X119356548Y-86281151D01*
X119683992Y-86573759D01*
X119990480Y-86925020D01*
X120268737Y-87326265D01*
X120511489Y-87768824D01*
X120711460Y-88244026D01*
X120767617Y-88409005D01*
X120853066Y-88755130D01*
X120902411Y-89131223D01*
X120914078Y-89508024D01*
X120886489Y-89856271D01*
X120854531Y-90022901D01*
X120679304Y-90568723D01*
X120425062Y-91099045D01*
X120097031Y-91606858D01*
X119700435Y-92085154D01*
X119240499Y-92526923D01*
X118722449Y-92925155D01*
X118659002Y-92968098D01*
X118255235Y-93188363D01*
X117824307Y-93328846D01*
X117368682Y-93389078D01*
X116890827Y-93368590D01*
X116704212Y-93339595D01*
X116168978Y-93224853D01*
X115646163Y-93083099D01*
X115153609Y-92920259D01*
X114709157Y-92742257D01*
X114330652Y-92555017D01*
X114315058Y-92546244D01*
X113942842Y-92294363D01*
X113589849Y-91976965D01*
X113274094Y-91613192D01*
X113013595Y-91222186D01*
X112940565Y-91085946D01*
X112853851Y-90875499D01*
X112771583Y-90608706D01*
X112700184Y-90313863D01*
X112646078Y-90019266D01*
X112615689Y-89753213D01*
X112611392Y-89635898D01*
X112647528Y-89292761D01*
X112750764Y-88920470D01*
X112913785Y-88530253D01*
X113129273Y-88133337D01*
X113389913Y-87740950D01*
X113688387Y-87364318D01*
X114017381Y-87014670D01*
X114369577Y-86703231D01*
X114661177Y-86490422D01*
X115096814Y-86223505D01*
X115504239Y-86021584D01*
X115901575Y-85878795D01*
X116306947Y-85789274D01*
X116738480Y-85747157D01*
X116974223Y-85742040D01*
X117378699Y-85749426D01*
G37*
X103607333Y-85940818D02*
X103827945Y-86057677D01*
X104046667Y-86184630D01*
X104238922Y-86306748D01*
X104380131Y-86409102D01*
X104385543Y-86413543D01*
X104686863Y-86701193D01*
X104976095Y-87049232D01*
X105242527Y-87439279D01*
X105475445Y-87852957D01*
X105664135Y-88271885D01*
X105797884Y-88677685D01*
X105850407Y-88926499D01*
X105882669Y-89387639D01*
X105842973Y-89872586D01*
X105734982Y-90367073D01*
X105562362Y-90856833D01*
X105328777Y-91327599D01*
X105167450Y-91585372D01*
X104965463Y-91846834D01*
X104706707Y-92127452D01*
X104410727Y-92409714D01*
X104097068Y-92676105D01*
X103785275Y-92909113D01*
X103494892Y-93091226D01*
X103474354Y-93102435D01*
X103139974Y-93253342D01*
X102781174Y-93355219D01*
X102384745Y-93410121D01*
X101937477Y-93420101D01*
X101563341Y-93399556D01*
X100947660Y-93311840D01*
X100310840Y-93147049D01*
X99648851Y-92904117D01*
X99578271Y-92874270D01*
X99087872Y-92621728D01*
X98651469Y-92308799D01*
X98274233Y-91940375D01*
X97961336Y-91521350D01*
X97762295Y-91156161D01*
X97655957Y-90904750D01*
X97582072Y-90667336D01*
X97535818Y-90418865D01*
X97512371Y-90134287D01*
X97506780Y-89828861D01*
X97518123Y-89423382D01*
X97555307Y-89078243D01*
X97624840Y-88771356D01*
X97733226Y-88480632D01*
X97886973Y-88183981D01*
X98082455Y-87874351D01*
X98329133Y-87536425D01*
X98589833Y-87231698D01*
X98849887Y-86976067D01*
X99075933Y-86797924D01*
X99191501Y-86726645D01*
X99366742Y-86627686D01*
X99585006Y-86510014D01*
X99829644Y-86382598D01*
X100084004Y-86254407D01*
X100096414Y-86248268D01*
X100457765Y-86074677D01*
X100766700Y-85940236D01*
X101043118Y-85840057D01*
X101306916Y-85769254D01*
X101577992Y-85722940D01*
X101876245Y-85696229D01*
X102221572Y-85684233D01*
X102400833Y-85682316D01*
X103083454Y-85678505D01*
X103607333Y-85940818D01*
G36*
X103607333Y-85940818D02*
G01*
X103827945Y-86057677D01*
X104046667Y-86184630D01*
X104238922Y-86306748D01*
X104380131Y-86409102D01*
X104385543Y-86413543D01*
X104686863Y-86701193D01*
X104976095Y-87049232D01*
X105242527Y-87439279D01*
X105475445Y-87852957D01*
X105664135Y-88271885D01*
X105797884Y-88677685D01*
X105850407Y-88926499D01*
X105882669Y-89387639D01*
X105842973Y-89872586D01*
X105734982Y-90367073D01*
X105562362Y-90856833D01*
X105328777Y-91327599D01*
X105167450Y-91585372D01*
X104965463Y-91846834D01*
X104706707Y-92127452D01*
X104410727Y-92409714D01*
X104097068Y-92676105D01*
X103785275Y-92909113D01*
X103494892Y-93091226D01*
X103474354Y-93102435D01*
X103139974Y-93253342D01*
X102781174Y-93355219D01*
X102384745Y-93410121D01*
X101937477Y-93420101D01*
X101563341Y-93399556D01*
X100947660Y-93311840D01*
X100310840Y-93147049D01*
X99648851Y-92904117D01*
X99578271Y-92874270D01*
X99087872Y-92621728D01*
X98651469Y-92308799D01*
X98274233Y-91940375D01*
X97961336Y-91521350D01*
X97762295Y-91156161D01*
X97655957Y-90904750D01*
X97582072Y-90667336D01*
X97535818Y-90418865D01*
X97512371Y-90134287D01*
X97506780Y-89828861D01*
X97518123Y-89423382D01*
X97555307Y-89078243D01*
X97624840Y-88771356D01*
X97733226Y-88480632D01*
X97886973Y-88183981D01*
X98082455Y-87874351D01*
X98329133Y-87536425D01*
X98589833Y-87231698D01*
X98849887Y-86976067D01*
X99075933Y-86797924D01*
X99191501Y-86726645D01*
X99366742Y-86627686D01*
X99585006Y-86510014D01*
X99829644Y-86382598D01*
X100084004Y-86254407D01*
X100096414Y-86248268D01*
X100457765Y-86074677D01*
X100766700Y-85940236D01*
X101043118Y-85840057D01*
X101306916Y-85769254D01*
X101577992Y-85722940D01*
X101876245Y-85696229D01*
X102221572Y-85684233D01*
X102400833Y-85682316D01*
X103083454Y-85678505D01*
X103607333Y-85940818D01*
G37*
X123187248Y-56865346D02*
X123569443Y-56914652D01*
X123940954Y-56983108D01*
X124308453Y-57073954D01*
X124678610Y-57190428D01*
X125058095Y-57335769D01*
X125453579Y-57513215D01*
X125871734Y-57726006D01*
X126319229Y-57977380D01*
X126802736Y-58270576D01*
X127328925Y-58608834D01*
X127904467Y-58995391D01*
X128536033Y-59433486D01*
X128667901Y-59526336D01*
X129122206Y-59830270D01*
X129543434Y-60075897D01*
X129948924Y-60272929D01*
X130145045Y-60353869D01*
X130377420Y-60424678D01*
X130670194Y-60484056D01*
X130999566Y-60529462D01*
X131341737Y-60558353D01*
X131672907Y-60568188D01*
X131969274Y-60556425D01*
X132007712Y-60552800D01*
X132602057Y-60483466D01*
X133132164Y-60402094D01*
X133618163Y-60303753D01*
X134080182Y-60183510D01*
X134538351Y-60036432D01*
X135012801Y-59857588D01*
X135258992Y-59756160D01*
X135768921Y-59545044D01*
X136216236Y-59369781D01*
X136613415Y-59227105D01*
X136972930Y-59113747D01*
X137307257Y-59026443D01*
X137628872Y-58961925D01*
X137950248Y-58916926D01*
X138283860Y-58888180D01*
X138632879Y-58872681D01*
X138937353Y-58865840D01*
X139180131Y-58865538D01*
X139384012Y-58872944D01*
X139571794Y-58889231D01*
X139766278Y-58915569D01*
X139902879Y-58937914D01*
X140616799Y-59101475D01*
X141294656Y-59341103D01*
X141933877Y-59655103D01*
X142531888Y-60041780D01*
X143086117Y-60499440D01*
X143593989Y-61026387D01*
X144052931Y-61620927D01*
X144114732Y-61711852D01*
X144245489Y-61919416D01*
X144390827Y-62169715D01*
X144537971Y-62438871D01*
X144674148Y-62703008D01*
X144786583Y-62938247D01*
X144848325Y-63083088D01*
X144903052Y-63190900D01*
X144959917Y-63255139D01*
X144981254Y-63263005D01*
X145047643Y-63257150D01*
X145176883Y-63241359D01*
X145348101Y-63218287D01*
X145479014Y-63199628D01*
X145863706Y-63148472D01*
X146313995Y-63096706D01*
X146810836Y-63045921D01*
X147335189Y-62997707D01*
X147868010Y-62953654D01*
X148390257Y-62915354D01*
X148882888Y-62884396D01*
X149326861Y-62862371D01*
X149639545Y-62852130D01*
X150746672Y-62850122D01*
X151835103Y-62893422D01*
X152898331Y-62980734D01*
X153929848Y-63110763D01*
X154923148Y-63282212D01*
X155871722Y-63493787D01*
X156769064Y-63744192D01*
X157608665Y-64032132D01*
X158384019Y-64356311D01*
X159088617Y-64715433D01*
X159136700Y-64742751D01*
X159826451Y-65185221D01*
X160459511Y-65690060D01*
X161035021Y-66255986D01*
X161552123Y-66881717D01*
X162009957Y-67565974D01*
X162407663Y-68307473D01*
X162744382Y-69104933D01*
X163019256Y-69957074D01*
X163227809Y-70844026D01*
X163367403Y-71711101D01*
X163444741Y-72572247D01*
X163459086Y-73435765D01*
X163409702Y-74309959D01*
X163295853Y-75203130D01*
X163116802Y-76123580D01*
X162871814Y-77079613D01*
X162595497Y-77973838D01*
X162286786Y-78825738D01*
X161914835Y-79716554D01*
X161485450Y-80636201D01*
X161004436Y-81574592D01*
X160477598Y-82521643D01*
X159910741Y-83467268D01*
X159309672Y-84401381D01*
X158680194Y-85313896D01*
X158028115Y-86194727D01*
X157429631Y-86948505D01*
X156575709Y-87947482D01*
X155686047Y-88911849D01*
X154770952Y-89831587D01*
X153840732Y-90696675D01*
X152905694Y-91497095D01*
X152094879Y-92134137D01*
X151353169Y-92673980D01*
X150599985Y-93185257D01*
X149823664Y-93674742D01*
X149012544Y-94149211D01*
X148154965Y-94615439D01*
X147239263Y-95080199D01*
X146253776Y-95550267D01*
X146062379Y-95638583D01*
X145815921Y-95750649D01*
X145540813Y-95873884D01*
X145249044Y-96003099D01*
X144952606Y-96133106D01*
X144663490Y-96258717D01*
X144393687Y-96374742D01*
X144155189Y-96475993D01*
X143959986Y-96557283D01*
X143820069Y-96613421D01*
X143754439Y-96637222D01*
X143700428Y-96680852D01*
X143632562Y-96786592D01*
X143546936Y-96961337D01*
X143469476Y-97139994D01*
X143126999Y-97849823D01*
X142703298Y-98537305D01*
X142198139Y-99202779D01*
X141611286Y-99846586D01*
X141576052Y-99881955D01*
X141290282Y-100158802D01*
X141007057Y-100413550D01*
X140711057Y-100658316D01*
X140386960Y-100905219D01*
X140019444Y-101166374D01*
X139593187Y-101453901D01*
X139564212Y-101473045D01*
X139228762Y-101705551D01*
X138916255Y-101943551D01*
X138637389Y-102177652D01*
X138402867Y-102398462D01*
X138223389Y-102596586D01*
X138123536Y-102737677D01*
X138072717Y-102840974D01*
X138003590Y-103004081D01*
X137924431Y-103206419D01*
X137843516Y-103427414D01*
X137825670Y-103478308D01*
X137740129Y-103717270D01*
X137649526Y-103958431D01*
X137564094Y-104175235D01*
X137494068Y-104341127D01*
X137487869Y-104354855D01*
X137241537Y-104818189D01*
X136937671Y-105263178D01*
X136592517Y-105668891D01*
X136222323Y-106014399D01*
X136162737Y-106062005D01*
X136029288Y-106172698D01*
X135926135Y-106270703D01*
X135868877Y-106340638D01*
X135862247Y-106358338D01*
X135867477Y-106414438D01*
X135883310Y-106543856D01*
X135908345Y-106736098D01*
X135941181Y-106980670D01*
X135980415Y-107267079D01*
X136024647Y-107584831D01*
X136051636Y-107776505D01*
X136139574Y-108425568D01*
X136208893Y-109003605D01*
X136259848Y-109522125D01*
X136292694Y-109992636D01*
X136307688Y-110426649D01*
X136305084Y-110835672D01*
X136285139Y-111231215D01*
X136248107Y-111624788D01*
X136194245Y-112027899D01*
X136151890Y-112291326D01*
X136080626Y-112684454D01*
X136006875Y-113025698D01*
X135923943Y-113334060D01*
X135825132Y-113628545D01*
X135703749Y-113928157D01*
X135553097Y-114251898D01*
X135366483Y-114618773D01*
X135263110Y-114814010D01*
X135062901Y-115187805D01*
X134896185Y-115496551D01*
X134757183Y-115750210D01*
X134640120Y-115958742D01*
X134539220Y-116132110D01*
X134448706Y-116280273D01*
X134362803Y-116413195D01*
X134275734Y-116540835D01*
X134198997Y-116649131D01*
X134087024Y-116811150D01*
X133957696Y-117007719D01*
X133820758Y-117222944D01*
X133685954Y-117440931D01*
X133563031Y-117645784D01*
X133461732Y-117821609D01*
X133391803Y-117952512D01*
X133368853Y-118003149D01*
X133333078Y-118067189D01*
X133255210Y-118188659D01*
X133142980Y-118356539D01*
X133004122Y-118559808D01*
X132846369Y-118787443D01*
X132677453Y-119028425D01*
X132505108Y-119271732D01*
X132337066Y-119506341D01*
X132181060Y-119721233D01*
X132044824Y-119905386D01*
X131936089Y-120047778D01*
X131919732Y-120068502D01*
X131812713Y-120210012D01*
X131723875Y-120339933D01*
X131669683Y-120433918D01*
X131664602Y-120445858D01*
X131626994Y-120529366D01*
X131554967Y-120675621D01*
X131454653Y-120873046D01*
X131332183Y-121110064D01*
X131193688Y-121375098D01*
X131045301Y-121656571D01*
X130893153Y-121942905D01*
X130743375Y-122222525D01*
X130602099Y-122483851D01*
X130475457Y-122715309D01*
X130369580Y-122905319D01*
X130290599Y-123042307D01*
X130280682Y-123058838D01*
X129970446Y-123550196D01*
X129617549Y-124072146D01*
X129241280Y-124597574D01*
X128860933Y-125099364D01*
X128578996Y-125450672D01*
X128109774Y-126022599D01*
X127655920Y-126583570D01*
X127221509Y-127128221D01*
X126810613Y-127651190D01*
X126427305Y-128147115D01*
X126075660Y-128610634D01*
X125759750Y-129036384D01*
X125483648Y-129419004D01*
X125251428Y-129753131D01*
X125067164Y-130033402D01*
X124949113Y-130229116D01*
X124839371Y-130427232D01*
X124708272Y-130670534D01*
X124572150Y-130928388D01*
X124447333Y-131170162D01*
X124445559Y-131173648D01*
X124327983Y-131395952D01*
X124203855Y-131615681D01*
X124086907Y-131809395D01*
X123990876Y-131953654D01*
X123979418Y-131969188D01*
X123642332Y-132354989D01*
X123245685Y-132702195D01*
X122808241Y-132996971D01*
X122348764Y-133225479D01*
X122197200Y-133283386D01*
X122044522Y-133339741D01*
X121938721Y-133391487D01*
X121856475Y-133457366D01*
X121774462Y-133556122D01*
X121669358Y-133706499D01*
X121667718Y-133708903D01*
X121393832Y-134089927D01*
X121075626Y-134497383D01*
X120722521Y-134921480D01*
X120343935Y-135352427D01*
X119949290Y-135780433D01*
X119548004Y-136195707D01*
X119149498Y-136588458D01*
X118763191Y-136948895D01*
X118398503Y-137267228D01*
X118064854Y-137533664D01*
X117822674Y-137705466D01*
X117674379Y-137797729D01*
X117474337Y-137914634D01*
X117246357Y-138042620D01*
X117014251Y-138168127D01*
X116961807Y-138195729D01*
X116394743Y-138492435D01*
X116022812Y-138988303D01*
X115725350Y-139380047D01*
X115414463Y-139780696D01*
X115102607Y-140174670D01*
X114802241Y-140546391D01*
X114525822Y-140880279D01*
X114285805Y-141160756D01*
X114284421Y-141162337D01*
X113889819Y-141612835D01*
X113557139Y-142474670D01*
X113453261Y-142741080D01*
X113353325Y-142992440D01*
X113263425Y-143213800D01*
X113189654Y-143390209D01*
X113138104Y-143506716D01*
X113128262Y-143527005D01*
X112913369Y-143882727D01*
X112631974Y-144237908D01*
X112334414Y-144540880D01*
X112005212Y-144844220D01*
X112000984Y-145635529D01*
X111980087Y-146267437D01*
X111922110Y-146838336D01*
X111823412Y-147365001D01*
X111680355Y-147864205D01*
X111489300Y-148352723D01*
X111345524Y-148656841D01*
X111047255Y-149177304D01*
X110702072Y-149649269D01*
X110317081Y-150066490D01*
X109899387Y-150422720D01*
X109456096Y-150711711D01*
X108994317Y-150927217D01*
X108637550Y-151037484D01*
X108373492Y-151085524D01*
X108070004Y-151116046D01*
X107761010Y-151127338D01*
X107480431Y-151117690D01*
X107348545Y-151102530D01*
X106856976Y-150985216D01*
X106385266Y-150794377D01*
X105943859Y-150537908D01*
X105543198Y-150223702D01*
X105193726Y-149859651D01*
X104905886Y-149453649D01*
X104738114Y-149129502D01*
X104652772Y-148970992D01*
X104541770Y-148808010D01*
X104492848Y-148747813D01*
X104421316Y-148658717D01*
X104312271Y-148513371D01*
X104175738Y-148325588D01*
X104021737Y-148109180D01*
X103860292Y-147877963D01*
X103832462Y-147837647D01*
X103644856Y-147572902D01*
X103436543Y-147291439D01*
X103224886Y-147015918D01*
X103027248Y-146768999D01*
X102881178Y-146596172D01*
X102626902Y-146305227D01*
X102364512Y-146002766D01*
X102102002Y-145698184D01*
X101847368Y-145400879D01*
X101608605Y-145120247D01*
X101393707Y-144865686D01*
X101210669Y-144646591D01*
X101067487Y-144472361D01*
X100972241Y-144352505D01*
X100484264Y-143649802D01*
X100062246Y-142900478D01*
X99705391Y-142102410D01*
X99412902Y-141253480D01*
X99183982Y-140351568D01*
X99017835Y-139394553D01*
X98972812Y-139032351D01*
X98947165Y-138816678D01*
X98923485Y-138666212D01*
X98896221Y-138561831D01*
X98859821Y-138484410D01*
X98808735Y-138414826D01*
X98785843Y-138388196D01*
X98588851Y-138136481D01*
X98381004Y-137822423D01*
X98173182Y-137465506D01*
X97976267Y-137085215D01*
X97801139Y-136701036D01*
X97695954Y-136436495D01*
X97568298Y-136051939D01*
X97458171Y-135642565D01*
X97372662Y-135238777D01*
X97318859Y-134870977D01*
X97310952Y-134785172D01*
X97289882Y-134594437D01*
X97254970Y-134357959D01*
X97211930Y-134112368D01*
X97185034Y-133978012D01*
X97079242Y-133378356D01*
X97026445Y-132815726D01*
X97024714Y-132262719D01*
X97043533Y-131967774D01*
X97062594Y-131735256D01*
X97072840Y-131569593D01*
X97073366Y-131453345D01*
X97063266Y-131369071D01*
X97041635Y-131299331D01*
X97007569Y-131226684D01*
X97004782Y-131221210D01*
X96826513Y-130819202D01*
X96678096Y-130367909D01*
X96558192Y-129860725D01*
X96465460Y-129291042D01*
X96398563Y-128652251D01*
X96360735Y-128043960D01*
X96317592Y-127098438D01*
X96162650Y-126856638D01*
X95970298Y-126508310D01*
X95810132Y-126124126D01*
X95708782Y-125782995D01*
X95687284Y-125664573D01*
X95660171Y-125475405D01*
X95628896Y-125229116D01*
X95594909Y-124939331D01*
X95559664Y-124619676D01*
X95524610Y-124283775D01*
X95491202Y-123945255D01*
X95460889Y-123617740D01*
X95435124Y-123314854D01*
X95415358Y-123050225D01*
X95411758Y-122995338D01*
X95396019Y-122731845D01*
X95381578Y-122537028D01*
X95359909Y-122395467D01*
X95322488Y-122291745D01*
X95260791Y-122210440D01*
X95166292Y-122136135D01*
X95030468Y-122053410D01*
X94844792Y-121946846D01*
X94826080Y-121935986D01*
X94477592Y-121738348D01*
X94113739Y-121542407D01*
X93727786Y-121345141D01*
X93312996Y-121143528D01*
X92862632Y-120934545D01*
X92369958Y-120715171D01*
X91828238Y-120482383D01*
X91230735Y-120233158D01*
X90570712Y-119964474D01*
X89841432Y-119673310D01*
X89356879Y-119482267D01*
X88788479Y-119257931D01*
X88241441Y-119039769D01*
X87722640Y-118830628D01*
X87238950Y-118633359D01*
X86797248Y-118450813D01*
X86404408Y-118285837D01*
X86067305Y-118141283D01*
X85792814Y-118020001D01*
X85587812Y-117924839D01*
X85526492Y-117894567D01*
X85387977Y-117834197D01*
X85262435Y-117795712D01*
X85208212Y-117788338D01*
X85066006Y-117758598D01*
X84879668Y-117675167D01*
X84662318Y-117546728D01*
X84427076Y-117381967D01*
X84187061Y-117189567D01*
X83955394Y-116978212D01*
X83898074Y-116921153D01*
X83680252Y-116696265D01*
X83513670Y-116512311D01*
X83387244Y-116352917D01*
X83289890Y-116201711D01*
X83210524Y-116042317D01*
X83138062Y-115858363D01*
X83095238Y-115735172D01*
X83003062Y-115453554D01*
X82937724Y-115225126D01*
X82895226Y-115024224D01*
X82871570Y-114825185D01*
X82862760Y-114602348D01*
X82864795Y-114330048D01*
X82866208Y-114264998D01*
X82879879Y-113675532D01*
X82752879Y-113701381D01*
X82107393Y-113805896D01*
X81514572Y-113845718D01*
X80972490Y-113820868D01*
X80479219Y-113731370D01*
X80466879Y-113728141D01*
X79934954Y-113545079D01*
X79440147Y-113289144D01*
X78988385Y-112966177D01*
X78585598Y-112582016D01*
X78237713Y-112142501D01*
X77950658Y-111653472D01*
X77730361Y-111120770D01*
X77689649Y-110992317D01*
X77630701Y-110726872D01*
X77591518Y-110406724D01*
X77573068Y-110059726D01*
X77574042Y-109955945D01*
X80848966Y-109955945D01*
X80885083Y-110160787D01*
X80963223Y-110306560D01*
X81043904Y-110404028D01*
X81137641Y-110475004D01*
X81254635Y-110520162D01*
X81405091Y-110540179D01*
X81599212Y-110535731D01*
X81847202Y-110507492D01*
X82159263Y-110456140D01*
X82435379Y-110404057D01*
X82956098Y-110307268D01*
X83508078Y-110213434D01*
X84079316Y-110124039D01*
X84657806Y-110040566D01*
X85231544Y-109964498D01*
X85788527Y-109897321D01*
X86316750Y-109840516D01*
X86804208Y-109795568D01*
X87238898Y-109763961D01*
X87608815Y-109747178D01*
X87769379Y-109744804D01*
X88389225Y-109718813D01*
X88970885Y-109643766D01*
X89319612Y-109569587D01*
X89540770Y-109520812D01*
X89688098Y-109504911D01*
X89765943Y-109522246D01*
X89778649Y-109573181D01*
X89764474Y-109606793D01*
X89723989Y-109659260D01*
X89634453Y-109762478D01*
X89505308Y-109905986D01*
X89345996Y-110079320D01*
X89165958Y-110272018D01*
X89124002Y-110316505D01*
X88270797Y-111256194D01*
X87461550Y-112220756D01*
X86901635Y-112938337D01*
X86645457Y-113286031D01*
X86444369Y-113579283D01*
X86295291Y-113825172D01*
X86195141Y-114030772D01*
X86140837Y-114203163D01*
X86129299Y-114349420D01*
X86157444Y-114476621D01*
X86197498Y-114555556D01*
X86289206Y-114655440D01*
X86426057Y-114753047D01*
X86581759Y-114834735D01*
X86730022Y-114886863D01*
X86844551Y-114895788D01*
X86850632Y-114894441D01*
X87049448Y-114803635D01*
X87214389Y-114638252D01*
X87345499Y-114401672D01*
X87431727Y-114217283D01*
X87539711Y-114010670D01*
X87633638Y-113847442D01*
X87710988Y-113713912D01*
X87815014Y-113524103D01*
X87935170Y-113297782D01*
X88060913Y-113054716D01*
X88141895Y-112894614D01*
X88387058Y-112433551D01*
X88633043Y-112033190D01*
X88895177Y-111670822D01*
X89188786Y-111323734D01*
X89238872Y-111269005D01*
X89376849Y-111105462D01*
X89508865Y-110924989D01*
X89609601Y-110762601D01*
X89621528Y-110739838D01*
X89865708Y-110331471D01*
X90166113Y-109951603D01*
X90505508Y-109619739D01*
X90817379Y-109386347D01*
X90999170Y-109279075D01*
X91237839Y-109152408D01*
X91511063Y-109016877D01*
X91796518Y-108883013D01*
X92071880Y-108761346D01*
X92314826Y-108662408D01*
X92468379Y-108607493D01*
X92639645Y-108557563D01*
X92855792Y-108502055D01*
X93078418Y-108450660D01*
X93148314Y-108435935D01*
X93274691Y-108407119D01*
X93471970Y-108358257D01*
X93729528Y-108292150D01*
X94036742Y-108211598D01*
X94382988Y-108119402D01*
X94757642Y-108018363D01*
X95150083Y-107911281D01*
X95406844Y-107840546D01*
X96142187Y-107638113D01*
X96819773Y-107453472D01*
X97437246Y-107287222D01*
X97992249Y-107139963D01*
X98482425Y-107012293D01*
X98905418Y-106904811D01*
X99258870Y-106818117D01*
X99540425Y-106752810D01*
X99747725Y-106709488D01*
X99878414Y-106688752D01*
X99929803Y-106690830D01*
X99941055Y-106752785D01*
X99932177Y-106896203D01*
X99903141Y-107121337D01*
X99854643Y-107424206D01*
X99820723Y-107630900D01*
X99793279Y-107819578D01*
X99771290Y-108004290D01*
X99753731Y-108199090D01*
X99739579Y-108418029D01*
X99727812Y-108675158D01*
X99717406Y-108984530D01*
X99707338Y-109360197D01*
X99704156Y-109491005D01*
X99694778Y-109862686D01*
X99684348Y-110241200D01*
X99673408Y-110609164D01*
X99662500Y-110949198D01*
X99652165Y-111243919D01*
X99642946Y-111475944D01*
X99640775Y-111524363D01*
X99629877Y-111775842D01*
X99624785Y-111956692D01*
X99626396Y-112080810D01*
X99635605Y-112162090D01*
X99653307Y-112214428D01*
X99680397Y-112251719D01*
X99688174Y-112259753D01*
X99794643Y-112311332D01*
X99957177Y-112321660D01*
X100159014Y-112292663D01*
X100383391Y-112226271D01*
X100537567Y-112162025D01*
X100675750Y-112098336D01*
X100780816Y-112051742D01*
X100832327Y-112031276D01*
X100833965Y-112031005D01*
X100856491Y-112064562D01*
X100842439Y-112154078D01*
X100798635Y-112282814D01*
X100731906Y-112434035D01*
X100649078Y-112591003D01*
X100556979Y-112736983D01*
X100531786Y-112771838D01*
X100458057Y-112887721D01*
X100407147Y-112997718D01*
X100404936Y-113004672D01*
X100377476Y-113078980D01*
X100322609Y-113214751D01*
X100246995Y-113395938D01*
X100157294Y-113606493D01*
X100102611Y-113733050D01*
X99969760Y-114056595D01*
X99847604Y-114394204D01*
X99728790Y-114767815D01*
X99605972Y-115199365D01*
X99583507Y-115282524D01*
X99463321Y-115738369D01*
X99349276Y-116186201D01*
X99243739Y-116615731D01*
X99149076Y-117016670D01*
X99067655Y-117378727D01*
X99001840Y-117691613D01*
X98954000Y-117945038D01*
X98926500Y-118128713D01*
X98924419Y-118148172D01*
X98900994Y-118334582D01*
X98865614Y-118560561D01*
X98825121Y-118783126D01*
X98816589Y-118825505D01*
X98700252Y-119530654D01*
X98631820Y-120284612D01*
X98610956Y-121094120D01*
X98637324Y-121965923D01*
X98649632Y-122169838D01*
X98675201Y-122532947D01*
X98706321Y-122931574D01*
X98741143Y-123345048D01*
X98777820Y-123752696D01*
X98814501Y-124133846D01*
X98849341Y-124467827D01*
X98874830Y-124688672D01*
X98899424Y-124875971D01*
X98921300Y-124995158D01*
X98946118Y-125062367D01*
X98979541Y-125093736D01*
X99020737Y-125104533D01*
X99122217Y-125080650D01*
X99229634Y-124996789D01*
X99323877Y-124873845D01*
X99385833Y-124732716D01*
X99394187Y-124696222D01*
X99441056Y-124525235D01*
X99508241Y-124388816D01*
X99585470Y-124299871D01*
X99662467Y-124271302D01*
X99712750Y-124296110D01*
X99720713Y-124348544D01*
X99718656Y-124468126D01*
X99707420Y-124638038D01*
X99687844Y-124841460D01*
X99683586Y-124879581D01*
X99662652Y-125120833D01*
X99645911Y-125430374D01*
X99633465Y-125791926D01*
X99625413Y-126189208D01*
X99621854Y-126605944D01*
X99622889Y-127025853D01*
X99628618Y-127432658D01*
X99639139Y-127810080D01*
X99654552Y-128141839D01*
X99662829Y-128268040D01*
X99697932Y-128660153D01*
X99743891Y-128990426D01*
X99806014Y-129281503D01*
X99889605Y-129556031D01*
X99999973Y-129836652D01*
X100064099Y-129980338D01*
X100180419Y-130234476D01*
X100265855Y-130432153D01*
X100324417Y-130594054D01*
X100360113Y-130740860D01*
X100376953Y-130893254D01*
X100378945Y-131071919D01*
X100370098Y-131297537D01*
X100359164Y-131502599D01*
X100338660Y-131935470D01*
X100328682Y-132297252D01*
X100329665Y-132600918D01*
X100342043Y-132859443D01*
X100366253Y-133085800D01*
X100402729Y-133292964D01*
X100422062Y-133378416D01*
X100463248Y-133574724D01*
X100506241Y-133821342D01*
X100545476Y-134084238D01*
X100571280Y-134291135D01*
X100641543Y-134756044D01*
X100747352Y-135169716D01*
X100897374Y-135561199D01*
X101031692Y-135834501D01*
X101138855Y-136029878D01*
X101229269Y-136172556D01*
X101308380Y-136259262D01*
X101381639Y-136286724D01*
X101454491Y-136251671D01*
X101532385Y-136150830D01*
X101620770Y-135980931D01*
X101725093Y-135738701D01*
X101850801Y-135420868D01*
X101890167Y-135318937D01*
X101974220Y-135102207D01*
X102034211Y-134953694D01*
X102075962Y-134862397D01*
X102105293Y-134817316D01*
X102128026Y-134807449D01*
X102149983Y-134821797D01*
X102152129Y-134823909D01*
X102159067Y-134871426D01*
X102166502Y-134995132D01*
X102174199Y-135186553D01*
X102181920Y-135437215D01*
X102189431Y-135738644D01*
X102196496Y-136082365D01*
X102202879Y-136459904D01*
X102207963Y-136831214D01*
X102213726Y-137293502D01*
X102219089Y-137680513D01*
X102224562Y-138001634D01*
X102230651Y-138266250D01*
X102237867Y-138483749D01*
X102246717Y-138663514D01*
X102257710Y-138814933D01*
X102271355Y-138947391D01*
X102288160Y-139070273D01*
X102308634Y-139192967D01*
X102333286Y-139324856D01*
X102346870Y-139394794D01*
X102517526Y-140123943D01*
X102732027Y-140790789D01*
X102988871Y-141391517D01*
X103286558Y-141922310D01*
X103417517Y-142115285D01*
X103557654Y-142301462D01*
X103752455Y-142545955D01*
X103998871Y-142845132D01*
X104293852Y-143195363D01*
X104634348Y-143593015D01*
X105017309Y-144034458D01*
X105312057Y-144371040D01*
X105539338Y-144638932D01*
X105789608Y-144949367D01*
X106040355Y-145273489D01*
X106269068Y-145582443D01*
X106383583Y-145744516D01*
X106550181Y-145982210D01*
X106717196Y-146214185D01*
X106872839Y-146424518D01*
X107005317Y-146597288D01*
X107102838Y-146716570D01*
X107106559Y-146720814D01*
X107312900Y-146979719D01*
X107494650Y-147254702D01*
X107633201Y-147516743D01*
X107664546Y-147591005D01*
X107740003Y-147753761D01*
X107807261Y-147834605D01*
X107839087Y-147845005D01*
X107884607Y-147816575D01*
X107968670Y-147742274D01*
X108066365Y-147645049D01*
X108184785Y-147500704D01*
X108307327Y-147318536D01*
X108402451Y-147147633D01*
X108487687Y-146959307D01*
X108557116Y-146772501D01*
X108611546Y-146577545D01*
X108651783Y-146364769D01*
X108678636Y-146124503D01*
X108692910Y-145847076D01*
X108695413Y-145522819D01*
X108686953Y-145142061D01*
X108668337Y-144695133D01*
X108644604Y-144246672D01*
X108631286Y-143952817D01*
X108621197Y-143609375D01*
X108614259Y-143229342D01*
X108610391Y-142825720D01*
X108609515Y-142411505D01*
X108611551Y-141999697D01*
X108616419Y-141603295D01*
X108624042Y-141235297D01*
X108634338Y-140908702D01*
X108647229Y-140636509D01*
X108662637Y-140431716D01*
X108668184Y-140381749D01*
X108693485Y-140178660D01*
X108794518Y-140273575D01*
X108871079Y-140367186D01*
X108954913Y-140501300D01*
X108996983Y-140582498D01*
X109179041Y-140966369D01*
X109328744Y-141280802D01*
X109449940Y-141532895D01*
X109546476Y-141729745D01*
X109622200Y-141878452D01*
X109680961Y-141986113D01*
X109726607Y-142059825D01*
X109762985Y-142106687D01*
X109793943Y-142133797D01*
X109823330Y-142148252D01*
X109849967Y-142155897D01*
X109927246Y-142170733D01*
X109993983Y-142167798D01*
X110055093Y-142139314D01*
X110115486Y-142077503D01*
X110180077Y-141974587D01*
X110253776Y-141822788D01*
X110341498Y-141614328D01*
X110448154Y-141341430D01*
X110573220Y-141010798D01*
X110697865Y-140679912D01*
X110800647Y-140414431D01*
X110889583Y-140200543D01*
X110972690Y-140024432D01*
X111057984Y-139872287D01*
X111153483Y-139730292D01*
X111267202Y-139584635D01*
X111407160Y-139421502D01*
X111581372Y-139227079D01*
X111656794Y-139143699D01*
X111944937Y-138814256D01*
X112276746Y-138414716D01*
X112650931Y-137946730D01*
X113066204Y-137411947D01*
X113521278Y-136812018D01*
X114014863Y-136148594D01*
X114335230Y-135712174D01*
X114457202Y-135555351D01*
X114547435Y-135464653D01*
X114614656Y-135431833D01*
X114631563Y-135432029D01*
X114730492Y-135446961D01*
X114857035Y-135466973D01*
X114864235Y-135468138D01*
X114992703Y-135457486D01*
X115172718Y-135398204D01*
X115391932Y-135297214D01*
X115637997Y-135161438D01*
X115898567Y-134997798D01*
X116161294Y-134813217D01*
X116413832Y-134614617D01*
X116466958Y-134569593D01*
X116882681Y-134192900D01*
X117319727Y-133762119D01*
X117759090Y-133297605D01*
X118181765Y-132819715D01*
X118568748Y-132348806D01*
X118705953Y-132171360D01*
X118835915Y-131988017D01*
X118994361Y-131745579D01*
X119171514Y-131460480D01*
X119357600Y-131149155D01*
X119542843Y-130828038D01*
X119717467Y-130513563D01*
X119871696Y-130222164D01*
X119908524Y-130149672D01*
X120004375Y-129961586D01*
X120089748Y-129798807D01*
X120155948Y-129677585D01*
X120194284Y-129614173D01*
X120196471Y-129611371D01*
X120260753Y-129575408D01*
X120331300Y-129616880D01*
X120410746Y-129738159D01*
X120465180Y-129853441D01*
X120552373Y-130025438D01*
X120643758Y-130129154D01*
X120758750Y-130179595D01*
X120903012Y-130191847D01*
X121017653Y-130184773D01*
X121115898Y-130157757D01*
X121205903Y-130101738D01*
X121295824Y-130007653D01*
X121393816Y-129866440D01*
X121508035Y-129669039D01*
X121646636Y-129406386D01*
X121695085Y-129311756D01*
X121843721Y-129023429D01*
X121979239Y-128769532D01*
X122109802Y-128537234D01*
X122243574Y-128313701D01*
X122388718Y-128086100D01*
X122553399Y-127841596D01*
X122745779Y-127567358D01*
X122974022Y-127250552D01*
X123222178Y-126911172D01*
X123459519Y-126590032D01*
X123692442Y-126279445D01*
X123928381Y-125969966D01*
X124174770Y-125652152D01*
X124439045Y-125316559D01*
X124728639Y-124953744D01*
X125050987Y-124554261D01*
X125413524Y-124108667D01*
X125804968Y-123630338D01*
X126152840Y-123194272D01*
X126499371Y-122737553D01*
X126832544Y-122277116D01*
X127140340Y-121829897D01*
X127410741Y-121412829D01*
X127592501Y-121111505D01*
X127839564Y-120670097D01*
X128086099Y-120203273D01*
X128323937Y-119728101D01*
X128544905Y-119261649D01*
X128740832Y-118820986D01*
X128903548Y-118423180D01*
X128985612Y-118201443D01*
X129073401Y-117955751D01*
X129156277Y-117732050D01*
X129228613Y-117544899D01*
X129284783Y-117408857D01*
X129318996Y-117338735D01*
X129414141Y-117254846D01*
X129537708Y-117250476D01*
X129689938Y-117325639D01*
X129742879Y-117365005D01*
X129842222Y-117439410D01*
X129914265Y-117485118D01*
X129932638Y-117492005D01*
X129994050Y-117456835D01*
X130067655Y-117349026D01*
X130155381Y-117165133D01*
X130252186Y-116920505D01*
X130560886Y-116197221D01*
X130926927Y-115530921D01*
X131347658Y-114926377D01*
X131390724Y-114871895D01*
X131526219Y-114690821D01*
X131667052Y-114484313D01*
X131782871Y-114296888D01*
X131783471Y-114295838D01*
X131865910Y-114151789D01*
X131978104Y-113956259D01*
X132107498Y-113731105D01*
X132241538Y-113498182D01*
X132294157Y-113406838D01*
X132448291Y-113131394D01*
X132563662Y-112904248D01*
X132649866Y-112704203D01*
X132716500Y-112510062D01*
X132744580Y-112411903D01*
X132855482Y-111947470D01*
X132931254Y-111492878D01*
X132975422Y-111019433D01*
X132991513Y-110498443D01*
X132991707Y-110401172D01*
X132990148Y-110195217D01*
X132985386Y-110005395D01*
X132976169Y-109818749D01*
X132961245Y-109622322D01*
X132939362Y-109403157D01*
X132909268Y-109148298D01*
X132869711Y-108844788D01*
X132819439Y-108479671D01*
X132776944Y-108178672D01*
X132725755Y-107821879D01*
X132676247Y-107483349D01*
X132630133Y-107174303D01*
X132589122Y-106905959D01*
X132554927Y-106689537D01*
X132529258Y-106536255D01*
X132515462Y-106464172D01*
X132460050Y-106166503D01*
X132413097Y-105810011D01*
X132377005Y-105420322D01*
X132354176Y-105023060D01*
X132346957Y-104666614D01*
X132346911Y-104387705D01*
X132349913Y-104182560D01*
X132361566Y-104040314D01*
X132387476Y-103950102D01*
X132433249Y-103901062D01*
X132504490Y-103882327D01*
X132606805Y-103883034D01*
X132745798Y-103892319D01*
X132746426Y-103892358D01*
X133159602Y-103882962D01*
X133532710Y-103799804D01*
X133869237Y-103641729D01*
X134153153Y-103425806D01*
X134264953Y-103311569D01*
X134361751Y-103183749D01*
X134451346Y-103027593D01*
X134541538Y-102828343D01*
X134640129Y-102571243D01*
X134710701Y-102371077D01*
X134842025Y-102002604D01*
X134961479Y-101697637D01*
X135077723Y-101437541D01*
X135199418Y-101203683D01*
X135335224Y-100977427D01*
X135415185Y-100855265D01*
X135643893Y-100534025D01*
X135885951Y-100236644D01*
X136151781Y-99953527D01*
X136451806Y-99675077D01*
X136796446Y-99391697D01*
X137196124Y-99093793D01*
X137661261Y-98771767D01*
X137722712Y-98730552D01*
X138177212Y-98419319D01*
X138566091Y-98135586D01*
X138899822Y-97869734D01*
X139188880Y-97612145D01*
X139443738Y-97353198D01*
X139674872Y-97083274D01*
X139892754Y-96792754D01*
X139995925Y-96642838D01*
X140279320Y-96156160D01*
X140513093Y-95621559D01*
X140686189Y-95066485D01*
X140750043Y-94770642D01*
X140794957Y-94535923D01*
X140835565Y-94370264D01*
X140879295Y-94258872D01*
X140933577Y-94186956D01*
X141005837Y-94139727D01*
X141082007Y-94109631D01*
X141607288Y-93921005D01*
X142187955Y-93698346D01*
X142808557Y-93448452D01*
X143453647Y-93178122D01*
X144107774Y-92894155D01*
X144755491Y-92603348D01*
X145381348Y-92312500D01*
X145969896Y-92028410D01*
X146505686Y-91757876D01*
X146887879Y-91554724D01*
X148076393Y-90869247D01*
X149188098Y-90154230D01*
X150221809Y-89410471D01*
X151007721Y-88781969D01*
X152038991Y-87869825D01*
X153044782Y-86889253D01*
X154014132Y-85852746D01*
X154936078Y-84772798D01*
X155799657Y-83661901D01*
X156593907Y-82532548D01*
X156888635Y-82080172D01*
X157271762Y-81459718D01*
X157647365Y-80815547D01*
X158009154Y-80160131D01*
X158350838Y-79505941D01*
X158666127Y-78865448D01*
X158948731Y-78251126D01*
X159192361Y-77675444D01*
X159390726Y-77150876D01*
X159425315Y-77050529D01*
X159677987Y-76247122D01*
X159874439Y-75493754D01*
X160016925Y-74779235D01*
X160107699Y-74092372D01*
X160147895Y-73461708D01*
X160140048Y-72680398D01*
X160069878Y-71925676D01*
X159939370Y-71203852D01*
X159750510Y-70521238D01*
X159505284Y-69884147D01*
X159205677Y-69298890D01*
X158853674Y-68771778D01*
X158563968Y-68426465D01*
X158193833Y-68080891D01*
X157746162Y-67757980D01*
X157225491Y-67459609D01*
X156636361Y-67187655D01*
X155983308Y-66943993D01*
X155270871Y-66730501D01*
X154503589Y-66549054D01*
X153685999Y-66401529D01*
X153654630Y-66396714D01*
X153238602Y-66335634D01*
X152860078Y-66285999D01*
X152502666Y-66246713D01*
X152149971Y-66216682D01*
X151785602Y-66194811D01*
X151393165Y-66180005D01*
X150956267Y-66171169D01*
X150458515Y-66167209D01*
X150211045Y-66166726D01*
X149791588Y-66166938D01*
X149440403Y-66168579D01*
X149141095Y-66172425D01*
X148877273Y-66179255D01*
X148632543Y-66189845D01*
X148390512Y-66204973D01*
X148134787Y-66225417D01*
X147848976Y-66251953D01*
X147516685Y-66285358D01*
X147353545Y-66302224D01*
X147009001Y-66338949D01*
X146673943Y-66376400D01*
X146362522Y-66412864D01*
X146088888Y-66446632D01*
X145867189Y-66475991D01*
X145711577Y-66499229D01*
X145681379Y-66504479D01*
X145266171Y-66589778D01*
X144796335Y-66702097D01*
X144295046Y-66835061D01*
X143785480Y-66982293D01*
X143290810Y-67137421D01*
X142911802Y-67266312D01*
X142715667Y-67333286D01*
X142583497Y-67371071D01*
X142500902Y-67382548D01*
X142453491Y-67370601D01*
X142441689Y-67360500D01*
X142420086Y-67301140D01*
X142393434Y-67173407D01*
X142364431Y-66993237D01*
X142335775Y-66776568D01*
X142321360Y-66649672D01*
X142225672Y-65937942D01*
X142097820Y-65298703D01*
X141935508Y-64725225D01*
X141736443Y-64210777D01*
X141498331Y-63748628D01*
X141218877Y-63332047D01*
X141168431Y-63266967D01*
X140825820Y-62894280D01*
X140447204Y-62597968D01*
X140031201Y-62377367D01*
X139576427Y-62231815D01*
X139081502Y-62160650D01*
X138844545Y-62152716D01*
X138594317Y-62160446D01*
X138346719Y-62186819D01*
X138089481Y-62235208D01*
X137810329Y-62308982D01*
X137496993Y-62411514D01*
X137137200Y-62546173D01*
X136718678Y-62716330D01*
X136579712Y-62774856D01*
X136208209Y-62930138D01*
X135893772Y-63055948D01*
X135616996Y-63159156D01*
X135358475Y-63246630D01*
X135098806Y-63325241D01*
X134818583Y-63401859D01*
X134780545Y-63411794D01*
X134226662Y-63543319D01*
X133658163Y-63655068D01*
X133090492Y-63745191D01*
X132539089Y-63811835D01*
X132019399Y-63853148D01*
X131546864Y-63867280D01*
X131136926Y-63852378D01*
X131118712Y-63850868D01*
X130647698Y-63806668D01*
X130248301Y-63759694D01*
X129907470Y-63707488D01*
X129612156Y-63647595D01*
X129349308Y-63577555D01*
X129105878Y-63494912D01*
X128993741Y-63450721D01*
X128667696Y-63313429D01*
X128372831Y-63180816D01*
X128096375Y-63045499D01*
X127825560Y-62900095D01*
X127547617Y-62737221D01*
X127249775Y-62549494D01*
X126919267Y-62329530D01*
X126543323Y-62069947D01*
X126257366Y-61868558D01*
X125668514Y-61461401D01*
X125130700Y-61110073D01*
X124645633Y-60815581D01*
X124215022Y-60578926D01*
X123840577Y-60401115D01*
X123600830Y-60308068D01*
X123167410Y-60191465D01*
X122747585Y-60145192D01*
X122336401Y-60170914D01*
X121928901Y-60270297D01*
X121520131Y-60445006D01*
X121105136Y-60696706D01*
X120678959Y-61027063D01*
X120236646Y-61437743D01*
X120235145Y-61439243D01*
X119867630Y-61829542D01*
X119517989Y-62245123D01*
X119204542Y-62662972D01*
X118948070Y-63055946D01*
X118812679Y-63276743D01*
X118707350Y-63431901D01*
X118623717Y-63531222D01*
X118553415Y-63584513D01*
X118488079Y-63601577D01*
X118482464Y-63601671D01*
X118414855Y-63584451D01*
X118283677Y-63536331D01*
X118101895Y-63462620D01*
X117882473Y-63368627D01*
X117638375Y-63259663D01*
X117561206Y-63224358D01*
X116605117Y-62802284D01*
X115627696Y-62404855D01*
X114653795Y-62041602D01*
X113708269Y-61722052D01*
X113359753Y-61613510D01*
X113145905Y-61553520D01*
X112862470Y-61481450D01*
X112523181Y-61400255D01*
X112141772Y-61312885D01*
X111731977Y-61222295D01*
X111307529Y-61131438D01*
X110882164Y-61043265D01*
X110469613Y-60960730D01*
X110083613Y-60886785D01*
X109737895Y-60824384D01*
X109521015Y-60788163D01*
X108951223Y-60707691D01*
X108339985Y-60641918D01*
X107680783Y-60590541D01*
X106967100Y-60553255D01*
X106192419Y-60529758D01*
X105350223Y-60519744D01*
X104433996Y-60522912D01*
X103961879Y-60529090D01*
X102788862Y-60553742D01*
X101691998Y-60589579D01*
X100663409Y-60637431D01*
X99695216Y-60698129D01*
X98779541Y-60772500D01*
X97908507Y-60861377D01*
X97074234Y-60965589D01*
X96268844Y-61085966D01*
X95484460Y-61223337D01*
X94713203Y-61378533D01*
X93947195Y-61552384D01*
X93716718Y-61608429D01*
X92448681Y-61951608D01*
X91249733Y-62338880D01*
X90115370Y-62772477D01*
X89041086Y-63254629D01*
X88022378Y-63787569D01*
X87054739Y-64373528D01*
X86133666Y-65014738D01*
X85254653Y-65713430D01*
X85017712Y-65917688D01*
X84756708Y-66153410D01*
X84471867Y-66422476D01*
X84174821Y-66712913D01*
X83877200Y-67012746D01*
X83590637Y-67310003D01*
X83326762Y-67592709D01*
X83097207Y-67848891D01*
X82913603Y-68066576D01*
X82844394Y-68154953D01*
X82501830Y-68672187D01*
X82219250Y-69233043D01*
X82003887Y-69820113D01*
X81862975Y-70415990D01*
X81838811Y-70574785D01*
X81814031Y-70859387D01*
X81805179Y-71202309D01*
X81811259Y-71578911D01*
X81831271Y-71964557D01*
X81864217Y-72334608D01*
X81909098Y-72664426D01*
X81927646Y-72766838D01*
X82047216Y-73301358D01*
X82205082Y-73888760D01*
X82395130Y-74509841D01*
X82611245Y-75145397D01*
X82847313Y-75776227D01*
X83025481Y-76214994D01*
X83424457Y-77092876D01*
X83892555Y-77998307D01*
X84422849Y-78921613D01*
X85008414Y-79853118D01*
X85642327Y-80783149D01*
X86317664Y-81702031D01*
X87027499Y-82600090D01*
X87764908Y-83467652D01*
X88522967Y-84295041D01*
X89294751Y-85072584D01*
X89516753Y-85284174D01*
X90239528Y-85953679D01*
X90955550Y-86596296D01*
X91656134Y-87204655D01*
X92332595Y-87771387D01*
X92976247Y-88289122D01*
X93578405Y-88750492D01*
X93759545Y-88884025D01*
X94309879Y-89285528D01*
X94336045Y-90043183D01*
X94348698Y-90350186D01*
X94364340Y-90593060D01*
X94385339Y-90792341D01*
X94414061Y-90968563D01*
X94452872Y-91142264D01*
X94470716Y-91211718D01*
X94650654Y-91746104D01*
X94902681Y-92275831D01*
X95217444Y-92790030D01*
X95585592Y-93277834D01*
X95997774Y-93728374D01*
X96444637Y-94130782D01*
X96916832Y-94474190D01*
X97405005Y-94747730D01*
X97580750Y-94826133D01*
X97740136Y-94896387D01*
X97882545Y-94966124D01*
X97976061Y-95019576D01*
X98063971Y-95068552D01*
X98206376Y-95136426D01*
X98378729Y-95211757D01*
X98462071Y-95246072D01*
X98638800Y-95322833D01*
X98795291Y-95400681D01*
X98907559Y-95467272D01*
X98938092Y-95491045D01*
X99071399Y-95659566D01*
X99178847Y-95895197D01*
X99263766Y-96205379D01*
X99269007Y-96230339D01*
X99339084Y-96502553D01*
X99445755Y-96829807D01*
X99581601Y-97194815D01*
X99739203Y-97580291D01*
X99911143Y-97968948D01*
X100090001Y-98343499D01*
X100268359Y-98686657D01*
X100438796Y-98981136D01*
X100472565Y-99034672D01*
X100772162Y-99424765D01*
X101129114Y-99755770D01*
X101535181Y-100022124D01*
X101982119Y-100218267D01*
X102385251Y-100325110D01*
X102533159Y-100355860D01*
X102645627Y-100384036D01*
X102699151Y-100403722D01*
X102699736Y-100404251D01*
X102684385Y-100444816D01*
X102630067Y-100549434D01*
X102541566Y-100709672D01*
X102423667Y-100917097D01*
X102281155Y-101163275D01*
X102118815Y-101439774D01*
X101970654Y-101689249D01*
X101621026Y-102283179D01*
X101317466Y-102817527D01*
X101055919Y-103300949D01*
X100832334Y-103742101D01*
X100642657Y-104149637D01*
X100482834Y-104532216D01*
X100348814Y-104898491D01*
X100236543Y-105257120D01*
X100153074Y-105570987D01*
X100105748Y-105751526D01*
X100060676Y-105902111D01*
X100024087Y-106002975D01*
X100007599Y-106032718D01*
X99956562Y-106051769D01*
X99833300Y-106084643D01*
X99648667Y-106128842D01*
X99413514Y-106181868D01*
X99138698Y-106241222D01*
X98835069Y-106304408D01*
X98767281Y-106318209D01*
X98231517Y-106429159D01*
X97697871Y-106544012D01*
X97177567Y-106660109D01*
X96681827Y-106774793D01*
X96221874Y-106885406D01*
X95808932Y-106989291D01*
X95454225Y-107083790D01*
X95168975Y-107166245D01*
X95114212Y-107183278D01*
X94890979Y-107251476D01*
X94661878Y-107317428D01*
X94459248Y-107372006D01*
X94354766Y-107397584D01*
X94180908Y-107441405D01*
X94017682Y-107489518D01*
X93910266Y-107527702D01*
X93824023Y-107557737D01*
X93670874Y-107604900D01*
X93465804Y-107664828D01*
X93223801Y-107733160D01*
X92959852Y-107805534D01*
X92904824Y-107820357D01*
X92597844Y-107906138D01*
X92272128Y-108002885D01*
X91953671Y-108102493D01*
X91668471Y-108196855D01*
X91465490Y-108269176D01*
X91129763Y-108387003D01*
X90849371Y-108465226D01*
X90606352Y-108506617D01*
X90382743Y-108513952D01*
X90160584Y-108490005D01*
X90103547Y-108479530D01*
X89993832Y-108464693D01*
X89838978Y-108455493D01*
X89631024Y-108451899D01*
X89362010Y-108453877D01*
X89023975Y-108461394D01*
X88634676Y-108473535D01*
X88018100Y-108502684D01*
X87336582Y-108549196D01*
X86607602Y-108611081D01*
X85848643Y-108686349D01*
X85077186Y-108773009D01*
X84310713Y-108869072D01*
X83566707Y-108972547D01*
X82862648Y-109081444D01*
X82216020Y-109193774D01*
X82075545Y-109220213D01*
X81761260Y-109283034D01*
X81518720Y-109338665D01*
X81335754Y-109391147D01*
X81200188Y-109444518D01*
X81099849Y-109502818D01*
X81023214Y-109569407D01*
X80895273Y-109755591D01*
X80848966Y-109955945D01*
X77574042Y-109955945D01*
X77576318Y-109713728D01*
X77602236Y-109396582D01*
X77628563Y-109234224D01*
X77781160Y-108688994D01*
X78008178Y-108177125D01*
X78303658Y-107705375D01*
X78661643Y-107280500D01*
X79076173Y-106909257D01*
X79541293Y-106598403D01*
X80051042Y-106354696D01*
X80222934Y-106291887D01*
X80515217Y-106203705D01*
X80880101Y-106111517D01*
X81305742Y-106017474D01*
X81780297Y-105923729D01*
X82291924Y-105832434D01*
X82828781Y-105745740D01*
X83379025Y-105665800D01*
X83930813Y-105594765D01*
X84276879Y-105555232D01*
X84561469Y-105524084D01*
X84904716Y-105485960D01*
X85281186Y-105443717D01*
X85665441Y-105400216D01*
X86032047Y-105358316D01*
X86160712Y-105343492D01*
X86470153Y-105311101D01*
X86823112Y-105279858D01*
X87207743Y-105250334D01*
X87612202Y-105223098D01*
X88024642Y-105198721D01*
X88433219Y-105177772D01*
X88826087Y-105160821D01*
X89191401Y-105148438D01*
X89517316Y-105141194D01*
X89791986Y-105139658D01*
X90003567Y-105144400D01*
X90118879Y-105153028D01*
X90259704Y-105160296D01*
X90397091Y-105140863D01*
X90564918Y-105088917D01*
X90626879Y-105065892D01*
X90823514Y-104993375D01*
X91020009Y-104926568D01*
X91234079Y-104860126D01*
X91483443Y-104788707D01*
X91785817Y-104706966D01*
X92023879Y-104644547D01*
X92287086Y-104574150D01*
X92569018Y-104495493D01*
X92836363Y-104418050D01*
X93055808Y-104351292D01*
X93061045Y-104349635D01*
X93408476Y-104243725D01*
X93822438Y-104124449D01*
X94286647Y-103996046D01*
X94784820Y-103862758D01*
X95300673Y-103728826D01*
X95817921Y-103598491D01*
X96320281Y-103475994D01*
X96791469Y-103365577D01*
X97130609Y-103289752D01*
X97453673Y-103219406D01*
X97570712Y-102936789D01*
X97626690Y-102810220D01*
X97713153Y-102625396D01*
X97821890Y-102399368D01*
X97944691Y-102149189D01*
X98073344Y-101891910D01*
X98083910Y-101871005D01*
X98202702Y-101634599D01*
X98307238Y-101423562D01*
X98391840Y-101249612D01*
X98450826Y-101124463D01*
X98478517Y-101059831D01*
X98479891Y-101054272D01*
X98456193Y-101005411D01*
X98394477Y-100910771D01*
X98315035Y-100800272D01*
X98092548Y-100473807D01*
X97858513Y-100077327D01*
X97619366Y-99623553D01*
X97381545Y-99125205D01*
X97151484Y-98595003D01*
X96977379Y-98156537D01*
X96731658Y-97511235D01*
X96219268Y-97260746D01*
X95532954Y-96880334D01*
X94881063Y-96429923D01*
X94269705Y-95916954D01*
X93704992Y-95348865D01*
X93193032Y-94733098D01*
X92739936Y-94077092D01*
X92351814Y-93388287D01*
X92034778Y-92674123D01*
X91794936Y-91942040D01*
X91768629Y-91841552D01*
X91721734Y-91668210D01*
X91678230Y-91527476D01*
X91644351Y-91438571D01*
X91631408Y-91418219D01*
X91383735Y-91239866D01*
X91083620Y-91009612D01*
X90739284Y-90734620D01*
X90358947Y-90422053D01*
X89950830Y-90079076D01*
X89523153Y-89712850D01*
X89084136Y-89330540D01*
X88642000Y-88939308D01*
X88204966Y-88546318D01*
X87781253Y-88158733D01*
X87379083Y-87783716D01*
X87006674Y-87428430D01*
X86672249Y-87100038D01*
X86647545Y-87075307D01*
X85656693Y-86038738D01*
X84710191Y-84962043D01*
X83813221Y-83852681D01*
X82970966Y-82718111D01*
X82188609Y-81565793D01*
X81471332Y-80403184D01*
X80824318Y-79237745D01*
X80252749Y-78076934D01*
X80000117Y-77508172D01*
X79796052Y-77008222D01*
X79592411Y-76466173D01*
X79394294Y-75898436D01*
X79206803Y-75321419D01*
X79035039Y-74751532D01*
X78884103Y-74205184D01*
X78759097Y-73698785D01*
X78665120Y-73248745D01*
X78650385Y-73166297D01*
X78624040Y-72988779D01*
X78595351Y-72754005D01*
X78567350Y-72489215D01*
X78543065Y-72221649D01*
X78537372Y-72150297D01*
X78505966Y-71254585D01*
X78552616Y-70391327D01*
X78677713Y-69559270D01*
X78881646Y-68757160D01*
X79164805Y-67983744D01*
X79527580Y-67237767D01*
X79970360Y-66517974D01*
X80493535Y-65823114D01*
X80510174Y-65803005D01*
X80698609Y-65584930D01*
X80936541Y-65323654D01*
X81210641Y-65032741D01*
X81507585Y-64725750D01*
X81814045Y-64416243D01*
X82116696Y-64117781D01*
X82402211Y-63843926D01*
X82657264Y-63608240D01*
X82735057Y-63538874D01*
X83737402Y-62706314D01*
X84782767Y-61936602D01*
X85862802Y-61235208D01*
X86969158Y-60607603D01*
X87938712Y-60129487D01*
X89232729Y-59578681D01*
X90587413Y-59086729D01*
X92002803Y-58653621D01*
X93478938Y-58279347D01*
X95015858Y-57963898D01*
X96613603Y-57707265D01*
X98272213Y-57509437D01*
X99241712Y-57423231D01*
X99841447Y-57380897D01*
X100487457Y-57343780D01*
X101170257Y-57311945D01*
X101880360Y-57285458D01*
X102608281Y-57264386D01*
X103344533Y-57248794D01*
X104079631Y-57238749D01*
X104804088Y-57234316D01*
X105508419Y-57235562D01*
X106183137Y-57242552D01*
X106818758Y-57255353D01*
X107405794Y-57274030D01*
X107934760Y-57298650D01*
X108396170Y-57329278D01*
X108703212Y-57357397D01*
X109030546Y-57393903D01*
X109344254Y-57432908D01*
X109657304Y-57476557D01*
X109982668Y-57526995D01*
X110333317Y-57586369D01*
X110722220Y-57656822D01*
X111162348Y-57740502D01*
X111666672Y-57839552D01*
X111901840Y-57886471D01*
X112672893Y-58047925D01*
X113380985Y-58212223D01*
X114047748Y-58385709D01*
X114694815Y-58574728D01*
X115343817Y-58785626D01*
X116016389Y-59024748D01*
X116734163Y-59298440D01*
X116788879Y-59319930D01*
X117423879Y-59569783D01*
X117868379Y-59136114D01*
X118358239Y-58679026D01*
X118824838Y-58288833D01*
X119281668Y-57956159D01*
X119742227Y-57671628D01*
X120220008Y-57425864D01*
X120521728Y-57292625D01*
X121112916Y-57082889D01*
X121721477Y-56936678D01*
X122330105Y-56856766D01*
X122921491Y-56845928D01*
X123187248Y-56865346D01*
G36*
X123187248Y-56865346D02*
G01*
X123569443Y-56914652D01*
X123940954Y-56983108D01*
X124308453Y-57073954D01*
X124678610Y-57190428D01*
X125058095Y-57335769D01*
X125453579Y-57513215D01*
X125871734Y-57726006D01*
X126319229Y-57977380D01*
X126802736Y-58270576D01*
X127328925Y-58608834D01*
X127904467Y-58995391D01*
X128536033Y-59433486D01*
X128667901Y-59526336D01*
X129122206Y-59830270D01*
X129543434Y-60075897D01*
X129948924Y-60272929D01*
X130145045Y-60353869D01*
X130377420Y-60424678D01*
X130670194Y-60484056D01*
X130999566Y-60529462D01*
X131341737Y-60558353D01*
X131672907Y-60568188D01*
X131969274Y-60556425D01*
X132007712Y-60552800D01*
X132602057Y-60483466D01*
X133132164Y-60402094D01*
X133618163Y-60303753D01*
X134080182Y-60183510D01*
X134538351Y-60036432D01*
X135012801Y-59857588D01*
X135258992Y-59756160D01*
X135768921Y-59545044D01*
X136216236Y-59369781D01*
X136613415Y-59227105D01*
X136972930Y-59113747D01*
X137307257Y-59026443D01*
X137628872Y-58961925D01*
X137950248Y-58916926D01*
X138283860Y-58888180D01*
X138632879Y-58872681D01*
X138937353Y-58865840D01*
X139180131Y-58865538D01*
X139384012Y-58872944D01*
X139571794Y-58889231D01*
X139766278Y-58915569D01*
X139902879Y-58937914D01*
X140616799Y-59101475D01*
X141294656Y-59341103D01*
X141933877Y-59655103D01*
X142531888Y-60041780D01*
X143086117Y-60499440D01*
X143593989Y-61026387D01*
X144052931Y-61620927D01*
X144114732Y-61711852D01*
X144245489Y-61919416D01*
X144390827Y-62169715D01*
X144537971Y-62438871D01*
X144674148Y-62703008D01*
X144786583Y-62938247D01*
X144848325Y-63083088D01*
X144903052Y-63190900D01*
X144959917Y-63255139D01*
X144981254Y-63263005D01*
X145047643Y-63257150D01*
X145176883Y-63241359D01*
X145348101Y-63218287D01*
X145479014Y-63199628D01*
X145863706Y-63148472D01*
X146313995Y-63096706D01*
X146810836Y-63045921D01*
X147335189Y-62997707D01*
X147868010Y-62953654D01*
X148390257Y-62915354D01*
X148882888Y-62884396D01*
X149326861Y-62862371D01*
X149639545Y-62852130D01*
X150746672Y-62850122D01*
X151835103Y-62893422D01*
X152898331Y-62980734D01*
X153929848Y-63110763D01*
X154923148Y-63282212D01*
X155871722Y-63493787D01*
X156769064Y-63744192D01*
X157608665Y-64032132D01*
X158384019Y-64356311D01*
X159088617Y-64715433D01*
X159136700Y-64742751D01*
X159826451Y-65185221D01*
X160459511Y-65690060D01*
X161035021Y-66255986D01*
X161552123Y-66881717D01*
X162009957Y-67565974D01*
X162407663Y-68307473D01*
X162744382Y-69104933D01*
X163019256Y-69957074D01*
X163227809Y-70844026D01*
X163367403Y-71711101D01*
X163444741Y-72572247D01*
X163459086Y-73435765D01*
X163409702Y-74309959D01*
X163295853Y-75203130D01*
X163116802Y-76123580D01*
X162871814Y-77079613D01*
X162595497Y-77973838D01*
X162286786Y-78825738D01*
X161914835Y-79716554D01*
X161485450Y-80636201D01*
X161004436Y-81574592D01*
X160477598Y-82521643D01*
X159910741Y-83467268D01*
X159309672Y-84401381D01*
X158680194Y-85313896D01*
X158028115Y-86194727D01*
X157429631Y-86948505D01*
X156575709Y-87947482D01*
X155686047Y-88911849D01*
X154770952Y-89831587D01*
X153840732Y-90696675D01*
X152905694Y-91497095D01*
X152094879Y-92134137D01*
X151353169Y-92673980D01*
X150599985Y-93185257D01*
X149823664Y-93674742D01*
X149012544Y-94149211D01*
X148154965Y-94615439D01*
X147239263Y-95080199D01*
X146253776Y-95550267D01*
X146062379Y-95638583D01*
X145815921Y-95750649D01*
X145540813Y-95873884D01*
X145249044Y-96003099D01*
X144952606Y-96133106D01*
X144663490Y-96258717D01*
X144393687Y-96374742D01*
X144155189Y-96475993D01*
X143959986Y-96557283D01*
X143820069Y-96613421D01*
X143754439Y-96637222D01*
X143700428Y-96680852D01*
X143632562Y-96786592D01*
X143546936Y-96961337D01*
X143469476Y-97139994D01*
X143126999Y-97849823D01*
X142703298Y-98537305D01*
X142198139Y-99202779D01*
X141611286Y-99846586D01*
X141576052Y-99881955D01*
X141290282Y-100158802D01*
X141007057Y-100413550D01*
X140711057Y-100658316D01*
X140386960Y-100905219D01*
X140019444Y-101166374D01*
X139593187Y-101453901D01*
X139564212Y-101473045D01*
X139228762Y-101705551D01*
X138916255Y-101943551D01*
X138637389Y-102177652D01*
X138402867Y-102398462D01*
X138223389Y-102596586D01*
X138123536Y-102737677D01*
X138072717Y-102840974D01*
X138003590Y-103004081D01*
X137924431Y-103206419D01*
X137843516Y-103427414D01*
X137825670Y-103478308D01*
X137740129Y-103717270D01*
X137649526Y-103958431D01*
X137564094Y-104175235D01*
X137494068Y-104341127D01*
X137487869Y-104354855D01*
X137241537Y-104818189D01*
X136937671Y-105263178D01*
X136592517Y-105668891D01*
X136222323Y-106014399D01*
X136162737Y-106062005D01*
X136029288Y-106172698D01*
X135926135Y-106270703D01*
X135868877Y-106340638D01*
X135862247Y-106358338D01*
X135867477Y-106414438D01*
X135883310Y-106543856D01*
X135908345Y-106736098D01*
X135941181Y-106980670D01*
X135980415Y-107267079D01*
X136024647Y-107584831D01*
X136051636Y-107776505D01*
X136139574Y-108425568D01*
X136208893Y-109003605D01*
X136259848Y-109522125D01*
X136292694Y-109992636D01*
X136307688Y-110426649D01*
X136305084Y-110835672D01*
X136285139Y-111231215D01*
X136248107Y-111624788D01*
X136194245Y-112027899D01*
X136151890Y-112291326D01*
X136080626Y-112684454D01*
X136006875Y-113025698D01*
X135923943Y-113334060D01*
X135825132Y-113628545D01*
X135703749Y-113928157D01*
X135553097Y-114251898D01*
X135366483Y-114618773D01*
X135263110Y-114814010D01*
X135062901Y-115187805D01*
X134896185Y-115496551D01*
X134757183Y-115750210D01*
X134640120Y-115958742D01*
X134539220Y-116132110D01*
X134448706Y-116280273D01*
X134362803Y-116413195D01*
X134275734Y-116540835D01*
X134198997Y-116649131D01*
X134087024Y-116811150D01*
X133957696Y-117007719D01*
X133820758Y-117222944D01*
X133685954Y-117440931D01*
X133563031Y-117645784D01*
X133461732Y-117821609D01*
X133391803Y-117952512D01*
X133368853Y-118003149D01*
X133333078Y-118067189D01*
X133255210Y-118188659D01*
X133142980Y-118356539D01*
X133004122Y-118559808D01*
X132846369Y-118787443D01*
X132677453Y-119028425D01*
X132505108Y-119271732D01*
X132337066Y-119506341D01*
X132181060Y-119721233D01*
X132044824Y-119905386D01*
X131936089Y-120047778D01*
X131919732Y-120068502D01*
X131812713Y-120210012D01*
X131723875Y-120339933D01*
X131669683Y-120433918D01*
X131664602Y-120445858D01*
X131626994Y-120529366D01*
X131554967Y-120675621D01*
X131454653Y-120873046D01*
X131332183Y-121110064D01*
X131193688Y-121375098D01*
X131045301Y-121656571D01*
X130893153Y-121942905D01*
X130743375Y-122222525D01*
X130602099Y-122483851D01*
X130475457Y-122715309D01*
X130369580Y-122905319D01*
X130290599Y-123042307D01*
X130280682Y-123058838D01*
X129970446Y-123550196D01*
X129617549Y-124072146D01*
X129241280Y-124597574D01*
X128860933Y-125099364D01*
X128578996Y-125450672D01*
X128109774Y-126022599D01*
X127655920Y-126583570D01*
X127221509Y-127128221D01*
X126810613Y-127651190D01*
X126427305Y-128147115D01*
X126075660Y-128610634D01*
X125759750Y-129036384D01*
X125483648Y-129419004D01*
X125251428Y-129753131D01*
X125067164Y-130033402D01*
X124949113Y-130229116D01*
X124839371Y-130427232D01*
X124708272Y-130670534D01*
X124572150Y-130928388D01*
X124447333Y-131170162D01*
X124445559Y-131173648D01*
X124327983Y-131395952D01*
X124203855Y-131615681D01*
X124086907Y-131809395D01*
X123990876Y-131953654D01*
X123979418Y-131969188D01*
X123642332Y-132354989D01*
X123245685Y-132702195D01*
X122808241Y-132996971D01*
X122348764Y-133225479D01*
X122197200Y-133283386D01*
X122044522Y-133339741D01*
X121938721Y-133391487D01*
X121856475Y-133457366D01*
X121774462Y-133556122D01*
X121669358Y-133706499D01*
X121667718Y-133708903D01*
X121393832Y-134089927D01*
X121075626Y-134497383D01*
X120722521Y-134921480D01*
X120343935Y-135352427D01*
X119949290Y-135780433D01*
X119548004Y-136195707D01*
X119149498Y-136588458D01*
X118763191Y-136948895D01*
X118398503Y-137267228D01*
X118064854Y-137533664D01*
X117822674Y-137705466D01*
X117674379Y-137797729D01*
X117474337Y-137914634D01*
X117246357Y-138042620D01*
X117014251Y-138168127D01*
X116961807Y-138195729D01*
X116394743Y-138492435D01*
X116022812Y-138988303D01*
X115725350Y-139380047D01*
X115414463Y-139780696D01*
X115102607Y-140174670D01*
X114802241Y-140546391D01*
X114525822Y-140880279D01*
X114285805Y-141160756D01*
X114284421Y-141162337D01*
X113889819Y-141612835D01*
X113557139Y-142474670D01*
X113453261Y-142741080D01*
X113353325Y-142992440D01*
X113263425Y-143213800D01*
X113189654Y-143390209D01*
X113138104Y-143506716D01*
X113128262Y-143527005D01*
X112913369Y-143882727D01*
X112631974Y-144237908D01*
X112334414Y-144540880D01*
X112005212Y-144844220D01*
X112000984Y-145635529D01*
X111980087Y-146267437D01*
X111922110Y-146838336D01*
X111823412Y-147365001D01*
X111680355Y-147864205D01*
X111489300Y-148352723D01*
X111345524Y-148656841D01*
X111047255Y-149177304D01*
X110702072Y-149649269D01*
X110317081Y-150066490D01*
X109899387Y-150422720D01*
X109456096Y-150711711D01*
X108994317Y-150927217D01*
X108637550Y-151037484D01*
X108373492Y-151085524D01*
X108070004Y-151116046D01*
X107761010Y-151127338D01*
X107480431Y-151117690D01*
X107348545Y-151102530D01*
X106856976Y-150985216D01*
X106385266Y-150794377D01*
X105943859Y-150537908D01*
X105543198Y-150223702D01*
X105193726Y-149859651D01*
X104905886Y-149453649D01*
X104738114Y-149129502D01*
X104652772Y-148970992D01*
X104541770Y-148808010D01*
X104492848Y-148747813D01*
X104421316Y-148658717D01*
X104312271Y-148513371D01*
X104175738Y-148325588D01*
X104021737Y-148109180D01*
X103860292Y-147877963D01*
X103832462Y-147837647D01*
X103644856Y-147572902D01*
X103436543Y-147291439D01*
X103224886Y-147015918D01*
X103027248Y-146768999D01*
X102881178Y-146596172D01*
X102626902Y-146305227D01*
X102364512Y-146002766D01*
X102102002Y-145698184D01*
X101847368Y-145400879D01*
X101608605Y-145120247D01*
X101393707Y-144865686D01*
X101210669Y-144646591D01*
X101067487Y-144472361D01*
X100972241Y-144352505D01*
X100484264Y-143649802D01*
X100062246Y-142900478D01*
X99705391Y-142102410D01*
X99412902Y-141253480D01*
X99183982Y-140351568D01*
X99017835Y-139394553D01*
X98972812Y-139032351D01*
X98947165Y-138816678D01*
X98923485Y-138666212D01*
X98896221Y-138561831D01*
X98859821Y-138484410D01*
X98808735Y-138414826D01*
X98785843Y-138388196D01*
X98588851Y-138136481D01*
X98381004Y-137822423D01*
X98173182Y-137465506D01*
X97976267Y-137085215D01*
X97801139Y-136701036D01*
X97695954Y-136436495D01*
X97568298Y-136051939D01*
X97458171Y-135642565D01*
X97372662Y-135238777D01*
X97318859Y-134870977D01*
X97310952Y-134785172D01*
X97289882Y-134594437D01*
X97254970Y-134357959D01*
X97211930Y-134112368D01*
X97185034Y-133978012D01*
X97079242Y-133378356D01*
X97026445Y-132815726D01*
X97024714Y-132262719D01*
X97043533Y-131967774D01*
X97062594Y-131735256D01*
X97072840Y-131569593D01*
X97073366Y-131453345D01*
X97063266Y-131369071D01*
X97041635Y-131299331D01*
X97007569Y-131226684D01*
X97004782Y-131221210D01*
X96826513Y-130819202D01*
X96678096Y-130367909D01*
X96558192Y-129860725D01*
X96465460Y-129291042D01*
X96398563Y-128652251D01*
X96360735Y-128043960D01*
X96317592Y-127098438D01*
X96162650Y-126856638D01*
X95970298Y-126508310D01*
X95810132Y-126124126D01*
X95708782Y-125782995D01*
X95687284Y-125664573D01*
X95660171Y-125475405D01*
X95628896Y-125229116D01*
X95594909Y-124939331D01*
X95559664Y-124619676D01*
X95524610Y-124283775D01*
X95491202Y-123945255D01*
X95460889Y-123617740D01*
X95435124Y-123314854D01*
X95415358Y-123050225D01*
X95411758Y-122995338D01*
X95396019Y-122731845D01*
X95381578Y-122537028D01*
X95359909Y-122395467D01*
X95322488Y-122291745D01*
X95260791Y-122210440D01*
X95166292Y-122136135D01*
X95030468Y-122053410D01*
X94844792Y-121946846D01*
X94826080Y-121935986D01*
X94477592Y-121738348D01*
X94113739Y-121542407D01*
X93727786Y-121345141D01*
X93312996Y-121143528D01*
X92862632Y-120934545D01*
X92369958Y-120715171D01*
X91828238Y-120482383D01*
X91230735Y-120233158D01*
X90570712Y-119964474D01*
X89841432Y-119673310D01*
X89356879Y-119482267D01*
X88788479Y-119257931D01*
X88241441Y-119039769D01*
X87722640Y-118830628D01*
X87238950Y-118633359D01*
X86797248Y-118450813D01*
X86404408Y-118285837D01*
X86067305Y-118141283D01*
X85792814Y-118020001D01*
X85587812Y-117924839D01*
X85526492Y-117894567D01*
X85387977Y-117834197D01*
X85262435Y-117795712D01*
X85208212Y-117788338D01*
X85066006Y-117758598D01*
X84879668Y-117675167D01*
X84662318Y-117546728D01*
X84427076Y-117381967D01*
X84187061Y-117189567D01*
X83955394Y-116978212D01*
X83898074Y-116921153D01*
X83680252Y-116696265D01*
X83513670Y-116512311D01*
X83387244Y-116352917D01*
X83289890Y-116201711D01*
X83210524Y-116042317D01*
X83138062Y-115858363D01*
X83095238Y-115735172D01*
X83003062Y-115453554D01*
X82937724Y-115225126D01*
X82895226Y-115024224D01*
X82871570Y-114825185D01*
X82862760Y-114602348D01*
X82864795Y-114330048D01*
X82866208Y-114264998D01*
X82879879Y-113675532D01*
X82752879Y-113701381D01*
X82107393Y-113805896D01*
X81514572Y-113845718D01*
X80972490Y-113820868D01*
X80479219Y-113731370D01*
X80466879Y-113728141D01*
X79934954Y-113545079D01*
X79440147Y-113289144D01*
X78988385Y-112966177D01*
X78585598Y-112582016D01*
X78237713Y-112142501D01*
X77950658Y-111653472D01*
X77730361Y-111120770D01*
X77689649Y-110992317D01*
X77630701Y-110726872D01*
X77591518Y-110406724D01*
X77573068Y-110059726D01*
X77574042Y-109955945D01*
X80848966Y-109955945D01*
X80885083Y-110160787D01*
X80963223Y-110306560D01*
X81043904Y-110404028D01*
X81137641Y-110475004D01*
X81254635Y-110520162D01*
X81405091Y-110540179D01*
X81599212Y-110535731D01*
X81847202Y-110507492D01*
X82159263Y-110456140D01*
X82435379Y-110404057D01*
X82956098Y-110307268D01*
X83508078Y-110213434D01*
X84079316Y-110124039D01*
X84657806Y-110040566D01*
X85231544Y-109964498D01*
X85788527Y-109897321D01*
X86316750Y-109840516D01*
X86804208Y-109795568D01*
X87238898Y-109763961D01*
X87608815Y-109747178D01*
X87769379Y-109744804D01*
X88389225Y-109718813D01*
X88970885Y-109643766D01*
X89319612Y-109569587D01*
X89540770Y-109520812D01*
X89688098Y-109504911D01*
X89765943Y-109522246D01*
X89778649Y-109573181D01*
X89764474Y-109606793D01*
X89723989Y-109659260D01*
X89634453Y-109762478D01*
X89505308Y-109905986D01*
X89345996Y-110079320D01*
X89165958Y-110272018D01*
X89124002Y-110316505D01*
X88270797Y-111256194D01*
X87461550Y-112220756D01*
X86901635Y-112938337D01*
X86645457Y-113286031D01*
X86444369Y-113579283D01*
X86295291Y-113825172D01*
X86195141Y-114030772D01*
X86140837Y-114203163D01*
X86129299Y-114349420D01*
X86157444Y-114476621D01*
X86197498Y-114555556D01*
X86289206Y-114655440D01*
X86426057Y-114753047D01*
X86581759Y-114834735D01*
X86730022Y-114886863D01*
X86844551Y-114895788D01*
X86850632Y-114894441D01*
X87049448Y-114803635D01*
X87214389Y-114638252D01*
X87345499Y-114401672D01*
X87431727Y-114217283D01*
X87539711Y-114010670D01*
X87633638Y-113847442D01*
X87710988Y-113713912D01*
X87815014Y-113524103D01*
X87935170Y-113297782D01*
X88060913Y-113054716D01*
X88141895Y-112894614D01*
X88387058Y-112433551D01*
X88633043Y-112033190D01*
X88895177Y-111670822D01*
X89188786Y-111323734D01*
X89238872Y-111269005D01*
X89376849Y-111105462D01*
X89508865Y-110924989D01*
X89609601Y-110762601D01*
X89621528Y-110739838D01*
X89865708Y-110331471D01*
X90166113Y-109951603D01*
X90505508Y-109619739D01*
X90817379Y-109386347D01*
X90999170Y-109279075D01*
X91237839Y-109152408D01*
X91511063Y-109016877D01*
X91796518Y-108883013D01*
X92071880Y-108761346D01*
X92314826Y-108662408D01*
X92468379Y-108607493D01*
X92639645Y-108557563D01*
X92855792Y-108502055D01*
X93078418Y-108450660D01*
X93148314Y-108435935D01*
X93274691Y-108407119D01*
X93471970Y-108358257D01*
X93729528Y-108292150D01*
X94036742Y-108211598D01*
X94382988Y-108119402D01*
X94757642Y-108018363D01*
X95150083Y-107911281D01*
X95406844Y-107840546D01*
X96142187Y-107638113D01*
X96819773Y-107453472D01*
X97437246Y-107287222D01*
X97992249Y-107139963D01*
X98482425Y-107012293D01*
X98905418Y-106904811D01*
X99258870Y-106818117D01*
X99540425Y-106752810D01*
X99747725Y-106709488D01*
X99878414Y-106688752D01*
X99929803Y-106690830D01*
X99941055Y-106752785D01*
X99932177Y-106896203D01*
X99903141Y-107121337D01*
X99854643Y-107424206D01*
X99820723Y-107630900D01*
X99793279Y-107819578D01*
X99771290Y-108004290D01*
X99753731Y-108199090D01*
X99739579Y-108418029D01*
X99727812Y-108675158D01*
X99717406Y-108984530D01*
X99707338Y-109360197D01*
X99704156Y-109491005D01*
X99694778Y-109862686D01*
X99684348Y-110241200D01*
X99673408Y-110609164D01*
X99662500Y-110949198D01*
X99652165Y-111243919D01*
X99642946Y-111475944D01*
X99640775Y-111524363D01*
X99629877Y-111775842D01*
X99624785Y-111956692D01*
X99626396Y-112080810D01*
X99635605Y-112162090D01*
X99653307Y-112214428D01*
X99680397Y-112251719D01*
X99688174Y-112259753D01*
X99794643Y-112311332D01*
X99957177Y-112321660D01*
X100159014Y-112292663D01*
X100383391Y-112226271D01*
X100537567Y-112162025D01*
X100675750Y-112098336D01*
X100780816Y-112051742D01*
X100832327Y-112031276D01*
X100833965Y-112031005D01*
X100856491Y-112064562D01*
X100842439Y-112154078D01*
X100798635Y-112282814D01*
X100731906Y-112434035D01*
X100649078Y-112591003D01*
X100556979Y-112736983D01*
X100531786Y-112771838D01*
X100458057Y-112887721D01*
X100407147Y-112997718D01*
X100404936Y-113004672D01*
X100377476Y-113078980D01*
X100322609Y-113214751D01*
X100246995Y-113395938D01*
X100157294Y-113606493D01*
X100102611Y-113733050D01*
X99969760Y-114056595D01*
X99847604Y-114394204D01*
X99728790Y-114767815D01*
X99605972Y-115199365D01*
X99583507Y-115282524D01*
X99463321Y-115738369D01*
X99349276Y-116186201D01*
X99243739Y-116615731D01*
X99149076Y-117016670D01*
X99067655Y-117378727D01*
X99001840Y-117691613D01*
X98954000Y-117945038D01*
X98926500Y-118128713D01*
X98924419Y-118148172D01*
X98900994Y-118334582D01*
X98865614Y-118560561D01*
X98825121Y-118783126D01*
X98816589Y-118825505D01*
X98700252Y-119530654D01*
X98631820Y-120284612D01*
X98610956Y-121094120D01*
X98637324Y-121965923D01*
X98649632Y-122169838D01*
X98675201Y-122532947D01*
X98706321Y-122931574D01*
X98741143Y-123345048D01*
X98777820Y-123752696D01*
X98814501Y-124133846D01*
X98849341Y-124467827D01*
X98874830Y-124688672D01*
X98899424Y-124875971D01*
X98921300Y-124995158D01*
X98946118Y-125062367D01*
X98979541Y-125093736D01*
X99020737Y-125104533D01*
X99122217Y-125080650D01*
X99229634Y-124996789D01*
X99323877Y-124873845D01*
X99385833Y-124732716D01*
X99394187Y-124696222D01*
X99441056Y-124525235D01*
X99508241Y-124388816D01*
X99585470Y-124299871D01*
X99662467Y-124271302D01*
X99712750Y-124296110D01*
X99720713Y-124348544D01*
X99718656Y-124468126D01*
X99707420Y-124638038D01*
X99687844Y-124841460D01*
X99683586Y-124879581D01*
X99662652Y-125120833D01*
X99645911Y-125430374D01*
X99633465Y-125791926D01*
X99625413Y-126189208D01*
X99621854Y-126605944D01*
X99622889Y-127025853D01*
X99628618Y-127432658D01*
X99639139Y-127810080D01*
X99654552Y-128141839D01*
X99662829Y-128268040D01*
X99697932Y-128660153D01*
X99743891Y-128990426D01*
X99806014Y-129281503D01*
X99889605Y-129556031D01*
X99999973Y-129836652D01*
X100064099Y-129980338D01*
X100180419Y-130234476D01*
X100265855Y-130432153D01*
X100324417Y-130594054D01*
X100360113Y-130740860D01*
X100376953Y-130893254D01*
X100378945Y-131071919D01*
X100370098Y-131297537D01*
X100359164Y-131502599D01*
X100338660Y-131935470D01*
X100328682Y-132297252D01*
X100329665Y-132600918D01*
X100342043Y-132859443D01*
X100366253Y-133085800D01*
X100402729Y-133292964D01*
X100422062Y-133378416D01*
X100463248Y-133574724D01*
X100506241Y-133821342D01*
X100545476Y-134084238D01*
X100571280Y-134291135D01*
X100641543Y-134756044D01*
X100747352Y-135169716D01*
X100897374Y-135561199D01*
X101031692Y-135834501D01*
X101138855Y-136029878D01*
X101229269Y-136172556D01*
X101308380Y-136259262D01*
X101381639Y-136286724D01*
X101454491Y-136251671D01*
X101532385Y-136150830D01*
X101620770Y-135980931D01*
X101725093Y-135738701D01*
X101850801Y-135420868D01*
X101890167Y-135318937D01*
X101974220Y-135102207D01*
X102034211Y-134953694D01*
X102075962Y-134862397D01*
X102105293Y-134817316D01*
X102128026Y-134807449D01*
X102149983Y-134821797D01*
X102152129Y-134823909D01*
X102159067Y-134871426D01*
X102166502Y-134995132D01*
X102174199Y-135186553D01*
X102181920Y-135437215D01*
X102189431Y-135738644D01*
X102196496Y-136082365D01*
X102202879Y-136459904D01*
X102207963Y-136831214D01*
X102213726Y-137293502D01*
X102219089Y-137680513D01*
X102224562Y-138001634D01*
X102230651Y-138266250D01*
X102237867Y-138483749D01*
X102246717Y-138663514D01*
X102257710Y-138814933D01*
X102271355Y-138947391D01*
X102288160Y-139070273D01*
X102308634Y-139192967D01*
X102333286Y-139324856D01*
X102346870Y-139394794D01*
X102517526Y-140123943D01*
X102732027Y-140790789D01*
X102988871Y-141391517D01*
X103286558Y-141922310D01*
X103417517Y-142115285D01*
X103557654Y-142301462D01*
X103752455Y-142545955D01*
X103998871Y-142845132D01*
X104293852Y-143195363D01*
X104634348Y-143593015D01*
X105017309Y-144034458D01*
X105312057Y-144371040D01*
X105539338Y-144638932D01*
X105789608Y-144949367D01*
X106040355Y-145273489D01*
X106269068Y-145582443D01*
X106383583Y-145744516D01*
X106550181Y-145982210D01*
X106717196Y-146214185D01*
X106872839Y-146424518D01*
X107005317Y-146597288D01*
X107102838Y-146716570D01*
X107106559Y-146720814D01*
X107312900Y-146979719D01*
X107494650Y-147254702D01*
X107633201Y-147516743D01*
X107664546Y-147591005D01*
X107740003Y-147753761D01*
X107807261Y-147834605D01*
X107839087Y-147845005D01*
X107884607Y-147816575D01*
X107968670Y-147742274D01*
X108066365Y-147645049D01*
X108184785Y-147500704D01*
X108307327Y-147318536D01*
X108402451Y-147147633D01*
X108487687Y-146959307D01*
X108557116Y-146772501D01*
X108611546Y-146577545D01*
X108651783Y-146364769D01*
X108678636Y-146124503D01*
X108692910Y-145847076D01*
X108695413Y-145522819D01*
X108686953Y-145142061D01*
X108668337Y-144695133D01*
X108644604Y-144246672D01*
X108631286Y-143952817D01*
X108621197Y-143609375D01*
X108614259Y-143229342D01*
X108610391Y-142825720D01*
X108609515Y-142411505D01*
X108611551Y-141999697D01*
X108616419Y-141603295D01*
X108624042Y-141235297D01*
X108634338Y-140908702D01*
X108647229Y-140636509D01*
X108662637Y-140431716D01*
X108668184Y-140381749D01*
X108693485Y-140178660D01*
X108794518Y-140273575D01*
X108871079Y-140367186D01*
X108954913Y-140501300D01*
X108996983Y-140582498D01*
X109179041Y-140966369D01*
X109328744Y-141280802D01*
X109449940Y-141532895D01*
X109546476Y-141729745D01*
X109622200Y-141878452D01*
X109680961Y-141986113D01*
X109726607Y-142059825D01*
X109762985Y-142106687D01*
X109793943Y-142133797D01*
X109823330Y-142148252D01*
X109849967Y-142155897D01*
X109927246Y-142170733D01*
X109993983Y-142167798D01*
X110055093Y-142139314D01*
X110115486Y-142077503D01*
X110180077Y-141974587D01*
X110253776Y-141822788D01*
X110341498Y-141614328D01*
X110448154Y-141341430D01*
X110573220Y-141010798D01*
X110697865Y-140679912D01*
X110800647Y-140414431D01*
X110889583Y-140200543D01*
X110972690Y-140024432D01*
X111057984Y-139872287D01*
X111153483Y-139730292D01*
X111267202Y-139584635D01*
X111407160Y-139421502D01*
X111581372Y-139227079D01*
X111656794Y-139143699D01*
X111944937Y-138814256D01*
X112276746Y-138414716D01*
X112650931Y-137946730D01*
X113066204Y-137411947D01*
X113521278Y-136812018D01*
X114014863Y-136148594D01*
X114335230Y-135712174D01*
X114457202Y-135555351D01*
X114547435Y-135464653D01*
X114614656Y-135431833D01*
X114631563Y-135432029D01*
X114730492Y-135446961D01*
X114857035Y-135466973D01*
X114864235Y-135468138D01*
X114992703Y-135457486D01*
X115172718Y-135398204D01*
X115391932Y-135297214D01*
X115637997Y-135161438D01*
X115898567Y-134997798D01*
X116161294Y-134813217D01*
X116413832Y-134614617D01*
X116466958Y-134569593D01*
X116882681Y-134192900D01*
X117319727Y-133762119D01*
X117759090Y-133297605D01*
X118181765Y-132819715D01*
X118568748Y-132348806D01*
X118705953Y-132171360D01*
X118835915Y-131988017D01*
X118994361Y-131745579D01*
X119171514Y-131460480D01*
X119357600Y-131149155D01*
X119542843Y-130828038D01*
X119717467Y-130513563D01*
X119871696Y-130222164D01*
X119908524Y-130149672D01*
X120004375Y-129961586D01*
X120089748Y-129798807D01*
X120155948Y-129677585D01*
X120194284Y-129614173D01*
X120196471Y-129611371D01*
X120260753Y-129575408D01*
X120331300Y-129616880D01*
X120410746Y-129738159D01*
X120465180Y-129853441D01*
X120552373Y-130025438D01*
X120643758Y-130129154D01*
X120758750Y-130179595D01*
X120903012Y-130191847D01*
X121017653Y-130184773D01*
X121115898Y-130157757D01*
X121205903Y-130101738D01*
X121295824Y-130007653D01*
X121393816Y-129866440D01*
X121508035Y-129669039D01*
X121646636Y-129406386D01*
X121695085Y-129311756D01*
X121843721Y-129023429D01*
X121979239Y-128769532D01*
X122109802Y-128537234D01*
X122243574Y-128313701D01*
X122388718Y-128086100D01*
X122553399Y-127841596D01*
X122745779Y-127567358D01*
X122974022Y-127250552D01*
X123222178Y-126911172D01*
X123459519Y-126590032D01*
X123692442Y-126279445D01*
X123928381Y-125969966D01*
X124174770Y-125652152D01*
X124439045Y-125316559D01*
X124728639Y-124953744D01*
X125050987Y-124554261D01*
X125413524Y-124108667D01*
X125804968Y-123630338D01*
X126152840Y-123194272D01*
X126499371Y-122737553D01*
X126832544Y-122277116D01*
X127140340Y-121829897D01*
X127410741Y-121412829D01*
X127592501Y-121111505D01*
X127839564Y-120670097D01*
X128086099Y-120203273D01*
X128323937Y-119728101D01*
X128544905Y-119261649D01*
X128740832Y-118820986D01*
X128903548Y-118423180D01*
X128985612Y-118201443D01*
X129073401Y-117955751D01*
X129156277Y-117732050D01*
X129228613Y-117544899D01*
X129284783Y-117408857D01*
X129318996Y-117338735D01*
X129414141Y-117254846D01*
X129537708Y-117250476D01*
X129689938Y-117325639D01*
X129742879Y-117365005D01*
X129842222Y-117439410D01*
X129914265Y-117485118D01*
X129932638Y-117492005D01*
X129994050Y-117456835D01*
X130067655Y-117349026D01*
X130155381Y-117165133D01*
X130252186Y-116920505D01*
X130560886Y-116197221D01*
X130926927Y-115530921D01*
X131347658Y-114926377D01*
X131390724Y-114871895D01*
X131526219Y-114690821D01*
X131667052Y-114484313D01*
X131782871Y-114296888D01*
X131783471Y-114295838D01*
X131865910Y-114151789D01*
X131978104Y-113956259D01*
X132107498Y-113731105D01*
X132241538Y-113498182D01*
X132294157Y-113406838D01*
X132448291Y-113131394D01*
X132563662Y-112904248D01*
X132649866Y-112704203D01*
X132716500Y-112510062D01*
X132744580Y-112411903D01*
X132855482Y-111947470D01*
X132931254Y-111492878D01*
X132975422Y-111019433D01*
X132991513Y-110498443D01*
X132991707Y-110401172D01*
X132990148Y-110195217D01*
X132985386Y-110005395D01*
X132976169Y-109818749D01*
X132961245Y-109622322D01*
X132939362Y-109403157D01*
X132909268Y-109148298D01*
X132869711Y-108844788D01*
X132819439Y-108479671D01*
X132776944Y-108178672D01*
X132725755Y-107821879D01*
X132676247Y-107483349D01*
X132630133Y-107174303D01*
X132589122Y-106905959D01*
X132554927Y-106689537D01*
X132529258Y-106536255D01*
X132515462Y-106464172D01*
X132460050Y-106166503D01*
X132413097Y-105810011D01*
X132377005Y-105420322D01*
X132354176Y-105023060D01*
X132346957Y-104666614D01*
X132346911Y-104387705D01*
X132349913Y-104182560D01*
X132361566Y-104040314D01*
X132387476Y-103950102D01*
X132433249Y-103901062D01*
X132504490Y-103882327D01*
X132606805Y-103883034D01*
X132745798Y-103892319D01*
X132746426Y-103892358D01*
X133159602Y-103882962D01*
X133532710Y-103799804D01*
X133869237Y-103641729D01*
X134153153Y-103425806D01*
X134264953Y-103311569D01*
X134361751Y-103183749D01*
X134451346Y-103027593D01*
X134541538Y-102828343D01*
X134640129Y-102571243D01*
X134710701Y-102371077D01*
X134842025Y-102002604D01*
X134961479Y-101697637D01*
X135077723Y-101437541D01*
X135199418Y-101203683D01*
X135335224Y-100977427D01*
X135415185Y-100855265D01*
X135643893Y-100534025D01*
X135885951Y-100236644D01*
X136151781Y-99953527D01*
X136451806Y-99675077D01*
X136796446Y-99391697D01*
X137196124Y-99093793D01*
X137661261Y-98771767D01*
X137722712Y-98730552D01*
X138177212Y-98419319D01*
X138566091Y-98135586D01*
X138899822Y-97869734D01*
X139188880Y-97612145D01*
X139443738Y-97353198D01*
X139674872Y-97083274D01*
X139892754Y-96792754D01*
X139995925Y-96642838D01*
X140279320Y-96156160D01*
X140513093Y-95621559D01*
X140686189Y-95066485D01*
X140750043Y-94770642D01*
X140794957Y-94535923D01*
X140835565Y-94370264D01*
X140879295Y-94258872D01*
X140933577Y-94186956D01*
X141005837Y-94139727D01*
X141082007Y-94109631D01*
X141607288Y-93921005D01*
X142187955Y-93698346D01*
X142808557Y-93448452D01*
X143453647Y-93178122D01*
X144107774Y-92894155D01*
X144755491Y-92603348D01*
X145381348Y-92312500D01*
X145969896Y-92028410D01*
X146505686Y-91757876D01*
X146887879Y-91554724D01*
X148076393Y-90869247D01*
X149188098Y-90154230D01*
X150221809Y-89410471D01*
X151007721Y-88781969D01*
X152038991Y-87869825D01*
X153044782Y-86889253D01*
X154014132Y-85852746D01*
X154936078Y-84772798D01*
X155799657Y-83661901D01*
X156593907Y-82532548D01*
X156888635Y-82080172D01*
X157271762Y-81459718D01*
X157647365Y-80815547D01*
X158009154Y-80160131D01*
X158350838Y-79505941D01*
X158666127Y-78865448D01*
X158948731Y-78251126D01*
X159192361Y-77675444D01*
X159390726Y-77150876D01*
X159425315Y-77050529D01*
X159677987Y-76247122D01*
X159874439Y-75493754D01*
X160016925Y-74779235D01*
X160107699Y-74092372D01*
X160147895Y-73461708D01*
X160140048Y-72680398D01*
X160069878Y-71925676D01*
X159939370Y-71203852D01*
X159750510Y-70521238D01*
X159505284Y-69884147D01*
X159205677Y-69298890D01*
X158853674Y-68771778D01*
X158563968Y-68426465D01*
X158193833Y-68080891D01*
X157746162Y-67757980D01*
X157225491Y-67459609D01*
X156636361Y-67187655D01*
X155983308Y-66943993D01*
X155270871Y-66730501D01*
X154503589Y-66549054D01*
X153685999Y-66401529D01*
X153654630Y-66396714D01*
X153238602Y-66335634D01*
X152860078Y-66285999D01*
X152502666Y-66246713D01*
X152149971Y-66216682D01*
X151785602Y-66194811D01*
X151393165Y-66180005D01*
X150956267Y-66171169D01*
X150458515Y-66167209D01*
X150211045Y-66166726D01*
X149791588Y-66166938D01*
X149440403Y-66168579D01*
X149141095Y-66172425D01*
X148877273Y-66179255D01*
X148632543Y-66189845D01*
X148390512Y-66204973D01*
X148134787Y-66225417D01*
X147848976Y-66251953D01*
X147516685Y-66285358D01*
X147353545Y-66302224D01*
X147009001Y-66338949D01*
X146673943Y-66376400D01*
X146362522Y-66412864D01*
X146088888Y-66446632D01*
X145867189Y-66475991D01*
X145711577Y-66499229D01*
X145681379Y-66504479D01*
X145266171Y-66589778D01*
X144796335Y-66702097D01*
X144295046Y-66835061D01*
X143785480Y-66982293D01*
X143290810Y-67137421D01*
X142911802Y-67266312D01*
X142715667Y-67333286D01*
X142583497Y-67371071D01*
X142500902Y-67382548D01*
X142453491Y-67370601D01*
X142441689Y-67360500D01*
X142420086Y-67301140D01*
X142393434Y-67173407D01*
X142364431Y-66993237D01*
X142335775Y-66776568D01*
X142321360Y-66649672D01*
X142225672Y-65937942D01*
X142097820Y-65298703D01*
X141935508Y-64725225D01*
X141736443Y-64210777D01*
X141498331Y-63748628D01*
X141218877Y-63332047D01*
X141168431Y-63266967D01*
X140825820Y-62894280D01*
X140447204Y-62597968D01*
X140031201Y-62377367D01*
X139576427Y-62231815D01*
X139081502Y-62160650D01*
X138844545Y-62152716D01*
X138594317Y-62160446D01*
X138346719Y-62186819D01*
X138089481Y-62235208D01*
X137810329Y-62308982D01*
X137496993Y-62411514D01*
X137137200Y-62546173D01*
X136718678Y-62716330D01*
X136579712Y-62774856D01*
X136208209Y-62930138D01*
X135893772Y-63055948D01*
X135616996Y-63159156D01*
X135358475Y-63246630D01*
X135098806Y-63325241D01*
X134818583Y-63401859D01*
X134780545Y-63411794D01*
X134226662Y-63543319D01*
X133658163Y-63655068D01*
X133090492Y-63745191D01*
X132539089Y-63811835D01*
X132019399Y-63853148D01*
X131546864Y-63867280D01*
X131136926Y-63852378D01*
X131118712Y-63850868D01*
X130647698Y-63806668D01*
X130248301Y-63759694D01*
X129907470Y-63707488D01*
X129612156Y-63647595D01*
X129349308Y-63577555D01*
X129105878Y-63494912D01*
X128993741Y-63450721D01*
X128667696Y-63313429D01*
X128372831Y-63180816D01*
X128096375Y-63045499D01*
X127825560Y-62900095D01*
X127547617Y-62737221D01*
X127249775Y-62549494D01*
X126919267Y-62329530D01*
X126543323Y-62069947D01*
X126257366Y-61868558D01*
X125668514Y-61461401D01*
X125130700Y-61110073D01*
X124645633Y-60815581D01*
X124215022Y-60578926D01*
X123840577Y-60401115D01*
X123600830Y-60308068D01*
X123167410Y-60191465D01*
X122747585Y-60145192D01*
X122336401Y-60170914D01*
X121928901Y-60270297D01*
X121520131Y-60445006D01*
X121105136Y-60696706D01*
X120678959Y-61027063D01*
X120236646Y-61437743D01*
X120235145Y-61439243D01*
X119867630Y-61829542D01*
X119517989Y-62245123D01*
X119204542Y-62662972D01*
X118948070Y-63055946D01*
X118812679Y-63276743D01*
X118707350Y-63431901D01*
X118623717Y-63531222D01*
X118553415Y-63584513D01*
X118488079Y-63601577D01*
X118482464Y-63601671D01*
X118414855Y-63584451D01*
X118283677Y-63536331D01*
X118101895Y-63462620D01*
X117882473Y-63368627D01*
X117638375Y-63259663D01*
X117561206Y-63224358D01*
X116605117Y-62802284D01*
X115627696Y-62404855D01*
X114653795Y-62041602D01*
X113708269Y-61722052D01*
X113359753Y-61613510D01*
X113145905Y-61553520D01*
X112862470Y-61481450D01*
X112523181Y-61400255D01*
X112141772Y-61312885D01*
X111731977Y-61222295D01*
X111307529Y-61131438D01*
X110882164Y-61043265D01*
X110469613Y-60960730D01*
X110083613Y-60886785D01*
X109737895Y-60824384D01*
X109521015Y-60788163D01*
X108951223Y-60707691D01*
X108339985Y-60641918D01*
X107680783Y-60590541D01*
X106967100Y-60553255D01*
X106192419Y-60529758D01*
X105350223Y-60519744D01*
X104433996Y-60522912D01*
X103961879Y-60529090D01*
X102788862Y-60553742D01*
X101691998Y-60589579D01*
X100663409Y-60637431D01*
X99695216Y-60698129D01*
X98779541Y-60772500D01*
X97908507Y-60861377D01*
X97074234Y-60965589D01*
X96268844Y-61085966D01*
X95484460Y-61223337D01*
X94713203Y-61378533D01*
X93947195Y-61552384D01*
X93716718Y-61608429D01*
X92448681Y-61951608D01*
X91249733Y-62338880D01*
X90115370Y-62772477D01*
X89041086Y-63254629D01*
X88022378Y-63787569D01*
X87054739Y-64373528D01*
X86133666Y-65014738D01*
X85254653Y-65713430D01*
X85017712Y-65917688D01*
X84756708Y-66153410D01*
X84471867Y-66422476D01*
X84174821Y-66712913D01*
X83877200Y-67012746D01*
X83590637Y-67310003D01*
X83326762Y-67592709D01*
X83097207Y-67848891D01*
X82913603Y-68066576D01*
X82844394Y-68154953D01*
X82501830Y-68672187D01*
X82219250Y-69233043D01*
X82003887Y-69820113D01*
X81862975Y-70415990D01*
X81838811Y-70574785D01*
X81814031Y-70859387D01*
X81805179Y-71202309D01*
X81811259Y-71578911D01*
X81831271Y-71964557D01*
X81864217Y-72334608D01*
X81909098Y-72664426D01*
X81927646Y-72766838D01*
X82047216Y-73301358D01*
X82205082Y-73888760D01*
X82395130Y-74509841D01*
X82611245Y-75145397D01*
X82847313Y-75776227D01*
X83025481Y-76214994D01*
X83424457Y-77092876D01*
X83892555Y-77998307D01*
X84422849Y-78921613D01*
X85008414Y-79853118D01*
X85642327Y-80783149D01*
X86317664Y-81702031D01*
X87027499Y-82600090D01*
X87764908Y-83467652D01*
X88522967Y-84295041D01*
X89294751Y-85072584D01*
X89516753Y-85284174D01*
X90239528Y-85953679D01*
X90955550Y-86596296D01*
X91656134Y-87204655D01*
X92332595Y-87771387D01*
X92976247Y-88289122D01*
X93578405Y-88750492D01*
X93759545Y-88884025D01*
X94309879Y-89285528D01*
X94336045Y-90043183D01*
X94348698Y-90350186D01*
X94364340Y-90593060D01*
X94385339Y-90792341D01*
X94414061Y-90968563D01*
X94452872Y-91142264D01*
X94470716Y-91211718D01*
X94650654Y-91746104D01*
X94902681Y-92275831D01*
X95217444Y-92790030D01*
X95585592Y-93277834D01*
X95997774Y-93728374D01*
X96444637Y-94130782D01*
X96916832Y-94474190D01*
X97405005Y-94747730D01*
X97580750Y-94826133D01*
X97740136Y-94896387D01*
X97882545Y-94966124D01*
X97976061Y-95019576D01*
X98063971Y-95068552D01*
X98206376Y-95136426D01*
X98378729Y-95211757D01*
X98462071Y-95246072D01*
X98638800Y-95322833D01*
X98795291Y-95400681D01*
X98907559Y-95467272D01*
X98938092Y-95491045D01*
X99071399Y-95659566D01*
X99178847Y-95895197D01*
X99263766Y-96205379D01*
X99269007Y-96230339D01*
X99339084Y-96502553D01*
X99445755Y-96829807D01*
X99581601Y-97194815D01*
X99739203Y-97580291D01*
X99911143Y-97968948D01*
X100090001Y-98343499D01*
X100268359Y-98686657D01*
X100438796Y-98981136D01*
X100472565Y-99034672D01*
X100772162Y-99424765D01*
X101129114Y-99755770D01*
X101535181Y-100022124D01*
X101982119Y-100218267D01*
X102385251Y-100325110D01*
X102533159Y-100355860D01*
X102645627Y-100384036D01*
X102699151Y-100403722D01*
X102699736Y-100404251D01*
X102684385Y-100444816D01*
X102630067Y-100549434D01*
X102541566Y-100709672D01*
X102423667Y-100917097D01*
X102281155Y-101163275D01*
X102118815Y-101439774D01*
X101970654Y-101689249D01*
X101621026Y-102283179D01*
X101317466Y-102817527D01*
X101055919Y-103300949D01*
X100832334Y-103742101D01*
X100642657Y-104149637D01*
X100482834Y-104532216D01*
X100348814Y-104898491D01*
X100236543Y-105257120D01*
X100153074Y-105570987D01*
X100105748Y-105751526D01*
X100060676Y-105902111D01*
X100024087Y-106002975D01*
X100007599Y-106032718D01*
X99956562Y-106051769D01*
X99833300Y-106084643D01*
X99648667Y-106128842D01*
X99413514Y-106181868D01*
X99138698Y-106241222D01*
X98835069Y-106304408D01*
X98767281Y-106318209D01*
X98231517Y-106429159D01*
X97697871Y-106544012D01*
X97177567Y-106660109D01*
X96681827Y-106774793D01*
X96221874Y-106885406D01*
X95808932Y-106989291D01*
X95454225Y-107083790D01*
X95168975Y-107166245D01*
X95114212Y-107183278D01*
X94890979Y-107251476D01*
X94661878Y-107317428D01*
X94459248Y-107372006D01*
X94354766Y-107397584D01*
X94180908Y-107441405D01*
X94017682Y-107489518D01*
X93910266Y-107527702D01*
X93824023Y-107557737D01*
X93670874Y-107604900D01*
X93465804Y-107664828D01*
X93223801Y-107733160D01*
X92959852Y-107805534D01*
X92904824Y-107820357D01*
X92597844Y-107906138D01*
X92272128Y-108002885D01*
X91953671Y-108102493D01*
X91668471Y-108196855D01*
X91465490Y-108269176D01*
X91129763Y-108387003D01*
X90849371Y-108465226D01*
X90606352Y-108506617D01*
X90382743Y-108513952D01*
X90160584Y-108490005D01*
X90103547Y-108479530D01*
X89993832Y-108464693D01*
X89838978Y-108455493D01*
X89631024Y-108451899D01*
X89362010Y-108453877D01*
X89023975Y-108461394D01*
X88634676Y-108473535D01*
X88018100Y-108502684D01*
X87336582Y-108549196D01*
X86607602Y-108611081D01*
X85848643Y-108686349D01*
X85077186Y-108773009D01*
X84310713Y-108869072D01*
X83566707Y-108972547D01*
X82862648Y-109081444D01*
X82216020Y-109193774D01*
X82075545Y-109220213D01*
X81761260Y-109283034D01*
X81518720Y-109338665D01*
X81335754Y-109391147D01*
X81200188Y-109444518D01*
X81099849Y-109502818D01*
X81023214Y-109569407D01*
X80895273Y-109755591D01*
X80848966Y-109955945D01*
X77574042Y-109955945D01*
X77576318Y-109713728D01*
X77602236Y-109396582D01*
X77628563Y-109234224D01*
X77781160Y-108688994D01*
X78008178Y-108177125D01*
X78303658Y-107705375D01*
X78661643Y-107280500D01*
X79076173Y-106909257D01*
X79541293Y-106598403D01*
X80051042Y-106354696D01*
X80222934Y-106291887D01*
X80515217Y-106203705D01*
X80880101Y-106111517D01*
X81305742Y-106017474D01*
X81780297Y-105923729D01*
X82291924Y-105832434D01*
X82828781Y-105745740D01*
X83379025Y-105665800D01*
X83930813Y-105594765D01*
X84276879Y-105555232D01*
X84561469Y-105524084D01*
X84904716Y-105485960D01*
X85281186Y-105443717D01*
X85665441Y-105400216D01*
X86032047Y-105358316D01*
X86160712Y-105343492D01*
X86470153Y-105311101D01*
X86823112Y-105279858D01*
X87207743Y-105250334D01*
X87612202Y-105223098D01*
X88024642Y-105198721D01*
X88433219Y-105177772D01*
X88826087Y-105160821D01*
X89191401Y-105148438D01*
X89517316Y-105141194D01*
X89791986Y-105139658D01*
X90003567Y-105144400D01*
X90118879Y-105153028D01*
X90259704Y-105160296D01*
X90397091Y-105140863D01*
X90564918Y-105088917D01*
X90626879Y-105065892D01*
X90823514Y-104993375D01*
X91020009Y-104926568D01*
X91234079Y-104860126D01*
X91483443Y-104788707D01*
X91785817Y-104706966D01*
X92023879Y-104644547D01*
X92287086Y-104574150D01*
X92569018Y-104495493D01*
X92836363Y-104418050D01*
X93055808Y-104351292D01*
X93061045Y-104349635D01*
X93408476Y-104243725D01*
X93822438Y-104124449D01*
X94286647Y-103996046D01*
X94784820Y-103862758D01*
X95300673Y-103728826D01*
X95817921Y-103598491D01*
X96320281Y-103475994D01*
X96791469Y-103365577D01*
X97130609Y-103289752D01*
X97453673Y-103219406D01*
X97570712Y-102936789D01*
X97626690Y-102810220D01*
X97713153Y-102625396D01*
X97821890Y-102399368D01*
X97944691Y-102149189D01*
X98073344Y-101891910D01*
X98083910Y-101871005D01*
X98202702Y-101634599D01*
X98307238Y-101423562D01*
X98391840Y-101249612D01*
X98450826Y-101124463D01*
X98478517Y-101059831D01*
X98479891Y-101054272D01*
X98456193Y-101005411D01*
X98394477Y-100910771D01*
X98315035Y-100800272D01*
X98092548Y-100473807D01*
X97858513Y-100077327D01*
X97619366Y-99623553D01*
X97381545Y-99125205D01*
X97151484Y-98595003D01*
X96977379Y-98156537D01*
X96731658Y-97511235D01*
X96219268Y-97260746D01*
X95532954Y-96880334D01*
X94881063Y-96429923D01*
X94269705Y-95916954D01*
X93704992Y-95348865D01*
X93193032Y-94733098D01*
X92739936Y-94077092D01*
X92351814Y-93388287D01*
X92034778Y-92674123D01*
X91794936Y-91942040D01*
X91768629Y-91841552D01*
X91721734Y-91668210D01*
X91678230Y-91527476D01*
X91644351Y-91438571D01*
X91631408Y-91418219D01*
X91383735Y-91239866D01*
X91083620Y-91009612D01*
X90739284Y-90734620D01*
X90358947Y-90422053D01*
X89950830Y-90079076D01*
X89523153Y-89712850D01*
X89084136Y-89330540D01*
X88642000Y-88939308D01*
X88204966Y-88546318D01*
X87781253Y-88158733D01*
X87379083Y-87783716D01*
X87006674Y-87428430D01*
X86672249Y-87100038D01*
X86647545Y-87075307D01*
X85656693Y-86038738D01*
X84710191Y-84962043D01*
X83813221Y-83852681D01*
X82970966Y-82718111D01*
X82188609Y-81565793D01*
X81471332Y-80403184D01*
X80824318Y-79237745D01*
X80252749Y-78076934D01*
X80000117Y-77508172D01*
X79796052Y-77008222D01*
X79592411Y-76466173D01*
X79394294Y-75898436D01*
X79206803Y-75321419D01*
X79035039Y-74751532D01*
X78884103Y-74205184D01*
X78759097Y-73698785D01*
X78665120Y-73248745D01*
X78650385Y-73166297D01*
X78624040Y-72988779D01*
X78595351Y-72754005D01*
X78567350Y-72489215D01*
X78543065Y-72221649D01*
X78537372Y-72150297D01*
X78505966Y-71254585D01*
X78552616Y-70391327D01*
X78677713Y-69559270D01*
X78881646Y-68757160D01*
X79164805Y-67983744D01*
X79527580Y-67237767D01*
X79970360Y-66517974D01*
X80493535Y-65823114D01*
X80510174Y-65803005D01*
X80698609Y-65584930D01*
X80936541Y-65323654D01*
X81210641Y-65032741D01*
X81507585Y-64725750D01*
X81814045Y-64416243D01*
X82116696Y-64117781D01*
X82402211Y-63843926D01*
X82657264Y-63608240D01*
X82735057Y-63538874D01*
X83737402Y-62706314D01*
X84782767Y-61936602D01*
X85862802Y-61235208D01*
X86969158Y-60607603D01*
X87938712Y-60129487D01*
X89232729Y-59578681D01*
X90587413Y-59086729D01*
X92002803Y-58653621D01*
X93478938Y-58279347D01*
X95015858Y-57963898D01*
X96613603Y-57707265D01*
X98272213Y-57509437D01*
X99241712Y-57423231D01*
X99841447Y-57380897D01*
X100487457Y-57343780D01*
X101170257Y-57311945D01*
X101880360Y-57285458D01*
X102608281Y-57264386D01*
X103344533Y-57248794D01*
X104079631Y-57238749D01*
X104804088Y-57234316D01*
X105508419Y-57235562D01*
X106183137Y-57242552D01*
X106818758Y-57255353D01*
X107405794Y-57274030D01*
X107934760Y-57298650D01*
X108396170Y-57329278D01*
X108703212Y-57357397D01*
X109030546Y-57393903D01*
X109344254Y-57432908D01*
X109657304Y-57476557D01*
X109982668Y-57526995D01*
X110333317Y-57586369D01*
X110722220Y-57656822D01*
X111162348Y-57740502D01*
X111666672Y-57839552D01*
X111901840Y-57886471D01*
X112672893Y-58047925D01*
X113380985Y-58212223D01*
X114047748Y-58385709D01*
X114694815Y-58574728D01*
X115343817Y-58785626D01*
X116016389Y-59024748D01*
X116734163Y-59298440D01*
X116788879Y-59319930D01*
X117423879Y-59569783D01*
X117868379Y-59136114D01*
X118358239Y-58679026D01*
X118824838Y-58288833D01*
X119281668Y-57956159D01*
X119742227Y-57671628D01*
X120220008Y-57425864D01*
X120521728Y-57292625D01*
X121112916Y-57082889D01*
X121721477Y-56936678D01*
X122330105Y-56856766D01*
X122921491Y-56845928D01*
X123187248Y-56865346D01*
G37*
D12*
X117290247Y-89500000D02*
G75*
G02*
X116137753Y-89500000I-576247J0D01*
G01*
X116137753Y-89500000D02*
G75*
G02*
X117290247Y-89500000I576247J0D01*
G01*
D13*
X115393200Y-90744600D02*
X113412000Y-90744600D01*
X113412000Y-88255400D01*
X115393200Y-88255400D01*
X115393200Y-90744600D01*
G36*
X115393200Y-90744600D02*
G01*
X113412000Y-90744600D01*
X113412000Y-88255400D01*
X115393200Y-88255400D01*
X115393200Y-90744600D01*
G37*
X119965200Y-90719200D02*
X118034800Y-90719200D01*
X118034800Y-88280800D01*
X119965200Y-88280800D01*
X119965200Y-90719200D01*
G36*
X119965200Y-90719200D02*
G01*
X118034800Y-90719200D01*
X118034800Y-88280800D01*
X119965200Y-88280800D01*
X119965200Y-90719200D01*
G37*
D12*
X102076247Y-89500000D02*
G75*
G02*
X100923753Y-89500000I-576247J0D01*
G01*
X100923753Y-89500000D02*
G75*
G02*
X102076247Y-89500000I576247J0D01*
G01*
D13*
X100179200Y-90744600D02*
X98198000Y-90744600D01*
X98198000Y-88255400D01*
X100179200Y-88255400D01*
X100179200Y-90744600D01*
G36*
X100179200Y-90744600D02*
G01*
X98198000Y-90744600D01*
X98198000Y-88255400D01*
X100179200Y-88255400D01*
X100179200Y-90744600D01*
G37*
X104751200Y-90719200D02*
X102820800Y-90719200D01*
X102820800Y-88280800D01*
X104751200Y-88280800D01*
X104751200Y-90719200D01*
G36*
X104751200Y-90719200D02*
G01*
X102820800Y-90719200D01*
X102820800Y-88280800D01*
X104751200Y-88280800D01*
X104751200Y-90719200D01*
G37*
D14*
X116531700Y-136430700D03*
D15*
X116531700Y-138970700D03*
D14*
X119071700Y-136430700D03*
X119071700Y-138970700D03*
D16*
X121611700Y-136430700D03*
X121611700Y-138970700D03*
D17*
X119000000Y-89500000D03*
D18*
X114428000Y-89500000D03*
D19*
X103489000Y-83312000D03*
X101489000Y-83312000D03*
D17*
X103786000Y-89500000D03*
D18*
X99214000Y-89500000D03*
D20*
X112411000Y-83439000D03*
X114411000Y-83439000D03*
M02*
