<?xml version="1.0" encoding="utf-8"?>
<!-- Generator: Adobe Illustrator 16.0.0, SVG Export Plug-In . SVG Version: 6.00 Build 0)  -->
<!DOCTYPE svg PUBLIC "-//W3C//DTD SVG 1.1//EN" "http://www.w3.org/Graphics/SVG/1.1/DTD/svg11.dtd">
<svg version="1.1" id="Jigglebilly_Stamp" xmlns="http://www.w3.org/2000/svg" xmlns:xlink="http://www.w3.org/1999/xlink" x="0px"
	 y="0px" width="283.46px" height="283.46px" viewBox="0 0 283.46 283.46" enable-background="new 0 0 283.46 283.46"
	 xml:space="preserve">
<g id="Solder_Mask_1_">
	<path id="Solder_Mask_2_" fill="#FFFFFF" d="M0,0v283.46h283.46V0H0z M257.29,59.81c-0.649,2.75-1.46,5.26-2.439,7.44
		c-4.93,11.25-12.16,21.2-21.46,29.58c-4.891,4.41-10.63,8.23-17.05,11.36c-4.37,2.11-8.641,3.96-12.681,5.5
		c-0.279,0.1-0.55,0.16-0.81,0.22c-0.14,0.03-0.36,0.07-0.43,0.11c0,0.01,0,0.06-0.03,0.16c-0.71,5.31-3.66,9.51-9.03,12.85
		c-1.7,1.06-3.08,2.09-4.1,3.06c-2.351,2.22-3.511,4.03-4.42,6.91c-0.471,1.51-0.9,2.48-1.351,3.06c-1.09,1.42-2.96,2.3-4.89,2.3
		c-0.19,0.021-0.4-0.01-0.601-0.03c-0.119,2.341,0.101,4.71,0.65,7.07l0.87,6.271c0.71,4.069,0.45,8.04-0.79,11.76l-0.09,0.189
		l-1.8,3.08c-0.25,0.55-1.141,2.12-1.62,2.65c-0.8,0.88-1.51,1.939-2.12,3.16l-0.061,0.1c0,0.01,0,0.021-0.01,0.03l-0.02,0.04
		c-0.44,0.819-0.8,1.64-1.13,2.569c-0.141,0.37-0.271,0.73-0.37,1.101l-0.061,0.229l-0.17,0.181c-0.42,0.56-0.91,0.68-1.24,0.68
		c-0.279,0-0.689-0.09-1.1-0.5c-0.28,0.74-0.54,1.47-0.76,2.2c-0.3,0.979-0.69,1.939-1.17,2.87c-0.771,1.51-1.58,3.06-2.42,4.66
		c-0.5,0.939-1.07,1.89-1.71,2.819c-0.601,0.891-1.19,1.771-1.78,2.65c-0.01,0.02-0.3,0.37-0.771,0.939
		c-1.689,2.061-6.199,7.54-7.569,9.44c-0.931,1.29-1.87,2.56-2.811,3.83c-1.35,1.8-2.27,3.649-3.25,5.61l-0.33,0.68
		c-0.649,1.3-2.149,1.84-3.47,1.24c-0.31-0.141-0.56-0.37-0.73-0.66c-0.49,0.99-0.99,1.899-1.49,2.7
		c-0.29,0.46-0.56,0.93-0.82,1.399c-0.28,0.53-0.6,1.05-0.96,1.53c-2.34,3.14-4.98,5.95-7.87,8.36c-0.7,0.59-1.48,0.979-2.24,1.359
		c-0.36,0.18-0.72,0.37-1.08,0.57c-0.46,0.27-1.01,0.31-1.61,0.13c-1.97,2.8-4.07,5.58-6.24,8.27c-0.96,1.181-1.96,2.32-2.99,3.4
		c-0.34,0.34-0.6,0.75-0.77,1.21l-1.98,5.311c-0.35,0.909-1.44,1.409-2.35,1.06c-0.43-0.16-0.77-0.47-0.98-0.87
		c-0.39-0.76-0.78-1.55-1.15-2.37l-0.08,2.38c-0.07,2.23,0.02,5.23,0.29,8.92c0.15,2.051,0,5.83-2.66,8.061
		c-0.24,0.2-0.54,0.31-0.84,0.31c-0.39,0-0.76-0.18-1.01-0.479c-0.11-0.13-0.19-0.28-0.24-0.431c-0.26-0.81-0.68-1.56-1.24-2.239
		c-0.19-0.23-0.4-0.45-0.62-0.66c-0.17-0.16-0.38-0.47-1.32-1.83c-0.83-1.21-1.96-2.87-2.44-3.4c-1.79-2-3.56-4.04-5.27-6.069
		c-1.4-1.65-2.42-3.19-3.02-4.58c-1.2-2.721-1.91-5.9-2.12-9.45l0.01-5c-0.33,0.7-1.22,1.03-1.93,0.71
		c-0.26-0.12-0.48-0.31-0.63-0.56c-1.38-2.131-2.07-4.131-2.11-6.101c-0.01-0.7-0.17-1.41-0.35-2.16
		c-0.25-1.06-0.53-2.27-0.39-3.609c0.17-1.46,0.23-2.87,0.18-4.19c0-0.05-0.06-0.52-1-2.34c-0.59-1.14-0.94-2.82-1.09-5.14
		l-0.15-5.311c-0.01-0.12,0.05-1.78,0.1-2.66c0-0.06,0.01-0.109,0.01-0.16c-0.23,0.131-0.48,0.221-0.76,0.221
		c-0.32,0-1.35-0.13-1.4-1.82l-0.02-0.17c-0.38-3.47-0.99-9.771-0.75-13.05c0.13-1.83,0.4-3.65,0.8-5.391l0.32-2.39
		c0.68-3.01,1.45-6.05,2.26-8.97c0.25-0.86,0.62-1.681,0.98-2.46c0.35-0.761,0.71-1.54,0.93-2.33l0.06-0.2l0.13-0.16
		c0.01-0.01,0.02-0.02,0.03-0.04c-0.11,0.03-0.23,0.05-0.34,0.07c-0.18,0.02-0.32,0.03-0.44,0.03c-0.4,0-0.75-0.08-1.04-0.25
		c-0.31-0.16-0.81-0.58-0.82-1.54v-1.28c0.21-2.28,0.29-4.53,0.24-6.76c-0.05-2.28,0.24-4.271,0.6-6.301l-6.1,1.58l-11.5,3.17
		c-1.93,0.271-3.74,0.891-5.47,1.87l-0.13,0.061c-2.12,0.819-3.73,2.45-4.94,5l-0.17,0.26c-2.03,2.16-2.78,3.33-3.05,3.92
		c-0.71,1.54-1.52,3.09-2.42,4.62l-0.08,0.11c-0.08,0.109-0.12,0.149-0.15,0.199c-0.03,0.051-0.05,0.101-0.08,0.15l0.02,0.03
		L48.2,172c-0.04,0.08-0.2,0.45-0.3,0.681l-0.31,0.51l-0.41,0.29c-0.2,0.12-0.41,0.24-0.62,0.35l-0.28,0.12l-0.25,0.07l-0.11-0.03
		l-0.21,0.03l-0.23-0.03c-1.14-0.16-1.84-0.819-2.27-1.3l-0.16-0.17l-0.06-0.22c-0.03-0.08-0.06-0.17-0.1-0.25l-0.07-0.15
		l-0.01-0.18c-0.08-0.98,0.25-2.01,0.99-3.05c2.29-3.25,5-6.521,8.06-9.75c-1.15,0.18-2.43,0.25-3.88,0.189
		c-5.62,0.41-11.23,1.19-16.67,2.311c-0.98,0.199-1.79,0.1-2.42-0.301c-1.02-0.649-1.51-1.68-1.31-2.75
		c0.22-1.149,1.18-2.06,2.47-2.319c2.83-0.58,5.45-1.12,8.33-1.42c2.66-0.271,5.35-0.58,8.02-0.91c1.34-0.16,2.74-0.19,4.09-0.221
		c1.09-0.01,2.21-0.039,3.3-0.13c0.56-0.05,1.11,0.061,1.61,0.16c0.63,0.13,1.21,0.21,1.75,0.04c0.59-0.189,1.16-0.41,1.74-0.64
		c0.9-0.351,1.84-0.71,2.84-0.95c0.72-0.17,1.43-0.35,2.15-0.55c1-0.26,1.82-0.521,2.44-0.79l0.21-0.07
		c1.29-0.24,2.56-0.609,3.76-1.07l0.26-0.069c0.14-0.021,0.39-0.061,0.86-0.181c3.98-1.02,7.9-1.88,11.66-2.55
		c0.6-3.239,2.16-6.81,4.88-11.21c0.16-0.27,0.4-0.66,0.66-1.09c-0.79-0.36-1.59-0.83-2.38-1.45c-0.82-0.64-1.57-1.59-2.31-2.91
		c-0.75-1.33-1.33-2.54-1.72-3.57l-1.02-2.67c-0.19-0.48-0.27-0.94-0.35-1.35c-0.06-0.33-0.12-0.63-0.21-0.9
		c-0.19-0.5-0.41-0.8-0.68-0.89c-0.59-0.22-1.16-0.45-1.73-0.7c-0.29-0.13-0.56-0.28-0.79-0.46c-0.08-0.06-0.17-0.11-0.27-0.14
		c-0.42-0.13-0.81-0.29-1.19-0.48c-2.85-1.42-5.37-3.83-7.31-6.97c-1.18-1.93-1.88-4.06-2.07-6.34c-0.05-0.55-0.07-1.4-0.05-2.58
		c0.01-0.97,0.08-1.84,0.21-2.61c0.02-0.13,0.05-0.25,0.07-0.38c-2.06-1.43-4.09-2.96-6.05-4.61c-1.78-1.49-3.72-3.19-5.79-5.04
		c-7.22-6.49-13.28-14-18.03-22.32c-2.89-5.09-4.99-10.52-6.23-16.12c-0.2-0.88-0.33-2.12-0.41-3.77
		c-0.19-4.39,1.13-8.15,4.04-11.49c5.92-6.81,13.06-11.89,21.23-15.11c7.99-3.14,16.92-5.04,27.33-5.78
		c5.74-0.41,12.49-0.56,20.12-0.44c3.79,0.05,7.73,0.5,11.4,1.3c0.83,0.18,1.67,0.34,2.5,0.5c1.6,0.3,3.24,0.62,4.77,1.07
		c5.04,1.5,10.15,3.49,15.19,5.94c2.64-4.65,7.39-9.97,12.331-9.97c0.35,0,0.689,0.03,1.029,0.08c1.45,0.21,2.99,0.79,4.58,1.71
		c2,1.16,4.351,2.72,6.99,4.65c1.79,1.3,3.67,2.33,5.6,3.05c1.271,0.57,1.721,0.68,1.851,0.7c3,0.47,5.09,0.67,6.2,0.59
		c4.729-0.34,8.689-1.15,11.779-2.43c0.431-0.17,0.86-0.36,1.311-0.55c2.14-0.92,4.569-1.96,6.79-2.02h0.3
		c3.91,0,6.89,1.87,8.85,5.55c1.63,3.06,2.09,6.08,2.37,9.37l1.43-0.5c3.9-1.23,6.79-1.92,8.87-2.11c0.91-0.08,1.82-0.17,2.73-0.26
		c3.229-0.33,6.57-0.66,9.72-0.55c6.28,0.23,13.54,0.89,19.73,4.01c3.649,1.83,6.189,4.95,7.58,9.27
		C258.47,49.6,258.6,54.68,257.29,59.81z"/>
	<path id="Solder_Mask_Reference" display="none" fill="#FFFFFF" d="M256.919,44.72c-1.39-4.32-3.93-7.44-7.58-9.27
		c-6.188-3.12-13.449-3.78-19.729-4.01c-3.15-0.11-6.49,0.22-9.721,0.55c-0.909,0.09-1.819,0.18-2.729,0.26
		c-2.08,0.19-4.971,0.88-8.871,2.11l-1.43,0.5c-0.279-3.29-0.74-6.31-2.369-9.37c-1.961-3.68-4.94-5.55-8.852-5.55h-0.301
		c-2.219,0.06-4.648,1.1-6.789,2.02c-0.45,0.19-0.881,0.38-1.311,0.55c-3.09,1.28-7.05,2.09-11.779,2.43
		c-1.11,0.08-3.2-0.12-6.2-0.59c-0.13-0.02-0.58-0.13-1.851-0.7c-1.93-0.72-3.811-1.75-5.601-3.05c-2.64-1.93-4.989-3.49-6.989-4.65
		c-1.59-0.92-3.131-1.5-4.58-1.71c-0.34-0.05-0.68-0.08-1.029-0.08c-4.94,0-9.69,5.32-12.331,9.97c-5.04-2.45-10.15-4.44-15.19-5.94
		c-1.53-0.45-3.17-0.77-4.77-1.07c-0.83-0.16-1.67-0.32-2.5-0.5c-3.67-0.8-7.61-1.25-11.4-1.3c-7.63-0.12-14.38,0.03-20.12,0.44
		c-10.41,0.74-19.34,2.64-27.33,5.78c-8.17,3.22-15.31,8.3-21.23,15.11c-2.91,3.34-4.23,7.1-4.04,11.49
		c0.08,1.65,0.21,2.89,0.41,3.77c1.24,5.6,3.34,11.03,6.23,16.12c4.75,8.32,10.81,15.83,18.03,22.32c2.07,1.85,4.01,3.55,5.79,5.04
		c1.964,1.65,3.986,3.183,6.055,4.615c-0.024,0.124-0.054,0.245-0.075,0.37c-0.128,0.771-0.2,1.65-0.212,2.612
		c-0.017,1.187-0.001,2.032,0.047,2.581c0.195,2.284,0.895,4.417,2.08,6.341c1.931,3.138,4.457,5.548,7.309,6.972
		c0.373,0.185,0.768,0.344,1.184,0.477c0.099,0.03,0.188,0.077,0.271,0.142c0.231,0.179,0.498,0.335,0.788,0.462
		c0.569,0.251,1.146,0.482,1.734,0.696c0.266,0.096,0.493,0.395,0.675,0.89c0.099,0.269,0.156,0.576,0.215,0.902
		c0.075,0.407,0.16,0.869,0.345,1.348l1.022,2.674c0.394,1.032,0.973,2.233,1.722,3.57c0.737,1.314,1.494,2.267,2.314,2.911
		c0.788,0.618,1.582,1.089,2.375,1.443c-0.261,0.436-0.494,0.824-0.659,1.093c-2.72,4.4-4.28,7.971-4.88,11.211
		c-3.76,0.67-7.68,1.529-11.66,2.549c-0.47,0.121-0.72,0.16-0.86,0.181l-0.26,0.069c-1.2,0.461-2.47,0.83-3.76,1.07l-0.21,0.07
		c-0.62,0.27-1.44,0.529-2.44,0.789c-0.72,0.199-1.43,0.381-2.15,0.551c-1,0.24-1.94,0.6-2.84,0.949
		c-0.58,0.23-1.15,0.449-1.74,0.641c-0.54,0.17-1.12,0.09-1.75-0.04c-0.5-0.101-1.05-0.21-1.61-0.159
		c-1.09,0.09-2.21,0.119-3.3,0.129c-1.35,0.03-2.75,0.061-4.09,0.221c-2.67,0.33-5.36,0.641-8.02,0.91c-2.88,0.3-5.5,0.84-8.33,1.42
		c-1.29,0.26-2.25,1.17-2.47,2.32c-0.2,1.069,0.29,2.1,1.31,2.75c0.63,0.398,1.44,0.5,2.42,0.299c5.44-1.119,11.05-1.899,16.67-2.31
		c1.45,0.06,2.73-0.011,3.88-0.19c-3.06,3.23-5.77,6.5-8.06,9.75c-0.74,1.041-1.07,2.07-0.99,3.051l0.01,0.181l0.07,0.149
		c0.04,0.08,0.07,0.17,0.1,0.25l0.06,0.22l0.16,0.171c0.43,0.479,1.13,1.141,2.27,1.301l0.23,0.028l0.21-0.028l0.11,0.028
		l0.25-0.069l0.28-0.119c0.21-0.11,0.42-0.23,0.62-0.351l0.41-0.29l0.31-0.511c0.1-0.229,0.26-0.601,0.3-0.681l0.23-0.529
		l-0.02-0.029c0.03-0.051,0.05-0.101,0.08-0.15c0.03-0.049,0.07-0.09,0.15-0.199l0.08-0.109c0.9-1.529,1.71-3.08,2.42-4.619
		c0.27-0.592,1.02-1.762,3.05-3.921l0.17-0.261c1.21-2.55,2.82-4.18,4.94-5l0.13-0.061c1.73-0.979,3.54-1.601,5.47-1.869l11.5-3.17
		l6.1-1.58c-0.36,2.029-0.65,4.02-0.6,6.3c0.05,2.229-0.03,4.479-0.24,6.76v1.28c0.01,0.96,0.51,1.38,0.82,1.54
		c0.29,0.17,0.64,0.25,1.04,0.25c0.12,0,0.26-0.011,0.44-0.03c0.11-0.02,0.23-0.04,0.34-0.068c-0.01,0.02-0.02,0.028-0.03,0.039
		l-0.13,0.16l-0.06,0.199c-0.22,0.79-0.58,1.57-0.93,2.33c-0.36,0.779-0.73,1.602-0.98,2.46c-0.81,2.92-1.58,5.96-2.26,8.971
		l-0.32,2.39c-0.4,1.74-0.67,3.561-0.8,5.391c-0.24,3.279,0.37,9.58,0.75,13.05l0.02,0.171c0.05,1.689,1.08,1.819,1.4,1.819
		c0.28,0,0.53-0.09,0.76-0.22c0,0.05-0.01,0.1-0.01,0.16c-0.05,0.879-0.11,2.539-0.1,2.66l0.15,5.31c0.15,2.319,0.5,4,1.09,5.14
		c0.94,1.82,1,2.29,1,2.342c0.05,1.318-0.01,2.729-0.18,4.188c-0.14,1.34,0.14,2.55,0.39,3.61c0.18,0.75,0.34,1.459,0.35,2.16
		c0.04,1.969,0.73,3.969,2.11,6.1c0.15,0.25,0.37,0.439,0.63,0.56c0.71,0.32,1.6-0.01,1.93-0.71l-0.01,5
		c0.21,3.551,0.92,6.73,2.12,9.45c0.6,1.392,1.62,2.931,3.02,4.58c1.71,2.03,3.48,4.069,5.27,6.069c0.48,0.53,1.61,2.189,2.44,3.399
		c0.94,1.36,1.15,1.671,1.32,1.83c0.22,0.21,0.43,0.431,0.62,0.66c0.56,0.681,0.98,1.431,1.24,2.239
		c0.05,0.15,0.13,0.301,0.24,0.431c0.25,0.3,0.62,0.479,1.01,0.479c0.3,0,0.6-0.109,0.84-0.311c2.66-2.229,2.81-6.01,2.66-8.061
		c-0.27-3.689-0.36-6.689-0.29-8.92l0.08-2.379c0.37,0.818,0.76,1.608,1.15,2.369c0.21,0.399,0.55,0.71,0.98,0.869
		c0.91,0.352,2-0.148,2.35-1.061l1.98-5.31c0.17-0.46,0.43-0.87,0.77-1.21c1.03-1.08,2.03-2.221,2.99-3.4
		c2.17-2.689,4.27-5.47,6.24-8.271c0.6,0.181,1.15,0.142,1.61-0.13c0.36-0.199,0.72-0.391,1.08-0.569
		c0.76-0.38,1.54-0.771,2.24-1.36c2.89-2.409,5.53-5.219,7.87-8.359c0.36-0.479,0.68-1,0.96-1.529c0.26-0.471,0.53-0.939,0.82-1.4
		c0.5-0.799,1-1.709,1.49-2.699c0.169,0.29,0.419,0.521,0.73,0.66c1.321,0.601,2.821,0.061,3.471-1.24l0.33-0.68
		c0.979-1.961,1.898-3.811,3.25-5.61c0.939-1.271,1.879-2.54,2.81-3.83c1.37-1.899,5.88-7.38,7.569-9.438
		c0.471-0.57,0.76-0.92,0.771-0.94c0.591-0.88,1.181-1.76,1.78-2.649c0.64-0.931,1.209-1.88,1.709-2.82
		c0.841-1.6,1.65-3.149,2.421-4.659c0.479-0.931,0.87-1.89,1.17-2.87c0.221-0.729,0.479-1.46,0.761-2.199
		c0.409,0.409,0.819,0.5,1.1,0.5c0.33,0,0.82-0.119,1.24-0.681l0.17-0.181l0.061-0.229c0.101-0.369,0.23-0.729,0.369-1.101
		c0.33-0.93,0.69-1.75,1.131-2.569l0.021-0.04c0.01-0.01,0.01-0.02,0.01-0.029l0.06-0.101c0.61-1.22,1.319-2.279,2.12-3.16
		c0.48-0.528,1.369-2.101,1.619-2.649l1.801-3.08l0.091-0.189c1.239-3.721,1.5-7.689,0.789-11.76l-0.869-6.271
		c-0.551-2.36-0.771-4.729-0.649-7.069c0.199,0.02,0.41,0.05,0.6,0.029c1.932,0,3.801-0.88,4.891-2.3
		c0.45-0.58,0.881-1.55,1.351-3.06c0.909-2.88,2.062-4.69,4.42-6.91c1.021-0.97,2.399-2,4.101-3.06
		c5.37-3.34,8.319-7.54,9.029-12.85c0.021-0.1,0.029-0.15,0.029-0.16c0.07-0.04,0.291-0.08,0.431-0.11
		c0.261-0.06,0.53-0.12,0.802-0.22c4.049-1.54,8.318-3.39,12.68-5.5c6.42-3.13,12.16-6.95,17.05-11.36
		c9.3-8.38,16.53-18.33,21.47-29.58c0.971-2.18,1.78-4.69,2.432-7.44C258.6,54.68,258.47,49.6,256.919,44.72z"/>
</g>
<g id="Silk_Screen_1_">
	<path d="M113.555,224.104c-0.115-0.39-0.375-0.711-0.804-0.942c-0.714-0.387-1.674-0.102-2.06,0.608l-2.255,4.155
		c-0.193,0.355-0.237,0.767-0.121,1.154c0.115,0.391,0.375,0.711,0.803,0.942c0.222,0.12,0.472,0.185,0.724,0.185
		c0.558,0,1.07-0.306,1.336-0.795l2.255-4.152C113.626,224.903,113.67,224.494,113.555,224.104z"/>
	<path d="M134.949,195.621l-0.146-0.007c-0.169,0-0.339,0.027-0.495,0.077c-0.577,0.176-0.99,0.7-1.028,1.296
		c-0.234,3.29-1.049,6.54-2.424,9.659c-0.233,0.527-0.341,1.037-0.321,1.516c0.032,0.762,0.563,1.305,1.311,1.346l0.112,0.005
		c0.621,0,1.181-0.347,1.464-0.908c1.671-3.38,2.657-7.197,2.932-11.345C136.415,196.362,135.831,195.688,134.949,195.621z"/>
	<path d="M102.002,198.933c-0.209-0.314-0.563-0.502-0.947-0.502c-0.413,0-0.829,0.199-1.435,0.689
		c-0.549,0.444-1.102,0.976-1.652,1.588c0.419-1.78,1.081-3.742,1.979-5.86c0.131-0.31,0.403-0.955,0.031-1.517l-0.375-0.483h-0.537
		c-0.421,0-0.773,0.224-1.094,0.467c-0.662,0.505-1.176,1.287-1.527,2.322l-0.271,0.786c-0.86,2.478-1.93,5.56-1.517,8.253
		c0.203,1.321,0.741,1.991,1.599,1.991c0.262,0,0.498-0.072,0.71-0.19c-0.576,3.349-0.651,6.825-0.222,10.37
		c0.083,0.67,0.602,1.137,1.262,1.137l0.391-0.035c0.675-0.078,1.137-0.588,1.15-1.267c0.017-0.89,0.004-1.786-0.008-2.683
		c-0.022-1.551-0.042-3.016,0.086-4.435c0.26-2.849,1.02-5.789,2.258-8.737C102.143,200.214,102.387,199.512,102.002,198.933z"/>
	<path d="M95.537,161.941l-0.386-0.419h-0.483c-0.521,0-0.92,0.338-1.273,0.701c-2.838,2.905-4.692,6.466-5.513,10.596
		c-0.089,0.481,0.074,0.802,0.227,0.985l0.35,0.381h0.469c0.212,0,0.417-0.059,0.625-0.178c0.676-0.387,1.208-1.063,1.629-2.071
		c0.161-0.388,0.316-0.78,0.472-1.176c0.518-1.313,1.053-2.673,1.803-3.742c0.189-0.271,0.414-0.539,0.641-0.813
		c0.631-0.763,1.348-1.627,1.604-2.722C95.82,162.974,95.894,162.391,95.537,161.941z"/>
	<path d="M93.547,157.021l-0.893,0.035l-0.664,1.109c-2.365,3.986-2.197,4.574-2.106,4.891l0.131,0.41l0.546,0.33l0.209,0.209
		l0.436,0.006c0.477,0,1.017,0,3.532-4.237l0.385-0.649l0.418-0.933L93.547,157.021z"/>
	<path d="M164.384,157.47c-0.131-0.799-0.739-1.32-1.559-1.327h-0.16c-0.545,0-0.871,0.239-1.049,0.44s-0.375,0.555-0.309,1.086
		c0.46,3.897,0.09,7.942-1.102,12.037c-0.062-0.037-0.123-0.069-0.188-0.1c-0.962-0.438-2.167,0.02-2.603,0.975
		c-0.754,1.647-1.552,3.297-2.371,4.902c-1.068,2.096-1.815,4.155-2.605,6.337c-0.295,0.813-0.592,1.632-0.904,2.451
		c-0.068,0.171-0.098,0.358-0.084,0.543c0.045,0.647,0.588,1.156,1.236,1.156l0.303-0.021c0.665-0.049,1.24-0.459,1.499-1.063
		l4.71-10.762c0.641,0.584,1.7,0.584,2.352-0.029c0.552-0.535,0.984-1.211,1.287-2.01
		C164.634,167.305,165.154,162.388,164.384,157.47z"/>
	<path d="M144.91,152.649c-0.213-0.214-0.498-0.331-0.799-0.331l-0.387,0.021l-0.258,0.182c-1.919,1.341-3.751,2.453-5.431,3.309
		c-1.058-0.443-2.147-0.539-3.436-0.322c-0.574-0.262-1.092-0.389-1.583-0.389c-0.653,0-1.805,0.246-2.41,1.832l-0.993-0.013
		c-0.606,0-1.174,0.296-1.518,0.791c-0.14,0.199-0.282,0.328-0.364,0.328c-0.336,0-1.011-0.664-1.374-1.021l-0.306-0.298
		c-0.596-0.563-1.598-0.599-2.225-0.092c-0.171,0.138-0.37,0.239-0.543,0.304c-0.347-0.195-0.691-0.412-1.032-0.646
		c-0.6-0.405-1.296-0.398-1.806-0.016c-0.443,0.332-0.532,0.739-0.545,0.955c-0.013,0.215,0.024,0.631,0.422,1.014
		c1.397,1.352,2.91,1.734,4.285,1.154c0.073,0.057,0.146,0.112,0.22,0.17c0.84,0.651,1.793,1.391,3.112,1.391
		c0.142,0,0.288-0.01,0.419-0.025c0.433-0.047,0.841-0.246,1.148-0.558c0.47-0.476,1.029-0.72,1.716-0.747
		c0.506-0.021,0.944-0.238,1.269-0.626l0.793-0.951c0.59,0.12,1.184,0.181,1.77,0.181h0.159c0.884,0,1.431,0.162,2.259,0.406
		l0.281,0.083c0.346,0.095,0.727,0.074,1.049-0.05c1.852-0.689,3.703-1.727,5.5-3.079c0.457-0.343,0.789-0.79,0.986-1.33
		C145.507,153.684,145.357,153.067,144.91,152.649z"/>
	<path d="M120.37,153.896l-1.922-1.982c-0.536-0.555-1.488-0.582-2.07-0.02c-0.575,0.559-0.589,1.479-0.032,2.053l1.924,1.985
		c0.272,0.28,0.652,0.44,1.043,0.44c0.379,0,0.737-0.145,1.025-0.424C120.912,155.393,120.926,154.472,120.37,153.896z"/>
	<path d="M169.453,153.484c-0.048-0.503-0.238-0.953-0.56-1.326c-0.417-0.496-1.019-0.707-1.628-0.561
		c-0.654,0.156-1.063,0.816-0.907,1.477c0.306,1.279,0.11,2.807-0.579,4.536c-0.251,0.631-0.054,1.07,0.086,1.276
		c0.137,0.201,0.465,0.542,1.112,0.542l0.271-0.009c0.732-0.051,1.307-0.443,1.612-1.109
		C169.44,157.053,169.639,155.428,169.453,153.484z"/>
	<path d="M197.526,110.432l-0.045-0.199c-0.128-0.576-0.629-0.978-1.224-0.978c-5.412,0.029-10.375,2.145-13.616,5.803
		c-0.499,0.563-0.812,1.177-0.929,1.821l-0.022,0.213c-0.013,0.38,0.123,0.741,0.383,1.019c0.261,0.278,0.612,0.437,0.988,0.449
		l0.224,0.004c0.17,0,0.334-0.006,0.493-0.013c0.126-0.005,0.25-0.01,0.372-0.01c0.337,0,0.53,0.045,0.734,0.172
		c0.64,0.397,1.222,1.016,0.703,2.597c-0.701,2.157-1.522,4.034-2.442,5.579c-0.341,0.575-0.205,1.324,0.313,1.738
		c0.269,0.218,0.59,0.334,0.93,0.334c0.505,0,0.994-0.246,1.486-0.744c0.111-0.11,0.207-0.235,0.271-0.348
		c1.528-2.568,2.897-5.109,2.849-7.961c-0.039-2.339-1.473-3.067-2.633-3.646c1.725-1.986,3.825-3.17,6.398-3.612
		c1.258-0.215,2.476-0.413,3.725-0.606c0.354-0.073,0.657-0.28,0.855-0.583C197.537,111.157,197.604,110.796,197.526,110.432z"/>
	<path d="M80.129,53.638c-0.249-0.626-0.85-0.837-1.52-0.479c-0.395,0.208-0.757,0.443-1.075,0.698
		c-1.983,1.579-4.074,3.346-6.217,5.253c-0.978,0.872-1.683,1.571-2.155,2.136c-0.162,0.19-0.271,0.192-0.307,0.192
		c-0.076-0.002-0.165-0.031-0.265-0.087l-2.376-1.36c-0.039-0.022-0.067-0.042-0.088-0.058c0.018-0.021,0.043-0.046,0.077-0.076
		l0.318-0.275c0.805-0.69,1.906-1.635,2.029-2.75c0.02-0.149-0.006-0.298-0.072-0.429c-0.179-0.358-0.645-0.514-0.999-0.337
		c-1.117,0.549-2.09,1.414-2.891,2.566c-0.257,0.366-0.766,0.501-1.167,0.301c-0.987-0.488-2.073-0.812-3.229-0.962
		c-0.58-0.08-1.011,0.182-1.231,0.673c-0.044,0.089-0.077,0.185-0.09,0.261c-0.115,0.48,0.166,0.964,0.634,1.099l2.839,0.864
		c0.009,0.002,0.018,0.005,0.025,0.008c-0.005,0.006-0.011,0.013-0.017,0.02l-2.063,2.418c-0.332,0.384-0.462,0.247-0.678,0.155
		c-0.89-0.381-1.864-0.575-2.894-0.575c-0.404,0-0.713,0.229-0.827,0.609c-0.167,0.54,0.086,1.013,0.68,1.266
		c0.667,0.279,1.33,0.468,1.942,0.514l-0.451,1.06c-0.137,0.315-0.076,0.549-0.001,0.689c0.075,0.14,0.234,0.32,0.566,0.381
		c0.93,0.184,1.398-0.447,1.759-0.93c0.434-0.581,0.675-0.768,1.309-0.491c0.713,0.314,1.106,0.227,1.304-0.127
		c0.198-0.354,0.003-0.762-0.214-1.116c-0.126-0.206-0.24-0.421-0.34-0.647c0.85-0.852,1.535-1.672,2.036-2.436
		c0.045-0.068,0.076-0.088,0.076-0.09c0.007,0,0.044,0.005,0.117,0.047l2.744,1.585c-1.315,1.37-2.628,2.917-3.906,4.6
		c-0.215,0.285-0.403,0.584-0.559,0.89c-0.253,0.495-0.17,0.979,0.28,1.371c0.189,0.145,0.415,0.221,0.652,0.221
		c0.339,0,0.65-0.154,0.854-0.421c4.175-5.415,9.257-10.51,15.107-15.146C80.167,54.462,80.283,54.015,80.129,53.638z"/>
	<path d="M72.568,96.709c-0.277,0.436-0.553,0.93-0.821,1.473c-0.263,0.534-0.467,1.121-0.606,1.744
		c-0.282,1.246-0.395,2.681-0.333,4.265c0.048,1.263,0.373,2.597,0.964,3.965c1.747,4.042,4.891,6.74,9.293,8.005l1.351,0.471
		l1.361,0.277l0.124,0.016c0.735,0.05,1.478,0.076,2.208,0.076l0,0c0.972,0,1.955-0.045,2.972-0.141l1.867-0.273l1.685-0.428
		c1.845-0.568,3.587-1.571,5.177-2.981c1.831-1.624,3.273-3.47,4.286-5.488c0.176-0.349,0.393-0.937,0.702-1.919
		c0.421-1.753,0.53-3.505,0.324-5.207c-0.217-1.796-1.1-3.761-2.698-6.005c-0.897-1.258-2.141-2.399-3.695-3.392l-0.107-0.06
		c-0.234-0.112-0.722-0.38-1.464-0.805c-1.56-0.89-3.412-1.388-5.484-1.48c-2.548-0.168-5.087,0.051-7.56,0.651
		c-1.49,0.36-2.844,0.94-4.024,1.726C75.766,92.746,73.908,94.6,72.568,96.709z M98.381,107.634
		c-0.171,0.276-0.346,0.552-0.524,0.825c-0.155,0.237-0.332,0.464-0.525,0.674c-0.829,0.898-1.807,1.779-2.906,2.617
		c-0.17,0.13-0.35,0.248-0.536,0.354c-0.069,0.04-0.292,0.16-0.679,0.369c-0.772,0.416-1.631,0.632-2.615,0.647
		c-2.104,0.152-4.222-0.211-6.638-1.115c-1.243-0.466-2.212-0.963-2.881-1.478c-1.977-1.521-3.273-3.739-3.383-5.791
		c-0.115-2.18,0.139-3.741,0.802-4.914c0.484-0.86,1.14-1.788,1.949-2.758c0.755-0.904,1.683-1.484,2.841-2.076
		c0.259-0.132,3.005-1.492,3.125-1.552c0.904-0.292,1.839-0.484,2.855-0.579c0.742-0.079,1.383-0.148,1.979-0.148
		c0.83,0,1.471,0.142,2.078,0.459c0.227,0.119,0.46,0.228,0.693,0.337c0.354,0.165,0.689,0.321,0.977,0.507
		c2.473,1.595,3.831,4.239,4.535,6.176c0.188,0.517,0.297,1.117,0.327,1.784C99.944,104.002,99.447,105.907,98.381,107.634z"/>
	<path d="M117.961,112.222c0.974,1.011,2.052,1.821,3.233,2.422c1.832,0.862,3.695,1.519,5.534,1.951
		c0.454,0.107,0.982,0.177,1.57,0.206l0.03,0.002l4.39-0.046l2.051-0.29c2.484-0.554,4.737-1.759,6.698-3.582l0.824-0.932
		c2.273-2.453,3.623-5.005,4.258-8.119c0.166-1.434,0.137-2.717-0.09-3.815c-0.571-2.782-1.849-5.175-3.793-7.114
		c-0.741-0.739-1.692-1.495-2.901-2.291l-1.057-0.577l-0.686-0.324c-2.549-0.967-5.231-1.393-7.979-1.279
		c-6.575,0.278-12.242,3.892-14.789,9.43c-0.462,1.004-0.786,2.15-0.964,3.428c-0.354,3.014,0.202,5.806,1.649,8.3
		C116.406,110.4,117.063,111.256,117.961,112.222z M142.298,106.247c-0.178,0.399-0.361,0.75-0.545,1.04
		c-1.36,2.138-3.083,3.828-5.119,5.025c-0.869,0.512-1.832,0.76-2.944,0.76c-0.101,0-0.203-0.002-0.254-0.002
		c-0.006,0-0.011,0-0.016,0c-2.378-0.28-4.698-0.905-6.895-1.859c-0.356-0.155-0.719-0.353-1.079-0.59l-0.195-0.127
		c-0.418-0.273-0.852-0.555-1.166-0.859c-0.909-0.879-1.647-1.905-2.196-3.052c-0.025-0.053-0.166-0.395-0.462-1.955l-0.027-0.108
		c-0.259-0.843-0.25-1.705,0.013-2.581c1.749-4.813,5.084-6.878,5.745-7.249l0.097-0.062c0.566-0.38,2.598-1.622,5.007-1.647
		l0.69,0.019h0.169c1.079,0,2.166,0.061,3.231,0.181c0.632,0.071,1.149,0.207,1.537,0.405c0.646,0.33,1.188,0.688,1.611,1.067
		c1.121,1,2.056,2.304,2.778,3.873c0.509,1.107,0.826,2.271,0.947,3.462C143.354,103.215,143.067,104.529,142.298,106.247z"/>
	<path d="M181.805,95.149c-0.583-5.229-1.336-10.54-2.229-15.738l-0.095-0.782c-0.276-2.001-0.487-3.416-0.627-4.207l-0.327-1.067
		c-0.07-0.155-0.148-0.307-0.236-0.454c-0.215-0.437-0.609-0.777-1.097-0.942c-0.241-0.081-0.61-0.098-0.628-0.099
		c-2.021-0.042-4.07-0.138-6.09-0.284c-1.479-0.106-2.848-0.199-4.104-0.275c-1.41-0.085-2.832-0.194-4.233-0.324l-4.155-0.356
		c-4.514-0.082-9.082-0.087-13.617-0.019l-0.146,0.001c-0.272,0-0.562-0.01-0.845-0.02c-0.299-0.01-0.594-0.02-0.867-0.02
		l-0.198,0.001c-1.924,0.039-4.662,0.123-8.215,0.251l-0.109,0.01c-0.208,0.028-1.929,0.16-2.104,0.17
		c-3.063,0.087-6.049,0.234-8.874,0.435c-1.369,0.096-2.746,0.261-4.076,0.419c-1.108,0.133-2.21,0.265-3.3,0.356
		c-2.784,0.234-5.71,0.611-8.698,1.121l-0.184,0.026c-1.548,0.22-1.609,0.233-1.681,0.25l-0.635,0.148
		c-1.279,0.25-2.559,0.496-3.84,0.739c-0.803,0.152-1.613,0.285-2.432,0.397l-2.522,0.345l-17.47,2.942l-1.442,0.208
		c-0.781,0.111-1.357,0.766-1.371,1.557c-0.042,2.556-0.074,5.096-0.095,7.624c-0.002,0.352-0.049,0.7-0.138,1.032
		c0,0-0.012,0.03-0.062,0.082c-0.11,0.112-0.218,0.228-0.325,0.348c-0.324,0.168-0.569,0.376-0.774,0.549
		c-0.089,0.075-0.176,0.151-0.276,0.222c-0.32,0.229-0.511,0.375-0.579,0.434c-1.116,0.986-2.152,2.064-3.056,3.178
		c-1.767,2.035-2.882,4.379-3.313,6.968c-0.128,0.771-0.2,1.65-0.212,2.612c-0.017,1.187-0.001,2.032,0.047,2.581
		c0.195,2.284,0.895,4.417,2.08,6.341c1.931,3.138,4.457,5.548,7.309,6.972c0.373,0.185,0.768,0.344,1.184,0.477
		c0.099,0.03,0.188,0.077,0.271,0.142c0.231,0.179,0.498,0.335,0.788,0.462c0.569,0.251,1.146,0.482,1.734,0.696
		c0.266,0.096,0.493,0.395,0.675,0.89c0.099,0.269,0.156,0.576,0.215,0.902c0.075,0.407,0.16,0.869,0.345,1.348l1.022,2.674
		c0.394,1.032,0.973,2.233,1.722,3.57c0.737,1.314,1.494,2.267,2.314,2.911c1.33,1.044,2.679,1.717,4.01,2
		c1.23,0.26,2.512,0.392,3.81,0.392c0.816,0,1.657-0.052,2.499-0.155c2.547-0.313,4.97-0.873,7.204-1.666
		c0.741-0.264,1.477-0.714,2.235-1.382c0.916-0.912,1.18-1.239,1.298-1.405c1.849-2.582,4.925-6.142,9.086-8.438
		c0.961-0.53,1.949-0.729,2.99-0.616c3.41,0.376,7.019,1.825,10.162,4.08c1.604,1.151,8.139,4.769,10.321,5.856l0.013,0.009
		c1.195,0.786,2.701,1.195,4.029,1.557l0.323,0.088c1.315,0.359,2.549,0.593,3.662,0.694l0.813,0.157
		c0.368,0.013,0.738,0.039,1.108,0.064c0.578,0.04,1.156,0.079,1.806,0.079c0.002,0,0.004,0,0.006,0
		c0.539-0.003,1.078-0.005,1.618-0.005l1.063-0.002c0.386-0.03,0.769-0.068,1.15-0.107c0.403-0.041,0.809-0.082,1.212-0.111
		l0.117-0.016c0.22-0.042,0.448-0.087,0.688-0.139c0.805-0.171,1.627-0.38,2.447-0.622c0.401-0.119,0.809-0.225,1.215-0.33
		c0.832-0.216,1.691-0.438,2.534-0.78c1.462-0.592,2.948-1.233,4.419-1.904c1.172-0.533,2.191-1.081,3.03-1.628
		c0.515-0.336,1.121-0.822,1.81-1.453c0.527-0.495,1.045-1.054,1.578-1.711l-0.049-0.04c1.65-1.465,4.608-6.381,4.729-6.718
		c1.011-2.826,1.731-5.488,2.207-8.136c0.513-2.845,0.851-5.292,0.834-7.995C182.199,99.866,182.068,97.507,181.805,95.149z
		 M175.839,116.684c-0.156,0.369-0.991,2.012-1.18,2.296c-1.328,2.009-2.64,3.745-3.896,5.162c-0.728,0.821-1.531,1.549-2.406,2.177
		c0.242-0.271,0.472-0.561,0.687-0.87c0.981-1.415,1.803-3.035,2.438-4.814c1.008-2.823,1.729-5.484,2.207-8.136
		c0.512-2.85,0.85-5.3,0.833-7.995c-0.019-2.708-0.147-5.066-0.411-7.423c-0.742-6.647-1.746-13.36-2.982-19.949
		c-0.024-0.127-0.039-0.262-0.047-0.402c0.07-0.008,0.138-0.015,0.192-0.021l0.231-0.025c0.697-0.086,1.373-0.213,1.882-0.313
		c0.886-0.174,1.659-0.341,2.364-0.514c0.093,0.568,0.178,1.132,0.256,1.693l0.021-0.003c0.02,0.439,0.104,1.063,0.227,1.958
		c0.166,1.208,0.398,2.875,0.656,4.718c0.715,5.112,1.692,12.113,1.789,13.395c0.313,4.117,0.2,7.983-0.328,11.492
		c-0.26,1.705-1.805,5.676-2.313,6.982C175.938,116.408,175.873,116.575,175.839,116.684z M138.779,127.384
		c0.081,0.006,0.159,0.02,0.241,0.02c0.943,0,1.868-0.457,2.476-1.223c1.067-1.347,0.9-3.263-0.373-4.271
		c-1.229-0.974-3.214-0.684-4.244,0.613c-0.932,1.177-0.921,2.79-0.054,3.851c-0.157-0.094-0.324-0.188-0.454-0.282
		c-2.611-1.882-4.788-3.38-6.47-4.455c-0.958-0.611-1.973-1.146-3.036-1.6c1.365,0.183,2.517,0.257,3.405,0.227
		c1.302-0.044,2.604-0.079,3.907-0.106l0.124,0.005c0.067,0,0.138-0.004,0.213-0.013c0.639-0.02,1.896-0.006,3.746,0.036
		c1.896,0.045,5.135-0.049,9.91-0.29c1.375-0.068,2.752-0.154,4.139-0.259c0.201-0.018,0.422-0.087,0.793-0.248
		c0.021-0.008,0.044-0.019,0.068-0.028c0.762,0.067,1.416-0.072,1.959-0.411c1.463-0.911,2.783-1.911,3.928-2.972
		c0.738-0.684,1.646-1.606,2.744-2.794l0.41-0.499c0.809-0.979,1.726-2.089,2.187-3.288c0.244-0.635,0.507-1.275,0.791-1.926
		c0.405-0.934,0.692-2.929,0.929-4.918c0.391,0.784,1.104,1.355,1.98,1.462c0.099,0.012,0.195,0.018,0.293,0.018
		c1.352,0,2.506-1.114,2.686-2.591c0.016-0.117,0.012-0.233,0.012-0.349c0.179,3.532,0.056,6.88-0.406,9.946
		c-0.326,2.154-0.848,4.434-1.549,6.777c-0.148,0.501-0.327,1.036-0.53,1.603c-1.095,3.05-3.271,5.758-6.126,7.622
		c-2.158,1.39-4.436,2.272-6.764,2.623c-4.262,0.636-8.619,0.379-12.971-0.765c-0.263-0.137-0.55-0.25-0.856-0.338
		c-0.393-0.112-0.808-0.237-1.241-0.372c-0.361-0.112-0.726-0.256-1.084-0.428C139.315,127.644,139.055,127.518,138.779,127.384z
		 M110.531,122.188c-0.044-0.149-0.089-0.298-0.156-0.438c-0.311-0.648-0.838-1.13-1.486-1.358c-0.27-0.095-0.552-0.143-0.839-0.143
		c-1.224,0-2.349,0.858-2.798,2.134c-0.546,1.553,0.108,3.201,1.456,3.768c-0.19,0.237-0.377,0.474-0.547,0.705l-0.131,0.178
		c-0.676,0.917-1.441,1.956-2.137,2.54c-1.406,1.182-4.009,1.618-6.129,1.866c-1.175,0.149-2.443,0.225-3.769,0.225l-0.283-0.001
		c-2.563-0.02-4.379-0.746-5.555-2.22c-0.919-1.152-1.71-2.557-2.351-4.174c-0.625-1.572-1.178-3.059-1.651-4.435
		c0.407,0.008,0.814,0.047,1.215,0.114l0.093,0.016l0.095-0.002c0.6-0.014,1.163,0.008,1.764-0.036
		c1.735-0.126,3.388-0.228,4.956-0.305c0.499-0.024,0.993-0.072,1.47-0.142c1.313-0.195,2.777-0.201,4.192-0.206
		c0.641-0.002,1.28-0.005,1.91-0.023l6.901-0.209c1.369-0.043,2.341-0.16,2.966-0.353c0.434-0.131,0.886-0.297,1.341-0.491
		c0.708-0.3,1.29-0.689,1.852-1.066c0.188-0.126,0.378-0.254,0.571-0.376c0.729-0.458,1.354-1.006,1.959-1.536l0.438-0.38
		c0.129-0.111,0.246-0.227,0.35-0.347c1.329,1.174,2.726,2.125,4.156,2.83c-0.248-0.023-0.483-0.038-0.708-0.043l-0.25-0.003
		c-1.717,0-3.391,0.439-4.933,1.283C113.123,120.227,111.796,121.11,110.531,122.188z M168.796,98.235
		c-0.926-0.116-1.793,0.313-2.356,1.042c0.015-1.114-0.142-2.209-0.489-3.223c-0.109-0.319-0.212-0.64-0.313-0.96
		c-0.289-0.908-0.589-1.847-1.06-2.771c-1.315-2.569-2.693-4.327-4.461-5.7c-0.226-0.176-0.689-0.574-1.394-1.195
		c-0.361-0.317-0.905-0.692-1.625-1.128c0.332-0.199,0.641-0.444,0.888-0.755c0.508-0.64,0.754-1.429,0.696-2.221
		c-0.062-0.824-0.44-1.552-1.07-2.05c-1.229-0.974-3.214-0.684-4.243,0.613c-0.455,0.576-0.688,1.272-0.69,1.982
		c-0.015-0.007-0.029-0.015-0.046-0.022c-0.549-0.249-1.088-0.374-1.607-0.495c-0.271-0.063-0.543-0.125-0.811-0.208
		c-0.539-0.169-1.141-0.256-1.785-0.262c0.046-0.175,0.084-0.355,0.104-0.542c0.088-0.818-0.113-1.622-0.566-2.266
		c-0.475-0.675-1.194-1.11-1.979-1.192c-1.602-0.167-3.025,1.117-3.208,2.852c-0.054,0.51,0.017,1.009,0.177,1.473
		c-0.849,0.112-1.701,0.224-2.538,0.34c-0.93,0.13-1.836,0.321-2.713,0.507c0.193-0.565,0.236-1.201,0.089-1.841
		c-0.386-1.674-2.027-2.801-3.586-2.441c-1.582,0.366-2.547,2.055-2.152,3.766c0.135,0.587,0.424,1.104,0.805,1.518
		c-2.639,0.575-6.521,1.451-8.628,2.057c0.001-0.014,0.006-0.028,0.007-0.042c0.112-1.616-0.97-3.013-2.414-3.114l-0.167-0.006
		c-1.382,0-2.549,1.209-2.657,2.754c-0.053,0.75,0.149,1.481,0.567,2.058c0.084,0.116,0.183,0.215,0.281,0.313
		c-0.597,0.38-1.183,0.77-1.745,1.174c-1.152-1.094-2.372-2.17-3.633-3.208c-0.205-0.167-0.431-0.333-0.667-0.498
		c0.888-0.385,1.583-1.211,1.797-2.25c0.341-1.662-0.652-3.275-2.214-3.595c-1.534-0.314-3.116,0.798-3.452,2.432
		c-0.089,0.436-0.083,0.866-0.002,1.272c-0.24-0.084-0.479-0.17-0.733-0.23c-0.814-0.191-1.7-0.223-2.617-0.093
		c-0.416,0.058-0.841,0.082-1.276,0.101c0.053-0.176,0.093-0.359,0.116-0.548c0.09-0.745-0.08-1.482-0.479-2.077
		c-0.329-0.491-0.8-0.844-1.33-1.02c0.947-0.106,1.851-0.201,2.676-0.267c3.217-0.259,6.05-0.518,8.423-0.771
		c1.662-0.178,3.058-0.294,4.147-0.346c4.464-0.212,8.732-0.381,12.685-0.501c1.364-0.043,2.765-0.064,4.204-0.064h0.325
		c3.092,0.009,6.294,0.023,9.607,0.044l0.361,0.001c0.513,0,1.063-0.006,1.656-0.018c0.627-0.015,1.258-0.005,1.893,0.025
		c2.068,0.099,4.564,0.198,7.484,0.3c1.646,0.058,3.418,0.209,5.133,0.355l0.621,0.053c0.684,0.058,1.426,0.14,2.229,0.246
		c0.354,0.046,0.727,0.077,1.105,0.107c0.526,0.042,1.067,0.086,1.564,0.179c0.021,0.06,0.04,0.12,0.055,0.182
		c0.297,1.229,0.559,2.485,0.774,3.731c0.522,3.034,1.045,6.194,1.549,9.392c0.343,2.176,0.646,4.987,0.899,8.357
		c0.029,0.387,0.037,0.761,0.059,1.144c-0.055-0.477-0.208-0.934-0.471-1.325C170.171,98.734,169.516,98.321,168.796,98.235z
		 M100.5,88.978c-1.496-1.139-3.126-2.035-4.857-2.67c0.346-0.052,0.709-0.11,1.053-0.165c0.47-0.075,0.863-0.14,0.975-0.149
		c0.207-0.003,1.273-0.073,3.437-0.218l0.97-0.064c2.245-0.148,4.162-0.253,5.697-0.31l0.121-0.002c0.649,0,1.38,0.199,2.176,0.591
		c0.897,0.441,1.684,0.943,2.341,1.495c1.06,0.887,2.168,1.861,3.302,2.9c-1.872,2.008-3.331,4.381-4.342,7.067
		c-1.273,3.383-0.826,7.176-0.227,9.762c0.512,2.206,1.657,4.204,2.806,5.923c-1.409,1.306-3.003,2.49-4.746,3.528
		c-0.655,0.389-1.542,0.43-2.395,0.438c-2.144,0.022-4.285,0.061-6.416,0.113l-1.021,0.018c0.004-0.007,0.009-0.014,0.013-0.021
		c0.246-0.179,0.492-0.372,0.741-0.58c1.669-1.393,3.125-3.005,4.328-4.794c0.584-0.87,1.043-1.775,1.362-2.691
		c0.439-1.26,0.806-2.494,1.09-3.669c0.257-1.073,0.379-2.187,0.353-3.22C107.131,96.764,104.856,92.295,100.5,88.978z
		 M113.837,101.104c0.123-1.707,0.646-3.372,1.555-4.95c1.315-2.28,3.081-4.244,5.274-5.856c1.449-1.14,3.266-1.862,5.002-2.504
		c1.884-0.695,3.925-1.058,6.065-1.08l0.159-0.001c1.074,0,2.056,0.112,2.916,0.332c2.735,0.701,5.274,1.876,7.472,3.433l1.29,1.119
		l2.064,2.328c0.996,1.581,1.734,3.366,2.215,5.362c0.456,1.497,0.531,3.059,0.227,4.645c-0.584,3.022-2.055,5.633-4.371,7.762
		c-1.811,1.664-3.91,3.135-6.238,4.371c-0.684,0.364-1.327,0.64-1.906,0.818c-0.354,0.107-0.721,0.136-1.146,0.17
		c-0.274,0.022-0.552,0.045-0.832,0.086c-0.198,0.029-0.401,0.035-0.599,0.021c-0.559-0.042-2.261-0.044-2.453-0.044h-0.027
		l-0.026,0.001c-3.434,0.186-6.922-0.625-9.533-2.228c-2.948-1.809-5.133-4.333-6.496-7.502
		C113.864,106.025,113.646,103.793,113.837,101.104z M143.68,116.147c2.563-2.293,5.396-5.046,6.528-8.702
		c0.528-1.7,1.049-3.516,1.099-5.39c0.03-1.257-0.077-2.566-0.324-3.889c-0.44-2.369-1.476-4.563-3.079-6.521
		c-1.084-1.322-2.227-2.442-3.395-3.33c-1.76-1.338-3.699-2.386-5.792-3.133c0.041-0.006,0.071-0.01,0.09-0.014
		c2.391-0.428,4.86-0.886,7.413-1.374c0.175-0.035,0.335-0.048,0.52-0.032c2.223,0.186,4.459,0.86,6.834,2.06
		c0.646,0.328,1.252,0.687,1.797,1.067c2.463,1.724,4.479,3.902,5.996,6.474c1.37,2.318,1.984,4.809,1.827,7.405
		c-0.041,0.696-0.106,1.456-0.196,2.279c-0.082,0.752-0.23,1.474-0.445,2.144c-0.594,1.87-1.459,3.541-2.568,4.969
		c-1.455,1.874-3.247,3.628-5.322,5.214c-0.479,0.365-0.806,0.553-1.363,0.628c-0.855,0.116-1.639,0.186-2.322,0.206
		c-2.52,0.074-5.127,0.189-7.76,0.34C143.375,116.414,143.53,116.28,143.68,116.147z M99.935,78.981
		c0.55-0.068,1.092-0.135,1.625-0.2c-0.735,0.445-1.277,1.254-1.394,2.22c-0.076,0.626,0.042,1.225,0.293,1.736
		c-1.412,0.189-2.805,0.379-4.163,0.571c0.255-0.665,0.313-1.376,0.138-2.033c-0.203-0.763-0.701-1.379-1.363-1.713
		c0.164-0.019,0.331-0.042,0.495-0.061C96.982,79.348,98.468,79.164,99.935,78.981z M90.57,80.114
		c0.535-0.072,1.063-0.128,1.596-0.195c-0.416,0.321-0.77,0.746-1.01,1.259c-0.341,0.729-0.421,1.535-0.226,2.27
		c0.046,0.172,0.113,0.334,0.187,0.491c-2.474,0.307-5.138,0.654-6.316,0.873c-0.033,0.006-0.065,0.012-0.099,0.019l-2.235-0.098
		l1.23,0.351c-0.327,0.098-0.67,0.214-1.027,0.348c-0.18,0.064-2.283,0.759-3.66,1.214c-0.009-1.661-0.022-3.317-0.04-4.967
		L90.57,80.114z M80.687,89.096c0.438-0.092,0.814-0.235,1.146-0.362c0.201-0.077,0.403-0.154,0.623-0.219
		c1.801-0.527,3.704-0.794,5.654-0.794c0.545,0,1.095,0.021,1.651,0.061c0.682,0.051,1.359,0.178,2.012,0.377
		c2.943,0.903,5.267,2.111,7.314,3.804c1.015,0.839,1.908,1.82,2.652,2.917c1.035,1.522,1.745,3.204,2.11,4.998
		c0.232,1.149,0.294,2.562,0.185,4.197c-0.168,2.491-1.024,4.676-2.618,6.683c-1.64,2.066-3.248,3.522-5.375,4.868
		c-1.22,0.771-2.362,1.434-3.396,1.971c-0.311,0.161-0.612,0.249-0.946,0.275c-0.517,0.04-1.03,0.092-1.543,0.145
		c-0.915,0.094-1.779,0.183-2.661,0.198c-0.757,0.013-1.514,0.019-2.271,0.019l-0.999-0.003c-0.255,0-0.515-0.042-0.756-0.121
		l-3.135-1.083c-1.885-0.648-3.407-1.41-4.523-2.264c-2.518-1.928-4.267-4.623-5.19-7.97c-0.457-1.975-0.525-4.021-0.203-6.081
		c0.255-1.627,0.834-3.167,1.705-4.553c1.708-2.554,3.941-4.66,6.673-6.28C79.374,89.502,80.011,89.239,80.687,89.096z"/>
	<path d="M91.559,122.235c-1.722,0-3.123,1.401-3.123,3.123c0,1.722,1.401,3.122,3.123,3.122c1.722,0,3.123-1.4,3.123-3.122
		C94.682,123.636,93.281,122.235,91.559,122.235z"/>
	<path d="M167.05,113.971c0.094,0.01,0.187,0.015,0.279,0.015c1.496,0,2.756-1.232,2.926-2.866c0.088-0.817-0.113-1.622-0.564-2.265
		c-0.475-0.676-1.195-1.111-1.979-1.194c-1.605-0.161-3.024,1.117-3.207,2.854C164.322,112.252,165.464,113.803,167.05,113.971z"/>
	<path d="M161.694,124.253c0.208,0,0.417-0.023,0.62-0.071c1.58-0.366,2.547-2.055,2.152-3.768c-0.387-1.672-2.031-2.795-3.586-2.44
		c-0.727,0.167-1.351,0.62-1.758,1.273c-0.451,0.721-0.596,1.63-0.396,2.494C159.064,123.197,160.313,124.253,161.694,124.253z"/>
	<path d="M150.951,128.291c0.113,0.012,0.227,0.018,0.338,0.018c1.635,0,2.996-1.228,3.166-2.855c0.185-1.748-1.09-3.32-2.836-3.505
		c-1.763-0.189-3.324,1.099-3.506,2.839c-0.089,0.847,0.157,1.678,0.692,2.339C149.341,127.788,150.104,128.202,150.951,128.291z"/>
	<path d="M166.854,84.631c-0.339-0.159-0.702-0.239-1.079-0.239c-1.146,0-2.236,0.743-2.775,1.891
		c-0.342,0.729-0.422,1.535-0.227,2.27c0.209,0.787,0.729,1.425,1.423,1.752c0.339,0.158,0.701,0.238,1.079,0.238
		c1.148,0,2.239-0.743,2.777-1.893C168.783,87.086,168.246,85.283,166.854,84.631z"/>
	<path d="M101.891,123.467c-1.229-0.974-3.217-0.684-4.244,0.612c-0.508,0.64-0.755,1.428-0.697,2.221
		c0.061,0.824,0.44,1.552,1.069,2.051c0.503,0.398,1.115,0.609,1.769,0.609c0.942,0,1.867-0.457,2.475-1.223
		C103.33,126.392,103.162,124.476,101.891,123.467z"/>
	<path d="M256.92,44.72c-1.391-4.32-3.931-7.43-7.57-9.27c-6.2-3.12-13.45-3.78-19.74-4.01c-3.149-0.11-6.49,0.22-9.72,0.55
		c-0.91,0.09-1.82,0.18-2.73,0.26c-2.08,0.19-4.97,0.88-8.87,2.11l-1.43,0.5c-0.28-3.29-0.74-6.31-2.37-9.37
		c-1.96-3.68-4.93-5.55-8.84-5.55h-0.31c-2.221,0.05-4.65,1.1-6.79,2.02c-0.44,0.19-0.88,0.38-1.311,0.55
		c-3.09,1.28-7.05,2.09-11.779,2.43c-1.11,0.08-3.2-0.12-6.2-0.59c-0.13-0.02-0.57-0.13-1.851-0.7c-1.93-0.73-3.81-1.75-5.6-3.05
		c-2.64-1.93-4.99-3.49-6.98-4.65c-1.6-0.92-3.14-1.5-4.58-1.71c-0.35-0.05-0.689-0.08-1.039-0.08c-4.94,0-9.69,5.32-12.331,9.97
		c-5.04-2.45-10.15-4.44-15.19-5.94c-1.52-0.45-3.17-0.77-4.77-1.07c-0.83-0.16-1.67-0.32-2.49-0.5c-3.67-0.8-7.62-1.25-11.41-1.31
		c-7.63-0.11-14.38,0.04-20.12,0.45c-10.4,0.74-19.34,2.64-27.32,5.78c-8.18,3.22-15.32,8.3-21.24,15.1
		c-2.91,3.35-4.23,7.11-4.03,11.5c0.07,1.65,0.2,2.89,0.4,3.77c1.24,5.6,3.34,11.03,6.23,16.12c4.75,8.32,10.81,15.83,18.03,22.32
		c2.07,1.85,4.01,3.55,5.79,5.04c1.964,1.65,3.986,3.183,6.055,4.615c0.224-1.159,0.58-2.27,1.08-3.321
		c-0.021-0.015-0.043-0.029-0.065-0.044c-1.93-1.38-4.06-3.16-6.12-4.88c-0.86-0.71-1.71-1.42-2.54-2.1
		c-2.68-2.18-6.22-5.78-10.51-10.69c-3.49-4-6.91-9.21-10.16-15.48c-1.07-2.07-1.98-4.2-2.69-6.32c-1.47-4.37-2.91-9.37-1.45-13.34
		c1.25-3.4,3.06-6.02,5.69-8.22c0.84-0.71,1.75-1.5,2.72-2.36c3.93-3.49,8.46-6.25,13.46-8.18c5.15-1.99,10.2-3.42,15.02-4.24
		c1.55-0.26,3.14-0.52,4.78-0.8c5.04-0.83,10.52-1.25,16.3-1.25c2.42,0,4.88,0.07,7.33,0.22c1.23,0.08,2.46,0.13,3.67,0.19
		c2.83,0.14,5.52,0.26,7.89,0.59c6.35,0.89,12.61,2.55,18.61,4.92c8.67,3.43,16.94,7.9,24.57,13.29c4.89,3.45,9.07,6.73,12.42,9.74
		c4.75,4.26,8.16,7.47,10.13,9.53c3.261,3.41,6.33,6.63,9.221,9.64c2.029,2.12,6.359,7.21,12.88,15.14
		c1.43,1.73,3.989,3.98,7.819,6.85c2.83,2.11,6.17,3.57,9.94,4.32l0.21,0.02c0.65,0,1.18-0.53,1.18-1.16l0.011-0.17
		c0.01-0.75-0.44-1.33-1.16-1.52c-4.73-1.22-9.15-3.94-13.13-8.08c-0.221-0.23-0.23-0.29-0.08-0.91c0.06-0.28,0.12-0.56,0.159-0.87
		c1.091-10.81,1.73-17.9,1.91-21.07c0.4-7.23,0.75-14.57,1.021-21.82c3.649-1.17,7.09-1.99,10.21-2.44
		c2.39-0.35,5.56-0.52,9.439-0.52h0.771c1.86,0.01,3.689,0.22,5.63,0.45c0.75,0.08,1.5,0.17,2.26,0.24
		c4.01,0.4,7.561,1.13,10.55,2.17c1.421,0.49,4.021,1.61,5.48,3.54c3.28,4.35,3.78,11.55,2.83,16.75
		c-0.69,3.77-1.94,7.61-3.601,11.12c-6.239,13.11-15.539,23.81-27.649,31.8c-2.38,1.57-5.3,3.08-8.12,4.54l-1.21,0.62
		c-3.12,1.62-6.57,2.87-9.91,4.08c-0.33,0.12-0.649,0.24-0.97,0.35c-0.521-4.51-3.521-7.79-8.05-8.67
		c-0.66-0.13-1.29-0.19-1.931-0.19c-1.729,0-3.239,0.48-4.84,0.98c-0.37,0.12-0.74,0.24-1.13,0.35c-0.29,0.09-0.56,0.06-0.88-0.07
		c-1.13-0.5-2.25-1-3.37-1.49c-0.083-0.037-0.168-0.075-0.251-0.112c0.01,0.474,0.021,0.947,0.023,1.442
		c0.005,0.764-0.025,1.506-0.073,2.244l0.821,0.366c-0.311,0.248-0.615,0.507-0.918,0.771c-0.146,1.489-0.371,2.986-0.664,4.614
		c-0.065,0.366-0.147,0.734-0.223,1.101c1.893-2.413,5.375-5.376,8.104-6.286c1.109-0.37,2.2-0.56,3.22-0.56
		c2.77,0,4.89,1.34,6.15,3.88c0.489,0.99,0.699,2.03,0.659,3.18c-0.189,4.3-1.68,7.56-4.569,9.98c-0.96,0.8-2.01,1.55-3.11,2.36
		c-2.399,1.74-4.88,3.53-6.88,6.04c-1.07,1.35-2.22,3.39-3.43,6.08c-0.48,1.07-1.08,2.24-2.07,2.57c-1.12,0.38-2.6-0.33-3.56-1.64
		c-0.15-0.2-0.33-0.55-0.2-1.24c0.59-3.25,1.21-5.65,1.859-7.13c0.25-0.57,0.511-1.15,0.771-1.72c1.56-3.49,3.18-7.1,3.51-10.95
		c0.12-1.44-0.22-2.77-0.55-4.07l-0.003-0.01c-0.46,2.13-1.076,4.288-1.886,6.551c-0.08,0.224-1.417,2.474-2.788,4.387
		c-0.764,1.895-1.463,3.726-2.073,5.452c-1.98,5.57-2.67,11.31-2.05,17.07c0.09,0.89,0.729,1.48,1.64,1.49h0.21
		c0.41,0,0.69-0.14,0.87-0.28c0.33,2.3,0.63,4.62,0.92,6.91c0.45,3.69,0.521,7.02,0.18,9.89c-0.26,2.181-1.369,4.63-3.31,7.28
		c-1.29,1.771-2.36,3.66-3.21,5.69c-0.061-0.061-0.13-0.11-0.19-0.16c-0.199-0.15-0.43-0.26-0.67-0.32
		c-0.989-0.24-2,0.38-2.239,1.36c-0.65,2.649-1.561,5.149-2.7,7.43c-2.511,5-4.851,8.83-6.95,11.4c-2.32,2.85-4.84,5.93-7.55,9.26
		c-1.181,1.46-2.79,4-4.91,7.74l-0.37-2.38c-0.09-0.58-0.5-1.011-1.05-1.131c-0.93-0.22-1.7,0.25-1.96,1.15
		c-1.93,6.56-5.52,12.07-10.66,16.37c-0.18,0.16-0.36,0.31-0.54,0.47c-0.22,0.19-0.44,0.38-0.66,0.561
		c0.05-0.87,0.04-1.891-0.17-2.73c-0.11-0.43-0.41-0.79-0.82-0.97c-0.69-0.3-1.54,0.04-1.85,0.74c-1.64,3.779-3.48,6.92-5.98,10.18
		c-1.16,1.54-2.35,3.02-3.52,4.43c0.1-1.439,0.03-3.05-0.18-4.81c-0.08-0.69-0.67-1.21-1.42-1.21l-0.12,0.01
		c-0.33,0-0.64,0.13-0.86,0.36c-0.21,0.229-0.33,0.54-0.32,0.89c0.16,4.09-0.41,8.09-1.71,11.91c-0.59-1.15-1.23-2.311-1.91-3.45
		c-0.2-0.33-0.73-1.22-1.63-1.22c-0.76,0-1.29,0.569-1.57,1.7c-0.07,0.29-0.15,0.6-0.24,0.93c-0.55,2.11-1.23,4.729-1,6.88
		c0.51,4.85,0.75,8.44,0.72,10.69c0,0.479-0.08,0.979-0.22,1.489c-1.07-1.56-2.14-3.109-3.21-4.64c-1.23-1.76-2.56-3.271-3.97-4.87
		c-0.52-0.58-1.03-1.16-1.55-1.77c-3.77-4.381-5.43-9.7-5.24-16.721c0.09-3.25,0.38-6.439,0.87-9.479c0.03-0.2,0.02-0.4-0.04-0.59
		c-0.17-0.551-0.67-0.92-1.25-0.92l-0.25,0.01l-0.15,0.05c-1.18,0.39-2.44,2.12-3.73,4.11c-0.04-0.181-0.07-0.36-0.09-0.54
		c-0.56-4.17-0.49-8.391,0.19-12.54c0.31-1.86,0.86-3.771,1.63-5.65c0.12-0.3,0.11-0.61-0.02-0.89l-0.26-0.46l-0.46-0.12
		c-0.15-0.03-0.3-0.05-0.45-0.05c-0.52,0-1.27,0.22-1.85,1.3c-0.17,0.3-0.3,0.63-0.39,0.979l-0.62,2.46
		c-0.2-0.56-0.35-1.109-0.44-1.67c-0.55-3.529-0.69-7.069-0.41-10.52c0.1-1.17,0.22-2.33,0.37-3.45c0.02-0.16,0.01-0.32-0.03-0.479
		c-0.15-0.57-0.67-0.971-1.26-0.971l-0.32,0.04c-0.52,0.13-0.93,0.42-1.27,0.771c-0.11-5.58,0.06-9.94,0.52-12.95
		c0.6-3.9,1.35-7.51,2.26-10.75c0.69-2.47,1.78-4.97,3.25-7.45c0.4-0.67,1-1.689,0.65-2.729c-0.21-0.62-0.71-1.101-1.49-1.41
		c-0.65-0.261-1.4-0.28-2.23-0.07c-0.13-4.08,0.09-8.21,0.67-12.31c0.43-0.2,0.81-0.32,1.14-0.36c2.48-0.34,4.99-0.69,7.55-1.06
		c1-0.141,2.16-0.341,3.42-0.551c3.15-0.529,7.08-1.189,10.43-1.34c4.39-0.2,7.73-0.21,9.92-0.02c0.38,0.76,0.5,0.939,0.59,1.06
		c3.04,3.88,7.33,5.46,12.58,4.63c1.74-0.27,3.27-0.66,4.53-1.16c1.44-0.56,2.95-1.02,4.4-1.46c0.6-0.18,1.19-0.359,1.78-0.54
		c1.47-0.47,2.72-1.35,3.94-2.189c0.27-0.2,0.54-0.391,0.82-0.57c0.52-0.359,1.18-0.74,1.949-1.149
		c2.851-1.49,5.471-3.371,7.801-5.59c0.779-0.73,1.3-1.49,1.75-2.54c1.29,0.22,2.6,0.7,3.84,1.4l0.16,0.09
		c0.62,0.27,1.39-0.04,1.659-0.66c0.101-0.22,0.15-0.48,0.15-0.74c0.38,0.43,0.8,0.86,1.26,1.27c0.32,0.3,0.7,0.51,1.12,0.62
		c0.91,0.26,1.66-0.1,1.92-0.84c0.23-0.62,0.011-1.32-0.529-1.71c-1.061-0.73-1.19-1.44-1.2-1.91c-0.01-0.42-0.16-0.81-0.45-1.14
		l-0.15-0.15c0.091-0.18,0.181-0.35,0.271-0.53c0.34-0.671,0.68-1.37,0.898-2.141c-1.213,0.543-2.431,1.069-3.634,1.556
		c-0.843,0.342-1.702,0.564-2.534,0.78c-0.306,0.079-0.609,0.163-0.913,0.248c-0.017,0.111-0.027,0.228-0.027,0.337
		c0.02,0.55,0.33,1.02,0.79,1.29l-2.54-0.73c-0.98-0.28-2.061,0.12-2.61,0.96l-0.649,0.99c-1.82-0.86-3.671-0.64-5.36,0.62
		c-0.83,0.63-1.74,0.86-2.71,0.74c-0.59-0.08-1.17-0.01-1.71,0.22c-0.92,0.38-1.78,0.63-2.57,0.72c-1.53,0.2-2.58,0.98-3.48,1.78
		c-1.62,0.37-3.14,1-4.53,1.88c-0.52,0.02-1,0.11-1.46,0.2c-0.59,0.12-1.11,0.23-1.65,0.13c-0.67-0.12-1.45-0.24-2.25-0.24
		c-0.88,0-1.72,0.15-2.56,0.45c-0.01,0.01-0.09,0.03-0.29,0.03c-0.68,0-1.77-0.3-2.5-0.59s-1.58-0.2-2.23,0.23l-0.71,0.47
		c-0.39-1.21-1.14-2.181-2.21-2.9c2.81-2.2,5.73-4.38,8.7-6.48c0.42-0.31,0.89-0.57,1.39-0.78c0.59,0.2,1.17,0.46,1.78,0.75
		c0.68,0.31,1.38,0.64,2.14,0.88c1.09,0.35,2.25,0.65,3.43,0.88c0.23,0.04,0.46,0.07,0.71,0.07c1.788,0,3.556-1.281,4.7-2.535
		c-0.682-0.244-1.348-0.539-1.938-0.927l-0.013-0.009c-0.322-0.161-0.748-0.381-1.23-0.636c-0.58,0.357-1.279,0.537-2.109,0.537
		c-1.47,0-2.97-0.55-3.97-1.01c-0.86-0.4-2.17-1-3.44-1c-0.61,0-1.16,0.14-1.63,0.42c-3.07,1.84-5.88,3.96-8.59,6.01
		c-0.68,0.51-1.36,1.02-2.04,1.53c-1.35,1.01-2.86,1.85-4.31,2.67l-0.54,0.3c-1.71,0.97-4.19,1.32-7.3,1.05
		c-1.38-0.12-3.26-0.95-4.21-2.31c-0.5-0.71-0.64-1.45-0.44-2.21c0.243-0.896,0.542-1.762,0.884-2.603
		c-1.274,0.322-2.591,0.578-3.949,0.76c-0.029,0.086-0.067,0.167-0.095,0.253c-0.74,2.21-0.38,4.25,1.06,6.06
		c0.96,1.21,2.09,2.1,3.36,2.67c-0.37,0.05-0.74,0.11-1.11,0.17c-2.56,0.4-4.53,0.681-5.86,0.82c-2.51,0.27-5.05,0.61-7.56,1.01
		c0.27-0.79,0.59-1.58,0.96-2.35c1.346-2.846,2.726-5.661,4.396-8.514c-0.638-0.065-1.267-0.164-1.882-0.293
		c-0.543-0.116-1.089-0.313-1.636-0.557c-0.26,0.436-0.494,0.824-0.658,1.093c-2.72,4.4-4.28,7.971-4.88,11.21
		c-3.76,0.67-7.68,1.53-11.66,2.55c-0.47,0.12-0.72,0.16-0.86,0.181l-0.26,0.069c-1.2,0.461-2.46,0.83-3.75,1.07l-0.22,0.07
		c-0.62,0.27-1.43,0.53-2.44,0.79c-0.72,0.2-1.43,0.38-2.15,0.55c-1,0.23-1.94,0.6-2.84,0.95c-0.57,0.22-1.15,0.45-1.74,0.64
		c-0.54,0.17-1.12,0.09-1.74-0.04c-0.51-0.1-1.06-0.21-1.62-0.16c-1.08,0.091-2.21,0.11-3.29,0.141c-1.36,0.02-2.76,0.05-4.1,0.21
		c-2.66,0.33-5.36,0.64-8.02,0.91c-2.88,0.3-5.49,0.84-8.33,1.42c-1.29,0.26-2.25,1.17-2.47,2.31c-0.19,1.08,0.3,2.11,1.31,2.76
		c0.63,0.4,1.44,0.5,2.42,0.311c5.44-1.13,11.05-1.91,16.68-2.32c1.44,0.061,2.72-0.01,3.87-0.189c-3.06,3.229-5.77,6.5-8.06,9.75
		c-0.74,1.04-1.07,2.069-0.99,3.06l0.02,0.17l0.07,0.15c0.03,0.08,0.06,0.17,0.09,0.25l0.06,0.22l0.16,0.17
		c0.43,0.48,1.14,1.14,2.27,1.31l0.23,0.021l0.22-0.03l0.11,0.03l0.24-0.07l0.29-0.12c0.21-0.109,0.41-0.229,0.61-0.35l0.42-0.29
		l0.3-0.5c0.11-0.24,0.27-0.6,0.3-0.69l0.23-0.529l-0.01-0.03c0.02-0.05,0.04-0.1,0.07-0.15c0.03-0.05,0.07-0.09,0.15-0.189
		l0.08-0.12c0.9-1.52,1.72-3.08,2.42-4.62c0.27-0.59,1.02-1.75,3.05-3.92l0.18-0.25c1.2-2.55,2.81-4.19,4.93-5.01l0.14-0.061
		c1.72-0.97,3.53-1.6,5.46-1.87l11.5-3.17l6.1-1.58c-0.35,2.03-0.65,4.021-0.6,6.301c0.05,2.229-0.03,4.479-0.23,6.77v1.28
		c0.01,0.96,0.51,1.37,0.81,1.54c0.29,0.16,0.65,0.24,1.04,0.24c0.13,0,0.26-0.011,0.44-0.03c0.12-0.021,0.23-0.04,0.35-0.07
		c-0.02,0.021-0.03,0.03-0.04,0.05l-0.13,0.15l-0.06,0.21c-0.22,0.78-0.58,1.57-0.93,2.32c-0.36,0.79-0.73,1.6-0.97,2.46
		c-0.82,2.92-1.59,5.96-2.27,8.979l-0.32,2.391c-0.4,1.739-0.67,3.55-0.8,5.38c-0.23,3.279,0.37,9.59,0.75,13.05l0.02,0.17
		c0.05,1.69,1.08,1.82,1.4,1.82c0.28,0,0.54-0.09,0.76-0.221c-0.05,0.83-0.11,2.7-0.11,2.83l0.16,5.311
		c0.14,2.31,0.49,3.99,1.08,5.13c0.94,1.82,1,2.29,1,2.34c0.05,1.32-0.01,2.73-0.18,4.2c-0.14,1.34,0.14,2.54,0.39,3.6
		c0.18,0.75,0.34,1.46,0.36,2.16c0.03,1.97,0.72,3.97,2.1,6.11c0.15,0.24,0.37,0.43,0.63,0.55c0.71,0.32,1.6-0.01,1.93-0.7v5
		c0.2,3.55,0.91,6.73,2.11,9.45c0.6,1.38,1.62,2.92,3.02,4.58c1.71,2.02,3.48,4.06,5.27,6.06c0.48,0.53,1.62,2.19,2.45,3.4
		c0.93,1.36,1.14,1.67,1.31,1.83c0.89,0.85,1.51,1.82,1.86,2.899c0.05,0.16,0.13,0.301,0.24,0.44c0.25,0.3,0.62,0.47,1.01,0.47
		c0.3,0,0.6-0.109,0.84-0.3c2.66-2.24,2.81-6.02,2.66-8.07c-0.27-3.689-0.36-6.689-0.29-8.909l0.08-2.381
		c0.38,0.811,0.76,1.601,1.15,2.36c0.21,0.41,0.55,0.71,0.98,0.87c0.91,0.35,2-0.15,2.35-1.06l1.98-5.311
		c0.17-0.46,0.43-0.86,0.77-1.21c1.03-1.08,2.03-2.22,2.99-3.4c2.17-2.689,4.27-5.47,6.24-8.27c0.6,0.18,1.15,0.14,1.61-0.12
		c0.36-0.21,0.72-0.39,1.08-0.58c0.76-0.38,1.54-0.77,2.25-1.359c2.88-2.4,5.52-5.221,7.86-8.36c0.35-0.48,0.68-0.99,0.96-1.521
		c0.26-0.479,0.53-0.949,0.82-1.409c0.5-0.801,1-1.7,1.49-2.7c0.17,0.3,0.42,0.52,0.73,0.66c1.32,0.609,2.811,0.06,3.47-1.24
		l0.33-0.67c0.98-1.971,1.9-3.82,3.24-5.62c0.95-1.26,1.89-2.54,2.82-3.83c1.37-1.9,5.88-7.37,7.569-9.43
		c0.471-0.57,0.761-0.931,0.771-0.95c0.59-0.88,1.18-1.76,1.78-2.641c0.64-0.939,1.21-1.89,1.71-2.829
		c0.84-1.601,1.649-3.15,2.42-4.65c0.479-0.93,0.87-1.9,1.17-2.88c0.22-0.72,0.479-1.46,0.76-2.2c0.41,0.41,0.82,0.5,1.1,0.5
		c0.33,0,0.82-0.12,1.24-0.68l0.16-0.181l0.07-0.229c0.1-0.36,0.229-0.73,0.359-1.101c0.33-0.92,0.7-1.75,1.141-2.56l0.02-0.04
		c0-0.02,0.01-0.03,0.01-0.03l0.061-0.109c0.61-1.221,1.32-2.28,2.12-3.16c0.479-0.53,1.37-2.101,1.62-2.65l1.8-3.08l0.09-0.189
		c1.24-3.72,1.5-7.681,0.79-11.75l-0.87-6.28c-0.55-2.36-0.76-4.729-0.65-7.06c0.2,0.01,0.41,0.05,0.601,0.02
		c1.93,0,3.8-0.88,4.89-2.29c0.45-0.58,0.88-1.56,1.351-3.07c0.909-2.87,2.06-4.68,4.42-6.91c1.02-0.96,2.399-1.99,4.1-3.05
		c5.37-3.34,8.33-7.55,9.03-12.85c0.02-0.11,0.03-0.15,0.03-0.16c0.069-0.04,0.29-0.09,0.43-0.12c0.26-0.05,0.53-0.12,0.8-0.22
		c4.061-1.53,8.32-3.38,12.68-5.5c6.42-3.13,12.16-6.94,17.051-11.35c9.3-8.38,16.529-18.33,21.479-29.58
		c0.96-2.19,1.78-4.7,2.42-7.45C258.6,54.68,258.47,49.6,256.92,44.72z M203.63,38.35c-0.24,9.69-0.7,22.42-2.131,34.88
		c-0.239,2.04-0.43,4.13-0.569,6.23c-0.45-0.45-0.88-0.94-1.271-1.48c-4.109-5.66-8.609-10.54-13.37-15.7
		c-0.829-0.9-1.68-1.82-2.52-2.74c-4.25-4.65-10.16-10.24-17.57-16.63c-7.729-6.67-16.47-12.45-25.97-17.17
		c1.25-2.87,3.2-5.29,5.8-7.21c0.88-0.65,1.91-0.98,3.05-0.98c1.91,0,4.261,0.94,6.431,2.59c3.29,2.5,6.18,4.4,8.609,5.65
		c3.71,1.91,7.73,2.15,10.811,2.15c0.569,0,1.14,0,1.72-0.02c2.19-0.06,4.55-0.42,7.021-1.08c3-0.79,5.939-1.72,8.76-2.76
		c1.76-0.64,3.43-0.87,4.89-0.66c1.811,0.25,3.78,2.54,4.57,4.52C203.14,31.07,203.72,34.57,203.63,38.35z M161.97,135.02
		c0.24,0,0.47,0.02,0.67,0.07c0.07,0.11,0.14,0.22,0.21,0.33c-0.24-0.12-0.49-0.22-0.73-0.29l-0.42-0.11H161.97z M137.77,143.83
		l2.94-1.04c0.48,0.631,0.87,1.381,1.27,2.16c0.14,0.271,0.28,0.54,0.41,0.79c-1.3,0.51-2.74,0.84-4.27,0.96
		c-1.53,0.12-2.51-0.399-3.04-1.689C136.06,144.93,136.96,144.53,137.77,143.83z M123.35,144.78c0.01-0.03,0.04-0.03,0.05-0.03h0.02
		c1.02,0.57,2.11,0.801,3.27,0.681l-0.05,1.04c-1.18-0.021-2.67-0.4-3.17-1.03C123.32,145.25,123.28,145.06,123.35,144.78z
		 M115.6,142.01c0.25-0.15,0.5-0.3,0.76-0.44c0.28,0.56,0.49,1.15,0.64,1.76c-0.87-0.06-1.78-0.09-2.69-0.09
		c-0.31,0-0.62,0-0.94,0.01C114.14,142.86,114.87,142.43,115.6,142.01z"/>
	<path d="M108.06,72.34c-0.36,0.14-0.65,0.4-0.82,0.76c-0.027,0.06-0.026,0.125-0.045,0.187c2.403-0.405,4.748-0.705,7.026-0.931
		c-0.807-0.196-1.628-0.344-2.46-0.426C110.53,71.81,109.32,71.93,108.06,72.34z"/>
	<path d="M144.72,69.35c-2.93-1.08-5.76-0.67-8.29,1.21c-0.082,0.061-0.168,0.121-0.25,0.182c2.554-0.087,4.604-0.146,6.131-0.178
		l0.198-0.001c0.273,0,0.568,0.01,0.867,0.02c0.283,0.01,0.572,0.02,0.845,0.02l0.146-0.001c0.457-0.007,0.916-0.004,1.373-0.009
		c-0.021-0.144-0.057-0.286-0.12-0.423C145.44,69.79,145.12,69.5,144.72,69.35z"/>
</g>
</svg>
