<?xml version="1.0" encoding="utf-8"?>
<!-- Generator: Adobe Illustrator 16.0.0, SVG Export Plug-In . SVG Version: 6.00 Build 0)  -->
<!DOCTYPE svg PUBLIC "-//W3C//DTD SVG 1.1//EN" "http://www.w3.org/Graphics/SVG/1.1/DTD/svg11.dtd">
<svg version="1.1" id="Jigglebilly_Stamp" xmlns="http://www.w3.org/2000/svg" xmlns:xlink="http://www.w3.org/1999/xlink" x="0px"
	 y="0px" width="283.46px" height="283.46px" viewBox="0 0 283.46 283.46" enable-background="new 0 0 283.46 283.46"
	 xml:space="preserve">
<g id="Solder_Mask_1_">
	<path id="Jiggle_Billy_SolderMask" fill="#FFFFFF" d="M0,0v283.46h283.46V0H0z M257.28,59.81c-0.649,2.75-1.46,5.26-2.431,7.44
		c-4.939,11.25-12.17,21.2-21.471,29.58c-4.89,4.41-10.629,8.23-17.049,11.36c-4.36,2.11-8.631,3.96-12.681,5.5
		c-0.271,0.1-0.54,0.16-0.801,0.22c-0.14,0.03-0.359,0.07-0.431,0.11c0,0.01-0.01,0.06-0.029,0.16
		c-0.71,5.31-3.659,9.51-9.029,12.85c-1.699,1.06-3.08,2.09-4.102,3.06c-2.358,2.22-3.51,4.03-4.42,6.91
		c-0.469,1.51-0.898,2.48-1.35,3.06c-1.09,1.42-2.96,2.3-4.891,2.3c-0.189,0.021-0.399-0.01-0.6-0.03
		c-0.121,2.34,0.1,4.711,0.649,7.07l0.869,6.27c0.711,4.07,0.45,8.041-0.789,11.761l-0.091,0.19l-1.801,3.08
		c-0.25,0.549-1.14,2.119-1.619,2.648c-0.801,0.881-1.51,1.939-2.12,3.16l-0.06,0.101c0,0.011,0,0.021-0.011,0.029l-0.021,0.04
		c-0.439,0.82-0.801,1.641-1.131,2.57c-0.14,0.369-0.27,0.729-0.369,1.1l-0.061,0.23l-0.17,0.18c-0.42,0.561-0.91,0.681-1.24,0.681
		c-0.279,0-0.689-0.091-1.1-0.5c-0.28,0.739-0.54,1.47-0.762,2.199c-0.299,0.979-0.688,1.94-1.17,2.87
		c-0.77,1.51-1.58,3.061-2.42,4.66c-0.5,0.939-1.069,1.89-1.709,2.82c-0.601,0.889-1.189,1.77-1.781,2.648
		c-0.01,0.021-0.299,0.37-0.77,0.939c-1.689,2.061-6.199,7.541-7.57,9.439c-0.93,1.29-1.869,2.561-2.81,3.83
		c-1.351,1.801-2.271,3.65-3.25,5.609l-0.33,0.681c-0.649,1.301-2.149,1.841-3.47,1.239c-0.311-0.14-0.561-0.369-0.73-0.659
		c-0.49,0.989-0.99,1.899-1.49,2.7c-0.29,0.459-0.56,0.93-0.82,1.399c-0.28,0.529-0.6,1.05-0.96,1.529
		c-2.34,3.141-4.98,5.95-7.87,8.36c-0.7,0.59-1.48,0.979-2.24,1.359c-0.36,0.18-0.72,0.37-1.08,0.569
		c-0.46,0.271-1.01,0.311-1.61,0.13c-1.97,2.801-4.07,5.58-6.24,8.271c-0.96,1.18-1.96,2.319-2.99,3.399
		c-0.34,0.34-0.6,0.75-0.77,1.21l-1.98,5.311c-0.35,0.91-1.44,1.41-2.35,1.06c-0.43-0.159-0.77-0.47-0.98-0.869
		c-0.39-0.761-0.78-1.551-1.15-2.37l-0.08,2.381c-0.07,2.229,0.02,5.229,0.29,8.92c0.15,2.049,0,5.83-2.66,8.06
		c-0.24,0.2-0.54,0.312-0.84,0.312c-0.39,0-0.76-0.182-1.01-0.48c-0.11-0.131-0.19-0.279-0.24-0.43
		c-0.26-0.811-0.68-1.561-1.24-2.24c-0.19-0.229-0.4-0.45-0.62-0.66c-0.17-0.159-0.38-0.471-1.32-1.83
		c-0.83-1.21-1.96-2.869-2.44-3.398c-1.79-2-3.56-4.041-5.27-6.07c-1.4-1.649-2.42-3.189-3.02-4.58c-1.2-2.721-1.91-5.899-2.12-9.45
		l0.01-5c-0.33,0.7-1.22,1.03-1.93,0.71c-0.26-0.119-0.48-0.311-0.63-0.561c-1.38-2.129-2.07-4.129-2.11-6.1
		c-0.01-0.699-0.17-1.41-0.35-2.16c-0.25-1.061-0.53-2.271-0.39-3.609c0.17-1.461,0.23-2.87,0.18-4.189c0-0.051-0.06-0.521-1-2.341
		c-0.59-1.14-0.94-2.819-1.09-5.14l-0.15-5.311c-0.01-0.119,0.05-1.779,0.1-2.66c0-0.061,0.01-0.109,0.01-0.16
		c-0.23,0.131-0.48,0.221-0.76,0.221c-0.32,0-1.35-0.131-1.4-1.819l-0.02-0.171c-0.38-3.47-0.99-9.77-0.75-13.05
		c0.13-1.83,0.4-3.649,0.8-5.39l0.32-2.391c0.68-3.011,1.45-6.051,2.26-8.971c0.25-0.859,0.62-1.68,0.98-2.46
		c0.35-0.761,0.71-1.54,0.93-2.33l0.06-0.199l0.13-0.16c0.01-0.011,0.02-0.021,0.03-0.04c-0.11,0.029-0.23,0.051-0.34,0.069
		c-0.18,0.021-0.32,0.03-0.44,0.03c-0.4,0-0.75-0.08-1.04-0.25c-0.31-0.16-0.81-0.58-0.82-1.541v-1.279
		c0.21-2.279,0.29-4.529,0.24-6.76c-0.05-2.28,0.24-4.271,0.6-6.301l-6.1,1.58l-11.5,3.17c-1.93,0.271-3.74,0.891-5.47,1.871
		l-0.13,0.06c-2.12,0.819-3.73,2.45-4.94,5l-0.17,0.261c-2.03,2.159-2.78,3.329-3.05,3.92c-0.71,1.54-1.52,3.09-2.42,4.62
		l-0.08,0.108c-0.08,0.111-0.12,0.15-0.15,0.201c-0.03,0.049-0.05,0.1-0.08,0.149l0.02,0.029L48.2,172
		c-0.04,0.08-0.2,0.451-0.3,0.681l-0.31,0.511l-0.41,0.29c-0.2,0.119-0.41,0.239-0.62,0.351l-0.28,0.119l-0.25,0.069l-0.11-0.029
		l-0.21,0.029l-0.23-0.029c-1.14-0.159-1.84-0.819-2.27-1.3l-0.16-0.171l-0.06-0.22c-0.03-0.08-0.06-0.17-0.1-0.25l-0.07-0.149
		l-0.01-0.181c-0.08-0.979,0.25-2.01,0.99-3.051c2.29-3.25,5-6.52,8.06-9.75c-1.15,0.181-2.43,0.25-3.88,0.19
		c-5.62,0.409-11.23,1.188-16.67,2.31c-0.98,0.201-1.79,0.101-2.42-0.299c-1.02-0.65-1.51-1.681-1.31-2.75
		c0.22-1.15,1.18-2.062,2.47-2.32c2.83-0.58,5.45-1.12,8.33-1.42c2.66-0.271,5.35-0.58,8.02-0.91c1.34-0.16,2.74-0.189,4.09-0.221
		c1.09-0.01,2.21-0.039,3.3-0.129c0.56-0.051,1.11,0.06,1.61,0.159c0.63,0.13,1.21,0.21,1.75,0.04c0.59-0.189,1.16-0.41,1.74-0.641
		c0.9-0.35,1.84-0.711,2.84-0.949c0.72-0.171,1.43-0.352,2.15-0.551c1-0.26,1.82-0.521,2.44-0.79l0.21-0.069
		c1.29-0.24,2.56-0.609,3.76-1.07l0.26-0.069c0.14-0.021,0.39-0.06,0.86-0.181c3.98-1.02,7.9-1.879,11.66-2.55
		c0.6-3.239,2.16-6.81,4.88-11.21c0.55-0.9,1.83-3.06,2.55-4.28c0.33-0.56,0.55-0.94,0.57-0.96l1.43-2.06l0.77-1.02
		c2.93-3.52,5.23-7.01,6.86-10.41c0.45-0.94,0.72-2,0.79-3.14c0.01-0.17,0.02-0.33,0.02-0.5c-15.01-1.98-28.53-7.94-40.18-17.73
		c-1.78-1.49-3.72-3.19-5.79-5.04c-7.22-6.49-13.28-14-18.03-22.32c-2.89-5.09-4.99-10.52-6.23-16.12c-0.2-0.88-0.33-2.12-0.41-3.77
		c-0.19-4.39,1.13-8.15,4.04-11.49c5.92-6.81,13.06-11.89,21.23-15.11c7.99-3.14,16.92-5.04,27.33-5.78
		c5.74-0.41,12.49-0.56,20.12-0.44c3.79,0.05,7.73,0.5,11.4,1.3c0.83,0.18,1.67,0.34,2.5,0.5c1.6,0.3,3.24,0.62,4.77,1.07
		c5.04,1.5,10.15,3.49,15.19,5.94c2.64-4.65,7.39-9.97,12.331-9.97c0.35,0,0.689,0.03,1.029,0.08c1.45,0.21,2.99,0.79,4.58,1.71
		c2,1.16,4.35,2.72,6.989,4.65c1.79,1.3,3.671,2.33,5.601,3.05c1.271,0.57,1.721,0.68,1.851,0.7c3,0.47,5.09,0.67,6.2,0.59
		c4.729-0.34,8.689-1.15,11.779-2.43c0.43-0.17,0.859-0.36,1.311-0.55c2.141-0.92,4.57-1.96,6.789-2.02h0.301
		c3.91,0,6.891,1.87,8.852,5.55c1.629,3.06,2.09,6.08,2.369,9.37l1.43-0.5c3.9-1.23,6.791-1.92,8.871-2.11
		c0.909-0.08,1.819-0.17,2.729-0.26c3.23-0.33,6.57-0.66,9.721-0.55c6.279,0.23,13.54,0.89,19.729,4.01
		c3.65,1.83,6.19,4.95,7.58,9.27C258.47,49.6,258.6,54.68,257.28,59.81z"/>
	<path id="Jiggle_Billy_Reference" display="none" fill="#FFFFFF" d="M256.919,44.72c-1.39-4.32-3.93-7.44-7.58-9.27
		c-6.188-3.12-13.449-3.78-19.729-4.01c-3.15-0.11-6.49,0.22-9.721,0.55c-0.909,0.09-1.819,0.18-2.729,0.26
		c-2.08,0.19-4.971,0.88-8.871,2.11l-1.43,0.5c-0.279-3.29-0.74-6.31-2.369-9.37c-1.961-3.68-4.94-5.55-8.852-5.55h-0.301
		c-2.219,0.06-4.648,1.1-6.789,2.02c-0.45,0.19-0.881,0.38-1.311,0.55c-3.09,1.28-7.05,2.09-11.779,2.43
		c-1.11,0.08-3.2-0.12-6.2-0.59c-0.13-0.02-0.58-0.13-1.851-0.7c-1.93-0.72-3.811-1.75-5.601-3.05c-2.64-1.93-4.989-3.49-6.989-4.65
		c-1.59-0.92-3.131-1.5-4.58-1.71c-0.34-0.05-0.68-0.08-1.029-0.08c-4.94,0-9.69,5.32-12.331,9.97c-5.04-2.45-10.15-4.44-15.19-5.94
		c-1.53-0.45-3.17-0.77-4.77-1.07c-0.83-0.16-1.67-0.32-2.5-0.5c-3.67-0.8-7.61-1.25-11.4-1.3c-7.63-0.12-14.38,0.03-20.12,0.44
		c-10.41,0.74-19.34,2.64-27.33,5.78c-8.17,3.22-15.31,8.3-21.23,15.11c-2.91,3.34-4.23,7.1-4.04,11.49
		c0.08,1.65,0.21,2.89,0.41,3.77c1.24,5.6,3.34,11.03,6.23,16.12c4.75,8.32,10.81,15.83,18.03,22.32c2.07,1.85,4.01,3.55,5.79,5.04
		c11.65,9.79,25.17,15.75,40.18,17.73c0,0.17-0.01,0.33-0.02,0.5c-0.07,1.14-0.34,2.2-0.79,3.14c-1.63,3.4-3.93,6.89-6.86,10.41
		l-0.77,1.02l-1.43,2.06c-0.02,0.02-0.24,0.4-0.57,0.96c-0.72,1.22-2,3.38-2.55,4.28c-2.72,4.4-4.28,7.971-4.88,11.211
		c-3.76,0.67-7.68,1.529-11.66,2.549c-0.47,0.121-0.72,0.16-0.86,0.181l-0.26,0.069c-1.2,0.461-2.47,0.83-3.76,1.07l-0.21,0.07
		c-0.62,0.27-1.44,0.529-2.44,0.789c-0.72,0.199-1.43,0.381-2.15,0.551c-1,0.24-1.94,0.6-2.84,0.949
		c-0.58,0.23-1.15,0.449-1.74,0.641c-0.54,0.17-1.12,0.09-1.75-0.04c-0.5-0.101-1.05-0.21-1.61-0.159
		c-1.09,0.09-2.21,0.119-3.3,0.129c-1.35,0.03-2.75,0.061-4.09,0.221c-2.67,0.33-5.36,0.641-8.02,0.91c-2.88,0.3-5.5,0.84-8.33,1.42
		c-1.29,0.26-2.25,1.17-2.47,2.32c-0.2,1.069,0.29,2.1,1.31,2.75c0.63,0.398,1.44,0.5,2.42,0.299c5.44-1.119,11.05-1.899,16.67-2.31
		c1.45,0.06,2.73-0.011,3.88-0.19c-3.06,3.23-5.77,6.5-8.06,9.75c-0.74,1.041-1.07,2.07-0.99,3.051l0.01,0.181l0.07,0.149
		c0.04,0.08,0.07,0.17,0.1,0.25l0.06,0.22l0.16,0.171c0.43,0.479,1.13,1.141,2.27,1.301l0.23,0.028l0.21-0.028l0.11,0.028
		l0.25-0.069l0.28-0.119c0.21-0.11,0.42-0.23,0.62-0.351l0.41-0.29l0.31-0.511c0.1-0.229,0.26-0.601,0.3-0.681l0.23-0.529
		l-0.02-0.029c0.03-0.051,0.05-0.101,0.08-0.15c0.03-0.049,0.07-0.09,0.15-0.199l0.08-0.109c0.9-1.529,1.71-3.08,2.42-4.619
		c0.27-0.592,1.02-1.762,3.05-3.921l0.17-0.261c1.21-2.55,2.82-4.18,4.94-5l0.13-0.061c1.73-0.979,3.54-1.601,5.47-1.869l11.5-3.17
		l6.1-1.58c-0.36,2.029-0.65,4.02-0.6,6.3c0.05,2.229-0.03,4.479-0.24,6.76v1.28c0.01,0.96,0.51,1.38,0.82,1.54
		c0.29,0.17,0.64,0.25,1.04,0.25c0.12,0,0.26-0.011,0.44-0.03c0.11-0.02,0.23-0.04,0.34-0.068c-0.01,0.02-0.02,0.028-0.03,0.039
		l-0.13,0.16l-0.06,0.199c-0.22,0.79-0.58,1.57-0.93,2.33c-0.36,0.779-0.73,1.602-0.98,2.46c-0.81,2.92-1.58,5.96-2.26,8.971
		l-0.32,2.39c-0.4,1.74-0.67,3.561-0.8,5.391c-0.24,3.279,0.37,9.58,0.75,13.05l0.02,0.171c0.05,1.689,1.08,1.819,1.4,1.819
		c0.28,0,0.53-0.09,0.76-0.22c0,0.05-0.01,0.1-0.01,0.16c-0.05,0.879-0.11,2.539-0.1,2.66l0.15,5.31c0.15,2.319,0.5,4,1.09,5.14
		c0.94,1.82,1,2.29,1,2.342c0.05,1.318-0.01,2.729-0.18,4.188c-0.14,1.34,0.14,2.55,0.39,3.61c0.18,0.75,0.34,1.459,0.35,2.16
		c0.04,1.969,0.73,3.969,2.11,6.1c0.15,0.25,0.37,0.439,0.63,0.56c0.71,0.32,1.6-0.01,1.93-0.71l-0.01,5
		c0.21,3.551,0.92,6.73,2.12,9.45c0.6,1.392,1.62,2.931,3.02,4.58c1.71,2.03,3.48,4.069,5.27,6.069c0.48,0.53,1.61,2.189,2.44,3.399
		c0.94,1.36,1.15,1.671,1.32,1.83c0.22,0.21,0.43,0.431,0.62,0.66c0.56,0.681,0.98,1.431,1.24,2.239
		c0.05,0.15,0.13,0.301,0.24,0.431c0.25,0.3,0.62,0.479,1.01,0.479c0.3,0,0.6-0.109,0.84-0.311c2.66-2.229,2.81-6.01,2.66-8.061
		c-0.27-3.689-0.36-6.689-0.29-8.92l0.08-2.379c0.37,0.818,0.76,1.608,1.15,2.369c0.21,0.399,0.55,0.71,0.98,0.869
		c0.91,0.352,2-0.148,2.35-1.061l1.98-5.31c0.17-0.46,0.43-0.87,0.77-1.21c1.03-1.08,2.03-2.221,2.99-3.4
		c2.17-2.689,4.27-5.47,6.24-8.271c0.6,0.181,1.15,0.142,1.61-0.13c0.36-0.199,0.72-0.391,1.08-0.569
		c0.76-0.38,1.54-0.771,2.24-1.36c2.89-2.409,5.53-5.219,7.87-8.359c0.36-0.479,0.68-1,0.96-1.529c0.26-0.471,0.53-0.939,0.82-1.4
		c0.5-0.799,1-1.709,1.49-2.699c0.169,0.29,0.419,0.521,0.73,0.66c1.321,0.601,2.821,0.061,3.471-1.24l0.33-0.68
		c0.979-1.961,1.898-3.811,3.25-5.61c0.939-1.271,1.879-2.54,2.81-3.83c1.37-1.899,5.88-7.38,7.569-9.438
		c0.471-0.57,0.76-0.92,0.771-0.94c0.591-0.88,1.181-1.76,1.78-2.649c0.64-0.931,1.209-1.88,1.709-2.82
		c0.841-1.6,1.65-3.149,2.421-4.659c0.479-0.931,0.87-1.89,1.17-2.87c0.221-0.729,0.479-1.46,0.761-2.199
		c0.409,0.409,0.819,0.5,1.1,0.5c0.33,0,0.82-0.119,1.24-0.681l0.17-0.181l0.061-0.229c0.101-0.369,0.23-0.729,0.369-1.101
		c0.33-0.93,0.69-1.75,1.131-2.569l0.021-0.04c0.01-0.01,0.01-0.02,0.01-0.029l0.06-0.101c0.61-1.22,1.319-2.279,2.12-3.16
		c0.48-0.528,1.369-2.101,1.619-2.649l1.801-3.08l0.091-0.189c1.239-3.721,1.5-7.689,0.789-11.76l-0.869-6.271
		c-0.551-2.36-0.771-4.729-0.649-7.069c0.199,0.02,0.41,0.05,0.6,0.029c1.932,0,3.801-0.88,4.891-2.3
		c0.45-0.58,0.881-1.55,1.351-3.06c0.909-2.88,2.062-4.69,4.42-6.91c1.021-0.97,2.399-2,4.101-3.06
		c5.37-3.34,8.319-7.54,9.029-12.85c0.021-0.1,0.029-0.15,0.029-0.16c0.07-0.04,0.291-0.08,0.431-0.11
		c0.261-0.06,0.53-0.12,0.802-0.22c4.049-1.54,8.318-3.39,12.68-5.5c6.42-3.13,12.16-6.95,17.05-11.36
		c9.3-8.38,16.53-18.33,21.47-29.58c0.971-2.18,1.78-4.69,2.432-7.44C258.6,54.68,258.47,49.6,256.919,44.72z"/>
</g>
<g id="Silk_Screen_1_">
	<path d="M113.555,224.104c-0.115-0.39-0.375-0.711-0.804-0.942c-0.714-0.387-1.674-0.102-2.06,0.608l-2.255,4.155
		c-0.193,0.355-0.237,0.767-0.121,1.154c0.115,0.391,0.375,0.711,0.803,0.942c0.222,0.12,0.472,0.185,0.724,0.185
		c0.558,0,1.07-0.306,1.336-0.795l2.255-4.152C113.626,224.903,113.67,224.494,113.555,224.104z"/>
	<path d="M134.949,195.621l-0.146-0.007c-0.169,0-0.339,0.027-0.495,0.077c-0.577,0.176-0.99,0.7-1.028,1.296
		c-0.234,3.29-1.049,6.54-2.424,9.659c-0.233,0.527-0.341,1.037-0.321,1.516c0.032,0.762,0.563,1.305,1.311,1.346l0.112,0.005
		c0.621,0,1.181-0.347,1.464-0.908c1.671-3.38,2.657-7.197,2.932-11.345C136.415,196.362,135.831,195.688,134.949,195.621z"/>
	<path d="M102.002,198.933c-0.209-0.314-0.563-0.502-0.947-0.502c-0.413,0-0.829,0.199-1.435,0.689
		c-0.549,0.444-1.102,0.976-1.652,1.588c0.419-1.78,1.081-3.742,1.979-5.86c0.131-0.31,0.403-0.955,0.031-1.517l-0.375-0.483h-0.537
		c-0.421,0-0.773,0.224-1.094,0.467c-0.662,0.505-1.176,1.287-1.527,2.322l-0.271,0.786c-0.86,2.478-1.93,5.56-1.517,8.253
		c0.203,1.321,0.741,1.991,1.599,1.991c0.262,0,0.498-0.072,0.71-0.19c-0.576,3.349-0.651,6.825-0.222,10.37
		c0.083,0.67,0.602,1.137,1.262,1.137l0.391-0.035c0.675-0.078,1.137-0.588,1.15-1.267c0.017-0.89,0.004-1.786-0.008-2.683
		c-0.022-1.551-0.042-3.016,0.086-4.435c0.26-2.849,1.02-5.789,2.258-8.737C102.143,200.214,102.387,199.512,102.002,198.933z"/>
	<path d="M95.537,161.941l-0.386-0.419h-0.483c-0.521,0-0.92,0.338-1.273,0.701c-2.838,2.905-4.692,6.466-5.513,10.596
		c-0.089,0.481,0.074,0.802,0.227,0.985l0.35,0.381h0.469c0.212,0,0.417-0.059,0.625-0.178c0.676-0.387,1.208-1.063,1.629-2.071
		c0.161-0.388,0.316-0.78,0.472-1.176c0.518-1.313,1.053-2.673,1.803-3.742c0.189-0.271,0.414-0.539,0.641-0.813
		c0.631-0.763,1.348-1.627,1.604-2.722C95.82,162.974,95.894,162.391,95.537,161.941z"/>
	<path d="M93.547,157.021l-0.893,0.035l-0.664,1.109c-2.365,3.986-2.197,4.574-2.106,4.891l0.131,0.41l0.546,0.33l0.209,0.209
		l0.436,0.006c0.477,0,1.017,0,3.532-4.237l0.385-0.649l0.418-0.933L93.547,157.021z"/>
	<path d="M164.384,157.47c-0.131-0.799-0.739-1.32-1.559-1.327h-0.16c-0.545,0-0.871,0.239-1.049,0.44s-0.375,0.555-0.309,1.086
		c0.46,3.897,0.09,7.942-1.102,12.037c-0.062-0.037-0.123-0.069-0.188-0.1c-0.962-0.438-2.167,0.02-2.603,0.975
		c-0.754,1.647-1.552,3.297-2.371,4.902c-1.068,2.096-1.815,4.155-2.605,6.337c-0.295,0.813-0.592,1.632-0.904,2.451
		c-0.068,0.171-0.098,0.358-0.084,0.543c0.045,0.647,0.588,1.156,1.236,1.156l0.303-0.021c0.665-0.049,1.24-0.459,1.499-1.063
		l4.71-10.762c0.641,0.584,1.7,0.584,2.352-0.029c0.552-0.535,0.984-1.211,1.287-2.01
		C164.634,167.305,165.154,162.388,164.384,157.47z"/>
	<path d="M144.91,152.649c-0.213-0.214-0.498-0.331-0.799-0.331l-0.387,0.021l-0.258,0.182c-1.919,1.341-3.751,2.453-5.431,3.309
		c-1.058-0.443-2.147-0.539-3.436-0.322c-0.574-0.262-1.092-0.389-1.583-0.389c-0.653,0-1.805,0.246-2.41,1.832l-0.993-0.013
		c-0.606,0-1.174,0.296-1.518,0.791c-0.14,0.199-0.282,0.328-0.364,0.328c-0.336,0-1.011-0.664-1.374-1.021l-0.306-0.298
		c-0.596-0.563-1.598-0.599-2.225-0.092c-0.171,0.138-0.37,0.239-0.543,0.304c-0.347-0.195-0.691-0.412-1.032-0.646
		c-0.6-0.405-1.296-0.398-1.806-0.016c-0.443,0.332-0.532,0.739-0.545,0.955c-0.013,0.215,0.024,0.631,0.422,1.014
		c1.397,1.352,2.91,1.734,4.285,1.154c0.073,0.057,0.146,0.112,0.22,0.17c0.84,0.651,1.793,1.391,3.112,1.391
		c0.142,0,0.288-0.01,0.419-0.025c0.433-0.047,0.841-0.246,1.148-0.558c0.47-0.476,1.029-0.72,1.716-0.747
		c0.506-0.021,0.944-0.238,1.269-0.626l0.793-0.951c0.59,0.12,1.184,0.181,1.77,0.181h0.159c0.884,0,1.431,0.162,2.259,0.406
		l0.281,0.083c0.346,0.095,0.727,0.074,1.049-0.05c1.852-0.689,3.703-1.727,5.5-3.079c0.457-0.343,0.789-0.79,0.986-1.33
		C145.507,153.684,145.357,153.067,144.91,152.649z"/>
	<path d="M120.37,153.896l-1.922-1.982c-0.536-0.555-1.488-0.582-2.07-0.02c-0.575,0.559-0.589,1.479-0.032,2.053l1.924,1.985
		c0.272,0.28,0.652,0.44,1.043,0.44c0.379,0,0.737-0.145,1.025-0.424C120.912,155.393,120.926,154.472,120.37,153.896z"/>
	<path d="M169.453,153.484c-0.048-0.503-0.238-0.953-0.56-1.326c-0.417-0.496-1.019-0.707-1.628-0.561
		c-0.654,0.156-1.063,0.816-0.907,1.477c0.306,1.279,0.11,2.807-0.579,4.536c-0.251,0.631-0.054,1.07,0.086,1.276
		c0.137,0.201,0.465,0.542,1.112,0.542l0.271-0.009c0.732-0.051,1.307-0.443,1.612-1.109
		C169.44,157.053,169.639,155.428,169.453,153.484z"/>
	<path d="M127.807,112.713c-0.022-0.331-0.298-0.59-0.672-0.59c-0.001,0-0.002,0-0.003,0l-4.44,0.303
		c-0.347,0.025-0.61,0.328-0.587,0.675l0.038,0.552c0.022,0.332,0.3,0.592,0.632,0.592l4.48-0.304
		c0.169-0.011,0.323-0.088,0.435-0.215c0.111-0.127,0.167-0.291,0.155-0.46L127.807,112.713z"/>
	<path d="M197.526,110.432l-0.045-0.199c-0.128-0.576-0.629-0.978-1.224-0.978c-5.412,0.029-10.375,2.145-13.616,5.803
		c-0.499,0.563-0.812,1.177-0.929,1.821l-0.022,0.213c-0.013,0.38,0.123,0.741,0.383,1.019c0.261,0.278,0.612,0.437,0.988,0.449
		l0.224,0.004c0.17,0,0.334-0.006,0.493-0.013c0.126-0.005,0.25-0.01,0.372-0.01c0.337,0,0.53,0.045,0.734,0.172
		c0.64,0.397,1.222,1.016,0.703,2.597c-0.701,2.157-1.522,4.034-2.442,5.579c-0.341,0.575-0.205,1.324,0.313,1.738
		c0.269,0.218,0.59,0.334,0.93,0.334c0.505,0,0.994-0.246,1.486-0.744c0.111-0.11,0.207-0.235,0.271-0.348
		c1.528-2.568,2.897-5.109,2.849-7.961c-0.039-2.339-1.473-3.067-2.633-3.646c1.725-1.986,3.825-3.17,6.398-3.612
		c1.258-0.215,2.476-0.413,3.725-0.606c0.354-0.073,0.657-0.28,0.855-0.583C197.537,111.157,197.604,110.796,197.526,110.432z"/>
	<ellipse transform="matrix(0.4772 -0.8788 0.8788 0.4772 -17.8527 180.2506)" cx="142.571" cy="105.13" rx="3.231" ry="3.067"/>
	<ellipse transform="matrix(0.3795 -0.9252 0.9252 0.3795 -25.8879 172.6795)" cx="115.795" cy="105.64" rx="3.309" ry="3.026"/>
	<path d="M256.916,44.718c-1.381-4.314-3.929-7.433-7.57-9.27c-6.19-3.117-13.45-3.774-19.735-4.006
		c-3.151-0.116-6.493,0.222-9.717,0.545c-0.913,0.092-1.824,0.184-2.729,0.265c-2.08,0.19-4.973,0.876-8.871,2.108l-1.428,0.504
		c-0.289-3.292-0.742-6.31-2.371-9.37c-1.961-3.688-4.938-5.559-8.849-5.559l-0.301,0.004c-2.22,0.055-4.65,1.098-6.794,2.019
		c-0.445,0.191-0.883,0.378-1.309,0.553c-3.09,1.274-7.053,2.092-11.779,2.429c-1.112,0.082-3.205-0.123-6.2-0.591
		c-0.134-0.021-0.577-0.13-1.854-0.699c-1.928-0.725-3.81-1.751-5.595-3.051c-2.64-1.93-4.991-3.493-6.987-4.646
		c-1.597-0.922-3.138-1.499-4.58-1.715c-0.341-0.051-0.688-0.077-1.035-0.077c-4.936,0-9.692,5.314-12.333,9.964
		c-5.037-2.443-10.144-4.438-15.183-5.933c-1.529-0.452-3.177-0.768-4.771-1.074c-0.833-0.16-1.67-0.32-2.497-0.501
		c-3.67-0.793-7.612-1.243-11.401-1.302c-7.631-0.115-14.388,0.033-20.122,0.444c-10.407,0.744-19.346,2.636-27.327,5.785
		c-8.174,3.219-15.319,8.299-21.235,15.1c-2.907,3.342-4.228,7.102-4.036,11.495c0.075,1.653,0.207,2.887,0.403,3.772
		c1.243,5.601,3.341,11.024,6.236,16.122C41.69,76.35,47.755,83.857,54.97,90.346c2.066,1.857,4.014,3.555,5.79,5.046
		c11.649,9.787,25.169,15.749,40.184,17.724c-0.025,1.345-0.299,2.569-0.814,3.646c-1.628,3.396-3.925,6.887-6.854,10.407
		l-0.777,1.019l-1.432,2.062c-0.013,0.019-0.239,0.396-0.569,0.957c-0.721,1.226-1.993,3.386-2.544,4.28
		c-2.726,4.407-4.282,7.976-4.886,11.211c-3.76,0.675-7.682,1.532-11.66,2.55c-0.465,0.119-0.722,0.164-0.855,0.181l-0.262,0.067
		c-1.203,0.469-2.466,0.83-3.756,1.074l-0.217,0.066c-0.621,0.273-1.433,0.537-2.436,0.791c-0.718,0.201-1.432,0.385-2.149,0.549
		c-1.006,0.238-1.94,0.604-2.844,0.955c-0.573,0.224-1.147,0.447-1.742,0.639c-0.539,0.174-1.119,0.086-1.741-0.04
		c-0.504-0.104-1.051-0.209-1.619-0.157c-1.082,0.092-2.206,0.112-3.292,0.133c-1.355,0.024-2.756,0.051-4.097,0.216
		c-2.661,0.329-5.359,0.637-8.019,0.911c-2.881,0.296-5.494,0.834-8.332,1.416c-1.283,0.262-2.25,1.171-2.463,2.316
		c-0.199,1.072,0.291,2.102,1.308,2.752c0.628,0.404,1.44,0.508,2.419,0.309c5.441-1.127,11.052-1.903,16.675-2.312
		c1.441,0.058,2.729-0.011,3.877-0.194c-3.062,3.228-5.771,6.5-8.065,9.75c-0.735,1.041-1.067,2.068-0.986,3.056l0.014,0.171
		l0.07,0.156c0.037,0.08,0.069,0.164,0.094,0.248l0.064,0.221l0.153,0.17c0.432,0.479,1.139,1.135,2.276,1.305l0.226,0.024
		l0.218-0.026l0.109,0.023l0.246-0.071l0.284-0.112c0.21-0.114,0.419-0.229,0.617-0.354l0.412-0.289l0.309-0.505
		c0.102-0.234,0.262-0.6,0.299-0.684l0.001,0.002l0.229-0.535l-0.017-0.025c0.024-0.056,0.049-0.105,0.077-0.15
		c0.03-0.053,0.067-0.094,0.151-0.197l0.076-0.11c0.901-1.528,1.716-3.082,2.42-4.62c0.271-0.596,1.021-1.759,3.051-3.922
		l0.175-0.258c1.202-2.55,2.816-4.186,4.937-5.001l0.132-0.063c1.729-0.975,3.536-1.6,5.47-1.869l11.494-3.168l6.102-1.582
		c-0.355,2.033-0.646,4.021-0.597,6.299c0.047,2.234-0.031,4.479-0.236,6.767v1.278c0.01,0.96,0.509,1.376,0.811,1.542
		c0.296,0.161,0.646,0.241,1.04,0.241c0.127,0,0.263-0.008,0.444-0.03c0.116-0.019,0.23-0.04,0.343-0.063
		c-0.011,0.014-0.022,0.026-0.033,0.041l-0.132,0.159l-0.057,0.2c-0.224,0.789-0.583,1.57-0.93,2.324
		c-0.362,0.787-0.735,1.602-0.978,2.459c-0.815,2.92-1.583,5.962-2.262,8.978l-0.325,2.392c-0.396,1.74-0.665,3.552-0.797,5.386
		c-0.235,3.278,0.366,9.582,0.745,13.047l0.021,0.171c0.049,1.688,1.086,1.818,1.403,1.818c0.279,0,0.534-0.088,0.757-0.215
		c-0.045,0.83-0.113,2.692-0.108,2.821l0.156,5.31c0.143,2.313,0.498,3.994,1.086,5.137c0.943,1.816,1,2.293,1.003,2.339
		c0.043,1.321-0.018,2.731-0.18,4.197c-0.144,1.34,0.138,2.543,0.386,3.604c0.176,0.752,0.342,1.461,0.354,2.16
		c0.035,1.971,0.726,3.971,2.105,6.104c0.152,0.244,0.372,0.436,0.633,0.553c0.707,0.322,1.595-0.008,1.924-0.703l-0.002,5
		c0.208,3.551,0.919,6.73,2.112,9.452c0.607,1.384,1.625,2.924,3.022,4.577c1.708,2.025,3.48,4.064,5.271,6.064
		c0.479,0.533,1.616,2.193,2.446,3.404c0.932,1.359,1.147,1.667,1.317,1.829c0.887,0.848,1.511,1.821,1.855,2.896
		c0.051,0.157,0.13,0.303,0.241,0.438c0.25,0.301,0.618,0.473,1.008,0.473c0.306,0,0.604-0.108,0.838-0.305
		c2.663-2.233,2.811-6.011,2.662-8.062c-0.264-3.691-0.361-6.691-0.291-8.916l0.081-2.381c0.378,0.814,0.762,1.606,1.15,2.366
		c0.209,0.402,0.557,0.711,0.979,0.87c0.917,0.345,2.009-0.15,2.351-1.063l1.987-5.313c0.171-0.456,0.427-0.861,0.762-1.211
		c1.03-1.074,2.035-2.216,2.99-3.393c2.171-2.69,4.271-5.475,6.245-8.276c0.603,0.185,1.151,0.144,1.612-0.123
		c0.354-0.207,0.718-0.39,1.078-0.571c0.757-0.381,1.539-0.775,2.244-1.363c2.884-2.403,5.53-5.217,7.863-8.359
		c0.357-0.48,0.682-0.995,0.962-1.523c0.256-0.479,0.529-0.949,0.818-1.408c0.501-0.799,1-1.701,1.491-2.696
		c0.172,0.293,0.424,0.52,0.734,0.659c1.319,0.604,2.812,0.06,3.464-1.242l0.334-0.672c0.977-1.965,1.897-3.818,3.243-5.617
		c0.949-1.266,1.888-2.542,2.812-3.828c1.371-1.902,5.88-7.376,7.576-9.438c0.469-0.567,0.754-0.922,0.771-0.945
		c0.589-0.876,1.183-1.758,1.781-2.645c0.632-0.937,1.204-1.887,1.704-2.824c0.845-1.598,1.652-3.148,2.425-4.655
		c0.478-0.929,0.868-1.897,1.166-2.874c0.223-0.725,0.479-1.463,0.761-2.202c0.41,0.411,0.824,0.499,1.104,0.499
		c0.332,0,0.813-0.118,1.238-0.68l0.164-0.178l0.065-0.23c0.104-0.365,0.229-0.727,0.364-1.102c0.33-0.924,0.694-1.752,1.134-2.564
		l0.02-0.04c0.007-0.013,0.013-0.022,0.015-0.029l0.056-0.102c0.61-1.22,1.325-2.284,2.123-3.165
		c0.483-0.529,1.369-2.098,1.618-2.648l1.804-3.078l0.087-0.189c1.238-3.721,1.503-7.688,0.791-11.754l-0.874-6.278
		c-0.546-2.356-0.762-4.728-0.644-7.065c0.197,0.019,0.408,0.052,0.597,0.027c1.926,0,3.8-0.878,4.89-2.293
		c0.448-0.583,0.879-1.558,1.354-3.069c0.903-2.875,2.06-4.683,4.418-6.909c1.021-0.967,2.401-1.994,4.101-3.052
		c5.368-3.341,8.322-7.546,9.03-12.854c0.015-0.101,0.031-0.151,0.029-0.159c0.071-0.038,0.284-0.084,0.429-0.115
		c0.258-0.056,0.529-0.118,0.796-0.22c4.06-1.536,8.324-3.387,12.681-5.502c6.424-3.125,12.162-6.943,17.057-11.351
		c9.299-8.381,16.523-18.333,21.473-29.582c0.963-2.186,1.78-4.697,2.428-7.444C258.597,54.676,258.474,49.599,256.916,44.718z
		 M194.589,101.66c-0.657-0.128-1.286-0.19-1.926-0.19c-1.738,0-3.248,0.478-4.847,0.983c-0.362,0.115-0.737,0.233-1.123,0.349
		c-0.292,0.084-0.567,0.061-0.879-0.075c-1.131-0.496-2.254-0.994-3.372-1.491c-3.564-1.583-7.221-3.205-11.021-4.669
		c0.465-0.044,0.925-0.11,1.381-0.199c0.82-0.164,1.633-0.496,2.41-0.989l0.091-0.062c0.422-0.303,0.7-0.752,0.782-1.265
		c0.084-0.512-0.037-1.025-0.344-1.452c-0.203-0.278-0.478-0.492-0.804-0.634l0.217-0.608c0.226-0.628,0.091-1.085-0.063-1.359
		c-0.152-0.273-0.473-0.627-1.129-0.764c-3.452-0.708-6.562-1.62-9.264-2.717l0.002-0.001c0.256-0.104,0.479-0.272,0.646-0.483
		c0.543-0.684,0.429-1.684-0.253-2.226c-0.243-0.194-0.478-0.394-0.71-0.591c-0.694-0.59-1.413-1.201-2.321-1.668
		c-1.104-0.572-2.196-1.124-3.283-1.655c-1.975-0.965-4.17-1.477-5.944-1.786c0.147-0.494,0.07-1.024-0.244-1.521
		c-1.379-2.195-5.702-3.669-7.856-4.236c0.072-0.041,0.146-0.083,0.224-0.126c0.328-0.186,0.58-0.482,0.709-0.834
		c0.147-0.399,0.131-0.831-0.049-1.217c-0.179-0.386-0.496-0.679-0.896-0.825c-2.938-1.08-5.768-0.667-8.297,1.214
		c-1.232,0.915-2.528,1.841-3.853,2.756l-1.261-1.439l-0.194-0.186c-0.638-0.511-1.649-0.396-2.156,0.237
		c-2.05,2.552-3.47,5.22-4.23,7.942c-2.405-4.289-7.495-7.405-12.969-7.941c-1.236-0.123-2.44,0.001-3.702,0.408
		c-0.364,0.135-0.655,0.403-0.819,0.755c-0.166,0.355-0.182,0.753-0.05,1.108l0.775,2.172c-3.245-0.391-6.212,0.262-8.869,1.936
		c-0.094,0.06-0.181,0.13-0.263,0.21c-0.3,0.297-0.466,0.693-0.469,1.115c-0.002,0.396,0.141,0.77,0.399,1.059
		c-2.8,0.933-5.361,2.374-7.623,4.291c-0.495,0.417-0.848,0.883-1.048,1.381c-0.16,0.395-0.161,0.831-0.005,1.227
		C90.175,87.81,90.3,88,90.455,88.157c-0.199,0.194-0.395,0.391-0.587,0.592c-0.324,0.341-0.56,0.794-0.788,1.233
		c-0.127,0.245-0.34,0.654-0.376,0.708c-2.642,1.271-3.861,2.997-3.435,4.852l0.077,0.245c0.313,0.768,1.233,1.158,2.008,0.845
		c1.293-0.529,2.66-1.073,4.099-1.632c1.286-0.5,2.663-0.922,4.091-1.253c0.525-0.122,1.044-0.246,1.559-0.37
		c1.067-0.256,2.111-0.507,3.152-0.716c-0.724,0.469-1.099,1.338-0.923,2.2c0.957,4.743,1.525,9.773,1.691,14.957
		c-0.797-0.144-1.608-0.279-2.421-0.416c-2.07-0.347-4.211-0.706-6.061-1.189c-8.897-2.328-17.211-6.222-24.711-11.575
		c-1.927-1.376-4.059-3.155-6.122-4.875c-0.853-0.711-1.704-1.421-2.54-2.104c-2.68-2.183-6.215-5.78-10.507-10.691
		c-3.493-4-6.912-9.207-10.161-15.477c-1.073-2.068-1.979-4.196-2.693-6.326c-1.467-4.369-2.909-9.363-1.448-13.331
		c1.251-3.406,3.059-6.019,5.69-8.225c0.845-0.71,1.753-1.498,2.723-2.361c3.925-3.492,8.453-6.244,13.458-8.178
		c5.149-1.991,10.204-3.416,15.023-4.236c1.543-0.26,3.137-0.527,4.779-0.801c5.035-0.833,10.52-1.256,16.302-1.256
		c2.417,0,4.881,0.076,7.326,0.224c1.23,0.076,2.458,0.133,3.667,0.19c2.837,0.134,5.518,0.261,7.892,0.593
		c6.354,0.889,12.614,2.542,18.608,4.912c8.677,3.434,16.943,7.906,24.569,13.29c4.896,3.457,9.077,6.736,12.428,9.745
		c4.745,4.259,8.151,7.467,10.127,9.532c3.258,3.412,6.329,6.625,9.217,9.639c2.029,2.12,6.365,7.212,12.887,15.134
		c1.431,1.739,3.988,3.979,7.82,6.849c2.828,2.119,6.162,3.572,9.938,4.327l0.203,0.017c0.649,0,1.185-0.529,1.188-1.157
		l0.006-0.175c0.008-0.749-0.438-1.331-1.162-1.518c-4.728-1.218-9.144-3.936-13.127-8.079c-0.225-0.232-0.229-0.292-0.086-0.914
		c0.063-0.271,0.129-0.559,0.16-0.871c1.094-10.806,1.738-17.894,1.914-21.066c0.404-7.229,0.746-14.569,1.019-21.822
		c3.655-1.17,7.09-1.991,10.214-2.442c2.386-0.342,5.561-0.516,9.434-0.516l0.774,0.002c1.86,0.011,3.692,0.222,5.633,0.446
		c0.747,0.086,1.498,0.172,2.254,0.248c4.011,0.395,7.562,1.123,10.552,2.164c1.422,0.495,4.024,1.614,5.479,3.541
		c3.278,4.353,3.784,11.55,2.831,16.751c-0.691,3.766-1.936,7.61-3.6,11.115c-6.238,13.116-15.541,23.815-27.646,31.8
		c-2.384,1.575-5.3,3.083-8.121,4.54l-1.21,0.626c-3.12,1.621-6.574,2.872-9.917,4.081c-0.323,0.118-0.647,0.235-0.971,0.352
		C202.125,105.816,199.125,102.538,194.589,101.66z M179.226,138.914c-1.12,0.379-2.594-0.336-3.553-1.639
		c-0.148-0.203-0.332-0.552-0.207-1.249c0.589-3.244,1.216-5.643,1.863-7.129c0.25-0.57,0.508-1.143,0.767-1.719
		c1.565-3.489,3.187-7.098,3.512-10.953c0.12-1.434-0.222-2.769-0.553-4.061l-0.058-0.22c-0.015-0.058-0.015-0.069,0.021-0.118
		c1.859-2.438,5.451-5.517,8.244-6.449c1.111-0.37,2.193-0.557,3.217-0.557c2.766,0,4.891,1.342,6.148,3.879
		c0.49,0.992,0.705,2.033,0.658,3.183c-0.183,4.297-1.677,7.56-4.568,9.975c-0.958,0.8-2.004,1.557-3.108,2.359
		c-2.399,1.739-4.88,3.537-6.876,6.047c-1.07,1.345-2.227,3.389-3.434,6.074C180.819,137.408,180.222,138.579,179.226,138.914z
		 M169.367,176.427c-0.199-0.148-0.43-0.258-0.668-0.316c-0.984-0.236-2.003,0.383-2.242,1.359
		c-0.646,2.652-1.556,5.152-2.701,7.433c-2.506,4.992-4.842,8.826-6.943,11.396c-2.326,2.847-4.843,5.935-7.549,9.266
		c-1.18,1.453-2.794,3.992-4.918,7.738l-0.366-2.387c-0.092-0.572-0.5-1.006-1.054-1.129c-0.923-0.215-1.695,0.256-1.957,1.153
		c-1.931,6.558-5.517,12.065-10.659,16.374c-0.183,0.152-0.361,0.309-0.539,0.462c-0.222,0.192-0.439,0.382-0.659,0.56
		c0.05-0.861,0.038-1.885-0.175-2.73c-0.103-0.429-0.406-0.789-0.812-0.964c-0.695-0.299-1.548,0.038-1.859,0.737
		c-1.638,3.777-3.479,6.918-5.97,10.185c-1.169,1.532-2.351,3.019-3.522,4.429c0.092-1.442,0.031-3.054-0.182-4.808
		c-0.084-0.69-0.671-1.211-1.418-1.211c0,0-0.001,0-0.002,0l-0.117,0.005c-0.335,0.007-0.641,0.137-0.859,0.365
		c-0.218,0.229-0.333,0.539-0.325,0.89c0.162,4.088-0.412,8.086-1.708,11.908c-0.594-1.155-1.236-2.312-1.915-3.448
		c-0.199-0.334-0.727-1.221-1.623-1.221c-0.766,0-1.295,0.57-1.573,1.695c-0.073,0.293-0.155,0.606-0.24,0.937
		c-0.547,2.104-1.228,4.726-1.002,6.875c0.507,4.847,0.751,8.442,0.724,10.69c-0.006,0.483-0.081,0.983-0.222,1.494
		c-1.067-1.561-2.137-3.109-3.208-4.648c-1.229-1.757-2.563-3.266-3.976-4.861c-0.513-0.58-1.032-1.166-1.551-1.771
		c-3.762-4.387-5.425-9.7-5.236-16.723c0.087-3.252,0.38-6.438,0.872-9.479c0.031-0.199,0.016-0.405-0.043-0.592
		c-0.171-0.551-0.673-0.92-1.249-0.92l-0.251,0.014l-0.151,0.05c-1.176,0.386-2.435,2.116-3.731,4.103
		c-0.035-0.176-0.064-0.354-0.088-0.535c-0.556-4.172-0.49-8.391,0.195-12.543c0.309-1.862,0.855-3.766,1.622-5.646
		c0.123-0.296,0.117-0.611-0.018-0.891l-0.26-0.463l-0.456-0.113c-0.149-0.037-0.301-0.057-0.45-0.057
		c-0.523,0-1.269,0.226-1.856,1.299c-0.168,0.308-0.298,0.638-0.39,0.988l-0.617,2.457c-0.195-0.56-0.354-1.114-0.44-1.674
		c-0.55-3.526-0.688-7.065-0.408-10.517c0.095-1.174,0.218-2.33,0.366-3.448c0.02-0.16,0.009-0.32-0.032-0.48
		c-0.148-0.572-0.665-0.973-1.256-0.973l-0.322,0.041c-0.521,0.133-0.93,0.418-1.263,0.769c-0.119-5.584,0.054-9.94,0.517-12.954
		c0.594-3.893,1.354-7.508,2.261-10.749c0.686-2.464,1.778-4.97,3.246-7.447c0.4-0.674,1.005-1.692,0.656-2.728
		c-0.21-0.625-0.712-1.1-1.497-1.415c-0.651-0.259-1.395-0.281-2.228-0.062c-0.134-4.082,0.09-8.22,0.669-12.318
		c0.433-0.193,0.814-0.313,1.142-0.356c2.478-0.34,4.994-0.69,7.548-1.06c1-0.145,2.162-0.34,3.421-0.551
		c3.154-0.531,7.08-1.19,10.434-1.341c4.382-0.196,7.729-0.204,9.918-0.021c0.378,0.766,0.501,0.945,0.587,1.057
		c3.04,3.881,7.334,5.467,12.585,4.639c1.74-0.276,3.264-0.666,4.527-1.16c1.439-0.563,2.946-1.02,4.403-1.461
		c0.595-0.18,1.188-0.358,1.775-0.545c1.47-0.463,2.726-1.343,3.939-2.192c0.271-0.19,0.545-0.382,0.822-0.569
		c0.522-0.354,1.18-0.738,1.953-1.144c2.844-1.492,5.467-3.374,7.793-5.588c0.785-0.739,1.306-1.492,1.754-2.545
		c1.293,0.221,2.596,0.699,3.841,1.405l0.159,0.083c0.625,0.271,1.396-0.038,1.658-0.655c0.099-0.225,0.155-0.479,0.148-0.743
		c0.387,0.436,0.807,0.86,1.26,1.271c0.327,0.297,0.706,0.506,1.12,0.622c0.914,0.259,1.665-0.103,1.929-0.844
		c0.226-0.623,0.006-1.322-0.539-1.705c-1.055-0.732-1.187-1.442-1.193-1.912c-0.008-0.424-0.16-0.813-0.452-1.138l-0.146-0.156
		c0.086-0.177,0.174-0.352,0.262-0.526c0.431-0.855,0.876-1.739,1.052-2.767c0.325-1.889,0.427-3.766,0.302-5.596
		c2.588,0.139,3.393-1.505,3.735-3.193l0.265,0.274c0.141,0.147,0.303,0.269,0.477,0.359c0.875,0.46,2.035,0.096,2.496-0.776
		c1.744-3.282,2.349-6.577,1.799-9.827c0.031,0.013,0.064,0.025,0.097,0.037c0.19,0.071,0.39,0.106,0.612,0.106c0,0,0,0,0.001,0
		c0.108-0.001,0.216-0.013,0.317-0.034c-0.016,0.279,0.035,0.562,0.152,0.823c1.141,2.609,0.528,6.479-0.584,9.158
		c-1.052,2.538-1.993,4.972-2.798,7.235c-1.976,5.566-2.666,11.309-2.05,17.068c0.093,0.892,0.732,1.478,1.646,1.492h0.205
		c0.407,0,0.69-0.144,0.873-0.284c0.325,2.301,0.632,4.62,0.914,6.917c0.458,3.691,0.519,7.019,0.181,9.886
		c-0.259,2.181-1.369,4.631-3.304,7.279c-1.291,1.768-2.362,3.658-3.216,5.689C169.498,176.529,169.434,176.478,169.367,176.427z
		 M94.916,88.991c0.137-0.05,0.267-0.119,0.383-0.203c0.35-0.251,0.581-0.624,0.65-1.049c0.069-0.425-0.031-0.851-0.283-1.201
		c-0.165-0.228-0.377-0.403-0.626-0.521c2.071-1.219,4.646-2.391,7.681-3.496c0.665-0.24,0.937-0.653,1.047-0.958
		c0.109-0.302,0.167-0.785-0.177-1.374c-0.097-0.167-0.21-0.306-0.33-0.422c2.239-0.612,4.424-0.729,6.545-0.351
		c0.053,0.009,0.104,0.016,0.149,0.019l0.135,0.005c0.845,0,1.562-0.66,1.63-1.498c0.094-1.08-0.121-2.098-0.639-3.037
		c3.292,0.14,6.197,1.417,8.861,3.893c1.576,1.465,3.759,4.421,0.676,7.753c-0.524,0.568-1.139,0.925-1.874,1.089
		c-3.694,0.813-7.456,1.228-11.182,1.235c-4.973,0.01-9.987,1.159-15.105,2.482c0.02-0.057,0.039-0.114,0.055-0.172
		C92.772,90.285,93.945,89.36,94.916,88.991z M140.458,74.608c0.284,0.324,0.677,0.518,1.1,0.545
		c2.753,0.198,5.311,1.041,7.613,2.513l-0.629,0.772c-0.168,0.205-0.271,0.452-0.299,0.711c-0.037,0.357,0.066,0.708,0.293,0.987
		c0.228,0.279,0.549,0.454,0.907,0.491c4.048,0.414,8.015,1.696,11.804,3.812c-0.676,0.179-1.139,0.481-1.422,0.938
		c-0.354,0.59-0.346,1.277,0.028,1.894c0.214,0.346,0.562,0.635,1.028,0.858c2.357,1.126,4.645,1.831,6.854,2.511
		c1.277,0.393,2.595,0.798,3.896,1.279c-0.037,0.523,0.035,1.024,0.22,1.491c-3.097,0.156-5.897-0.035-9.681-0.667
		c-3.227-0.538-6.455-1.069-9.688-1.593c-1.249-0.203-2.47-0.248-3.65-0.291c-0.955-0.035-1.857-0.068-2.771-0.178
		c-2.567-0.309-5.185-0.539-7.779-0.684c-1.674-0.096-3.103-0.441-4.798-0.884c-2.123-0.553-3.647-1.627-4.661-3.284
		c-2.036-3.325-0.753-7.27,1.208-10.047l0.065,0.16c0.314,0.704,1.227,1.028,1.887,0.735c1.839-0.792,3.618-1.805,5.286-3.01
		c1.453-1.047,2.422-1.523,3.644-1.707l-0.449,0.512c-0.239,0.267-0.383,0.611-0.406,0.967
		C140.033,73.869,140.174,74.284,140.458,74.608z M137.865,92.216l0.025,0.991c2.323,0.106,4.472,0.146,6.551,0.124
		c1.691,0,3.711,5.304,4.201,8.077c0.742,4.196-0.499,7.394-3.795,9.776c-0.178,0.127-0.336,0.253-0.484,0.373
		c-0.576,0.462-0.711,0.5-1.189,0.416c-3.625-0.657-6.302-1.34-7.719-4.161c-1.997-3.971-1.834-8.02,0.498-12.382
		c0.387-0.722,1.19-2.224,1.913-2.224V92.216L137.865,92.216z M110.729,94.109c0.617-0.639,1.322-0.95,2.157-0.95
		c0.458,0,0.965,0.094,1.508,0.278c6.259,2.123,6.393,8.824,5.915,12.63c-0.37,2.96-3.334,4.918-5.984,5.762
		c-0.411,0.131-0.832,0.117-1.299-0.041c-4.49-1.513-6.69-4.226-6.727-8.293C106.27,100.483,107.885,97.062,110.729,94.109z
		 M102.711,94.938c1.351-0.407,2.68-0.815,3.975-1.225c-1.625,2.022-2.714,4.247-3.265,6.653c-0.234-1.734-0.533-3.478-0.897-5.231
		c-0.012-0.059-0.014-0.097-0.019-0.109C102.531,95.009,102.591,94.974,102.711,94.938z M104.05,109.335
		c1.122,2.018,3.037,3.365,4.729,4.224c-0.361,0.267-0.468,0.605-0.5,0.801c-0.046,0.289-0.01,0.725,0.425,1.167
		c0.243,0.244,0.578,0.385,0.92,0.385l0.127-0.006c1.46-0.141,2.949-0.404,4.425-0.781c3.301-0.84,8.539-3.694,9.441-8.116
		c0.766-3.76,0.398-7.333-1.092-10.62c-0.967-2.133-2.373-3.712-4.194-4.721c3.443-0.301,6.775-0.454,9.946-0.457
		c1.594,0,3.076,0.476,4.646,0.98c0.204,0.066,0.409,0.131,0.617,0.197c-1.109,2.072-1.924,4.291-2.427,6.607
		c-0.886,4.1-0.166,7.887,2.14,11.255c1.332,1.947,3.141,3.203,5.38,3.733c2.559,0.6,5.447,1.063,8.591,1.378l0.128,0.006
		c0.28,0,0.563-0.08,0.841-0.239c0.711-0.411,0.771-0.952,0.745-1.237c-0.026-0.285-0.188-0.804-0.962-1.076l-0.303-0.105
		c4.894-4.314,5.938-9.717,3.1-16.081c-0.425-0.951-0.909-1.941-1.443-2.958c2.621,0.468,5.103,0.914,7.562,1.573
		c5.354,1.437,11.078,3.44,17.006,5.954c0.45,0.192,0.462,0.231,0.536,0.482c0.566,1.929,0.923,3.918,1.059,5.928l-0.732-0.227
		c-0.35-0.106-0.725-0.095-1.071,0.033c-0.864,0.322-1.306,1.288-0.981,2.155c0.096,0.251,0.198,0.498,0.301,0.743
		c0.262,0.622,0.508,1.208,0.553,1.79c0.154,1.907-0.13,3.799-0.85,5.637c-0.396-0.488-0.879-0.899-1.441-1.229
		c-0.248-0.145-0.532-0.222-0.855-0.222h-0.002c-0.438,0.01-0.844,0.189-1.145,0.504s-0.461,0.728-0.451,1.157
		c0.016,0.933-0.141,2.009-0.505,3.227l-1.997-0.344c-0.085-0.015-0.18-0.022-0.343-0.021c-0.862,0.043-1.528,0.779-1.485,1.641
		l0.026,0.51c0.138,2.605,0.344,6.527-0.987,8.399c-0.27-0.072-0.531-0.16-0.786-0.263c0.128-0.198,0.22-0.417,0.272-0.651
		c0.16-0.625-0.09-1.22-0.668-1.561c-0.412-0.232-0.823-0.322-1.153-0.396c-0.219-0.048-0.407-0.089-0.555-0.161
		c-1.349-0.642-2.775-1.075-4.231-1.287l0.11-0.699c0.075-0.853-0.556-1.61-1.415-1.688l-4.912-0.417
		c-0.023-0.087-0.039-0.179-0.046-0.276c-0.067-0.948-0.708-1.372-1.312-1.372c-0.246,0-0.492,0.064-0.746,0.193
		c-2.102,1.04-4.369,1.86-6.68,2.447c-2.292-1.402-4.321-2.22-6.003-2.427l-0.186-0.014c-0.704,0-1.269,0.549-1.286,1.242
		c-0.029,0.886,0.495,1.573,1.366,1.793c1.354,0.341,2.757,0.936,4.168,1.765c0.88,0.522,0.882,1.006,0.588,1.666
		c-0.679,1.52-1.838,2.259-3.544,2.259c-1.471,0-2.971-0.548-3.97-1.008c-0.861-0.397-2.163-0.998-3.437-0.998
		c-0.614,0-1.163,0.141-1.631,0.421c-3.066,1.835-5.876,3.957-8.593,6.009c-0.675,0.51-1.353,1.021-2.038,1.532
		c-1.352,1.007-2.855,1.853-4.308,2.669l-0.538,0.303c-1.714,0.967-4.188,1.321-7.306,1.051c-1.372-0.122-3.257-0.956-4.208-2.315
		c-0.495-0.708-0.642-1.453-0.438-2.213c1.057-3.909,3.071-7.307,5.988-10.1c5.72-5.472,11.625-8.512,17.554-9.035l0.208-0.037
		c0.333-0.087,0.613-0.298,0.787-0.596c0.174-0.297,0.221-0.645,0.135-0.97l-0.05-0.197c-0.161-0.64-0.733-1.086-1.393-1.086
		c-0.111,0-0.222,0.013-0.322,0.037c-0.704,0.16-1.403,0.302-2.097,0.443c-2.263,0.461-4.602,0.937-6.849,1.984
		c-2.519,1.175-4.867,2.925-7.139,4.619l-1.054,0.783c-0.899,0.659-2.171,1.324-2.987,1.324c-0.086,0-0.164-0.008-0.231-0.022
		c-0.068-0.356-0.06-0.717,0.024-1.098C103.589,118.58,104.068,114.007,104.05,109.335z M126.69,145.433l-0.054,1.033
		c-1.178-0.016-2.662-0.397-3.166-1.026c-0.151-0.188-0.189-0.383-0.124-0.664c0.016-0.026,0.043-0.03,0.051-0.03l0.024,0.008
		C124.441,145.319,125.527,145.553,126.69,145.433z M137.767,143.828l2.945-1.039c0.483,0.633,0.867,1.381,1.269,2.164
		c0.138,0.269,0.274,0.535,0.412,0.787c-1.303,0.514-2.739,0.836-4.27,0.958c-1.529,0.124-2.513-0.394-3.043-1.692
		C136.056,144.925,136.955,144.533,137.767,143.828z M149.813,136.652c-0.83,0.624-1.74,0.857-2.715,0.733
		c-0.593-0.079-1.165-0.002-1.708,0.223c-0.918,0.384-1.782,0.628-2.572,0.727c-1.528,0.195-2.577,0.972-3.48,1.778
		c-1.615,0.366-3.14,1-4.523,1.877c-0.529,0.023-1.003,0.114-1.462,0.202c-0.593,0.114-1.112,0.224-1.657,0.126
		c-0.664-0.119-1.449-0.24-2.246-0.24c-0.882,0-1.718,0.148-2.56,0.455c-0.008,0.004-0.089,0.031-0.29,0.031
		c-0.681,0-1.771-0.309-2.5-0.595c-0.734-0.285-1.583-0.194-2.231,0.234l-0.708,0.464c-0.396-1.208-1.139-2.178-2.215-2.896
		c2.812-2.201,5.737-4.38,8.706-6.486c0.422-0.301,0.893-0.564,1.39-0.779c0.589,0.198,1.166,0.467,1.774,0.75
		c0.681,0.317,1.384,0.645,2.141,0.886c1.093,0.35,2.248,0.645,3.429,0.875c0.229,0.045,0.468,0.069,0.709,0.069
		c2.011,0,4.008-1.614,5.106-2.994c1.125-1.41,1.563-2.844,1.306-4.268l3.478-1.268c0.167,0.197,0.377,0.354,0.618,0.462
		c0.421,0.188,0.945,0.307,1.607,0.366c0.902,0.075,1.838,0.132,2.801,0.17c-0.311,0.426-0.385,0.85-0.219,1.264
		c0.146,0.367,0.523,0.804,1.557,0.804h0.001c1.067-0.021,1.959-0.011,2.983,0.329c0.703,0.235,1.42,0.419,2.138,0.549
		c-0.084,0.135-0.147,0.283-0.192,0.441c-0.23,0.868,0.286,1.764,1.156,1.998l0.773,0.206c-0.023,0.124-0.033,0.249-0.028,0.372
		c0.022,0.553,0.325,1.027,0.791,1.287l-2.542-0.725c-0.975-0.283-2.061,0.12-2.612,0.963l-0.651,0.985
		C153.348,135.172,151.498,135.387,149.813,136.652z M115.597,142.008c0.253-0.148,0.506-0.295,0.762-0.442
		c0.278,0.565,0.494,1.15,0.646,1.76c-0.878-0.058-1.784-0.088-2.7-0.088c-0.307,0-0.617,0.004-0.931,0.012
		C114.136,142.86,114.873,142.43,115.597,142.008z M161.705,135.016c0.037,0.002,0.09,0.009,0.106,0.003l0.159-0.003
		c0.242,0,0.47,0.026,0.674,0.076c0.064,0.108,0.132,0.216,0.201,0.323c-0.236-0.117-0.48-0.212-0.729-0.281L161.705,135.016z
		 M182.957,105.18c-1.439,1.152-2.799,2.47-4.059,3.938c-0.061-2.186-0.345-4.236-0.852-6.125L182.957,105.18z M126.155,87.944
		l-2.274,0.073c0.444-0.477,0.887-1.016,1.132-1.676c0.026-0.069,0.051-0.14,0.075-0.212
		C125.38,86.803,125.76,87.389,126.155,87.944z M101.238,127.24c-1.895,2.383-3.359,5.114-4.363,8.14
		c-0.733,2.213-0.376,4.25,1.062,6.055c0.966,1.21,2.091,2.104,3.36,2.67c-0.369,0.057-0.738,0.113-1.107,0.172
		c-2.56,0.406-4.53,0.686-5.856,0.825c-2.514,0.267-5.055,0.604-7.562,1.008c0.268-0.79,0.587-1.577,0.953-2.348
		c2.01-4.232,4.064-8.389,7.078-12.71c1.483-2.126,2.968-4.38,4.437-6.734c-0.006,0.746,0.159,1.514,0.584,2.084
		C100.175,126.875,100.67,127.166,101.238,127.24z M146.03,18.528c0.882-0.651,1.908-0.98,3.054-0.98
		c1.91,0,4.252,0.946,6.422,2.596c3.291,2.499,6.188,4.397,8.613,5.641c3.709,1.914,7.727,2.159,10.813,2.159
		c0.566,0,1.139-0.009,1.716-0.024c2.192-0.06,4.556-0.422,7.021-1.076c2.998-0.797,5.945-1.726,8.766-2.761
		c1.754-0.645,3.425-0.875,4.884-0.668c1.812,0.255,3.784,2.549,4.574,4.527c1.245,3.129,1.829,6.629,1.737,10.404
		c-0.24,9.694-0.699,22.42-2.131,34.884c-0.236,2.041-0.426,4.13-0.563,6.225c-0.457-0.445-0.884-0.94-1.276-1.479
		c-4.109-5.654-8.604-10.531-13.365-15.694c-0.836-0.907-1.678-1.819-2.522-2.744c-4.253-4.647-10.163-10.242-17.565-16.629
		c-7.734-6.673-16.474-12.447-25.976-17.166C141.478,22.874,143.43,20.447,146.03,18.528z"/>
	<path d="M80.129,53.638c-0.249-0.626-0.85-0.837-1.52-0.479c-0.395,0.208-0.757,0.443-1.075,0.698
		c-1.983,1.579-4.074,3.346-6.217,5.253c-0.978,0.872-1.683,1.571-2.155,2.136c-0.162,0.19-0.271,0.192-0.307,0.192
		c-0.076-0.002-0.165-0.031-0.265-0.087l-2.376-1.36c-0.039-0.022-0.067-0.042-0.088-0.058c0.018-0.021,0.043-0.046,0.077-0.076
		l0.318-0.275c0.805-0.69,1.906-1.635,2.029-2.75c0.02-0.149-0.006-0.298-0.072-0.429c-0.179-0.358-0.645-0.514-0.999-0.337
		c-1.117,0.549-2.09,1.414-2.891,2.566c-0.257,0.366-0.766,0.501-1.167,0.301c-0.987-0.488-2.073-0.812-3.229-0.962
		c-0.58-0.08-1.011,0.182-1.231,0.673c-0.044,0.089-0.077,0.185-0.09,0.261c-0.115,0.48,0.166,0.964,0.634,1.099l2.839,0.864
		c0.009,0.002,0.018,0.005,0.025,0.008c-0.005,0.006-0.011,0.013-0.017,0.02l-2.063,2.418c-0.332,0.384-0.462,0.247-0.678,0.155
		c-0.89-0.381-1.864-0.575-2.894-0.575c-0.404,0-0.713,0.229-0.827,0.609c-0.167,0.54,0.086,1.013,0.68,1.266
		c0.667,0.279,1.33,0.468,1.942,0.514l-0.451,1.06c-0.137,0.315-0.076,0.549-0.001,0.689c0.075,0.14,0.234,0.32,0.566,0.381
		c0.93,0.184,1.398-0.447,1.759-0.93c0.434-0.581,0.675-0.768,1.309-0.491c0.713,0.314,1.106,0.227,1.304-0.127
		c0.198-0.354,0.003-0.762-0.214-1.116c-0.126-0.206-0.24-0.421-0.34-0.647c0.85-0.852,1.535-1.672,2.036-2.436
		c0.045-0.068,0.076-0.088,0.076-0.09c0.007,0,0.044,0.005,0.117,0.047l2.744,1.585c-1.315,1.37-2.628,2.917-3.906,4.6
		c-0.215,0.285-0.403,0.584-0.559,0.89c-0.253,0.495-0.17,0.979,0.28,1.371c0.189,0.145,0.415,0.221,0.652,0.221
		c0.339,0,0.65-0.154,0.854-0.421c4.175-5.415,9.257-10.51,15.107-15.146C80.167,54.462,80.283,54.015,80.129,53.638z"/>
</g>
</svg>
